G04 #@! TF.GenerationSoftware,KiCad,Pcbnew,(5.1.8)-1*
G04 #@! TF.CreationDate,2021-01-08T15:15:04-05:00*
G04 #@! TF.ProjectId,backplane,6261636b-706c-4616-9e65-2e6b69636164,rev?*
G04 #@! TF.SameCoordinates,Original*
G04 #@! TF.FileFunction,Copper,L1,Top*
G04 #@! TF.FilePolarity,Positive*
%FSLAX46Y46*%
G04 Gerber Fmt 4.6, Leading zero omitted, Abs format (unit mm)*
G04 Created by KiCad (PCBNEW (5.1.8)-1) date 2021-01-08 15:15:04*
%MOMM*%
%LPD*%
G01*
G04 APERTURE LIST*
G04 #@! TA.AperFunction,ConnectorPad*
%ADD10C,6.000000*%
G04 #@! TD*
G04 #@! TA.AperFunction,ComponentPad*
%ADD11C,3.400000*%
G04 #@! TD*
G04 #@! TA.AperFunction,ComponentPad*
%ADD12O,1.700000X1.700000*%
G04 #@! TD*
G04 #@! TA.AperFunction,ComponentPad*
%ADD13R,1.700000X1.700000*%
G04 #@! TD*
G04 #@! TA.AperFunction,Conductor*
%ADD14C,0.250000*%
G04 #@! TD*
G04 #@! TA.AperFunction,Conductor*
%ADD15C,0.254000*%
G04 #@! TD*
G04 #@! TA.AperFunction,Conductor*
%ADD16C,0.100000*%
G04 #@! TD*
G04 APERTURE END LIST*
D10*
G04 #@! TO.P,H4,1*
G04 #@! TO.N,N/C*
X117415000Y-138109000D03*
D11*
X117415000Y-138109000D03*
G04 #@! TD*
D10*
G04 #@! TO.P,H3,1*
G04 #@! TO.N,N/C*
X261045000Y-40453000D03*
D11*
X261045000Y-40453000D03*
G04 #@! TD*
D10*
G04 #@! TO.P,H2,1*
G04 #@! TO.N,N/C*
X116646000Y-40326000D03*
D11*
X116646000Y-40326000D03*
G04 #@! TD*
D10*
G04 #@! TO.P,H1,1*
G04 #@! TO.N,N/C*
X261045000Y-137227000D03*
D11*
X261045000Y-137227000D03*
G04 #@! TD*
D12*
G04 #@! TO.P,J10,72*
G04 #@! TO.N,/B72*
X226060000Y-139700000D03*
G04 #@! TO.P,J10,71*
G04 #@! TO.N,/B71*
X228600000Y-139700000D03*
G04 #@! TO.P,J10,70*
G04 #@! TO.N,/B70*
X226060000Y-137160000D03*
G04 #@! TO.P,J10,69*
G04 #@! TO.N,/B69*
X228600000Y-137160000D03*
G04 #@! TO.P,J10,68*
G04 #@! TO.N,/B68*
X226060000Y-134620000D03*
G04 #@! TO.P,J10,67*
G04 #@! TO.N,/B67*
X228600000Y-134620000D03*
G04 #@! TO.P,J10,66*
G04 #@! TO.N,/B66*
X226060000Y-132080000D03*
G04 #@! TO.P,J10,65*
G04 #@! TO.N,/B65*
X228600000Y-132080000D03*
G04 #@! TO.P,J10,64*
G04 #@! TO.N,/B64*
X226060000Y-129540000D03*
G04 #@! TO.P,J10,63*
G04 #@! TO.N,/B63*
X228600000Y-129540000D03*
G04 #@! TO.P,J10,62*
G04 #@! TO.N,/B62*
X226060000Y-127000000D03*
G04 #@! TO.P,J10,61*
G04 #@! TO.N,/B61*
X228600000Y-127000000D03*
G04 #@! TO.P,J10,60*
G04 #@! TO.N,/B60*
X226060000Y-124460000D03*
G04 #@! TO.P,J10,59*
G04 #@! TO.N,/A2CS*
X228600000Y-124460000D03*
G04 #@! TO.P,J10,58*
G04 #@! TO.N,/A2OE*
X226060000Y-121920000D03*
G04 #@! TO.P,J10,57*
G04 #@! TO.N,/A2WE*
X228600000Y-121920000D03*
G04 #@! TO.P,J10,56*
G04 #@! TO.N,/B56*
X226060000Y-119380000D03*
G04 #@! TO.P,J10,55*
G04 #@! TO.N,/B55*
X228600000Y-119380000D03*
G04 #@! TO.P,J10,54*
G04 #@! TO.N,/B54*
X226060000Y-116840000D03*
G04 #@! TO.P,J10,53*
G04 #@! TO.N,/A1CS*
X228600000Y-116840000D03*
G04 #@! TO.P,J10,52*
G04 #@! TO.N,/A1OE*
X226060000Y-114300000D03*
G04 #@! TO.P,J10,51*
G04 #@! TO.N,/A1WE*
X228600000Y-114300000D03*
G04 #@! TO.P,J10,50*
G04 #@! TO.N,/B50*
X226060000Y-111760000D03*
G04 #@! TO.P,J10,49*
G04 #@! TO.N,/B49*
X228600000Y-111760000D03*
G04 #@! TO.P,J10,48*
G04 #@! TO.N,/B48*
X226060000Y-109220000D03*
G04 #@! TO.P,J10,47*
G04 #@! TO.N,/OCS*
X228600000Y-109220000D03*
G04 #@! TO.P,J10,46*
G04 #@! TO.N,/OOE*
X226060000Y-106680000D03*
G04 #@! TO.P,J10,45*
G04 #@! TO.N,/OWE*
X228600000Y-106680000D03*
G04 #@! TO.P,J10,44*
G04 #@! TO.N,/B44*
X226060000Y-104140000D03*
G04 #@! TO.P,J10,43*
G04 #@! TO.N,/B43*
X228600000Y-104140000D03*
G04 #@! TO.P,J10,42*
G04 #@! TO.N,/B42*
X226060000Y-101600000D03*
G04 #@! TO.P,J10,41*
G04 #@! TO.N,/CLK*
X228600000Y-101600000D03*
G04 #@! TO.P,J10,40*
G04 #@! TO.N,/NMI*
X226060000Y-99060000D03*
G04 #@! TO.P,J10,39*
G04 #@! TO.N,/INT*
X228600000Y-99060000D03*
G04 #@! TO.P,J10,38*
G04 #@! TO.N,/M1*
X226060000Y-96520000D03*
G04 #@! TO.P,J10,37*
G04 #@! TO.N,/RFSH*
X228600000Y-96520000D03*
G04 #@! TO.P,J10,36*
G04 #@! TO.N,/WAIT*
X226060000Y-93980000D03*
G04 #@! TO.P,J10,35*
G04 #@! TO.N,/HALT*
X228600000Y-93980000D03*
G04 #@! TO.P,J10,34*
G04 #@! TO.N,/RD*
X226060000Y-91440000D03*
G04 #@! TO.P,J10,33*
G04 #@! TO.N,/WR*
X228600000Y-91440000D03*
G04 #@! TO.P,J10,32*
G04 #@! TO.N,/MREQ*
X226060000Y-88900000D03*
G04 #@! TO.P,J10,31*
G04 #@! TO.N,/IORQ*
X228600000Y-88900000D03*
G04 #@! TO.P,J10,30*
G04 #@! TO.N,/BUSRQ*
X226060000Y-86360000D03*
G04 #@! TO.P,J10,29*
G04 #@! TO.N,/BUSACK*
X228600000Y-86360000D03*
G04 #@! TO.P,J10,28*
G04 #@! TO.N,/B28*
X226060000Y-83820000D03*
G04 #@! TO.P,J10,27*
G04 #@! TO.N,/B27*
X228600000Y-83820000D03*
G04 #@! TO.P,J10,26*
G04 #@! TO.N,/D7*
X226060000Y-81280000D03*
G04 #@! TO.P,J10,25*
G04 #@! TO.N,/D6*
X228600000Y-81280000D03*
G04 #@! TO.P,J10,24*
G04 #@! TO.N,/D5*
X226060000Y-78740000D03*
G04 #@! TO.P,J10,23*
G04 #@! TO.N,/D4*
X228600000Y-78740000D03*
G04 #@! TO.P,J10,22*
G04 #@! TO.N,/D3*
X226060000Y-76200000D03*
G04 #@! TO.P,J10,21*
G04 #@! TO.N,/D2*
X228600000Y-76200000D03*
G04 #@! TO.P,J10,20*
G04 #@! TO.N,/D1*
X226060000Y-73660000D03*
G04 #@! TO.P,J10,19*
G04 #@! TO.N,/D0*
X228600000Y-73660000D03*
G04 #@! TO.P,J10,18*
G04 #@! TO.N,/B18*
X226060000Y-71120000D03*
G04 #@! TO.P,J10,17*
G04 #@! TO.N,/B17*
X228600000Y-71120000D03*
G04 #@! TO.P,J10,16*
G04 #@! TO.N,/A15*
X226060000Y-68580000D03*
G04 #@! TO.P,J10,15*
G04 #@! TO.N,/A14*
X228600000Y-68580000D03*
G04 #@! TO.P,J10,14*
G04 #@! TO.N,/A13*
X226060000Y-66040000D03*
G04 #@! TO.P,J10,13*
G04 #@! TO.N,/A12*
X228600000Y-66040000D03*
G04 #@! TO.P,J10,12*
G04 #@! TO.N,/A11*
X226060000Y-63500000D03*
G04 #@! TO.P,J10,11*
G04 #@! TO.N,/A10*
X228600000Y-63500000D03*
G04 #@! TO.P,J10,10*
G04 #@! TO.N,/A9*
X226060000Y-60960000D03*
G04 #@! TO.P,J10,9*
G04 #@! TO.N,/A8*
X228600000Y-60960000D03*
G04 #@! TO.P,J10,8*
G04 #@! TO.N,/A7*
X226060000Y-58420000D03*
G04 #@! TO.P,J10,7*
G04 #@! TO.N,/A6*
X228600000Y-58420000D03*
G04 #@! TO.P,J10,6*
G04 #@! TO.N,/A5*
X226060000Y-55880000D03*
G04 #@! TO.P,J10,5*
G04 #@! TO.N,/A4*
X228600000Y-55880000D03*
G04 #@! TO.P,J10,4*
G04 #@! TO.N,/A3*
X226060000Y-53340000D03*
G04 #@! TO.P,J10,3*
G04 #@! TO.N,/A2*
X228600000Y-53340000D03*
G04 #@! TO.P,J10,2*
G04 #@! TO.N,/A1*
X226060000Y-50800000D03*
D13*
G04 #@! TO.P,J10,1*
G04 #@! TO.N,/A0*
X228600000Y-50800000D03*
G04 #@! TD*
D12*
G04 #@! TO.P,J8,72*
G04 #@! TO.N,/B72*
X200660000Y-139700000D03*
G04 #@! TO.P,J8,71*
G04 #@! TO.N,/B71*
X203200000Y-139700000D03*
G04 #@! TO.P,J8,70*
G04 #@! TO.N,/B70*
X200660000Y-137160000D03*
G04 #@! TO.P,J8,69*
G04 #@! TO.N,/B69*
X203200000Y-137160000D03*
G04 #@! TO.P,J8,68*
G04 #@! TO.N,/B68*
X200660000Y-134620000D03*
G04 #@! TO.P,J8,67*
G04 #@! TO.N,/B67*
X203200000Y-134620000D03*
G04 #@! TO.P,J8,66*
G04 #@! TO.N,/B66*
X200660000Y-132080000D03*
G04 #@! TO.P,J8,65*
G04 #@! TO.N,/B65*
X203200000Y-132080000D03*
G04 #@! TO.P,J8,64*
G04 #@! TO.N,/B64*
X200660000Y-129540000D03*
G04 #@! TO.P,J8,63*
G04 #@! TO.N,/B63*
X203200000Y-129540000D03*
G04 #@! TO.P,J8,62*
G04 #@! TO.N,/B62*
X200660000Y-127000000D03*
G04 #@! TO.P,J8,61*
G04 #@! TO.N,/B61*
X203200000Y-127000000D03*
G04 #@! TO.P,J8,60*
G04 #@! TO.N,/B60*
X200660000Y-124460000D03*
G04 #@! TO.P,J8,59*
G04 #@! TO.N,/A2CS*
X203200000Y-124460000D03*
G04 #@! TO.P,J8,58*
G04 #@! TO.N,/A2OE*
X200660000Y-121920000D03*
G04 #@! TO.P,J8,57*
G04 #@! TO.N,/A2WE*
X203200000Y-121920000D03*
G04 #@! TO.P,J8,56*
G04 #@! TO.N,/B56*
X200660000Y-119380000D03*
G04 #@! TO.P,J8,55*
G04 #@! TO.N,/B55*
X203200000Y-119380000D03*
G04 #@! TO.P,J8,54*
G04 #@! TO.N,/B54*
X200660000Y-116840000D03*
G04 #@! TO.P,J8,53*
G04 #@! TO.N,/A1CS*
X203200000Y-116840000D03*
G04 #@! TO.P,J8,52*
G04 #@! TO.N,/A1OE*
X200660000Y-114300000D03*
G04 #@! TO.P,J8,51*
G04 #@! TO.N,/A1WE*
X203200000Y-114300000D03*
G04 #@! TO.P,J8,50*
G04 #@! TO.N,/B50*
X200660000Y-111760000D03*
G04 #@! TO.P,J8,49*
G04 #@! TO.N,/B49*
X203200000Y-111760000D03*
G04 #@! TO.P,J8,48*
G04 #@! TO.N,/B48*
X200660000Y-109220000D03*
G04 #@! TO.P,J8,47*
G04 #@! TO.N,/OCS*
X203200000Y-109220000D03*
G04 #@! TO.P,J8,46*
G04 #@! TO.N,/OOE*
X200660000Y-106680000D03*
G04 #@! TO.P,J8,45*
G04 #@! TO.N,/OWE*
X203200000Y-106680000D03*
G04 #@! TO.P,J8,44*
G04 #@! TO.N,/B44*
X200660000Y-104140000D03*
G04 #@! TO.P,J8,43*
G04 #@! TO.N,/B43*
X203200000Y-104140000D03*
G04 #@! TO.P,J8,42*
G04 #@! TO.N,/B42*
X200660000Y-101600000D03*
G04 #@! TO.P,J8,41*
G04 #@! TO.N,/CLK*
X203200000Y-101600000D03*
G04 #@! TO.P,J8,40*
G04 #@! TO.N,/NMI*
X200660000Y-99060000D03*
G04 #@! TO.P,J8,39*
G04 #@! TO.N,/INT*
X203200000Y-99060000D03*
G04 #@! TO.P,J8,38*
G04 #@! TO.N,/M1*
X200660000Y-96520000D03*
G04 #@! TO.P,J8,37*
G04 #@! TO.N,/RFSH*
X203200000Y-96520000D03*
G04 #@! TO.P,J8,36*
G04 #@! TO.N,/WAIT*
X200660000Y-93980000D03*
G04 #@! TO.P,J8,35*
G04 #@! TO.N,/HALT*
X203200000Y-93980000D03*
G04 #@! TO.P,J8,34*
G04 #@! TO.N,/RD*
X200660000Y-91440000D03*
G04 #@! TO.P,J8,33*
G04 #@! TO.N,/WR*
X203200000Y-91440000D03*
G04 #@! TO.P,J8,32*
G04 #@! TO.N,/MREQ*
X200660000Y-88900000D03*
G04 #@! TO.P,J8,31*
G04 #@! TO.N,/IORQ*
X203200000Y-88900000D03*
G04 #@! TO.P,J8,30*
G04 #@! TO.N,/BUSRQ*
X200660000Y-86360000D03*
G04 #@! TO.P,J8,29*
G04 #@! TO.N,/BUSACK*
X203200000Y-86360000D03*
G04 #@! TO.P,J8,28*
G04 #@! TO.N,/B28*
X200660000Y-83820000D03*
G04 #@! TO.P,J8,27*
G04 #@! TO.N,/B27*
X203200000Y-83820000D03*
G04 #@! TO.P,J8,26*
G04 #@! TO.N,/D7*
X200660000Y-81280000D03*
G04 #@! TO.P,J8,25*
G04 #@! TO.N,/D6*
X203200000Y-81280000D03*
G04 #@! TO.P,J8,24*
G04 #@! TO.N,/D5*
X200660000Y-78740000D03*
G04 #@! TO.P,J8,23*
G04 #@! TO.N,/D4*
X203200000Y-78740000D03*
G04 #@! TO.P,J8,22*
G04 #@! TO.N,/D3*
X200660000Y-76200000D03*
G04 #@! TO.P,J8,21*
G04 #@! TO.N,/D2*
X203200000Y-76200000D03*
G04 #@! TO.P,J8,20*
G04 #@! TO.N,/D1*
X200660000Y-73660000D03*
G04 #@! TO.P,J8,19*
G04 #@! TO.N,/D0*
X203200000Y-73660000D03*
G04 #@! TO.P,J8,18*
G04 #@! TO.N,/B18*
X200660000Y-71120000D03*
G04 #@! TO.P,J8,17*
G04 #@! TO.N,/B17*
X203200000Y-71120000D03*
G04 #@! TO.P,J8,16*
G04 #@! TO.N,/A15*
X200660000Y-68580000D03*
G04 #@! TO.P,J8,15*
G04 #@! TO.N,/A14*
X203200000Y-68580000D03*
G04 #@! TO.P,J8,14*
G04 #@! TO.N,/A13*
X200660000Y-66040000D03*
G04 #@! TO.P,J8,13*
G04 #@! TO.N,/A12*
X203200000Y-66040000D03*
G04 #@! TO.P,J8,12*
G04 #@! TO.N,/A11*
X200660000Y-63500000D03*
G04 #@! TO.P,J8,11*
G04 #@! TO.N,/A10*
X203200000Y-63500000D03*
G04 #@! TO.P,J8,10*
G04 #@! TO.N,/A9*
X200660000Y-60960000D03*
G04 #@! TO.P,J8,9*
G04 #@! TO.N,/A8*
X203200000Y-60960000D03*
G04 #@! TO.P,J8,8*
G04 #@! TO.N,/A7*
X200660000Y-58420000D03*
G04 #@! TO.P,J8,7*
G04 #@! TO.N,/A6*
X203200000Y-58420000D03*
G04 #@! TO.P,J8,6*
G04 #@! TO.N,/A5*
X200660000Y-55880000D03*
G04 #@! TO.P,J8,5*
G04 #@! TO.N,/A4*
X203200000Y-55880000D03*
G04 #@! TO.P,J8,4*
G04 #@! TO.N,/A3*
X200660000Y-53340000D03*
G04 #@! TO.P,J8,3*
G04 #@! TO.N,/A2*
X203200000Y-53340000D03*
G04 #@! TO.P,J8,2*
G04 #@! TO.N,/A1*
X200660000Y-50800000D03*
D13*
G04 #@! TO.P,J8,1*
G04 #@! TO.N,/A0*
X203200000Y-50800000D03*
G04 #@! TD*
D12*
G04 #@! TO.P,J6,72*
G04 #@! TO.N,/B72*
X175260000Y-139700000D03*
G04 #@! TO.P,J6,71*
G04 #@! TO.N,/B71*
X177800000Y-139700000D03*
G04 #@! TO.P,J6,70*
G04 #@! TO.N,/B70*
X175260000Y-137160000D03*
G04 #@! TO.P,J6,69*
G04 #@! TO.N,/B69*
X177800000Y-137160000D03*
G04 #@! TO.P,J6,68*
G04 #@! TO.N,/B68*
X175260000Y-134620000D03*
G04 #@! TO.P,J6,67*
G04 #@! TO.N,/B67*
X177800000Y-134620000D03*
G04 #@! TO.P,J6,66*
G04 #@! TO.N,/B66*
X175260000Y-132080000D03*
G04 #@! TO.P,J6,65*
G04 #@! TO.N,/B65*
X177800000Y-132080000D03*
G04 #@! TO.P,J6,64*
G04 #@! TO.N,/B64*
X175260000Y-129540000D03*
G04 #@! TO.P,J6,63*
G04 #@! TO.N,/B63*
X177800000Y-129540000D03*
G04 #@! TO.P,J6,62*
G04 #@! TO.N,/B62*
X175260000Y-127000000D03*
G04 #@! TO.P,J6,61*
G04 #@! TO.N,/B61*
X177800000Y-127000000D03*
G04 #@! TO.P,J6,60*
G04 #@! TO.N,/B60*
X175260000Y-124460000D03*
G04 #@! TO.P,J6,59*
G04 #@! TO.N,/A2CS*
X177800000Y-124460000D03*
G04 #@! TO.P,J6,58*
G04 #@! TO.N,/A2OE*
X175260000Y-121920000D03*
G04 #@! TO.P,J6,57*
G04 #@! TO.N,/A2WE*
X177800000Y-121920000D03*
G04 #@! TO.P,J6,56*
G04 #@! TO.N,/B56*
X175260000Y-119380000D03*
G04 #@! TO.P,J6,55*
G04 #@! TO.N,/B55*
X177800000Y-119380000D03*
G04 #@! TO.P,J6,54*
G04 #@! TO.N,/B54*
X175260000Y-116840000D03*
G04 #@! TO.P,J6,53*
G04 #@! TO.N,/A1CS*
X177800000Y-116840000D03*
G04 #@! TO.P,J6,52*
G04 #@! TO.N,/A1OE*
X175260000Y-114300000D03*
G04 #@! TO.P,J6,51*
G04 #@! TO.N,/A1WE*
X177800000Y-114300000D03*
G04 #@! TO.P,J6,50*
G04 #@! TO.N,/B50*
X175260000Y-111760000D03*
G04 #@! TO.P,J6,49*
G04 #@! TO.N,/B49*
X177800000Y-111760000D03*
G04 #@! TO.P,J6,48*
G04 #@! TO.N,/B48*
X175260000Y-109220000D03*
G04 #@! TO.P,J6,47*
G04 #@! TO.N,/OCS*
X177800000Y-109220000D03*
G04 #@! TO.P,J6,46*
G04 #@! TO.N,/OOE*
X175260000Y-106680000D03*
G04 #@! TO.P,J6,45*
G04 #@! TO.N,/OWE*
X177800000Y-106680000D03*
G04 #@! TO.P,J6,44*
G04 #@! TO.N,/B44*
X175260000Y-104140000D03*
G04 #@! TO.P,J6,43*
G04 #@! TO.N,/B43*
X177800000Y-104140000D03*
G04 #@! TO.P,J6,42*
G04 #@! TO.N,/B42*
X175260000Y-101600000D03*
G04 #@! TO.P,J6,41*
G04 #@! TO.N,/CLK*
X177800000Y-101600000D03*
G04 #@! TO.P,J6,40*
G04 #@! TO.N,/NMI*
X175260000Y-99060000D03*
G04 #@! TO.P,J6,39*
G04 #@! TO.N,/INT*
X177800000Y-99060000D03*
G04 #@! TO.P,J6,38*
G04 #@! TO.N,/M1*
X175260000Y-96520000D03*
G04 #@! TO.P,J6,37*
G04 #@! TO.N,/RFSH*
X177800000Y-96520000D03*
G04 #@! TO.P,J6,36*
G04 #@! TO.N,/WAIT*
X175260000Y-93980000D03*
G04 #@! TO.P,J6,35*
G04 #@! TO.N,/HALT*
X177800000Y-93980000D03*
G04 #@! TO.P,J6,34*
G04 #@! TO.N,/RD*
X175260000Y-91440000D03*
G04 #@! TO.P,J6,33*
G04 #@! TO.N,/WR*
X177800000Y-91440000D03*
G04 #@! TO.P,J6,32*
G04 #@! TO.N,/MREQ*
X175260000Y-88900000D03*
G04 #@! TO.P,J6,31*
G04 #@! TO.N,/IORQ*
X177800000Y-88900000D03*
G04 #@! TO.P,J6,30*
G04 #@! TO.N,/BUSRQ*
X175260000Y-86360000D03*
G04 #@! TO.P,J6,29*
G04 #@! TO.N,/BUSACK*
X177800000Y-86360000D03*
G04 #@! TO.P,J6,28*
G04 #@! TO.N,/B28*
X175260000Y-83820000D03*
G04 #@! TO.P,J6,27*
G04 #@! TO.N,/B27*
X177800000Y-83820000D03*
G04 #@! TO.P,J6,26*
G04 #@! TO.N,/D7*
X175260000Y-81280000D03*
G04 #@! TO.P,J6,25*
G04 #@! TO.N,/D6*
X177800000Y-81280000D03*
G04 #@! TO.P,J6,24*
G04 #@! TO.N,/D5*
X175260000Y-78740000D03*
G04 #@! TO.P,J6,23*
G04 #@! TO.N,/D4*
X177800000Y-78740000D03*
G04 #@! TO.P,J6,22*
G04 #@! TO.N,/D3*
X175260000Y-76200000D03*
G04 #@! TO.P,J6,21*
G04 #@! TO.N,/D2*
X177800000Y-76200000D03*
G04 #@! TO.P,J6,20*
G04 #@! TO.N,/D1*
X175260000Y-73660000D03*
G04 #@! TO.P,J6,19*
G04 #@! TO.N,/D0*
X177800000Y-73660000D03*
G04 #@! TO.P,J6,18*
G04 #@! TO.N,/B18*
X175260000Y-71120000D03*
G04 #@! TO.P,J6,17*
G04 #@! TO.N,/B17*
X177800000Y-71120000D03*
G04 #@! TO.P,J6,16*
G04 #@! TO.N,/A15*
X175260000Y-68580000D03*
G04 #@! TO.P,J6,15*
G04 #@! TO.N,/A14*
X177800000Y-68580000D03*
G04 #@! TO.P,J6,14*
G04 #@! TO.N,/A13*
X175260000Y-66040000D03*
G04 #@! TO.P,J6,13*
G04 #@! TO.N,/A12*
X177800000Y-66040000D03*
G04 #@! TO.P,J6,12*
G04 #@! TO.N,/A11*
X175260000Y-63500000D03*
G04 #@! TO.P,J6,11*
G04 #@! TO.N,/A10*
X177800000Y-63500000D03*
G04 #@! TO.P,J6,10*
G04 #@! TO.N,/A9*
X175260000Y-60960000D03*
G04 #@! TO.P,J6,9*
G04 #@! TO.N,/A8*
X177800000Y-60960000D03*
G04 #@! TO.P,J6,8*
G04 #@! TO.N,/A7*
X175260000Y-58420000D03*
G04 #@! TO.P,J6,7*
G04 #@! TO.N,/A6*
X177800000Y-58420000D03*
G04 #@! TO.P,J6,6*
G04 #@! TO.N,/A5*
X175260000Y-55880000D03*
G04 #@! TO.P,J6,5*
G04 #@! TO.N,/A4*
X177800000Y-55880000D03*
G04 #@! TO.P,J6,4*
G04 #@! TO.N,/A3*
X175260000Y-53340000D03*
G04 #@! TO.P,J6,3*
G04 #@! TO.N,/A2*
X177800000Y-53340000D03*
G04 #@! TO.P,J6,2*
G04 #@! TO.N,/A1*
X175260000Y-50800000D03*
D13*
G04 #@! TO.P,J6,1*
G04 #@! TO.N,/A0*
X177800000Y-50800000D03*
G04 #@! TD*
D12*
G04 #@! TO.P,J4,72*
G04 #@! TO.N,/B72*
X149860000Y-139700000D03*
G04 #@! TO.P,J4,71*
G04 #@! TO.N,/B71*
X152400000Y-139700000D03*
G04 #@! TO.P,J4,70*
G04 #@! TO.N,/B70*
X149860000Y-137160000D03*
G04 #@! TO.P,J4,69*
G04 #@! TO.N,/B69*
X152400000Y-137160000D03*
G04 #@! TO.P,J4,68*
G04 #@! TO.N,/B68*
X149860000Y-134620000D03*
G04 #@! TO.P,J4,67*
G04 #@! TO.N,/B67*
X152400000Y-134620000D03*
G04 #@! TO.P,J4,66*
G04 #@! TO.N,/B66*
X149860000Y-132080000D03*
G04 #@! TO.P,J4,65*
G04 #@! TO.N,/B65*
X152400000Y-132080000D03*
G04 #@! TO.P,J4,64*
G04 #@! TO.N,/B64*
X149860000Y-129540000D03*
G04 #@! TO.P,J4,63*
G04 #@! TO.N,/B63*
X152400000Y-129540000D03*
G04 #@! TO.P,J4,62*
G04 #@! TO.N,/B62*
X149860000Y-127000000D03*
G04 #@! TO.P,J4,61*
G04 #@! TO.N,/B61*
X152400000Y-127000000D03*
G04 #@! TO.P,J4,60*
G04 #@! TO.N,/B60*
X149860000Y-124460000D03*
G04 #@! TO.P,J4,59*
G04 #@! TO.N,/A2CS*
X152400000Y-124460000D03*
G04 #@! TO.P,J4,58*
G04 #@! TO.N,/A2OE*
X149860000Y-121920000D03*
G04 #@! TO.P,J4,57*
G04 #@! TO.N,/A2WE*
X152400000Y-121920000D03*
G04 #@! TO.P,J4,56*
G04 #@! TO.N,/B56*
X149860000Y-119380000D03*
G04 #@! TO.P,J4,55*
G04 #@! TO.N,/B55*
X152400000Y-119380000D03*
G04 #@! TO.P,J4,54*
G04 #@! TO.N,/B54*
X149860000Y-116840000D03*
G04 #@! TO.P,J4,53*
G04 #@! TO.N,/A1CS*
X152400000Y-116840000D03*
G04 #@! TO.P,J4,52*
G04 #@! TO.N,/A1OE*
X149860000Y-114300000D03*
G04 #@! TO.P,J4,51*
G04 #@! TO.N,/A1WE*
X152400000Y-114300000D03*
G04 #@! TO.P,J4,50*
G04 #@! TO.N,/B50*
X149860000Y-111760000D03*
G04 #@! TO.P,J4,49*
G04 #@! TO.N,/B49*
X152400000Y-111760000D03*
G04 #@! TO.P,J4,48*
G04 #@! TO.N,/B48*
X149860000Y-109220000D03*
G04 #@! TO.P,J4,47*
G04 #@! TO.N,/OCS*
X152400000Y-109220000D03*
G04 #@! TO.P,J4,46*
G04 #@! TO.N,/OOE*
X149860000Y-106680000D03*
G04 #@! TO.P,J4,45*
G04 #@! TO.N,/OWE*
X152400000Y-106680000D03*
G04 #@! TO.P,J4,44*
G04 #@! TO.N,/B44*
X149860000Y-104140000D03*
G04 #@! TO.P,J4,43*
G04 #@! TO.N,/B43*
X152400000Y-104140000D03*
G04 #@! TO.P,J4,42*
G04 #@! TO.N,/B42*
X149860000Y-101600000D03*
G04 #@! TO.P,J4,41*
G04 #@! TO.N,/CLK*
X152400000Y-101600000D03*
G04 #@! TO.P,J4,40*
G04 #@! TO.N,/NMI*
X149860000Y-99060000D03*
G04 #@! TO.P,J4,39*
G04 #@! TO.N,/INT*
X152400000Y-99060000D03*
G04 #@! TO.P,J4,38*
G04 #@! TO.N,/M1*
X149860000Y-96520000D03*
G04 #@! TO.P,J4,37*
G04 #@! TO.N,/RFSH*
X152400000Y-96520000D03*
G04 #@! TO.P,J4,36*
G04 #@! TO.N,/WAIT*
X149860000Y-93980000D03*
G04 #@! TO.P,J4,35*
G04 #@! TO.N,/HALT*
X152400000Y-93980000D03*
G04 #@! TO.P,J4,34*
G04 #@! TO.N,/RD*
X149860000Y-91440000D03*
G04 #@! TO.P,J4,33*
G04 #@! TO.N,/WR*
X152400000Y-91440000D03*
G04 #@! TO.P,J4,32*
G04 #@! TO.N,/MREQ*
X149860000Y-88900000D03*
G04 #@! TO.P,J4,31*
G04 #@! TO.N,/IORQ*
X152400000Y-88900000D03*
G04 #@! TO.P,J4,30*
G04 #@! TO.N,/BUSRQ*
X149860000Y-86360000D03*
G04 #@! TO.P,J4,29*
G04 #@! TO.N,/BUSACK*
X152400000Y-86360000D03*
G04 #@! TO.P,J4,28*
G04 #@! TO.N,/B28*
X149860000Y-83820000D03*
G04 #@! TO.P,J4,27*
G04 #@! TO.N,/B27*
X152400000Y-83820000D03*
G04 #@! TO.P,J4,26*
G04 #@! TO.N,/D7*
X149860000Y-81280000D03*
G04 #@! TO.P,J4,25*
G04 #@! TO.N,/D6*
X152400000Y-81280000D03*
G04 #@! TO.P,J4,24*
G04 #@! TO.N,/D5*
X149860000Y-78740000D03*
G04 #@! TO.P,J4,23*
G04 #@! TO.N,/D4*
X152400000Y-78740000D03*
G04 #@! TO.P,J4,22*
G04 #@! TO.N,/D3*
X149860000Y-76200000D03*
G04 #@! TO.P,J4,21*
G04 #@! TO.N,/D2*
X152400000Y-76200000D03*
G04 #@! TO.P,J4,20*
G04 #@! TO.N,/D1*
X149860000Y-73660000D03*
G04 #@! TO.P,J4,19*
G04 #@! TO.N,/D0*
X152400000Y-73660000D03*
G04 #@! TO.P,J4,18*
G04 #@! TO.N,/B18*
X149860000Y-71120000D03*
G04 #@! TO.P,J4,17*
G04 #@! TO.N,/B17*
X152400000Y-71120000D03*
G04 #@! TO.P,J4,16*
G04 #@! TO.N,/A15*
X149860000Y-68580000D03*
G04 #@! TO.P,J4,15*
G04 #@! TO.N,/A14*
X152400000Y-68580000D03*
G04 #@! TO.P,J4,14*
G04 #@! TO.N,/A13*
X149860000Y-66040000D03*
G04 #@! TO.P,J4,13*
G04 #@! TO.N,/A12*
X152400000Y-66040000D03*
G04 #@! TO.P,J4,12*
G04 #@! TO.N,/A11*
X149860000Y-63500000D03*
G04 #@! TO.P,J4,11*
G04 #@! TO.N,/A10*
X152400000Y-63500000D03*
G04 #@! TO.P,J4,10*
G04 #@! TO.N,/A9*
X149860000Y-60960000D03*
G04 #@! TO.P,J4,9*
G04 #@! TO.N,/A8*
X152400000Y-60960000D03*
G04 #@! TO.P,J4,8*
G04 #@! TO.N,/A7*
X149860000Y-58420000D03*
G04 #@! TO.P,J4,7*
G04 #@! TO.N,/A6*
X152400000Y-58420000D03*
G04 #@! TO.P,J4,6*
G04 #@! TO.N,/A5*
X149860000Y-55880000D03*
G04 #@! TO.P,J4,5*
G04 #@! TO.N,/A4*
X152400000Y-55880000D03*
G04 #@! TO.P,J4,4*
G04 #@! TO.N,/A3*
X149860000Y-53340000D03*
G04 #@! TO.P,J4,3*
G04 #@! TO.N,/A2*
X152400000Y-53340000D03*
G04 #@! TO.P,J4,2*
G04 #@! TO.N,/A1*
X149860000Y-50800000D03*
D13*
G04 #@! TO.P,J4,1*
G04 #@! TO.N,/A0*
X152400000Y-50800000D03*
G04 #@! TD*
D12*
G04 #@! TO.P,J2,72*
G04 #@! TO.N,/B72*
X124460000Y-139700000D03*
G04 #@! TO.P,J2,71*
G04 #@! TO.N,/B71*
X127000000Y-139700000D03*
G04 #@! TO.P,J2,70*
G04 #@! TO.N,/B70*
X124460000Y-137160000D03*
G04 #@! TO.P,J2,69*
G04 #@! TO.N,/B69*
X127000000Y-137160000D03*
G04 #@! TO.P,J2,68*
G04 #@! TO.N,/B68*
X124460000Y-134620000D03*
G04 #@! TO.P,J2,67*
G04 #@! TO.N,/B67*
X127000000Y-134620000D03*
G04 #@! TO.P,J2,66*
G04 #@! TO.N,/B66*
X124460000Y-132080000D03*
G04 #@! TO.P,J2,65*
G04 #@! TO.N,/B65*
X127000000Y-132080000D03*
G04 #@! TO.P,J2,64*
G04 #@! TO.N,/B64*
X124460000Y-129540000D03*
G04 #@! TO.P,J2,63*
G04 #@! TO.N,/B63*
X127000000Y-129540000D03*
G04 #@! TO.P,J2,62*
G04 #@! TO.N,/B62*
X124460000Y-127000000D03*
G04 #@! TO.P,J2,61*
G04 #@! TO.N,/B61*
X127000000Y-127000000D03*
G04 #@! TO.P,J2,60*
G04 #@! TO.N,/B60*
X124460000Y-124460000D03*
G04 #@! TO.P,J2,59*
G04 #@! TO.N,/A2CS*
X127000000Y-124460000D03*
G04 #@! TO.P,J2,58*
G04 #@! TO.N,/A2OE*
X124460000Y-121920000D03*
G04 #@! TO.P,J2,57*
G04 #@! TO.N,/A2WE*
X127000000Y-121920000D03*
G04 #@! TO.P,J2,56*
G04 #@! TO.N,/B56*
X124460000Y-119380000D03*
G04 #@! TO.P,J2,55*
G04 #@! TO.N,/B55*
X127000000Y-119380000D03*
G04 #@! TO.P,J2,54*
G04 #@! TO.N,/B54*
X124460000Y-116840000D03*
G04 #@! TO.P,J2,53*
G04 #@! TO.N,/A1CS*
X127000000Y-116840000D03*
G04 #@! TO.P,J2,52*
G04 #@! TO.N,/A1OE*
X124460000Y-114300000D03*
G04 #@! TO.P,J2,51*
G04 #@! TO.N,/A1WE*
X127000000Y-114300000D03*
G04 #@! TO.P,J2,50*
G04 #@! TO.N,/B50*
X124460000Y-111760000D03*
G04 #@! TO.P,J2,49*
G04 #@! TO.N,/B49*
X127000000Y-111760000D03*
G04 #@! TO.P,J2,48*
G04 #@! TO.N,/B48*
X124460000Y-109220000D03*
G04 #@! TO.P,J2,47*
G04 #@! TO.N,/OCS*
X127000000Y-109220000D03*
G04 #@! TO.P,J2,46*
G04 #@! TO.N,/OOE*
X124460000Y-106680000D03*
G04 #@! TO.P,J2,45*
G04 #@! TO.N,/OWE*
X127000000Y-106680000D03*
G04 #@! TO.P,J2,44*
G04 #@! TO.N,/B44*
X124460000Y-104140000D03*
G04 #@! TO.P,J2,43*
G04 #@! TO.N,/B43*
X127000000Y-104140000D03*
G04 #@! TO.P,J2,42*
G04 #@! TO.N,/B42*
X124460000Y-101600000D03*
G04 #@! TO.P,J2,41*
G04 #@! TO.N,/CLK*
X127000000Y-101600000D03*
G04 #@! TO.P,J2,40*
G04 #@! TO.N,/NMI*
X124460000Y-99060000D03*
G04 #@! TO.P,J2,39*
G04 #@! TO.N,/INT*
X127000000Y-99060000D03*
G04 #@! TO.P,J2,38*
G04 #@! TO.N,/M1*
X124460000Y-96520000D03*
G04 #@! TO.P,J2,37*
G04 #@! TO.N,/RFSH*
X127000000Y-96520000D03*
G04 #@! TO.P,J2,36*
G04 #@! TO.N,/WAIT*
X124460000Y-93980000D03*
G04 #@! TO.P,J2,35*
G04 #@! TO.N,/HALT*
X127000000Y-93980000D03*
G04 #@! TO.P,J2,34*
G04 #@! TO.N,/RD*
X124460000Y-91440000D03*
G04 #@! TO.P,J2,33*
G04 #@! TO.N,/WR*
X127000000Y-91440000D03*
G04 #@! TO.P,J2,32*
G04 #@! TO.N,/MREQ*
X124460000Y-88900000D03*
G04 #@! TO.P,J2,31*
G04 #@! TO.N,/IORQ*
X127000000Y-88900000D03*
G04 #@! TO.P,J2,30*
G04 #@! TO.N,/BUSRQ*
X124460000Y-86360000D03*
G04 #@! TO.P,J2,29*
G04 #@! TO.N,/BUSACK*
X127000000Y-86360000D03*
G04 #@! TO.P,J2,28*
G04 #@! TO.N,/B28*
X124460000Y-83820000D03*
G04 #@! TO.P,J2,27*
G04 #@! TO.N,/B27*
X127000000Y-83820000D03*
G04 #@! TO.P,J2,26*
G04 #@! TO.N,/D7*
X124460000Y-81280000D03*
G04 #@! TO.P,J2,25*
G04 #@! TO.N,/D6*
X127000000Y-81280000D03*
G04 #@! TO.P,J2,24*
G04 #@! TO.N,/D5*
X124460000Y-78740000D03*
G04 #@! TO.P,J2,23*
G04 #@! TO.N,/D4*
X127000000Y-78740000D03*
G04 #@! TO.P,J2,22*
G04 #@! TO.N,/D3*
X124460000Y-76200000D03*
G04 #@! TO.P,J2,21*
G04 #@! TO.N,/D2*
X127000000Y-76200000D03*
G04 #@! TO.P,J2,20*
G04 #@! TO.N,/D1*
X124460000Y-73660000D03*
G04 #@! TO.P,J2,19*
G04 #@! TO.N,/D0*
X127000000Y-73660000D03*
G04 #@! TO.P,J2,18*
G04 #@! TO.N,/B18*
X124460000Y-71120000D03*
G04 #@! TO.P,J2,17*
G04 #@! TO.N,/B17*
X127000000Y-71120000D03*
G04 #@! TO.P,J2,16*
G04 #@! TO.N,/A15*
X124460000Y-68580000D03*
G04 #@! TO.P,J2,15*
G04 #@! TO.N,/A14*
X127000000Y-68580000D03*
G04 #@! TO.P,J2,14*
G04 #@! TO.N,/A13*
X124460000Y-66040000D03*
G04 #@! TO.P,J2,13*
G04 #@! TO.N,/A12*
X127000000Y-66040000D03*
G04 #@! TO.P,J2,12*
G04 #@! TO.N,/A11*
X124460000Y-63500000D03*
G04 #@! TO.P,J2,11*
G04 #@! TO.N,/A10*
X127000000Y-63500000D03*
G04 #@! TO.P,J2,10*
G04 #@! TO.N,/A9*
X124460000Y-60960000D03*
G04 #@! TO.P,J2,9*
G04 #@! TO.N,/A8*
X127000000Y-60960000D03*
G04 #@! TO.P,J2,8*
G04 #@! TO.N,/A7*
X124460000Y-58420000D03*
G04 #@! TO.P,J2,7*
G04 #@! TO.N,/A6*
X127000000Y-58420000D03*
G04 #@! TO.P,J2,6*
G04 #@! TO.N,/A5*
X124460000Y-55880000D03*
G04 #@! TO.P,J2,5*
G04 #@! TO.N,/A4*
X127000000Y-55880000D03*
G04 #@! TO.P,J2,4*
G04 #@! TO.N,/A3*
X124460000Y-53340000D03*
G04 #@! TO.P,J2,3*
G04 #@! TO.N,/A2*
X127000000Y-53340000D03*
G04 #@! TO.P,J2,2*
G04 #@! TO.N,/A1*
X124460000Y-50800000D03*
D13*
G04 #@! TO.P,J2,1*
G04 #@! TO.N,/A0*
X127000000Y-50800000D03*
G04 #@! TD*
D12*
G04 #@! TO.P,J11,6*
G04 #@! TO.N,/GND*
X226060000Y-43180000D03*
G04 #@! TO.P,J11,5*
G04 #@! TO.N,/VCC5*
X228600000Y-43180000D03*
G04 #@! TO.P,J11,4*
G04 #@! TO.N,/VCC3*
X226060000Y-40640000D03*
G04 #@! TO.P,J11,3*
G04 #@! TO.N,/3*
X228600000Y-40640000D03*
G04 #@! TO.P,J11,2*
G04 #@! TO.N,/2*
X226060000Y-38100000D03*
D13*
G04 #@! TO.P,J11,1*
G04 #@! TO.N,/RESET*
X228600000Y-38100000D03*
G04 #@! TD*
D12*
G04 #@! TO.P,J9,6*
G04 #@! TO.N,/GND*
X124460000Y-43180000D03*
G04 #@! TO.P,J9,5*
G04 #@! TO.N,/VCC5*
X127000000Y-43180000D03*
G04 #@! TO.P,J9,4*
G04 #@! TO.N,/VCC3*
X124460000Y-40640000D03*
G04 #@! TO.P,J9,3*
G04 #@! TO.N,/3*
X127000000Y-40640000D03*
G04 #@! TO.P,J9,2*
G04 #@! TO.N,/2*
X124460000Y-38100000D03*
D13*
G04 #@! TO.P,J9,1*
G04 #@! TO.N,/RESET*
X127000000Y-38100000D03*
G04 #@! TD*
D12*
G04 #@! TO.P,J7,6*
G04 #@! TO.N,/GND*
X251460000Y-43180000D03*
G04 #@! TO.P,J7,5*
G04 #@! TO.N,/VCC5*
X254000000Y-43180000D03*
G04 #@! TO.P,J7,4*
G04 #@! TO.N,/VCC3*
X251460000Y-40640000D03*
G04 #@! TO.P,J7,3*
G04 #@! TO.N,/3*
X254000000Y-40640000D03*
G04 #@! TO.P,J7,2*
G04 #@! TO.N,/2*
X251460000Y-38100000D03*
D13*
G04 #@! TO.P,J7,1*
G04 #@! TO.N,/RESET*
X254000000Y-38100000D03*
G04 #@! TD*
D12*
G04 #@! TO.P,J5,6*
G04 #@! TO.N,/GND*
X200660000Y-43180000D03*
G04 #@! TO.P,J5,5*
G04 #@! TO.N,/VCC5*
X203200000Y-43180000D03*
G04 #@! TO.P,J5,4*
G04 #@! TO.N,/VCC3*
X200660000Y-40640000D03*
G04 #@! TO.P,J5,3*
G04 #@! TO.N,/3*
X203200000Y-40640000D03*
G04 #@! TO.P,J5,2*
G04 #@! TO.N,/2*
X200660000Y-38100000D03*
D13*
G04 #@! TO.P,J5,1*
G04 #@! TO.N,/RESET*
X203200000Y-38100000D03*
G04 #@! TD*
D12*
G04 #@! TO.P,J3,6*
G04 #@! TO.N,/GND*
X149860000Y-43180000D03*
G04 #@! TO.P,J3,5*
G04 #@! TO.N,/VCC5*
X152400000Y-43180000D03*
G04 #@! TO.P,J3,4*
G04 #@! TO.N,/VCC3*
X149860000Y-40640000D03*
G04 #@! TO.P,J3,3*
G04 #@! TO.N,/3*
X152400000Y-40640000D03*
G04 #@! TO.P,J3,2*
G04 #@! TO.N,/2*
X149860000Y-38100000D03*
D13*
G04 #@! TO.P,J3,1*
G04 #@! TO.N,/RESET*
X152400000Y-38100000D03*
G04 #@! TD*
D12*
G04 #@! TO.P,J1,6*
G04 #@! TO.N,/GND*
X175260000Y-43180000D03*
G04 #@! TO.P,J1,5*
G04 #@! TO.N,/VCC5*
X177800000Y-43180000D03*
G04 #@! TO.P,J1,4*
G04 #@! TO.N,/VCC3*
X175260000Y-40640000D03*
G04 #@! TO.P,J1,3*
G04 #@! TO.N,/3*
X177800000Y-40640000D03*
G04 #@! TO.P,J1,2*
G04 #@! TO.N,/2*
X175260000Y-38100000D03*
D13*
G04 #@! TO.P,J1,1*
G04 #@! TO.N,/RESET*
X177800000Y-38100000D03*
G04 #@! TD*
D12*
G04 #@! TO.P,J12,72*
G04 #@! TO.N,/B72*
X251460000Y-139700000D03*
G04 #@! TO.P,J12,71*
G04 #@! TO.N,/B71*
X254000000Y-139700000D03*
G04 #@! TO.P,J12,70*
G04 #@! TO.N,/B70*
X251460000Y-137160000D03*
G04 #@! TO.P,J12,69*
G04 #@! TO.N,/B69*
X254000000Y-137160000D03*
G04 #@! TO.P,J12,68*
G04 #@! TO.N,/B68*
X251460000Y-134620000D03*
G04 #@! TO.P,J12,67*
G04 #@! TO.N,/B67*
X254000000Y-134620000D03*
G04 #@! TO.P,J12,66*
G04 #@! TO.N,/B66*
X251460000Y-132080000D03*
G04 #@! TO.P,J12,65*
G04 #@! TO.N,/B65*
X254000000Y-132080000D03*
G04 #@! TO.P,J12,64*
G04 #@! TO.N,/B64*
X251460000Y-129540000D03*
G04 #@! TO.P,J12,63*
G04 #@! TO.N,/B63*
X254000000Y-129540000D03*
G04 #@! TO.P,J12,62*
G04 #@! TO.N,/B62*
X251460000Y-127000000D03*
G04 #@! TO.P,J12,61*
G04 #@! TO.N,/B61*
X254000000Y-127000000D03*
G04 #@! TO.P,J12,60*
G04 #@! TO.N,/B60*
X251460000Y-124460000D03*
G04 #@! TO.P,J12,59*
G04 #@! TO.N,/A2CS*
X254000000Y-124460000D03*
G04 #@! TO.P,J12,58*
G04 #@! TO.N,/A2OE*
X251460000Y-121920000D03*
G04 #@! TO.P,J12,57*
G04 #@! TO.N,/A2WE*
X254000000Y-121920000D03*
G04 #@! TO.P,J12,56*
G04 #@! TO.N,/B56*
X251460000Y-119380000D03*
G04 #@! TO.P,J12,55*
G04 #@! TO.N,/B55*
X254000000Y-119380000D03*
G04 #@! TO.P,J12,54*
G04 #@! TO.N,/B54*
X251460000Y-116840000D03*
G04 #@! TO.P,J12,53*
G04 #@! TO.N,/A1CS*
X254000000Y-116840000D03*
G04 #@! TO.P,J12,52*
G04 #@! TO.N,/A1OE*
X251460000Y-114300000D03*
G04 #@! TO.P,J12,51*
G04 #@! TO.N,/A1WE*
X254000000Y-114300000D03*
G04 #@! TO.P,J12,50*
G04 #@! TO.N,/B50*
X251460000Y-111760000D03*
G04 #@! TO.P,J12,49*
G04 #@! TO.N,/B49*
X254000000Y-111760000D03*
G04 #@! TO.P,J12,48*
G04 #@! TO.N,/B48*
X251460000Y-109220000D03*
G04 #@! TO.P,J12,47*
G04 #@! TO.N,/OCS*
X254000000Y-109220000D03*
G04 #@! TO.P,J12,46*
G04 #@! TO.N,/OOE*
X251460000Y-106680000D03*
G04 #@! TO.P,J12,45*
G04 #@! TO.N,/OWE*
X254000000Y-106680000D03*
G04 #@! TO.P,J12,44*
G04 #@! TO.N,/B44*
X251460000Y-104140000D03*
G04 #@! TO.P,J12,43*
G04 #@! TO.N,/B43*
X254000000Y-104140000D03*
G04 #@! TO.P,J12,42*
G04 #@! TO.N,/B42*
X251460000Y-101600000D03*
G04 #@! TO.P,J12,41*
G04 #@! TO.N,/CLK*
X254000000Y-101600000D03*
G04 #@! TO.P,J12,40*
G04 #@! TO.N,/NMI*
X251460000Y-99060000D03*
G04 #@! TO.P,J12,39*
G04 #@! TO.N,/INT*
X254000000Y-99060000D03*
G04 #@! TO.P,J12,38*
G04 #@! TO.N,/M1*
X251460000Y-96520000D03*
G04 #@! TO.P,J12,37*
G04 #@! TO.N,/RFSH*
X254000000Y-96520000D03*
G04 #@! TO.P,J12,36*
G04 #@! TO.N,/WAIT*
X251460000Y-93980000D03*
G04 #@! TO.P,J12,35*
G04 #@! TO.N,/HALT*
X254000000Y-93980000D03*
G04 #@! TO.P,J12,34*
G04 #@! TO.N,/RD*
X251460000Y-91440000D03*
G04 #@! TO.P,J12,33*
G04 #@! TO.N,/WR*
X254000000Y-91440000D03*
G04 #@! TO.P,J12,32*
G04 #@! TO.N,/MREQ*
X251460000Y-88900000D03*
G04 #@! TO.P,J12,31*
G04 #@! TO.N,/IORQ*
X254000000Y-88900000D03*
G04 #@! TO.P,J12,30*
G04 #@! TO.N,/BUSRQ*
X251460000Y-86360000D03*
G04 #@! TO.P,J12,29*
G04 #@! TO.N,/BUSACK*
X254000000Y-86360000D03*
G04 #@! TO.P,J12,28*
G04 #@! TO.N,/B28*
X251460000Y-83820000D03*
G04 #@! TO.P,J12,27*
G04 #@! TO.N,/B27*
X254000000Y-83820000D03*
G04 #@! TO.P,J12,26*
G04 #@! TO.N,/D7*
X251460000Y-81280000D03*
G04 #@! TO.P,J12,25*
G04 #@! TO.N,/D6*
X254000000Y-81280000D03*
G04 #@! TO.P,J12,24*
G04 #@! TO.N,/D5*
X251460000Y-78740000D03*
G04 #@! TO.P,J12,23*
G04 #@! TO.N,/D4*
X254000000Y-78740000D03*
G04 #@! TO.P,J12,22*
G04 #@! TO.N,/D3*
X251460000Y-76200000D03*
G04 #@! TO.P,J12,21*
G04 #@! TO.N,/D2*
X254000000Y-76200000D03*
G04 #@! TO.P,J12,20*
G04 #@! TO.N,/D1*
X251460000Y-73660000D03*
G04 #@! TO.P,J12,19*
G04 #@! TO.N,/D0*
X254000000Y-73660000D03*
G04 #@! TO.P,J12,18*
G04 #@! TO.N,/B18*
X251460000Y-71120000D03*
G04 #@! TO.P,J12,17*
G04 #@! TO.N,/B17*
X254000000Y-71120000D03*
G04 #@! TO.P,J12,16*
G04 #@! TO.N,/A15*
X251460000Y-68580000D03*
G04 #@! TO.P,J12,15*
G04 #@! TO.N,/A14*
X254000000Y-68580000D03*
G04 #@! TO.P,J12,14*
G04 #@! TO.N,/A13*
X251460000Y-66040000D03*
G04 #@! TO.P,J12,13*
G04 #@! TO.N,/A12*
X254000000Y-66040000D03*
G04 #@! TO.P,J12,12*
G04 #@! TO.N,/A11*
X251460000Y-63500000D03*
G04 #@! TO.P,J12,11*
G04 #@! TO.N,/A10*
X254000000Y-63500000D03*
G04 #@! TO.P,J12,10*
G04 #@! TO.N,/A9*
X251460000Y-60960000D03*
G04 #@! TO.P,J12,9*
G04 #@! TO.N,/A8*
X254000000Y-60960000D03*
G04 #@! TO.P,J12,8*
G04 #@! TO.N,/A7*
X251460000Y-58420000D03*
G04 #@! TO.P,J12,7*
G04 #@! TO.N,/A6*
X254000000Y-58420000D03*
G04 #@! TO.P,J12,6*
G04 #@! TO.N,/A5*
X251460000Y-55880000D03*
G04 #@! TO.P,J12,5*
G04 #@! TO.N,/A4*
X254000000Y-55880000D03*
G04 #@! TO.P,J12,4*
G04 #@! TO.N,/A3*
X251460000Y-53340000D03*
G04 #@! TO.P,J12,3*
G04 #@! TO.N,/A2*
X254000000Y-53340000D03*
G04 #@! TO.P,J12,2*
G04 #@! TO.N,/A1*
X251460000Y-50800000D03*
D13*
G04 #@! TO.P,J12,1*
G04 #@! TO.N,/A0*
X254000000Y-50800000D03*
G04 #@! TD*
D14*
G04 #@! TO.N,/A6*
X229775001Y-59595001D02*
X228600000Y-58420000D01*
X252824999Y-59595001D02*
X229775001Y-59595001D01*
X254000000Y-58420000D02*
X252824999Y-59595001D01*
X226624001Y-59595001D02*
X204375001Y-59595001D01*
X227799002Y-58420000D02*
X226624001Y-59595001D01*
X204375001Y-59595001D02*
X203200000Y-58420000D01*
X228600000Y-58420000D02*
X227799002Y-58420000D01*
X178975001Y-59595001D02*
X177800000Y-58420000D01*
X202024999Y-59595001D02*
X178975001Y-59595001D01*
X203200000Y-58420000D02*
X202024999Y-59595001D01*
X153575001Y-59595001D02*
X152400000Y-58420000D01*
X176624999Y-59595001D02*
X153575001Y-59595001D01*
X177800000Y-58420000D02*
X176624999Y-59595001D01*
X128364999Y-59784999D02*
X127000000Y-58420000D01*
X151035001Y-59784999D02*
X128364999Y-59784999D01*
X152400000Y-58420000D02*
X151035001Y-59784999D01*
G04 #@! TO.N,/A3*
X227424999Y-51975001D02*
X226060000Y-53340000D01*
X250095001Y-51975001D02*
X227424999Y-51975001D01*
X251460000Y-53340000D02*
X250095001Y-51975001D01*
X201835001Y-52164999D02*
X200660000Y-53340000D01*
X224884999Y-52164999D02*
X201835001Y-52164999D01*
X226060000Y-53340000D02*
X224884999Y-52164999D01*
X176435001Y-52164999D02*
X175260000Y-53340000D01*
X199484999Y-52164999D02*
X176435001Y-52164999D01*
X200660000Y-53340000D02*
X199484999Y-52164999D01*
X151035001Y-52164999D02*
X149860000Y-53340000D01*
X174084999Y-52164999D02*
X151035001Y-52164999D01*
X175260000Y-53340000D02*
X174084999Y-52164999D01*
X125635001Y-52164999D02*
X124460000Y-53340000D01*
X148684999Y-52164999D02*
X125635001Y-52164999D01*
X149860000Y-53340000D02*
X148684999Y-52164999D01*
G04 #@! TO.N,/A2*
X229775001Y-54515001D02*
X228600000Y-53340000D01*
X252824999Y-54515001D02*
X229775001Y-54515001D01*
X254000000Y-53340000D02*
X252824999Y-54515001D01*
X204375001Y-54515001D02*
X203200000Y-53340000D01*
X227424999Y-54515001D02*
X204375001Y-54515001D01*
X228600000Y-53340000D02*
X227424999Y-54515001D01*
X178975001Y-54515001D02*
X177800000Y-53340000D01*
X202024999Y-54515001D02*
X178975001Y-54515001D01*
X203200000Y-53340000D02*
X202024999Y-54515001D01*
X153575001Y-54515001D02*
X152400000Y-53340000D01*
X176624999Y-54515001D02*
X153575001Y-54515001D01*
X177800000Y-53340000D02*
X176624999Y-54515001D01*
X150424001Y-54515001D02*
X128175001Y-54515001D01*
X151599002Y-53340000D02*
X150424001Y-54515001D01*
X128175001Y-54515001D02*
X127000000Y-53340000D01*
X152400000Y-53340000D02*
X151599002Y-53340000D01*
G04 #@! TO.N,/B72*
X250095001Y-138335001D02*
X227424999Y-138335001D01*
X227424999Y-138335001D02*
X226060000Y-139700000D01*
X251460000Y-139700000D02*
X250095001Y-138335001D01*
X201835001Y-138524999D02*
X200660000Y-139700000D01*
X224884999Y-138524999D02*
X201835001Y-138524999D01*
X226060000Y-139700000D02*
X224884999Y-138524999D01*
X176435001Y-138524999D02*
X175260000Y-139700000D01*
X199484999Y-138524999D02*
X176435001Y-138524999D01*
X200660000Y-139700000D02*
X199484999Y-138524999D01*
X151035001Y-138524999D02*
X149860000Y-139700000D01*
X174084999Y-138524999D02*
X151035001Y-138524999D01*
X175260000Y-139700000D02*
X174084999Y-138524999D01*
X125635001Y-138524999D02*
X124460000Y-139700000D01*
X148684999Y-138524999D02*
X125635001Y-138524999D01*
X149860000Y-139700000D02*
X148684999Y-138524999D01*
G04 #@! TO.N,/B71*
X229775001Y-140875001D02*
X228600000Y-139700000D01*
X252824999Y-140875001D02*
X229775001Y-140875001D01*
X254000000Y-139700000D02*
X252824999Y-140875001D01*
X204375001Y-140875001D02*
X203200000Y-139700000D01*
X227424999Y-140875001D02*
X204375001Y-140875001D01*
X228600000Y-139700000D02*
X227424999Y-140875001D01*
X178975001Y-140875001D02*
X177800000Y-139700000D01*
X202024999Y-140875001D02*
X178975001Y-140875001D01*
X203200000Y-139700000D02*
X202024999Y-140875001D01*
X153575001Y-140875001D02*
X152400000Y-139700000D01*
X176624999Y-140875001D02*
X153575001Y-140875001D01*
X177800000Y-139700000D02*
X176624999Y-140875001D01*
X128175001Y-140875001D02*
X127000000Y-139700000D01*
X151224999Y-140875001D02*
X128175001Y-140875001D01*
X152400000Y-139700000D02*
X151224999Y-140875001D01*
G04 #@! TO.N,/B68*
X227235001Y-133444999D02*
X226060000Y-134620000D01*
X250284999Y-133444999D02*
X227235001Y-133444999D01*
X251460000Y-134620000D02*
X250284999Y-133444999D01*
X201835001Y-133444999D02*
X200660000Y-134620000D01*
X224884999Y-133444999D02*
X201835001Y-133444999D01*
X226060000Y-134620000D02*
X224884999Y-133444999D01*
X176435001Y-133444999D02*
X175260000Y-134620000D01*
X199484999Y-133444999D02*
X176435001Y-133444999D01*
X200660000Y-134620000D02*
X199484999Y-133444999D01*
X151035001Y-133444999D02*
X149860000Y-134620000D01*
X174084999Y-133444999D02*
X151035001Y-133444999D01*
X175260000Y-134620000D02*
X174084999Y-133444999D01*
X125635001Y-133444999D02*
X124460000Y-134620000D01*
X148684999Y-133444999D02*
X125635001Y-133444999D01*
X149860000Y-134620000D02*
X148684999Y-133444999D01*
G04 #@! TO.N,/B67*
X229775001Y-135795001D02*
X228600000Y-134620000D01*
X252824999Y-135795001D02*
X229775001Y-135795001D01*
X254000000Y-134620000D02*
X252824999Y-135795001D01*
X204375001Y-135795001D02*
X203200000Y-134620000D01*
X227424999Y-135795001D02*
X204375001Y-135795001D01*
X228600000Y-134620000D02*
X227424999Y-135795001D01*
X178975001Y-135795001D02*
X177800000Y-134620000D01*
X202024999Y-135795001D02*
X178975001Y-135795001D01*
X203200000Y-134620000D02*
X202024999Y-135795001D01*
X153575001Y-135795001D02*
X152400000Y-134620000D01*
X176624999Y-135795001D02*
X153575001Y-135795001D01*
X177800000Y-134620000D02*
X176624999Y-135795001D01*
X128175001Y-135795001D02*
X127000000Y-134620000D01*
X151224999Y-135795001D02*
X128175001Y-135795001D01*
X152400000Y-134620000D02*
X151224999Y-135795001D01*
G04 #@! TO.N,/B64*
X227235001Y-128364999D02*
X226060000Y-129540000D01*
X250284999Y-128364999D02*
X227235001Y-128364999D01*
X251460000Y-129540000D02*
X250284999Y-128364999D01*
X201835001Y-128364999D02*
X200660000Y-129540000D01*
X224884999Y-128364999D02*
X201835001Y-128364999D01*
X226060000Y-129540000D02*
X224884999Y-128364999D01*
X176435001Y-128364999D02*
X175260000Y-129540000D01*
X199484999Y-128364999D02*
X176435001Y-128364999D01*
X200660000Y-129540000D02*
X199484999Y-128364999D01*
X151224999Y-128175001D02*
X149860000Y-129540000D01*
X173895001Y-128175001D02*
X151224999Y-128175001D01*
X175260000Y-129540000D02*
X173895001Y-128175001D01*
X125635001Y-128364999D02*
X124460000Y-129540000D01*
X148684999Y-128364999D02*
X125635001Y-128364999D01*
X149860000Y-129540000D02*
X148684999Y-128364999D01*
G04 #@! TO.N,/B63*
X229775001Y-130715001D02*
X228600000Y-129540000D01*
X252824999Y-130715001D02*
X229775001Y-130715001D01*
X254000000Y-129540000D02*
X252824999Y-130715001D01*
X204375001Y-130715001D02*
X203200000Y-129540000D01*
X227424999Y-130715001D02*
X204375001Y-130715001D01*
X228600000Y-129540000D02*
X227424999Y-130715001D01*
X178975001Y-130715001D02*
X177800000Y-129540000D01*
X202024999Y-130715001D02*
X178975001Y-130715001D01*
X203200000Y-129540000D02*
X202024999Y-130715001D01*
X153575001Y-130715001D02*
X152400000Y-129540000D01*
X176624999Y-130715001D02*
X153575001Y-130715001D01*
X177800000Y-129540000D02*
X176624999Y-130715001D01*
X128175001Y-130715001D02*
X127000000Y-129540000D01*
X151224999Y-130715001D02*
X128175001Y-130715001D01*
X152400000Y-129540000D02*
X151224999Y-130715001D01*
G04 #@! TO.N,/B60*
X227235001Y-123284999D02*
X226060000Y-124460000D01*
X250284999Y-123284999D02*
X227235001Y-123284999D01*
X251460000Y-124460000D02*
X250284999Y-123284999D01*
X201835001Y-123284999D02*
X200660000Y-124460000D01*
X224884999Y-123284999D02*
X201835001Y-123284999D01*
X226060000Y-124460000D02*
X224884999Y-123284999D01*
X176435001Y-123284999D02*
X175260000Y-124460000D01*
X199484999Y-123284999D02*
X176435001Y-123284999D01*
X200660000Y-124460000D02*
X199484999Y-123284999D01*
X151035001Y-123284999D02*
X149860000Y-124460000D01*
X174084999Y-123284999D02*
X151035001Y-123284999D01*
X175260000Y-124460000D02*
X174084999Y-123284999D01*
X125824999Y-123095001D02*
X124460000Y-124460000D01*
X148495001Y-123095001D02*
X125824999Y-123095001D01*
X149860000Y-124460000D02*
X148495001Y-123095001D01*
G04 #@! TO.N,/B56*
X227235001Y-118204999D02*
X226060000Y-119380000D01*
X250284999Y-118204999D02*
X227235001Y-118204999D01*
X251460000Y-119380000D02*
X250284999Y-118204999D01*
X201835001Y-118204999D02*
X200660000Y-119380000D01*
X224884999Y-118204999D02*
X201835001Y-118204999D01*
X226060000Y-119380000D02*
X224884999Y-118204999D01*
X176435001Y-118204999D02*
X175260000Y-119380000D01*
X199484999Y-118204999D02*
X176435001Y-118204999D01*
X200660000Y-119380000D02*
X199484999Y-118204999D01*
X151035001Y-118204999D02*
X149860000Y-119380000D01*
X174084999Y-118204999D02*
X151035001Y-118204999D01*
X175260000Y-119380000D02*
X174084999Y-118204999D01*
X125635001Y-118204999D02*
X124460000Y-119380000D01*
X148684999Y-118204999D02*
X125635001Y-118204999D01*
X149860000Y-119380000D02*
X148684999Y-118204999D01*
G04 #@! TO.N,/B55*
X229775001Y-120555001D02*
X228600000Y-119380000D01*
X252824999Y-120555001D02*
X229775001Y-120555001D01*
X254000000Y-119380000D02*
X252824999Y-120555001D01*
X204564999Y-120744999D02*
X203200000Y-119380000D01*
X227235001Y-120744999D02*
X204564999Y-120744999D01*
X228600000Y-119380000D02*
X227235001Y-120744999D01*
X178975001Y-120555001D02*
X177800000Y-119380000D01*
X202024999Y-120555001D02*
X178975001Y-120555001D01*
X203200000Y-119380000D02*
X202024999Y-120555001D01*
X153575001Y-120555001D02*
X152400000Y-119380000D01*
X176624999Y-120555001D02*
X153575001Y-120555001D01*
X177800000Y-119380000D02*
X176624999Y-120555001D01*
X128175001Y-120555001D02*
X127000000Y-119380000D01*
X151224999Y-120555001D02*
X128175001Y-120555001D01*
X152400000Y-119380000D02*
X151224999Y-120555001D01*
G04 #@! TO.N,/B48*
X227235001Y-108044999D02*
X226060000Y-109220000D01*
X250284999Y-108044999D02*
X227235001Y-108044999D01*
X251460000Y-109220000D02*
X250284999Y-108044999D01*
X201835001Y-108044999D02*
X200660000Y-109220000D01*
X224884999Y-108044999D02*
X201835001Y-108044999D01*
X226060000Y-109220000D02*
X224884999Y-108044999D01*
X176435001Y-108044999D02*
X175260000Y-109220000D01*
X199484999Y-108044999D02*
X176435001Y-108044999D01*
X200660000Y-109220000D02*
X199484999Y-108044999D01*
X151035001Y-108044999D02*
X149860000Y-109220000D01*
X174084999Y-108044999D02*
X151035001Y-108044999D01*
X175260000Y-109220000D02*
X174084999Y-108044999D01*
X130104001Y-108044999D02*
X125635001Y-108044999D01*
X125635001Y-108044999D02*
X124460000Y-109220000D01*
X131279002Y-109220000D02*
X130104001Y-108044999D01*
X149860000Y-109220000D02*
X131279002Y-109220000D01*
G04 #@! TO.N,/B44*
X227235001Y-102964999D02*
X226060000Y-104140000D01*
X250284999Y-102964999D02*
X227235001Y-102964999D01*
X251460000Y-104140000D02*
X250284999Y-102964999D01*
X201835001Y-102964999D02*
X200660000Y-104140000D01*
X224884999Y-102964999D02*
X201835001Y-102964999D01*
X226060000Y-104140000D02*
X224884999Y-102964999D01*
X176435001Y-102964999D02*
X175260000Y-104140000D01*
X199484999Y-102964999D02*
X176435001Y-102964999D01*
X200660000Y-104140000D02*
X199484999Y-102964999D01*
X151035001Y-102964999D02*
X149860000Y-104140000D01*
X174084999Y-102964999D02*
X151035001Y-102964999D01*
X175260000Y-104140000D02*
X174084999Y-102964999D01*
X125635001Y-102964999D02*
X124460000Y-104140000D01*
X148684999Y-102964999D02*
X125635001Y-102964999D01*
X149860000Y-104140000D02*
X148684999Y-102964999D01*
G04 #@! TO.N,/B43*
X229775001Y-105315001D02*
X228600000Y-104140000D01*
X252824999Y-105315001D02*
X229775001Y-105315001D01*
X254000000Y-104140000D02*
X252824999Y-105315001D01*
X204375001Y-105315001D02*
X203200000Y-104140000D01*
X227424999Y-105315001D02*
X204375001Y-105315001D01*
X228600000Y-104140000D02*
X227424999Y-105315001D01*
X178975001Y-105315001D02*
X177800000Y-104140000D01*
X201224001Y-105315001D02*
X178975001Y-105315001D01*
X202399002Y-104140000D02*
X201224001Y-105315001D01*
X203200000Y-104140000D02*
X202399002Y-104140000D01*
X153575001Y-105315001D02*
X152400000Y-104140000D01*
X176624999Y-105315001D02*
X153575001Y-105315001D01*
X177800000Y-104140000D02*
X176624999Y-105315001D01*
X128175001Y-105315001D02*
X127000000Y-104140000D01*
X151224999Y-105315001D02*
X128175001Y-105315001D01*
X152400000Y-104140000D02*
X151224999Y-105315001D01*
G04 #@! TO.N,/B28*
X227235001Y-82644999D02*
X226060000Y-83820000D01*
X250284999Y-82644999D02*
X227235001Y-82644999D01*
X251460000Y-83820000D02*
X250284999Y-82644999D01*
X201835001Y-82644999D02*
X200660000Y-83820000D01*
X224884999Y-82644999D02*
X201835001Y-82644999D01*
X226060000Y-83820000D02*
X224884999Y-82644999D01*
X176435001Y-82644999D02*
X175260000Y-83820000D01*
X199484999Y-82644999D02*
X176435001Y-82644999D01*
X200660000Y-83820000D02*
X199484999Y-82644999D01*
X174084999Y-82644999D02*
X151035001Y-82644999D01*
X151035001Y-82644999D02*
X149860000Y-83820000D01*
X175260000Y-83820000D02*
X174084999Y-82644999D01*
X125635001Y-82644999D02*
X124460000Y-83820000D01*
X148684999Y-82644999D02*
X125635001Y-82644999D01*
X149860000Y-83820000D02*
X148684999Y-82644999D01*
G04 #@! TO.N,/B27*
X229775001Y-84995001D02*
X228600000Y-83820000D01*
X252824999Y-84995001D02*
X229775001Y-84995001D01*
X254000000Y-83820000D02*
X252824999Y-84995001D01*
X204375001Y-84995001D02*
X203200000Y-83820000D01*
X227424999Y-84995001D02*
X204375001Y-84995001D01*
X228600000Y-83820000D02*
X227424999Y-84995001D01*
X178975001Y-84995001D02*
X177800000Y-83820000D01*
X202024999Y-84995001D02*
X178975001Y-84995001D01*
X203200000Y-83820000D02*
X202024999Y-84995001D01*
X153575001Y-84995001D02*
X152400000Y-83820000D01*
X176624999Y-84995001D02*
X153575001Y-84995001D01*
X177800000Y-83820000D02*
X176624999Y-84995001D01*
X128175001Y-84995001D02*
X127000000Y-83820000D01*
X151224999Y-84995001D02*
X128175001Y-84995001D01*
X152400000Y-83820000D02*
X151224999Y-84995001D01*
G04 #@! TO.N,/VCC3*
X227424999Y-39275001D02*
X226060000Y-40640000D01*
X250095001Y-39275001D02*
X227424999Y-39275001D01*
X251460000Y-40640000D02*
X250095001Y-39275001D01*
X202024999Y-39275001D02*
X200660000Y-40640000D01*
X224695001Y-39275001D02*
X202024999Y-39275001D01*
X226060000Y-40640000D02*
X224695001Y-39275001D01*
X176435001Y-39464999D02*
X175260000Y-40640000D01*
X199484999Y-39464999D02*
X176435001Y-39464999D01*
X200660000Y-40640000D02*
X199484999Y-39464999D01*
X151035001Y-39464999D02*
X149860000Y-40640000D01*
X174084999Y-39464999D02*
X151035001Y-39464999D01*
X175260000Y-40640000D02*
X174084999Y-39464999D01*
X125635001Y-39464999D02*
X124460000Y-40640000D01*
X148684999Y-39464999D02*
X125635001Y-39464999D01*
X149860000Y-40640000D02*
X148684999Y-39464999D01*
G04 #@! TO.N,/A2CS*
X229964999Y-125824999D02*
X228600000Y-124460000D01*
X252635001Y-125824999D02*
X229964999Y-125824999D01*
X254000000Y-124460000D02*
X252635001Y-125824999D01*
X204375001Y-125635001D02*
X203200000Y-124460000D01*
X227424999Y-125635001D02*
X204375001Y-125635001D01*
X228600000Y-124460000D02*
X227424999Y-125635001D01*
X178975001Y-125635001D02*
X177800000Y-124460000D01*
X202024999Y-125635001D02*
X178975001Y-125635001D01*
X203200000Y-124460000D02*
X202024999Y-125635001D01*
X153575001Y-125635001D02*
X152400000Y-124460000D01*
X176624999Y-125635001D02*
X153575001Y-125635001D01*
X177800000Y-124460000D02*
X176624999Y-125635001D01*
X128175001Y-125635001D02*
X127000000Y-124460000D01*
X151224999Y-125635001D02*
X128175001Y-125635001D01*
X152400000Y-124460000D02*
X151224999Y-125635001D01*
G04 #@! TO.N,/A1OE*
X227235001Y-113124999D02*
X226060000Y-114300000D01*
X250284999Y-113124999D02*
X227235001Y-113124999D01*
X251460000Y-114300000D02*
X250284999Y-113124999D01*
X201835001Y-113124999D02*
X200660000Y-114300000D01*
X224884999Y-113124999D02*
X201835001Y-113124999D01*
X226060000Y-114300000D02*
X224884999Y-113124999D01*
X176435001Y-113124999D02*
X175260000Y-114300000D01*
X199484999Y-113124999D02*
X176435001Y-113124999D01*
X200660000Y-114300000D02*
X199484999Y-113124999D01*
X151035001Y-113124999D02*
X149860000Y-114300000D01*
X174084999Y-113124999D02*
X151035001Y-113124999D01*
X175260000Y-114300000D02*
X174084999Y-113124999D01*
X125635001Y-113124999D02*
X124460000Y-114300000D01*
X148684999Y-113124999D02*
X125635001Y-113124999D01*
X149860000Y-114300000D02*
X148684999Y-113124999D01*
G04 #@! TO.N,/A1WE*
X229775001Y-115475001D02*
X228600000Y-114300000D01*
X252824999Y-115475001D02*
X229775001Y-115475001D01*
X254000000Y-114300000D02*
X252824999Y-115475001D01*
X204375001Y-115475001D02*
X203200000Y-114300000D01*
X227424999Y-115475001D02*
X204375001Y-115475001D01*
X228600000Y-114300000D02*
X227424999Y-115475001D01*
X178975001Y-115475001D02*
X177800000Y-114300000D01*
X202024999Y-115475001D02*
X178975001Y-115475001D01*
X203200000Y-114300000D02*
X202024999Y-115475001D01*
X153575001Y-115475001D02*
X152400000Y-114300000D01*
X176624999Y-115475001D02*
X153575001Y-115475001D01*
X177800000Y-114300000D02*
X176624999Y-115475001D01*
X128175001Y-115475001D02*
X127000000Y-114300000D01*
X151224999Y-115475001D02*
X128175001Y-115475001D01*
X152400000Y-114300000D02*
X151224999Y-115475001D01*
G04 #@! TO.N,/OCS*
X229775001Y-110395001D02*
X228600000Y-109220000D01*
X252824999Y-110395001D02*
X229775001Y-110395001D01*
X254000000Y-109220000D02*
X252824999Y-110395001D01*
X204375001Y-110395001D02*
X203200000Y-109220000D01*
X227424999Y-110395001D02*
X204375001Y-110395001D01*
X228600000Y-109220000D02*
X227424999Y-110395001D01*
X179164999Y-110584999D02*
X177800000Y-109220000D01*
X201835001Y-110584999D02*
X179164999Y-110584999D01*
X203200000Y-109220000D02*
X201835001Y-110584999D01*
X153575001Y-110395001D02*
X152400000Y-109220000D01*
X176624999Y-110395001D02*
X153575001Y-110395001D01*
X177800000Y-109220000D02*
X176624999Y-110395001D01*
X128364999Y-110584999D02*
X127000000Y-109220000D01*
X151035001Y-110584999D02*
X128364999Y-110584999D01*
X152400000Y-109220000D02*
X151035001Y-110584999D01*
G04 #@! TO.N,/NMI*
X227235001Y-97884999D02*
X226060000Y-99060000D01*
X250284999Y-97884999D02*
X227235001Y-97884999D01*
X251460000Y-99060000D02*
X250284999Y-97884999D01*
X201835001Y-97884999D02*
X200660000Y-99060000D01*
X224884999Y-97884999D02*
X201835001Y-97884999D01*
X226060000Y-99060000D02*
X224884999Y-97884999D01*
X176624999Y-97695001D02*
X175260000Y-99060000D01*
X199295001Y-97695001D02*
X176624999Y-97695001D01*
X200660000Y-99060000D02*
X199295001Y-97695001D01*
X151224999Y-97695001D02*
X149860000Y-99060000D01*
X173895001Y-97695001D02*
X151224999Y-97695001D01*
X175260000Y-99060000D02*
X173895001Y-97695001D01*
X125635001Y-97884999D02*
X124460000Y-99060000D01*
X148684999Y-97884999D02*
X125635001Y-97884999D01*
X149860000Y-99060000D02*
X148684999Y-97884999D01*
G04 #@! TO.N,/INT*
X229964999Y-100424999D02*
X228600000Y-99060000D01*
X252635001Y-100424999D02*
X229964999Y-100424999D01*
X254000000Y-99060000D02*
X252635001Y-100424999D01*
X204375001Y-100235001D02*
X203200000Y-99060000D01*
X226624001Y-100235001D02*
X204375001Y-100235001D01*
X227235001Y-99624001D02*
X226624001Y-100235001D01*
X227235001Y-99154999D02*
X227235001Y-99624001D01*
X227330000Y-99060000D02*
X227235001Y-99154999D01*
X228600000Y-99060000D02*
X227330000Y-99060000D01*
X178975001Y-100235001D02*
X177800000Y-99060000D01*
X202024999Y-100235001D02*
X178975001Y-100235001D01*
X203200000Y-99060000D02*
X202024999Y-100235001D01*
X153575001Y-100235001D02*
X152400000Y-99060000D01*
X176624999Y-100235001D02*
X153575001Y-100235001D01*
X177800000Y-99060000D02*
X176624999Y-100235001D01*
X128175001Y-100235001D02*
X127000000Y-99060000D01*
X151224999Y-100235001D02*
X128175001Y-100235001D01*
X152400000Y-99060000D02*
X151224999Y-100235001D01*
G04 #@! TO.N,/WAIT*
X227235001Y-92804999D02*
X226060000Y-93980000D01*
X250284999Y-92804999D02*
X227235001Y-92804999D01*
X251460000Y-93980000D02*
X250284999Y-92804999D01*
X201835001Y-92804999D02*
X200660000Y-93980000D01*
X224884999Y-92804999D02*
X201835001Y-92804999D01*
X226060000Y-93980000D02*
X224884999Y-92804999D01*
X176624999Y-92615001D02*
X175260000Y-93980000D01*
X199295001Y-92615001D02*
X176624999Y-92615001D01*
X200660000Y-93980000D02*
X199295001Y-92615001D01*
X151224999Y-92615001D02*
X149860000Y-93980000D01*
X173895001Y-92615001D02*
X151224999Y-92615001D01*
X175260000Y-93980000D02*
X173895001Y-92615001D01*
X125635001Y-92804999D02*
X124460000Y-93980000D01*
X148684999Y-92804999D02*
X125635001Y-92804999D01*
X149860000Y-93980000D02*
X148684999Y-92804999D01*
G04 #@! TO.N,/HALT*
X229775001Y-95155001D02*
X228600000Y-93980000D01*
X252824999Y-95155001D02*
X229775001Y-95155001D01*
X254000000Y-93980000D02*
X252824999Y-95155001D01*
X204375001Y-95155001D02*
X203200000Y-93980000D01*
X227424999Y-95155001D02*
X204375001Y-95155001D01*
X228600000Y-93980000D02*
X227424999Y-95155001D01*
X178975001Y-95155001D02*
X177800000Y-93980000D01*
X202024999Y-95155001D02*
X178975001Y-95155001D01*
X203200000Y-93980000D02*
X202024999Y-95155001D01*
X153575001Y-95155001D02*
X152400000Y-93980000D01*
X176624999Y-95155001D02*
X153575001Y-95155001D01*
X177800000Y-93980000D02*
X176624999Y-95155001D01*
X128175001Y-95155001D02*
X127000000Y-93980000D01*
X151224999Y-95155001D02*
X128175001Y-95155001D01*
X152400000Y-93980000D02*
X151224999Y-95155001D01*
G04 #@! TO.N,/MREQ*
X227235001Y-87724999D02*
X226060000Y-88900000D01*
X250284999Y-87724999D02*
X227235001Y-87724999D01*
X251460000Y-88900000D02*
X250284999Y-87724999D01*
X201835001Y-87724999D02*
X200660000Y-88900000D01*
X224884999Y-87724999D02*
X201835001Y-87724999D01*
X226060000Y-88900000D02*
X224884999Y-87724999D01*
X151035001Y-87724999D02*
X149860000Y-88900000D01*
X174084999Y-87724999D02*
X151035001Y-87724999D01*
X175260000Y-88900000D02*
X174084999Y-87724999D01*
X125824999Y-87535001D02*
X124460000Y-88900000D01*
X148495001Y-87535001D02*
X125824999Y-87535001D01*
X149860000Y-88900000D02*
X148495001Y-87535001D01*
X176435001Y-87724999D02*
X175260000Y-88900000D01*
X186595001Y-87724999D02*
X176435001Y-87724999D01*
X192945001Y-87724999D02*
X191724999Y-88945001D01*
X199484999Y-87724999D02*
X192945001Y-87724999D01*
X200660000Y-88900000D02*
X199484999Y-87724999D01*
X191195000Y-89475000D02*
X191724999Y-88945001D01*
X188345002Y-89475000D02*
X187547501Y-88677499D01*
X187547501Y-88677499D02*
X186595001Y-87724999D01*
X188655000Y-89475000D02*
X188345002Y-89475000D01*
X188655000Y-89475000D02*
X191195000Y-89475000D01*
G04 #@! TO.N,/IORQ*
X229964999Y-90264999D02*
X228600000Y-88900000D01*
X252635001Y-90264999D02*
X229964999Y-90264999D01*
X254000000Y-88900000D02*
X252635001Y-90264999D01*
X204375001Y-90075001D02*
X203200000Y-88900000D01*
X227424999Y-90075001D02*
X204375001Y-90075001D01*
X228600000Y-88900000D02*
X227424999Y-90075001D01*
X178975001Y-90075001D02*
X177800000Y-88900000D01*
X201224001Y-90075001D02*
X178975001Y-90075001D01*
X202399002Y-88900000D02*
X201224001Y-90075001D01*
X203200000Y-88900000D02*
X202399002Y-88900000D01*
X153575001Y-90075001D02*
X152400000Y-88900000D01*
X176624999Y-90075001D02*
X153575001Y-90075001D01*
X177800000Y-88900000D02*
X176624999Y-90075001D01*
X128175001Y-90075001D02*
X127000000Y-88900000D01*
X151224999Y-90075001D02*
X128175001Y-90075001D01*
X152400000Y-88900000D02*
X151224999Y-90075001D01*
G04 #@! TO.N,/D5*
X227235001Y-77564999D02*
X226060000Y-78740000D01*
X250284999Y-77564999D02*
X227235001Y-77564999D01*
X251460000Y-78740000D02*
X250284999Y-77564999D01*
X201835001Y-77564999D02*
X200660000Y-78740000D01*
X224884999Y-77564999D02*
X201835001Y-77564999D01*
X226060000Y-78740000D02*
X224884999Y-77564999D01*
X176435001Y-77564999D02*
X175260000Y-78740000D01*
X199484999Y-77564999D02*
X176435001Y-77564999D01*
X200660000Y-78740000D02*
X199484999Y-77564999D01*
X151035001Y-77564999D02*
X149860000Y-78740000D01*
X174084999Y-77564999D02*
X151035001Y-77564999D01*
X175260000Y-78740000D02*
X174084999Y-77564999D01*
X125635001Y-77564999D02*
X124460000Y-78740000D01*
X148684999Y-77564999D02*
X125635001Y-77564999D01*
X149860000Y-78740000D02*
X148684999Y-77564999D01*
G04 #@! TO.N,/D4*
X252824999Y-79915001D02*
X229775001Y-79915001D01*
X229775001Y-79915001D02*
X228600000Y-78740000D01*
X254000000Y-78740000D02*
X252824999Y-79915001D01*
X204375001Y-79915001D02*
X203200000Y-78740000D01*
X227424999Y-79915001D02*
X204375001Y-79915001D01*
X228600000Y-78740000D02*
X227424999Y-79915001D01*
X178975001Y-79915001D02*
X177800000Y-78740000D01*
X202024999Y-79915001D02*
X178975001Y-79915001D01*
X203200000Y-78740000D02*
X202024999Y-79915001D01*
X153575001Y-79915001D02*
X152400000Y-78740000D01*
X176624999Y-79915001D02*
X153575001Y-79915001D01*
X177800000Y-78740000D02*
X176624999Y-79915001D01*
X128175001Y-79915001D02*
X127000000Y-78740000D01*
X151224999Y-79915001D02*
X128175001Y-79915001D01*
X152400000Y-78740000D02*
X151224999Y-79915001D01*
G04 #@! TO.N,/D1*
X227424999Y-72295001D02*
X226060000Y-73660000D01*
X250095001Y-72295001D02*
X227424999Y-72295001D01*
X251460000Y-73660000D02*
X250095001Y-72295001D01*
X202024999Y-72295001D02*
X200660000Y-73660000D01*
X224695001Y-72295001D02*
X202024999Y-72295001D01*
X226060000Y-73660000D02*
X224695001Y-72295001D01*
X176624999Y-72295001D02*
X175260000Y-73660000D01*
X199295001Y-72295001D02*
X176624999Y-72295001D01*
X200660000Y-73660000D02*
X199295001Y-72295001D01*
X151035001Y-72484999D02*
X149860000Y-73660000D01*
X174084999Y-72484999D02*
X151035001Y-72484999D01*
X175260000Y-73660000D02*
X174084999Y-72484999D01*
X125824999Y-72295001D02*
X124460000Y-73660000D01*
X148495001Y-72295001D02*
X125824999Y-72295001D01*
X149860000Y-73660000D02*
X148495001Y-72295001D01*
G04 #@! TO.N,/D0*
X229775001Y-74835001D02*
X228600000Y-73660000D01*
X252824999Y-74835001D02*
X229775001Y-74835001D01*
X254000000Y-73660000D02*
X252824999Y-74835001D01*
X204375001Y-74835001D02*
X203200000Y-73660000D01*
X227424999Y-74835001D02*
X204375001Y-74835001D01*
X228600000Y-73660000D02*
X227424999Y-74835001D01*
X178975001Y-74835001D02*
X177800000Y-73660000D01*
X202024999Y-74835001D02*
X178975001Y-74835001D01*
X203200000Y-73660000D02*
X202024999Y-74835001D01*
X153575001Y-74835001D02*
X152400000Y-73660000D01*
X176624999Y-74835001D02*
X153575001Y-74835001D01*
X177800000Y-73660000D02*
X176624999Y-74835001D01*
X128175001Y-74835001D02*
X127000000Y-73660000D01*
X151224999Y-74835001D02*
X128175001Y-74835001D01*
X152400000Y-73660000D02*
X151224999Y-74835001D01*
G04 #@! TO.N,/A15*
X227424999Y-67215001D02*
X226060000Y-68580000D01*
X250095001Y-67215001D02*
X227424999Y-67215001D01*
X251460000Y-68580000D02*
X250095001Y-67215001D01*
X201835001Y-67404999D02*
X200660000Y-68580000D01*
X224884999Y-67404999D02*
X201835001Y-67404999D01*
X226060000Y-68580000D02*
X224884999Y-67404999D01*
X176435001Y-67404999D02*
X175260000Y-68580000D01*
X199484999Y-67404999D02*
X176435001Y-67404999D01*
X200660000Y-68580000D02*
X199484999Y-67404999D01*
X151035001Y-67404999D02*
X149860000Y-68580000D01*
X174084999Y-67404999D02*
X151035001Y-67404999D01*
X175260000Y-68580000D02*
X174084999Y-67404999D01*
X125635001Y-67404999D02*
X124460000Y-68580000D01*
X148684999Y-67404999D02*
X125635001Y-67404999D01*
X149860000Y-68580000D02*
X148684999Y-67404999D01*
G04 #@! TO.N,/A14*
X229775001Y-69755001D02*
X228600000Y-68580000D01*
X252824999Y-69755001D02*
X229775001Y-69755001D01*
X254000000Y-68580000D02*
X252824999Y-69755001D01*
X204375001Y-69755001D02*
X203200000Y-68580000D01*
X227424999Y-69755001D02*
X204375001Y-69755001D01*
X228600000Y-68580000D02*
X227424999Y-69755001D01*
X178975001Y-69755001D02*
X177800000Y-68580000D01*
X202024999Y-69755001D02*
X178975001Y-69755001D01*
X203200000Y-68580000D02*
X202024999Y-69755001D01*
X153575001Y-69755001D02*
X152400000Y-68580000D01*
X176624999Y-69755001D02*
X153575001Y-69755001D01*
X177800000Y-68580000D02*
X176624999Y-69755001D01*
X128175001Y-69755001D02*
X127000000Y-68580000D01*
X151224999Y-69755001D02*
X128175001Y-69755001D01*
X152400000Y-68580000D02*
X151224999Y-69755001D01*
G04 #@! TO.N,/A11*
X227424999Y-62135001D02*
X226060000Y-63500000D01*
X250095001Y-62135001D02*
X227424999Y-62135001D01*
X251460000Y-63500000D02*
X250095001Y-62135001D01*
X201835001Y-62324999D02*
X200660000Y-63500000D01*
X224884999Y-62324999D02*
X201835001Y-62324999D01*
X226060000Y-63500000D02*
X224884999Y-62324999D01*
X176435001Y-62324999D02*
X175260000Y-63500000D01*
X199484999Y-62324999D02*
X176435001Y-62324999D01*
X200660000Y-63500000D02*
X199484999Y-62324999D01*
X151035001Y-62324999D02*
X149860000Y-63500000D01*
X174084999Y-62324999D02*
X151035001Y-62324999D01*
X175260000Y-63500000D02*
X174084999Y-62324999D01*
X125635001Y-62324999D02*
X124460000Y-63500000D01*
X148684999Y-62324999D02*
X125635001Y-62324999D01*
X149860000Y-63500000D02*
X148684999Y-62324999D01*
G04 #@! TO.N,/A10*
X252824999Y-64675001D02*
X229775001Y-64675001D01*
X229775001Y-64675001D02*
X228600000Y-63500000D01*
X254000000Y-63500000D02*
X252824999Y-64675001D01*
X204564999Y-64864999D02*
X203200000Y-63500000D01*
X227235001Y-64864999D02*
X204564999Y-64864999D01*
X228600000Y-63500000D02*
X227235001Y-64864999D01*
X178975001Y-64675001D02*
X177800000Y-63500000D01*
X202024999Y-64675001D02*
X178975001Y-64675001D01*
X203200000Y-63500000D02*
X202024999Y-64675001D01*
X153575001Y-64675001D02*
X152400000Y-63500000D01*
X175824001Y-64675001D02*
X153575001Y-64675001D01*
X176999002Y-63500000D02*
X175824001Y-64675001D01*
X177800000Y-63500000D02*
X176999002Y-63500000D01*
X128175001Y-64675001D02*
X127000000Y-63500000D01*
X151224999Y-64675001D02*
X128175001Y-64675001D01*
X152400000Y-63500000D02*
X151224999Y-64675001D01*
G04 #@! TO.N,/A7*
X227235001Y-57244999D02*
X226060000Y-58420000D01*
X250284999Y-57244999D02*
X227235001Y-57244999D01*
X251460000Y-58420000D02*
X250284999Y-57244999D01*
X201835001Y-57244999D02*
X200660000Y-58420000D01*
X224884999Y-57244999D02*
X201835001Y-57244999D01*
X226060000Y-58420000D02*
X224884999Y-57244999D01*
X176624999Y-57055001D02*
X175260000Y-58420000D01*
X199295001Y-57055001D02*
X176624999Y-57055001D01*
X200660000Y-58420000D02*
X199295001Y-57055001D01*
X151035001Y-57244999D02*
X149860000Y-58420000D01*
X174084999Y-57244999D02*
X151035001Y-57244999D01*
X175260000Y-58420000D02*
X174084999Y-57244999D01*
X125635001Y-57244999D02*
X124460000Y-58420000D01*
X148684999Y-57244999D02*
X125635001Y-57244999D01*
X149860000Y-58420000D02*
X148684999Y-57244999D01*
G04 #@! TO.N,/3*
X229775001Y-41815001D02*
X228600000Y-40640000D01*
X252824999Y-41815001D02*
X229775001Y-41815001D01*
X254000000Y-40640000D02*
X252824999Y-41815001D01*
X204375001Y-41815001D02*
X203200000Y-40640000D01*
X226624001Y-41815001D02*
X204375001Y-41815001D01*
X227799002Y-40640000D02*
X226624001Y-41815001D01*
X228600000Y-40640000D02*
X227799002Y-40640000D01*
X178975001Y-41815001D02*
X177800000Y-40640000D01*
X202024999Y-41815001D02*
X178975001Y-41815001D01*
X203200000Y-40640000D02*
X202024999Y-41815001D01*
X153575001Y-41815001D02*
X152400000Y-40640000D01*
X176624999Y-41815001D02*
X153575001Y-41815001D01*
X177800000Y-40640000D02*
X176624999Y-41815001D01*
X128175001Y-41815001D02*
X127000000Y-40640000D01*
X151224999Y-41815001D02*
X128175001Y-41815001D01*
X152400000Y-40640000D02*
X151224999Y-41815001D01*
G04 #@! TD*
D15*
G04 #@! TO.N,/GND*
X258124000Y-38281759D02*
X257823705Y-38731182D01*
X257549691Y-39392710D01*
X257410000Y-40094984D01*
X257410000Y-40811016D01*
X257549691Y-41513290D01*
X257823705Y-42174818D01*
X258124000Y-42624241D01*
X258124000Y-135055759D01*
X257823705Y-135505182D01*
X257549691Y-136166710D01*
X257410000Y-136868984D01*
X257410000Y-137585016D01*
X257549691Y-138287290D01*
X257823705Y-138948818D01*
X258124000Y-139398241D01*
X258124000Y-141792000D01*
X120075000Y-141792000D01*
X120075000Y-140589666D01*
X120238489Y-140426177D01*
X120636295Y-139830818D01*
X120910309Y-139169290D01*
X121050000Y-138467016D01*
X121050000Y-137750984D01*
X120910309Y-137048710D01*
X120636295Y-136387182D01*
X120238489Y-135791823D01*
X120075000Y-135628334D01*
X120075000Y-50653740D01*
X122975000Y-50653740D01*
X122975000Y-50946260D01*
X123032068Y-51233158D01*
X123144010Y-51503411D01*
X123306525Y-51746632D01*
X123513368Y-51953475D01*
X123687760Y-52070000D01*
X123513368Y-52186525D01*
X123306525Y-52393368D01*
X123144010Y-52636589D01*
X123032068Y-52906842D01*
X122975000Y-53193740D01*
X122975000Y-53486260D01*
X123032068Y-53773158D01*
X123144010Y-54043411D01*
X123306525Y-54286632D01*
X123513368Y-54493475D01*
X123687760Y-54610000D01*
X123513368Y-54726525D01*
X123306525Y-54933368D01*
X123144010Y-55176589D01*
X123032068Y-55446842D01*
X122975000Y-55733740D01*
X122975000Y-56026260D01*
X123032068Y-56313158D01*
X123144010Y-56583411D01*
X123306525Y-56826632D01*
X123513368Y-57033475D01*
X123687760Y-57150000D01*
X123513368Y-57266525D01*
X123306525Y-57473368D01*
X123144010Y-57716589D01*
X123032068Y-57986842D01*
X122975000Y-58273740D01*
X122975000Y-58566260D01*
X123032068Y-58853158D01*
X123144010Y-59123411D01*
X123306525Y-59366632D01*
X123513368Y-59573475D01*
X123687760Y-59690000D01*
X123513368Y-59806525D01*
X123306525Y-60013368D01*
X123144010Y-60256589D01*
X123032068Y-60526842D01*
X122975000Y-60813740D01*
X122975000Y-61106260D01*
X123032068Y-61393158D01*
X123144010Y-61663411D01*
X123306525Y-61906632D01*
X123513368Y-62113475D01*
X123687760Y-62230000D01*
X123513368Y-62346525D01*
X123306525Y-62553368D01*
X123144010Y-62796589D01*
X123032068Y-63066842D01*
X122975000Y-63353740D01*
X122975000Y-63646260D01*
X123032068Y-63933158D01*
X123144010Y-64203411D01*
X123306525Y-64446632D01*
X123513368Y-64653475D01*
X123687760Y-64770000D01*
X123513368Y-64886525D01*
X123306525Y-65093368D01*
X123144010Y-65336589D01*
X123032068Y-65606842D01*
X122975000Y-65893740D01*
X122975000Y-66186260D01*
X123032068Y-66473158D01*
X123144010Y-66743411D01*
X123306525Y-66986632D01*
X123513368Y-67193475D01*
X123687760Y-67310000D01*
X123513368Y-67426525D01*
X123306525Y-67633368D01*
X123144010Y-67876589D01*
X123032068Y-68146842D01*
X122975000Y-68433740D01*
X122975000Y-68726260D01*
X123032068Y-69013158D01*
X123144010Y-69283411D01*
X123306525Y-69526632D01*
X123513368Y-69733475D01*
X123687760Y-69850000D01*
X123513368Y-69966525D01*
X123306525Y-70173368D01*
X123144010Y-70416589D01*
X123032068Y-70686842D01*
X122975000Y-70973740D01*
X122975000Y-71266260D01*
X123032068Y-71553158D01*
X123144010Y-71823411D01*
X123306525Y-72066632D01*
X123513368Y-72273475D01*
X123687760Y-72390000D01*
X123513368Y-72506525D01*
X123306525Y-72713368D01*
X123144010Y-72956589D01*
X123032068Y-73226842D01*
X122975000Y-73513740D01*
X122975000Y-73806260D01*
X123032068Y-74093158D01*
X123144010Y-74363411D01*
X123306525Y-74606632D01*
X123513368Y-74813475D01*
X123687760Y-74930000D01*
X123513368Y-75046525D01*
X123306525Y-75253368D01*
X123144010Y-75496589D01*
X123032068Y-75766842D01*
X122975000Y-76053740D01*
X122975000Y-76346260D01*
X123032068Y-76633158D01*
X123144010Y-76903411D01*
X123306525Y-77146632D01*
X123513368Y-77353475D01*
X123687760Y-77470000D01*
X123513368Y-77586525D01*
X123306525Y-77793368D01*
X123144010Y-78036589D01*
X123032068Y-78306842D01*
X122975000Y-78593740D01*
X122975000Y-78886260D01*
X123032068Y-79173158D01*
X123144010Y-79443411D01*
X123306525Y-79686632D01*
X123513368Y-79893475D01*
X123687760Y-80010000D01*
X123513368Y-80126525D01*
X123306525Y-80333368D01*
X123144010Y-80576589D01*
X123032068Y-80846842D01*
X122975000Y-81133740D01*
X122975000Y-81426260D01*
X123032068Y-81713158D01*
X123144010Y-81983411D01*
X123306525Y-82226632D01*
X123513368Y-82433475D01*
X123687760Y-82550000D01*
X123513368Y-82666525D01*
X123306525Y-82873368D01*
X123144010Y-83116589D01*
X123032068Y-83386842D01*
X122975000Y-83673740D01*
X122975000Y-83966260D01*
X123032068Y-84253158D01*
X123144010Y-84523411D01*
X123306525Y-84766632D01*
X123513368Y-84973475D01*
X123687760Y-85090000D01*
X123513368Y-85206525D01*
X123306525Y-85413368D01*
X123144010Y-85656589D01*
X123032068Y-85926842D01*
X122975000Y-86213740D01*
X122975000Y-86506260D01*
X123032068Y-86793158D01*
X123144010Y-87063411D01*
X123306525Y-87306632D01*
X123513368Y-87513475D01*
X123687760Y-87630000D01*
X123513368Y-87746525D01*
X123306525Y-87953368D01*
X123144010Y-88196589D01*
X123032068Y-88466842D01*
X122975000Y-88753740D01*
X122975000Y-89046260D01*
X123032068Y-89333158D01*
X123144010Y-89603411D01*
X123306525Y-89846632D01*
X123513368Y-90053475D01*
X123687760Y-90170000D01*
X123513368Y-90286525D01*
X123306525Y-90493368D01*
X123144010Y-90736589D01*
X123032068Y-91006842D01*
X122975000Y-91293740D01*
X122975000Y-91586260D01*
X123032068Y-91873158D01*
X123144010Y-92143411D01*
X123306525Y-92386632D01*
X123513368Y-92593475D01*
X123687760Y-92710000D01*
X123513368Y-92826525D01*
X123306525Y-93033368D01*
X123144010Y-93276589D01*
X123032068Y-93546842D01*
X122975000Y-93833740D01*
X122975000Y-94126260D01*
X123032068Y-94413158D01*
X123144010Y-94683411D01*
X123306525Y-94926632D01*
X123513368Y-95133475D01*
X123687760Y-95250000D01*
X123513368Y-95366525D01*
X123306525Y-95573368D01*
X123144010Y-95816589D01*
X123032068Y-96086842D01*
X122975000Y-96373740D01*
X122975000Y-96666260D01*
X123032068Y-96953158D01*
X123144010Y-97223411D01*
X123306525Y-97466632D01*
X123513368Y-97673475D01*
X123687760Y-97790000D01*
X123513368Y-97906525D01*
X123306525Y-98113368D01*
X123144010Y-98356589D01*
X123032068Y-98626842D01*
X122975000Y-98913740D01*
X122975000Y-99206260D01*
X123032068Y-99493158D01*
X123144010Y-99763411D01*
X123306525Y-100006632D01*
X123513368Y-100213475D01*
X123687760Y-100330000D01*
X123513368Y-100446525D01*
X123306525Y-100653368D01*
X123144010Y-100896589D01*
X123032068Y-101166842D01*
X122975000Y-101453740D01*
X122975000Y-101746260D01*
X123032068Y-102033158D01*
X123144010Y-102303411D01*
X123306525Y-102546632D01*
X123513368Y-102753475D01*
X123687760Y-102870000D01*
X123513368Y-102986525D01*
X123306525Y-103193368D01*
X123144010Y-103436589D01*
X123032068Y-103706842D01*
X122975000Y-103993740D01*
X122975000Y-104286260D01*
X123032068Y-104573158D01*
X123144010Y-104843411D01*
X123306525Y-105086632D01*
X123513368Y-105293475D01*
X123687760Y-105410000D01*
X123513368Y-105526525D01*
X123306525Y-105733368D01*
X123144010Y-105976589D01*
X123032068Y-106246842D01*
X122975000Y-106533740D01*
X122975000Y-106826260D01*
X123032068Y-107113158D01*
X123144010Y-107383411D01*
X123306525Y-107626632D01*
X123513368Y-107833475D01*
X123687760Y-107950000D01*
X123513368Y-108066525D01*
X123306525Y-108273368D01*
X123144010Y-108516589D01*
X123032068Y-108786842D01*
X122975000Y-109073740D01*
X122975000Y-109366260D01*
X123032068Y-109653158D01*
X123144010Y-109923411D01*
X123306525Y-110166632D01*
X123513368Y-110373475D01*
X123687760Y-110490000D01*
X123513368Y-110606525D01*
X123306525Y-110813368D01*
X123144010Y-111056589D01*
X123032068Y-111326842D01*
X122975000Y-111613740D01*
X122975000Y-111906260D01*
X123032068Y-112193158D01*
X123144010Y-112463411D01*
X123306525Y-112706632D01*
X123513368Y-112913475D01*
X123687760Y-113030000D01*
X123513368Y-113146525D01*
X123306525Y-113353368D01*
X123144010Y-113596589D01*
X123032068Y-113866842D01*
X122975000Y-114153740D01*
X122975000Y-114446260D01*
X123032068Y-114733158D01*
X123144010Y-115003411D01*
X123306525Y-115246632D01*
X123513368Y-115453475D01*
X123687760Y-115570000D01*
X123513368Y-115686525D01*
X123306525Y-115893368D01*
X123144010Y-116136589D01*
X123032068Y-116406842D01*
X122975000Y-116693740D01*
X122975000Y-116986260D01*
X123032068Y-117273158D01*
X123144010Y-117543411D01*
X123306525Y-117786632D01*
X123513368Y-117993475D01*
X123687760Y-118110000D01*
X123513368Y-118226525D01*
X123306525Y-118433368D01*
X123144010Y-118676589D01*
X123032068Y-118946842D01*
X122975000Y-119233740D01*
X122975000Y-119526260D01*
X123032068Y-119813158D01*
X123144010Y-120083411D01*
X123306525Y-120326632D01*
X123513368Y-120533475D01*
X123687760Y-120650000D01*
X123513368Y-120766525D01*
X123306525Y-120973368D01*
X123144010Y-121216589D01*
X123032068Y-121486842D01*
X122975000Y-121773740D01*
X122975000Y-122066260D01*
X123032068Y-122353158D01*
X123144010Y-122623411D01*
X123306525Y-122866632D01*
X123513368Y-123073475D01*
X123687760Y-123190000D01*
X123513368Y-123306525D01*
X123306525Y-123513368D01*
X123144010Y-123756589D01*
X123032068Y-124026842D01*
X122975000Y-124313740D01*
X122975000Y-124606260D01*
X123032068Y-124893158D01*
X123144010Y-125163411D01*
X123306525Y-125406632D01*
X123513368Y-125613475D01*
X123687760Y-125730000D01*
X123513368Y-125846525D01*
X123306525Y-126053368D01*
X123144010Y-126296589D01*
X123032068Y-126566842D01*
X122975000Y-126853740D01*
X122975000Y-127146260D01*
X123032068Y-127433158D01*
X123144010Y-127703411D01*
X123306525Y-127946632D01*
X123513368Y-128153475D01*
X123687760Y-128270000D01*
X123513368Y-128386525D01*
X123306525Y-128593368D01*
X123144010Y-128836589D01*
X123032068Y-129106842D01*
X122975000Y-129393740D01*
X122975000Y-129686260D01*
X123032068Y-129973158D01*
X123144010Y-130243411D01*
X123306525Y-130486632D01*
X123513368Y-130693475D01*
X123687760Y-130810000D01*
X123513368Y-130926525D01*
X123306525Y-131133368D01*
X123144010Y-131376589D01*
X123032068Y-131646842D01*
X122975000Y-131933740D01*
X122975000Y-132226260D01*
X123032068Y-132513158D01*
X123144010Y-132783411D01*
X123306525Y-133026632D01*
X123513368Y-133233475D01*
X123687760Y-133350000D01*
X123513368Y-133466525D01*
X123306525Y-133673368D01*
X123144010Y-133916589D01*
X123032068Y-134186842D01*
X122975000Y-134473740D01*
X122975000Y-134766260D01*
X123032068Y-135053158D01*
X123144010Y-135323411D01*
X123306525Y-135566632D01*
X123513368Y-135773475D01*
X123687760Y-135890000D01*
X123513368Y-136006525D01*
X123306525Y-136213368D01*
X123144010Y-136456589D01*
X123032068Y-136726842D01*
X122975000Y-137013740D01*
X122975000Y-137306260D01*
X123032068Y-137593158D01*
X123144010Y-137863411D01*
X123306525Y-138106632D01*
X123513368Y-138313475D01*
X123687760Y-138430000D01*
X123513368Y-138546525D01*
X123306525Y-138753368D01*
X123144010Y-138996589D01*
X123032068Y-139266842D01*
X122975000Y-139553740D01*
X122975000Y-139846260D01*
X123032068Y-140133158D01*
X123144010Y-140403411D01*
X123306525Y-140646632D01*
X123513368Y-140853475D01*
X123756589Y-141015990D01*
X124026842Y-141127932D01*
X124313740Y-141185000D01*
X124606260Y-141185000D01*
X124893158Y-141127932D01*
X125163411Y-141015990D01*
X125406632Y-140853475D01*
X125613475Y-140646632D01*
X125730000Y-140472240D01*
X125846525Y-140646632D01*
X126053368Y-140853475D01*
X126296589Y-141015990D01*
X126566842Y-141127932D01*
X126853740Y-141185000D01*
X127146260Y-141185000D01*
X127366408Y-141141210D01*
X127611202Y-141386004D01*
X127635000Y-141415002D01*
X127750725Y-141509975D01*
X127882754Y-141580547D01*
X128026015Y-141624004D01*
X128137668Y-141635001D01*
X128137677Y-141635001D01*
X128175000Y-141638677D01*
X128212323Y-141635001D01*
X151187677Y-141635001D01*
X151224999Y-141638677D01*
X151262321Y-141635001D01*
X151262332Y-141635001D01*
X151373985Y-141624004D01*
X151517246Y-141580547D01*
X151649275Y-141509975D01*
X151765000Y-141415002D01*
X151788803Y-141385998D01*
X152033592Y-141141209D01*
X152253740Y-141185000D01*
X152546260Y-141185000D01*
X152766408Y-141141210D01*
X153011202Y-141386004D01*
X153035000Y-141415002D01*
X153150725Y-141509975D01*
X153282754Y-141580547D01*
X153426015Y-141624004D01*
X153537668Y-141635001D01*
X153537677Y-141635001D01*
X153575000Y-141638677D01*
X153612323Y-141635001D01*
X176587677Y-141635001D01*
X176624999Y-141638677D01*
X176662321Y-141635001D01*
X176662332Y-141635001D01*
X176773985Y-141624004D01*
X176917246Y-141580547D01*
X177049275Y-141509975D01*
X177165000Y-141415002D01*
X177188803Y-141385998D01*
X177433592Y-141141209D01*
X177653740Y-141185000D01*
X177946260Y-141185000D01*
X178166408Y-141141210D01*
X178411202Y-141386004D01*
X178435000Y-141415002D01*
X178550725Y-141509975D01*
X178682754Y-141580547D01*
X178826015Y-141624004D01*
X178937668Y-141635001D01*
X178937677Y-141635001D01*
X178975000Y-141638677D01*
X179012323Y-141635001D01*
X201987677Y-141635001D01*
X202024999Y-141638677D01*
X202062321Y-141635001D01*
X202062332Y-141635001D01*
X202173985Y-141624004D01*
X202317246Y-141580547D01*
X202449275Y-141509975D01*
X202565000Y-141415002D01*
X202588803Y-141385998D01*
X202833592Y-141141209D01*
X203053740Y-141185000D01*
X203346260Y-141185000D01*
X203566408Y-141141210D01*
X203811202Y-141386004D01*
X203835000Y-141415002D01*
X203950725Y-141509975D01*
X204082754Y-141580547D01*
X204226015Y-141624004D01*
X204337668Y-141635001D01*
X204337677Y-141635001D01*
X204375000Y-141638677D01*
X204412323Y-141635001D01*
X227387677Y-141635001D01*
X227424999Y-141638677D01*
X227462321Y-141635001D01*
X227462332Y-141635001D01*
X227573985Y-141624004D01*
X227717246Y-141580547D01*
X227849275Y-141509975D01*
X227965000Y-141415002D01*
X227988803Y-141385998D01*
X228233592Y-141141209D01*
X228453740Y-141185000D01*
X228746260Y-141185000D01*
X228966408Y-141141210D01*
X229211202Y-141386004D01*
X229235000Y-141415002D01*
X229350725Y-141509975D01*
X229482754Y-141580547D01*
X229626015Y-141624004D01*
X229737668Y-141635001D01*
X229737677Y-141635001D01*
X229775000Y-141638677D01*
X229812323Y-141635001D01*
X252787677Y-141635001D01*
X252824999Y-141638677D01*
X252862321Y-141635001D01*
X252862332Y-141635001D01*
X252973985Y-141624004D01*
X253117246Y-141580547D01*
X253249275Y-141509975D01*
X253365000Y-141415002D01*
X253388803Y-141385998D01*
X253633592Y-141141209D01*
X253853740Y-141185000D01*
X254146260Y-141185000D01*
X254433158Y-141127932D01*
X254703411Y-141015990D01*
X254946632Y-140853475D01*
X255153475Y-140646632D01*
X255315990Y-140403411D01*
X255427932Y-140133158D01*
X255485000Y-139846260D01*
X255485000Y-139553740D01*
X255427932Y-139266842D01*
X255315990Y-138996589D01*
X255153475Y-138753368D01*
X254946632Y-138546525D01*
X254772240Y-138430000D01*
X254946632Y-138313475D01*
X255153475Y-138106632D01*
X255315990Y-137863411D01*
X255427932Y-137593158D01*
X255485000Y-137306260D01*
X255485000Y-137013740D01*
X255427932Y-136726842D01*
X255315990Y-136456589D01*
X255153475Y-136213368D01*
X254946632Y-136006525D01*
X254772240Y-135890000D01*
X254946632Y-135773475D01*
X255153475Y-135566632D01*
X255315990Y-135323411D01*
X255427932Y-135053158D01*
X255485000Y-134766260D01*
X255485000Y-134473740D01*
X255427932Y-134186842D01*
X255315990Y-133916589D01*
X255153475Y-133673368D01*
X254946632Y-133466525D01*
X254772240Y-133350000D01*
X254946632Y-133233475D01*
X255153475Y-133026632D01*
X255315990Y-132783411D01*
X255427932Y-132513158D01*
X255485000Y-132226260D01*
X255485000Y-131933740D01*
X255427932Y-131646842D01*
X255315990Y-131376589D01*
X255153475Y-131133368D01*
X254946632Y-130926525D01*
X254772240Y-130810000D01*
X254946632Y-130693475D01*
X255153475Y-130486632D01*
X255315990Y-130243411D01*
X255427932Y-129973158D01*
X255485000Y-129686260D01*
X255485000Y-129393740D01*
X255427932Y-129106842D01*
X255315990Y-128836589D01*
X255153475Y-128593368D01*
X254946632Y-128386525D01*
X254772240Y-128270000D01*
X254946632Y-128153475D01*
X255153475Y-127946632D01*
X255315990Y-127703411D01*
X255427932Y-127433158D01*
X255485000Y-127146260D01*
X255485000Y-126853740D01*
X255427932Y-126566842D01*
X255315990Y-126296589D01*
X255153475Y-126053368D01*
X254946632Y-125846525D01*
X254772240Y-125730000D01*
X254946632Y-125613475D01*
X255153475Y-125406632D01*
X255315990Y-125163411D01*
X255427932Y-124893158D01*
X255485000Y-124606260D01*
X255485000Y-124313740D01*
X255427932Y-124026842D01*
X255315990Y-123756589D01*
X255153475Y-123513368D01*
X254946632Y-123306525D01*
X254772240Y-123190000D01*
X254946632Y-123073475D01*
X255153475Y-122866632D01*
X255315990Y-122623411D01*
X255427932Y-122353158D01*
X255485000Y-122066260D01*
X255485000Y-121773740D01*
X255427932Y-121486842D01*
X255315990Y-121216589D01*
X255153475Y-120973368D01*
X254946632Y-120766525D01*
X254772240Y-120650000D01*
X254946632Y-120533475D01*
X255153475Y-120326632D01*
X255315990Y-120083411D01*
X255427932Y-119813158D01*
X255485000Y-119526260D01*
X255485000Y-119233740D01*
X255427932Y-118946842D01*
X255315990Y-118676589D01*
X255153475Y-118433368D01*
X254946632Y-118226525D01*
X254772240Y-118110000D01*
X254946632Y-117993475D01*
X255153475Y-117786632D01*
X255315990Y-117543411D01*
X255427932Y-117273158D01*
X255485000Y-116986260D01*
X255485000Y-116693740D01*
X255427932Y-116406842D01*
X255315990Y-116136589D01*
X255153475Y-115893368D01*
X254946632Y-115686525D01*
X254772240Y-115570000D01*
X254946632Y-115453475D01*
X255153475Y-115246632D01*
X255315990Y-115003411D01*
X255427932Y-114733158D01*
X255485000Y-114446260D01*
X255485000Y-114153740D01*
X255427932Y-113866842D01*
X255315990Y-113596589D01*
X255153475Y-113353368D01*
X254946632Y-113146525D01*
X254772240Y-113030000D01*
X254946632Y-112913475D01*
X255153475Y-112706632D01*
X255315990Y-112463411D01*
X255427932Y-112193158D01*
X255485000Y-111906260D01*
X255485000Y-111613740D01*
X255427932Y-111326842D01*
X255315990Y-111056589D01*
X255153475Y-110813368D01*
X254946632Y-110606525D01*
X254772240Y-110490000D01*
X254946632Y-110373475D01*
X255153475Y-110166632D01*
X255315990Y-109923411D01*
X255427932Y-109653158D01*
X255485000Y-109366260D01*
X255485000Y-109073740D01*
X255427932Y-108786842D01*
X255315990Y-108516589D01*
X255153475Y-108273368D01*
X254946632Y-108066525D01*
X254772240Y-107950000D01*
X254946632Y-107833475D01*
X255153475Y-107626632D01*
X255315990Y-107383411D01*
X255427932Y-107113158D01*
X255485000Y-106826260D01*
X255485000Y-106533740D01*
X255427932Y-106246842D01*
X255315990Y-105976589D01*
X255153475Y-105733368D01*
X254946632Y-105526525D01*
X254772240Y-105410000D01*
X254946632Y-105293475D01*
X255153475Y-105086632D01*
X255315990Y-104843411D01*
X255427932Y-104573158D01*
X255485000Y-104286260D01*
X255485000Y-103993740D01*
X255427932Y-103706842D01*
X255315990Y-103436589D01*
X255153475Y-103193368D01*
X254946632Y-102986525D01*
X254772240Y-102870000D01*
X254946632Y-102753475D01*
X255153475Y-102546632D01*
X255315990Y-102303411D01*
X255427932Y-102033158D01*
X255485000Y-101746260D01*
X255485000Y-101453740D01*
X255427932Y-101166842D01*
X255315990Y-100896589D01*
X255153475Y-100653368D01*
X254946632Y-100446525D01*
X254772240Y-100330000D01*
X254946632Y-100213475D01*
X255153475Y-100006632D01*
X255315990Y-99763411D01*
X255427932Y-99493158D01*
X255485000Y-99206260D01*
X255485000Y-98913740D01*
X255427932Y-98626842D01*
X255315990Y-98356589D01*
X255153475Y-98113368D01*
X254946632Y-97906525D01*
X254772240Y-97790000D01*
X254946632Y-97673475D01*
X255153475Y-97466632D01*
X255315990Y-97223411D01*
X255427932Y-96953158D01*
X255485000Y-96666260D01*
X255485000Y-96373740D01*
X255427932Y-96086842D01*
X255315990Y-95816589D01*
X255153475Y-95573368D01*
X254946632Y-95366525D01*
X254772240Y-95250000D01*
X254946632Y-95133475D01*
X255153475Y-94926632D01*
X255315990Y-94683411D01*
X255427932Y-94413158D01*
X255485000Y-94126260D01*
X255485000Y-93833740D01*
X255427932Y-93546842D01*
X255315990Y-93276589D01*
X255153475Y-93033368D01*
X254946632Y-92826525D01*
X254772240Y-92710000D01*
X254946632Y-92593475D01*
X255153475Y-92386632D01*
X255315990Y-92143411D01*
X255427932Y-91873158D01*
X255485000Y-91586260D01*
X255485000Y-91293740D01*
X255427932Y-91006842D01*
X255315990Y-90736589D01*
X255153475Y-90493368D01*
X254946632Y-90286525D01*
X254772240Y-90170000D01*
X254946632Y-90053475D01*
X255153475Y-89846632D01*
X255315990Y-89603411D01*
X255427932Y-89333158D01*
X255485000Y-89046260D01*
X255485000Y-88753740D01*
X255427932Y-88466842D01*
X255315990Y-88196589D01*
X255153475Y-87953368D01*
X254946632Y-87746525D01*
X254772240Y-87630000D01*
X254946632Y-87513475D01*
X255153475Y-87306632D01*
X255315990Y-87063411D01*
X255427932Y-86793158D01*
X255485000Y-86506260D01*
X255485000Y-86213740D01*
X255427932Y-85926842D01*
X255315990Y-85656589D01*
X255153475Y-85413368D01*
X254946632Y-85206525D01*
X254772240Y-85090000D01*
X254946632Y-84973475D01*
X255153475Y-84766632D01*
X255315990Y-84523411D01*
X255427932Y-84253158D01*
X255485000Y-83966260D01*
X255485000Y-83673740D01*
X255427932Y-83386842D01*
X255315990Y-83116589D01*
X255153475Y-82873368D01*
X254946632Y-82666525D01*
X254772240Y-82550000D01*
X254946632Y-82433475D01*
X255153475Y-82226632D01*
X255315990Y-81983411D01*
X255427932Y-81713158D01*
X255485000Y-81426260D01*
X255485000Y-81133740D01*
X255427932Y-80846842D01*
X255315990Y-80576589D01*
X255153475Y-80333368D01*
X254946632Y-80126525D01*
X254772240Y-80010000D01*
X254946632Y-79893475D01*
X255153475Y-79686632D01*
X255315990Y-79443411D01*
X255427932Y-79173158D01*
X255485000Y-78886260D01*
X255485000Y-78593740D01*
X255427932Y-78306842D01*
X255315990Y-78036589D01*
X255153475Y-77793368D01*
X254946632Y-77586525D01*
X254772240Y-77470000D01*
X254946632Y-77353475D01*
X255153475Y-77146632D01*
X255315990Y-76903411D01*
X255427932Y-76633158D01*
X255485000Y-76346260D01*
X255485000Y-76053740D01*
X255427932Y-75766842D01*
X255315990Y-75496589D01*
X255153475Y-75253368D01*
X254946632Y-75046525D01*
X254772240Y-74930000D01*
X254946632Y-74813475D01*
X255153475Y-74606632D01*
X255315990Y-74363411D01*
X255427932Y-74093158D01*
X255485000Y-73806260D01*
X255485000Y-73513740D01*
X255427932Y-73226842D01*
X255315990Y-72956589D01*
X255153475Y-72713368D01*
X254946632Y-72506525D01*
X254772240Y-72390000D01*
X254946632Y-72273475D01*
X255153475Y-72066632D01*
X255315990Y-71823411D01*
X255427932Y-71553158D01*
X255485000Y-71266260D01*
X255485000Y-70973740D01*
X255427932Y-70686842D01*
X255315990Y-70416589D01*
X255153475Y-70173368D01*
X254946632Y-69966525D01*
X254772240Y-69850000D01*
X254946632Y-69733475D01*
X255153475Y-69526632D01*
X255315990Y-69283411D01*
X255427932Y-69013158D01*
X255485000Y-68726260D01*
X255485000Y-68433740D01*
X255427932Y-68146842D01*
X255315990Y-67876589D01*
X255153475Y-67633368D01*
X254946632Y-67426525D01*
X254772240Y-67310000D01*
X254946632Y-67193475D01*
X255153475Y-66986632D01*
X255315990Y-66743411D01*
X255427932Y-66473158D01*
X255485000Y-66186260D01*
X255485000Y-65893740D01*
X255427932Y-65606842D01*
X255315990Y-65336589D01*
X255153475Y-65093368D01*
X254946632Y-64886525D01*
X254772240Y-64770000D01*
X254946632Y-64653475D01*
X255153475Y-64446632D01*
X255315990Y-64203411D01*
X255427932Y-63933158D01*
X255485000Y-63646260D01*
X255485000Y-63353740D01*
X255427932Y-63066842D01*
X255315990Y-62796589D01*
X255153475Y-62553368D01*
X254946632Y-62346525D01*
X254772240Y-62230000D01*
X254946632Y-62113475D01*
X255153475Y-61906632D01*
X255315990Y-61663411D01*
X255427932Y-61393158D01*
X255485000Y-61106260D01*
X255485000Y-60813740D01*
X255427932Y-60526842D01*
X255315990Y-60256589D01*
X255153475Y-60013368D01*
X254946632Y-59806525D01*
X254772240Y-59690000D01*
X254946632Y-59573475D01*
X255153475Y-59366632D01*
X255315990Y-59123411D01*
X255427932Y-58853158D01*
X255485000Y-58566260D01*
X255485000Y-58273740D01*
X255427932Y-57986842D01*
X255315990Y-57716589D01*
X255153475Y-57473368D01*
X254946632Y-57266525D01*
X254772240Y-57150000D01*
X254946632Y-57033475D01*
X255153475Y-56826632D01*
X255315990Y-56583411D01*
X255427932Y-56313158D01*
X255485000Y-56026260D01*
X255485000Y-55733740D01*
X255427932Y-55446842D01*
X255315990Y-55176589D01*
X255153475Y-54933368D01*
X254946632Y-54726525D01*
X254772240Y-54610000D01*
X254946632Y-54493475D01*
X255153475Y-54286632D01*
X255315990Y-54043411D01*
X255427932Y-53773158D01*
X255485000Y-53486260D01*
X255485000Y-53193740D01*
X255427932Y-52906842D01*
X255315990Y-52636589D01*
X255153475Y-52393368D01*
X255021620Y-52261513D01*
X255094180Y-52239502D01*
X255204494Y-52180537D01*
X255301185Y-52101185D01*
X255380537Y-52004494D01*
X255439502Y-51894180D01*
X255475812Y-51774482D01*
X255488072Y-51650000D01*
X255488072Y-49950000D01*
X255475812Y-49825518D01*
X255439502Y-49705820D01*
X255380537Y-49595506D01*
X255301185Y-49498815D01*
X255204494Y-49419463D01*
X255094180Y-49360498D01*
X254974482Y-49324188D01*
X254850000Y-49311928D01*
X253150000Y-49311928D01*
X253025518Y-49324188D01*
X252905820Y-49360498D01*
X252795506Y-49419463D01*
X252698815Y-49498815D01*
X252619463Y-49595506D01*
X252560498Y-49705820D01*
X252538487Y-49778380D01*
X252406632Y-49646525D01*
X252163411Y-49484010D01*
X251893158Y-49372068D01*
X251606260Y-49315000D01*
X251313740Y-49315000D01*
X251026842Y-49372068D01*
X250756589Y-49484010D01*
X250513368Y-49646525D01*
X250306525Y-49853368D01*
X250144010Y-50096589D01*
X250032068Y-50366842D01*
X249975000Y-50653740D01*
X249975000Y-50946260D01*
X250028456Y-51215001D01*
X230088072Y-51215001D01*
X230088072Y-49950000D01*
X230075812Y-49825518D01*
X230039502Y-49705820D01*
X229980537Y-49595506D01*
X229901185Y-49498815D01*
X229804494Y-49419463D01*
X229694180Y-49360498D01*
X229574482Y-49324188D01*
X229450000Y-49311928D01*
X227750000Y-49311928D01*
X227625518Y-49324188D01*
X227505820Y-49360498D01*
X227395506Y-49419463D01*
X227298815Y-49498815D01*
X227219463Y-49595506D01*
X227160498Y-49705820D01*
X227138487Y-49778380D01*
X227006632Y-49646525D01*
X226763411Y-49484010D01*
X226493158Y-49372068D01*
X226206260Y-49315000D01*
X225913740Y-49315000D01*
X225626842Y-49372068D01*
X225356589Y-49484010D01*
X225113368Y-49646525D01*
X224906525Y-49853368D01*
X224744010Y-50096589D01*
X224632068Y-50366842D01*
X224575000Y-50653740D01*
X224575000Y-50946260D01*
X224632068Y-51233158D01*
X224703247Y-51404999D01*
X204688072Y-51404999D01*
X204688072Y-49950000D01*
X204675812Y-49825518D01*
X204639502Y-49705820D01*
X204580537Y-49595506D01*
X204501185Y-49498815D01*
X204404494Y-49419463D01*
X204294180Y-49360498D01*
X204174482Y-49324188D01*
X204050000Y-49311928D01*
X202350000Y-49311928D01*
X202225518Y-49324188D01*
X202105820Y-49360498D01*
X201995506Y-49419463D01*
X201898815Y-49498815D01*
X201819463Y-49595506D01*
X201760498Y-49705820D01*
X201738487Y-49778380D01*
X201606632Y-49646525D01*
X201363411Y-49484010D01*
X201093158Y-49372068D01*
X200806260Y-49315000D01*
X200513740Y-49315000D01*
X200226842Y-49372068D01*
X199956589Y-49484010D01*
X199713368Y-49646525D01*
X199506525Y-49853368D01*
X199344010Y-50096589D01*
X199232068Y-50366842D01*
X199175000Y-50653740D01*
X199175000Y-50946260D01*
X199232068Y-51233158D01*
X199303247Y-51404999D01*
X179288072Y-51404999D01*
X179288072Y-49950000D01*
X179275812Y-49825518D01*
X179239502Y-49705820D01*
X179180537Y-49595506D01*
X179101185Y-49498815D01*
X179004494Y-49419463D01*
X178894180Y-49360498D01*
X178774482Y-49324188D01*
X178650000Y-49311928D01*
X176950000Y-49311928D01*
X176825518Y-49324188D01*
X176705820Y-49360498D01*
X176595506Y-49419463D01*
X176498815Y-49498815D01*
X176419463Y-49595506D01*
X176360498Y-49705820D01*
X176338487Y-49778380D01*
X176206632Y-49646525D01*
X175963411Y-49484010D01*
X175693158Y-49372068D01*
X175406260Y-49315000D01*
X175113740Y-49315000D01*
X174826842Y-49372068D01*
X174556589Y-49484010D01*
X174313368Y-49646525D01*
X174106525Y-49853368D01*
X173944010Y-50096589D01*
X173832068Y-50366842D01*
X173775000Y-50653740D01*
X173775000Y-50946260D01*
X173832068Y-51233158D01*
X173903247Y-51404999D01*
X153888072Y-51404999D01*
X153888072Y-49950000D01*
X153875812Y-49825518D01*
X153839502Y-49705820D01*
X153780537Y-49595506D01*
X153701185Y-49498815D01*
X153604494Y-49419463D01*
X153494180Y-49360498D01*
X153374482Y-49324188D01*
X153250000Y-49311928D01*
X151550000Y-49311928D01*
X151425518Y-49324188D01*
X151305820Y-49360498D01*
X151195506Y-49419463D01*
X151098815Y-49498815D01*
X151019463Y-49595506D01*
X150960498Y-49705820D01*
X150938487Y-49778380D01*
X150806632Y-49646525D01*
X150563411Y-49484010D01*
X150293158Y-49372068D01*
X150006260Y-49315000D01*
X149713740Y-49315000D01*
X149426842Y-49372068D01*
X149156589Y-49484010D01*
X148913368Y-49646525D01*
X148706525Y-49853368D01*
X148544010Y-50096589D01*
X148432068Y-50366842D01*
X148375000Y-50653740D01*
X148375000Y-50946260D01*
X148432068Y-51233158D01*
X148503247Y-51404999D01*
X128488072Y-51404999D01*
X128488072Y-49950000D01*
X128475812Y-49825518D01*
X128439502Y-49705820D01*
X128380537Y-49595506D01*
X128301185Y-49498815D01*
X128204494Y-49419463D01*
X128094180Y-49360498D01*
X127974482Y-49324188D01*
X127850000Y-49311928D01*
X126150000Y-49311928D01*
X126025518Y-49324188D01*
X125905820Y-49360498D01*
X125795506Y-49419463D01*
X125698815Y-49498815D01*
X125619463Y-49595506D01*
X125560498Y-49705820D01*
X125538487Y-49778380D01*
X125406632Y-49646525D01*
X125163411Y-49484010D01*
X124893158Y-49372068D01*
X124606260Y-49315000D01*
X124313740Y-49315000D01*
X124026842Y-49372068D01*
X123756589Y-49484010D01*
X123513368Y-49646525D01*
X123306525Y-49853368D01*
X123144010Y-50096589D01*
X123032068Y-50366842D01*
X122975000Y-50653740D01*
X120075000Y-50653740D01*
X120075000Y-43536890D01*
X123018524Y-43536890D01*
X123063175Y-43684099D01*
X123188359Y-43946920D01*
X123362412Y-44180269D01*
X123578645Y-44375178D01*
X123828748Y-44524157D01*
X124103109Y-44621481D01*
X124333000Y-44500814D01*
X124333000Y-43307000D01*
X123139845Y-43307000D01*
X123018524Y-43536890D01*
X120075000Y-43536890D01*
X120075000Y-41546374D01*
X120141309Y-41386290D01*
X120281000Y-40684016D01*
X120281000Y-39967984D01*
X120141309Y-39265710D01*
X120075000Y-39105626D01*
X120075000Y-37953740D01*
X122975000Y-37953740D01*
X122975000Y-38246260D01*
X123032068Y-38533158D01*
X123144010Y-38803411D01*
X123306525Y-39046632D01*
X123513368Y-39253475D01*
X123687760Y-39370000D01*
X123513368Y-39486525D01*
X123306525Y-39693368D01*
X123144010Y-39936589D01*
X123032068Y-40206842D01*
X122975000Y-40493740D01*
X122975000Y-40786260D01*
X123032068Y-41073158D01*
X123144010Y-41343411D01*
X123306525Y-41586632D01*
X123513368Y-41793475D01*
X123695534Y-41915195D01*
X123578645Y-41984822D01*
X123362412Y-42179731D01*
X123188359Y-42413080D01*
X123063175Y-42675901D01*
X123018524Y-42823110D01*
X123139845Y-43053000D01*
X124333000Y-43053000D01*
X124333000Y-43033000D01*
X124587000Y-43033000D01*
X124587000Y-43053000D01*
X124607000Y-43053000D01*
X124607000Y-43307000D01*
X124587000Y-43307000D01*
X124587000Y-44500814D01*
X124816891Y-44621481D01*
X125091252Y-44524157D01*
X125341355Y-44375178D01*
X125557588Y-44180269D01*
X125728900Y-43950594D01*
X125846525Y-44126632D01*
X126053368Y-44333475D01*
X126296589Y-44495990D01*
X126566842Y-44607932D01*
X126853740Y-44665000D01*
X127146260Y-44665000D01*
X127433158Y-44607932D01*
X127703411Y-44495990D01*
X127946632Y-44333475D01*
X128153475Y-44126632D01*
X128315990Y-43883411D01*
X128427932Y-43613158D01*
X128443102Y-43536890D01*
X148418524Y-43536890D01*
X148463175Y-43684099D01*
X148588359Y-43946920D01*
X148762412Y-44180269D01*
X148978645Y-44375178D01*
X149228748Y-44524157D01*
X149503109Y-44621481D01*
X149733000Y-44500814D01*
X149733000Y-43307000D01*
X148539845Y-43307000D01*
X148418524Y-43536890D01*
X128443102Y-43536890D01*
X128485000Y-43326260D01*
X128485000Y-43033740D01*
X128427932Y-42746842D01*
X128356753Y-42575001D01*
X148511235Y-42575001D01*
X148463175Y-42675901D01*
X148418524Y-42823110D01*
X148539845Y-43053000D01*
X149733000Y-43053000D01*
X149733000Y-43033000D01*
X149987000Y-43033000D01*
X149987000Y-43053000D01*
X150007000Y-43053000D01*
X150007000Y-43307000D01*
X149987000Y-43307000D01*
X149987000Y-44500814D01*
X150216891Y-44621481D01*
X150491252Y-44524157D01*
X150741355Y-44375178D01*
X150957588Y-44180269D01*
X151128900Y-43950594D01*
X151246525Y-44126632D01*
X151453368Y-44333475D01*
X151696589Y-44495990D01*
X151966842Y-44607932D01*
X152253740Y-44665000D01*
X152546260Y-44665000D01*
X152833158Y-44607932D01*
X153103411Y-44495990D01*
X153346632Y-44333475D01*
X153553475Y-44126632D01*
X153715990Y-43883411D01*
X153827932Y-43613158D01*
X153843102Y-43536890D01*
X173818524Y-43536890D01*
X173863175Y-43684099D01*
X173988359Y-43946920D01*
X174162412Y-44180269D01*
X174378645Y-44375178D01*
X174628748Y-44524157D01*
X174903109Y-44621481D01*
X175133000Y-44500814D01*
X175133000Y-43307000D01*
X173939845Y-43307000D01*
X173818524Y-43536890D01*
X153843102Y-43536890D01*
X153885000Y-43326260D01*
X153885000Y-43033740D01*
X153827932Y-42746842D01*
X153756753Y-42575001D01*
X173911235Y-42575001D01*
X173863175Y-42675901D01*
X173818524Y-42823110D01*
X173939845Y-43053000D01*
X175133000Y-43053000D01*
X175133000Y-43033000D01*
X175387000Y-43033000D01*
X175387000Y-43053000D01*
X175407000Y-43053000D01*
X175407000Y-43307000D01*
X175387000Y-43307000D01*
X175387000Y-44500814D01*
X175616891Y-44621481D01*
X175891252Y-44524157D01*
X176141355Y-44375178D01*
X176357588Y-44180269D01*
X176528900Y-43950594D01*
X176646525Y-44126632D01*
X176853368Y-44333475D01*
X177096589Y-44495990D01*
X177366842Y-44607932D01*
X177653740Y-44665000D01*
X177946260Y-44665000D01*
X178233158Y-44607932D01*
X178503411Y-44495990D01*
X178746632Y-44333475D01*
X178953475Y-44126632D01*
X179115990Y-43883411D01*
X179227932Y-43613158D01*
X179243102Y-43536890D01*
X199218524Y-43536890D01*
X199263175Y-43684099D01*
X199388359Y-43946920D01*
X199562412Y-44180269D01*
X199778645Y-44375178D01*
X200028748Y-44524157D01*
X200303109Y-44621481D01*
X200533000Y-44500814D01*
X200533000Y-43307000D01*
X199339845Y-43307000D01*
X199218524Y-43536890D01*
X179243102Y-43536890D01*
X179285000Y-43326260D01*
X179285000Y-43033740D01*
X179227932Y-42746842D01*
X179156753Y-42575001D01*
X199311235Y-42575001D01*
X199263175Y-42675901D01*
X199218524Y-42823110D01*
X199339845Y-43053000D01*
X200533000Y-43053000D01*
X200533000Y-43033000D01*
X200787000Y-43033000D01*
X200787000Y-43053000D01*
X200807000Y-43053000D01*
X200807000Y-43307000D01*
X200787000Y-43307000D01*
X200787000Y-44500814D01*
X201016891Y-44621481D01*
X201291252Y-44524157D01*
X201541355Y-44375178D01*
X201757588Y-44180269D01*
X201928900Y-43950594D01*
X202046525Y-44126632D01*
X202253368Y-44333475D01*
X202496589Y-44495990D01*
X202766842Y-44607932D01*
X203053740Y-44665000D01*
X203346260Y-44665000D01*
X203633158Y-44607932D01*
X203903411Y-44495990D01*
X204146632Y-44333475D01*
X204353475Y-44126632D01*
X204515990Y-43883411D01*
X204627932Y-43613158D01*
X204643102Y-43536890D01*
X224618524Y-43536890D01*
X224663175Y-43684099D01*
X224788359Y-43946920D01*
X224962412Y-44180269D01*
X225178645Y-44375178D01*
X225428748Y-44524157D01*
X225703109Y-44621481D01*
X225933000Y-44500814D01*
X225933000Y-43307000D01*
X224739845Y-43307000D01*
X224618524Y-43536890D01*
X204643102Y-43536890D01*
X204685000Y-43326260D01*
X204685000Y-43033740D01*
X204627932Y-42746842D01*
X204556753Y-42575001D01*
X224711235Y-42575001D01*
X224663175Y-42675901D01*
X224618524Y-42823110D01*
X224739845Y-43053000D01*
X225933000Y-43053000D01*
X225933000Y-43033000D01*
X226187000Y-43033000D01*
X226187000Y-43053000D01*
X226207000Y-43053000D01*
X226207000Y-43307000D01*
X226187000Y-43307000D01*
X226187000Y-44500814D01*
X226416891Y-44621481D01*
X226691252Y-44524157D01*
X226941355Y-44375178D01*
X227157588Y-44180269D01*
X227328900Y-43950594D01*
X227446525Y-44126632D01*
X227653368Y-44333475D01*
X227896589Y-44495990D01*
X228166842Y-44607932D01*
X228453740Y-44665000D01*
X228746260Y-44665000D01*
X229033158Y-44607932D01*
X229303411Y-44495990D01*
X229546632Y-44333475D01*
X229753475Y-44126632D01*
X229915990Y-43883411D01*
X230027932Y-43613158D01*
X230043102Y-43536890D01*
X250018524Y-43536890D01*
X250063175Y-43684099D01*
X250188359Y-43946920D01*
X250362412Y-44180269D01*
X250578645Y-44375178D01*
X250828748Y-44524157D01*
X251103109Y-44621481D01*
X251333000Y-44500814D01*
X251333000Y-43307000D01*
X250139845Y-43307000D01*
X250018524Y-43536890D01*
X230043102Y-43536890D01*
X230085000Y-43326260D01*
X230085000Y-43033740D01*
X230027932Y-42746842D01*
X229956753Y-42575001D01*
X250111235Y-42575001D01*
X250063175Y-42675901D01*
X250018524Y-42823110D01*
X250139845Y-43053000D01*
X251333000Y-43053000D01*
X251333000Y-43033000D01*
X251587000Y-43033000D01*
X251587000Y-43053000D01*
X251607000Y-43053000D01*
X251607000Y-43307000D01*
X251587000Y-43307000D01*
X251587000Y-44500814D01*
X251816891Y-44621481D01*
X252091252Y-44524157D01*
X252341355Y-44375178D01*
X252557588Y-44180269D01*
X252728900Y-43950594D01*
X252846525Y-44126632D01*
X253053368Y-44333475D01*
X253296589Y-44495990D01*
X253566842Y-44607932D01*
X253853740Y-44665000D01*
X254146260Y-44665000D01*
X254433158Y-44607932D01*
X254703411Y-44495990D01*
X254946632Y-44333475D01*
X255153475Y-44126632D01*
X255315990Y-43883411D01*
X255427932Y-43613158D01*
X255485000Y-43326260D01*
X255485000Y-43033740D01*
X255427932Y-42746842D01*
X255315990Y-42476589D01*
X255153475Y-42233368D01*
X254946632Y-42026525D01*
X254772240Y-41910000D01*
X254946632Y-41793475D01*
X255153475Y-41586632D01*
X255315990Y-41343411D01*
X255427932Y-41073158D01*
X255485000Y-40786260D01*
X255485000Y-40493740D01*
X255427932Y-40206842D01*
X255315990Y-39936589D01*
X255153475Y-39693368D01*
X255021620Y-39561513D01*
X255094180Y-39539502D01*
X255204494Y-39480537D01*
X255301185Y-39401185D01*
X255380537Y-39304494D01*
X255439502Y-39194180D01*
X255475812Y-39074482D01*
X255488072Y-38950000D01*
X255488072Y-37250000D01*
X255475812Y-37125518D01*
X255439502Y-37005820D01*
X255380537Y-36895506D01*
X255301185Y-36798815D01*
X255204494Y-36719463D01*
X255094180Y-36660498D01*
X254974482Y-36624188D01*
X254850000Y-36611928D01*
X253150000Y-36611928D01*
X253025518Y-36624188D01*
X252905820Y-36660498D01*
X252795506Y-36719463D01*
X252698815Y-36798815D01*
X252619463Y-36895506D01*
X252560498Y-37005820D01*
X252538487Y-37078380D01*
X252406632Y-36946525D01*
X252163411Y-36784010D01*
X251893158Y-36672068D01*
X251606260Y-36615000D01*
X251313740Y-36615000D01*
X251026842Y-36672068D01*
X250756589Y-36784010D01*
X250513368Y-36946525D01*
X250306525Y-37153368D01*
X250144010Y-37396589D01*
X250032068Y-37666842D01*
X249975000Y-37953740D01*
X249975000Y-38246260D01*
X250028456Y-38515001D01*
X230088072Y-38515001D01*
X230088072Y-37250000D01*
X230075812Y-37125518D01*
X230039502Y-37005820D01*
X229980537Y-36895506D01*
X229901185Y-36798815D01*
X229804494Y-36719463D01*
X229694180Y-36660498D01*
X229574482Y-36624188D01*
X229450000Y-36611928D01*
X227750000Y-36611928D01*
X227625518Y-36624188D01*
X227505820Y-36660498D01*
X227395506Y-36719463D01*
X227298815Y-36798815D01*
X227219463Y-36895506D01*
X227160498Y-37005820D01*
X227138487Y-37078380D01*
X227006632Y-36946525D01*
X226763411Y-36784010D01*
X226493158Y-36672068D01*
X226206260Y-36615000D01*
X225913740Y-36615000D01*
X225626842Y-36672068D01*
X225356589Y-36784010D01*
X225113368Y-36946525D01*
X224906525Y-37153368D01*
X224744010Y-37396589D01*
X224632068Y-37666842D01*
X224575000Y-37953740D01*
X224575000Y-38246260D01*
X224628456Y-38515001D01*
X204688072Y-38515001D01*
X204688072Y-37250000D01*
X204675812Y-37125518D01*
X204639502Y-37005820D01*
X204580537Y-36895506D01*
X204501185Y-36798815D01*
X204404494Y-36719463D01*
X204294180Y-36660498D01*
X204174482Y-36624188D01*
X204050000Y-36611928D01*
X202350000Y-36611928D01*
X202225518Y-36624188D01*
X202105820Y-36660498D01*
X201995506Y-36719463D01*
X201898815Y-36798815D01*
X201819463Y-36895506D01*
X201760498Y-37005820D01*
X201738487Y-37078380D01*
X201606632Y-36946525D01*
X201363411Y-36784010D01*
X201093158Y-36672068D01*
X200806260Y-36615000D01*
X200513740Y-36615000D01*
X200226842Y-36672068D01*
X199956589Y-36784010D01*
X199713368Y-36946525D01*
X199506525Y-37153368D01*
X199344010Y-37396589D01*
X199232068Y-37666842D01*
X199175000Y-37953740D01*
X199175000Y-38246260D01*
X199232068Y-38533158D01*
X199303247Y-38704999D01*
X179288072Y-38704999D01*
X179288072Y-37250000D01*
X179275812Y-37125518D01*
X179239502Y-37005820D01*
X179180537Y-36895506D01*
X179101185Y-36798815D01*
X179004494Y-36719463D01*
X178894180Y-36660498D01*
X178774482Y-36624188D01*
X178650000Y-36611928D01*
X176950000Y-36611928D01*
X176825518Y-36624188D01*
X176705820Y-36660498D01*
X176595506Y-36719463D01*
X176498815Y-36798815D01*
X176419463Y-36895506D01*
X176360498Y-37005820D01*
X176338487Y-37078380D01*
X176206632Y-36946525D01*
X175963411Y-36784010D01*
X175693158Y-36672068D01*
X175406260Y-36615000D01*
X175113740Y-36615000D01*
X174826842Y-36672068D01*
X174556589Y-36784010D01*
X174313368Y-36946525D01*
X174106525Y-37153368D01*
X173944010Y-37396589D01*
X173832068Y-37666842D01*
X173775000Y-37953740D01*
X173775000Y-38246260D01*
X173832068Y-38533158D01*
X173903247Y-38704999D01*
X153888072Y-38704999D01*
X153888072Y-37250000D01*
X153875812Y-37125518D01*
X153839502Y-37005820D01*
X153780537Y-36895506D01*
X153701185Y-36798815D01*
X153604494Y-36719463D01*
X153494180Y-36660498D01*
X153374482Y-36624188D01*
X153250000Y-36611928D01*
X151550000Y-36611928D01*
X151425518Y-36624188D01*
X151305820Y-36660498D01*
X151195506Y-36719463D01*
X151098815Y-36798815D01*
X151019463Y-36895506D01*
X150960498Y-37005820D01*
X150938487Y-37078380D01*
X150806632Y-36946525D01*
X150563411Y-36784010D01*
X150293158Y-36672068D01*
X150006260Y-36615000D01*
X149713740Y-36615000D01*
X149426842Y-36672068D01*
X149156589Y-36784010D01*
X148913368Y-36946525D01*
X148706525Y-37153368D01*
X148544010Y-37396589D01*
X148432068Y-37666842D01*
X148375000Y-37953740D01*
X148375000Y-38246260D01*
X148432068Y-38533158D01*
X148503247Y-38704999D01*
X128488072Y-38704999D01*
X128488072Y-37250000D01*
X128475812Y-37125518D01*
X128439502Y-37005820D01*
X128380537Y-36895506D01*
X128301185Y-36798815D01*
X128204494Y-36719463D01*
X128094180Y-36660498D01*
X127974482Y-36624188D01*
X127850000Y-36611928D01*
X126150000Y-36611928D01*
X126025518Y-36624188D01*
X125905820Y-36660498D01*
X125795506Y-36719463D01*
X125698815Y-36798815D01*
X125619463Y-36895506D01*
X125560498Y-37005820D01*
X125538487Y-37078380D01*
X125406632Y-36946525D01*
X125163411Y-36784010D01*
X124893158Y-36672068D01*
X124606260Y-36615000D01*
X124313740Y-36615000D01*
X124026842Y-36672068D01*
X123756589Y-36784010D01*
X123513368Y-36946525D01*
X123306525Y-37153368D01*
X123144010Y-37396589D01*
X123032068Y-37666842D01*
X122975000Y-37953740D01*
X120075000Y-37953740D01*
X120075000Y-35874000D01*
X258124000Y-35874000D01*
X258124000Y-38281759D01*
G04 #@! TA.AperFunction,Conductor*
D16*
G36*
X258124000Y-38281759D02*
G01*
X257823705Y-38731182D01*
X257549691Y-39392710D01*
X257410000Y-40094984D01*
X257410000Y-40811016D01*
X257549691Y-41513290D01*
X257823705Y-42174818D01*
X258124000Y-42624241D01*
X258124000Y-135055759D01*
X257823705Y-135505182D01*
X257549691Y-136166710D01*
X257410000Y-136868984D01*
X257410000Y-137585016D01*
X257549691Y-138287290D01*
X257823705Y-138948818D01*
X258124000Y-139398241D01*
X258124000Y-141792000D01*
X120075000Y-141792000D01*
X120075000Y-140589666D01*
X120238489Y-140426177D01*
X120636295Y-139830818D01*
X120910309Y-139169290D01*
X121050000Y-138467016D01*
X121050000Y-137750984D01*
X120910309Y-137048710D01*
X120636295Y-136387182D01*
X120238489Y-135791823D01*
X120075000Y-135628334D01*
X120075000Y-50653740D01*
X122975000Y-50653740D01*
X122975000Y-50946260D01*
X123032068Y-51233158D01*
X123144010Y-51503411D01*
X123306525Y-51746632D01*
X123513368Y-51953475D01*
X123687760Y-52070000D01*
X123513368Y-52186525D01*
X123306525Y-52393368D01*
X123144010Y-52636589D01*
X123032068Y-52906842D01*
X122975000Y-53193740D01*
X122975000Y-53486260D01*
X123032068Y-53773158D01*
X123144010Y-54043411D01*
X123306525Y-54286632D01*
X123513368Y-54493475D01*
X123687760Y-54610000D01*
X123513368Y-54726525D01*
X123306525Y-54933368D01*
X123144010Y-55176589D01*
X123032068Y-55446842D01*
X122975000Y-55733740D01*
X122975000Y-56026260D01*
X123032068Y-56313158D01*
X123144010Y-56583411D01*
X123306525Y-56826632D01*
X123513368Y-57033475D01*
X123687760Y-57150000D01*
X123513368Y-57266525D01*
X123306525Y-57473368D01*
X123144010Y-57716589D01*
X123032068Y-57986842D01*
X122975000Y-58273740D01*
X122975000Y-58566260D01*
X123032068Y-58853158D01*
X123144010Y-59123411D01*
X123306525Y-59366632D01*
X123513368Y-59573475D01*
X123687760Y-59690000D01*
X123513368Y-59806525D01*
X123306525Y-60013368D01*
X123144010Y-60256589D01*
X123032068Y-60526842D01*
X122975000Y-60813740D01*
X122975000Y-61106260D01*
X123032068Y-61393158D01*
X123144010Y-61663411D01*
X123306525Y-61906632D01*
X123513368Y-62113475D01*
X123687760Y-62230000D01*
X123513368Y-62346525D01*
X123306525Y-62553368D01*
X123144010Y-62796589D01*
X123032068Y-63066842D01*
X122975000Y-63353740D01*
X122975000Y-63646260D01*
X123032068Y-63933158D01*
X123144010Y-64203411D01*
X123306525Y-64446632D01*
X123513368Y-64653475D01*
X123687760Y-64770000D01*
X123513368Y-64886525D01*
X123306525Y-65093368D01*
X123144010Y-65336589D01*
X123032068Y-65606842D01*
X122975000Y-65893740D01*
X122975000Y-66186260D01*
X123032068Y-66473158D01*
X123144010Y-66743411D01*
X123306525Y-66986632D01*
X123513368Y-67193475D01*
X123687760Y-67310000D01*
X123513368Y-67426525D01*
X123306525Y-67633368D01*
X123144010Y-67876589D01*
X123032068Y-68146842D01*
X122975000Y-68433740D01*
X122975000Y-68726260D01*
X123032068Y-69013158D01*
X123144010Y-69283411D01*
X123306525Y-69526632D01*
X123513368Y-69733475D01*
X123687760Y-69850000D01*
X123513368Y-69966525D01*
X123306525Y-70173368D01*
X123144010Y-70416589D01*
X123032068Y-70686842D01*
X122975000Y-70973740D01*
X122975000Y-71266260D01*
X123032068Y-71553158D01*
X123144010Y-71823411D01*
X123306525Y-72066632D01*
X123513368Y-72273475D01*
X123687760Y-72390000D01*
X123513368Y-72506525D01*
X123306525Y-72713368D01*
X123144010Y-72956589D01*
X123032068Y-73226842D01*
X122975000Y-73513740D01*
X122975000Y-73806260D01*
X123032068Y-74093158D01*
X123144010Y-74363411D01*
X123306525Y-74606632D01*
X123513368Y-74813475D01*
X123687760Y-74930000D01*
X123513368Y-75046525D01*
X123306525Y-75253368D01*
X123144010Y-75496589D01*
X123032068Y-75766842D01*
X122975000Y-76053740D01*
X122975000Y-76346260D01*
X123032068Y-76633158D01*
X123144010Y-76903411D01*
X123306525Y-77146632D01*
X123513368Y-77353475D01*
X123687760Y-77470000D01*
X123513368Y-77586525D01*
X123306525Y-77793368D01*
X123144010Y-78036589D01*
X123032068Y-78306842D01*
X122975000Y-78593740D01*
X122975000Y-78886260D01*
X123032068Y-79173158D01*
X123144010Y-79443411D01*
X123306525Y-79686632D01*
X123513368Y-79893475D01*
X123687760Y-80010000D01*
X123513368Y-80126525D01*
X123306525Y-80333368D01*
X123144010Y-80576589D01*
X123032068Y-80846842D01*
X122975000Y-81133740D01*
X122975000Y-81426260D01*
X123032068Y-81713158D01*
X123144010Y-81983411D01*
X123306525Y-82226632D01*
X123513368Y-82433475D01*
X123687760Y-82550000D01*
X123513368Y-82666525D01*
X123306525Y-82873368D01*
X123144010Y-83116589D01*
X123032068Y-83386842D01*
X122975000Y-83673740D01*
X122975000Y-83966260D01*
X123032068Y-84253158D01*
X123144010Y-84523411D01*
X123306525Y-84766632D01*
X123513368Y-84973475D01*
X123687760Y-85090000D01*
X123513368Y-85206525D01*
X123306525Y-85413368D01*
X123144010Y-85656589D01*
X123032068Y-85926842D01*
X122975000Y-86213740D01*
X122975000Y-86506260D01*
X123032068Y-86793158D01*
X123144010Y-87063411D01*
X123306525Y-87306632D01*
X123513368Y-87513475D01*
X123687760Y-87630000D01*
X123513368Y-87746525D01*
X123306525Y-87953368D01*
X123144010Y-88196589D01*
X123032068Y-88466842D01*
X122975000Y-88753740D01*
X122975000Y-89046260D01*
X123032068Y-89333158D01*
X123144010Y-89603411D01*
X123306525Y-89846632D01*
X123513368Y-90053475D01*
X123687760Y-90170000D01*
X123513368Y-90286525D01*
X123306525Y-90493368D01*
X123144010Y-90736589D01*
X123032068Y-91006842D01*
X122975000Y-91293740D01*
X122975000Y-91586260D01*
X123032068Y-91873158D01*
X123144010Y-92143411D01*
X123306525Y-92386632D01*
X123513368Y-92593475D01*
X123687760Y-92710000D01*
X123513368Y-92826525D01*
X123306525Y-93033368D01*
X123144010Y-93276589D01*
X123032068Y-93546842D01*
X122975000Y-93833740D01*
X122975000Y-94126260D01*
X123032068Y-94413158D01*
X123144010Y-94683411D01*
X123306525Y-94926632D01*
X123513368Y-95133475D01*
X123687760Y-95250000D01*
X123513368Y-95366525D01*
X123306525Y-95573368D01*
X123144010Y-95816589D01*
X123032068Y-96086842D01*
X122975000Y-96373740D01*
X122975000Y-96666260D01*
X123032068Y-96953158D01*
X123144010Y-97223411D01*
X123306525Y-97466632D01*
X123513368Y-97673475D01*
X123687760Y-97790000D01*
X123513368Y-97906525D01*
X123306525Y-98113368D01*
X123144010Y-98356589D01*
X123032068Y-98626842D01*
X122975000Y-98913740D01*
X122975000Y-99206260D01*
X123032068Y-99493158D01*
X123144010Y-99763411D01*
X123306525Y-100006632D01*
X123513368Y-100213475D01*
X123687760Y-100330000D01*
X123513368Y-100446525D01*
X123306525Y-100653368D01*
X123144010Y-100896589D01*
X123032068Y-101166842D01*
X122975000Y-101453740D01*
X122975000Y-101746260D01*
X123032068Y-102033158D01*
X123144010Y-102303411D01*
X123306525Y-102546632D01*
X123513368Y-102753475D01*
X123687760Y-102870000D01*
X123513368Y-102986525D01*
X123306525Y-103193368D01*
X123144010Y-103436589D01*
X123032068Y-103706842D01*
X122975000Y-103993740D01*
X122975000Y-104286260D01*
X123032068Y-104573158D01*
X123144010Y-104843411D01*
X123306525Y-105086632D01*
X123513368Y-105293475D01*
X123687760Y-105410000D01*
X123513368Y-105526525D01*
X123306525Y-105733368D01*
X123144010Y-105976589D01*
X123032068Y-106246842D01*
X122975000Y-106533740D01*
X122975000Y-106826260D01*
X123032068Y-107113158D01*
X123144010Y-107383411D01*
X123306525Y-107626632D01*
X123513368Y-107833475D01*
X123687760Y-107950000D01*
X123513368Y-108066525D01*
X123306525Y-108273368D01*
X123144010Y-108516589D01*
X123032068Y-108786842D01*
X122975000Y-109073740D01*
X122975000Y-109366260D01*
X123032068Y-109653158D01*
X123144010Y-109923411D01*
X123306525Y-110166632D01*
X123513368Y-110373475D01*
X123687760Y-110490000D01*
X123513368Y-110606525D01*
X123306525Y-110813368D01*
X123144010Y-111056589D01*
X123032068Y-111326842D01*
X122975000Y-111613740D01*
X122975000Y-111906260D01*
X123032068Y-112193158D01*
X123144010Y-112463411D01*
X123306525Y-112706632D01*
X123513368Y-112913475D01*
X123687760Y-113030000D01*
X123513368Y-113146525D01*
X123306525Y-113353368D01*
X123144010Y-113596589D01*
X123032068Y-113866842D01*
X122975000Y-114153740D01*
X122975000Y-114446260D01*
X123032068Y-114733158D01*
X123144010Y-115003411D01*
X123306525Y-115246632D01*
X123513368Y-115453475D01*
X123687760Y-115570000D01*
X123513368Y-115686525D01*
X123306525Y-115893368D01*
X123144010Y-116136589D01*
X123032068Y-116406842D01*
X122975000Y-116693740D01*
X122975000Y-116986260D01*
X123032068Y-117273158D01*
X123144010Y-117543411D01*
X123306525Y-117786632D01*
X123513368Y-117993475D01*
X123687760Y-118110000D01*
X123513368Y-118226525D01*
X123306525Y-118433368D01*
X123144010Y-118676589D01*
X123032068Y-118946842D01*
X122975000Y-119233740D01*
X122975000Y-119526260D01*
X123032068Y-119813158D01*
X123144010Y-120083411D01*
X123306525Y-120326632D01*
X123513368Y-120533475D01*
X123687760Y-120650000D01*
X123513368Y-120766525D01*
X123306525Y-120973368D01*
X123144010Y-121216589D01*
X123032068Y-121486842D01*
X122975000Y-121773740D01*
X122975000Y-122066260D01*
X123032068Y-122353158D01*
X123144010Y-122623411D01*
X123306525Y-122866632D01*
X123513368Y-123073475D01*
X123687760Y-123190000D01*
X123513368Y-123306525D01*
X123306525Y-123513368D01*
X123144010Y-123756589D01*
X123032068Y-124026842D01*
X122975000Y-124313740D01*
X122975000Y-124606260D01*
X123032068Y-124893158D01*
X123144010Y-125163411D01*
X123306525Y-125406632D01*
X123513368Y-125613475D01*
X123687760Y-125730000D01*
X123513368Y-125846525D01*
X123306525Y-126053368D01*
X123144010Y-126296589D01*
X123032068Y-126566842D01*
X122975000Y-126853740D01*
X122975000Y-127146260D01*
X123032068Y-127433158D01*
X123144010Y-127703411D01*
X123306525Y-127946632D01*
X123513368Y-128153475D01*
X123687760Y-128270000D01*
X123513368Y-128386525D01*
X123306525Y-128593368D01*
X123144010Y-128836589D01*
X123032068Y-129106842D01*
X122975000Y-129393740D01*
X122975000Y-129686260D01*
X123032068Y-129973158D01*
X123144010Y-130243411D01*
X123306525Y-130486632D01*
X123513368Y-130693475D01*
X123687760Y-130810000D01*
X123513368Y-130926525D01*
X123306525Y-131133368D01*
X123144010Y-131376589D01*
X123032068Y-131646842D01*
X122975000Y-131933740D01*
X122975000Y-132226260D01*
X123032068Y-132513158D01*
X123144010Y-132783411D01*
X123306525Y-133026632D01*
X123513368Y-133233475D01*
X123687760Y-133350000D01*
X123513368Y-133466525D01*
X123306525Y-133673368D01*
X123144010Y-133916589D01*
X123032068Y-134186842D01*
X122975000Y-134473740D01*
X122975000Y-134766260D01*
X123032068Y-135053158D01*
X123144010Y-135323411D01*
X123306525Y-135566632D01*
X123513368Y-135773475D01*
X123687760Y-135890000D01*
X123513368Y-136006525D01*
X123306525Y-136213368D01*
X123144010Y-136456589D01*
X123032068Y-136726842D01*
X122975000Y-137013740D01*
X122975000Y-137306260D01*
X123032068Y-137593158D01*
X123144010Y-137863411D01*
X123306525Y-138106632D01*
X123513368Y-138313475D01*
X123687760Y-138430000D01*
X123513368Y-138546525D01*
X123306525Y-138753368D01*
X123144010Y-138996589D01*
X123032068Y-139266842D01*
X122975000Y-139553740D01*
X122975000Y-139846260D01*
X123032068Y-140133158D01*
X123144010Y-140403411D01*
X123306525Y-140646632D01*
X123513368Y-140853475D01*
X123756589Y-141015990D01*
X124026842Y-141127932D01*
X124313740Y-141185000D01*
X124606260Y-141185000D01*
X124893158Y-141127932D01*
X125163411Y-141015990D01*
X125406632Y-140853475D01*
X125613475Y-140646632D01*
X125730000Y-140472240D01*
X125846525Y-140646632D01*
X126053368Y-140853475D01*
X126296589Y-141015990D01*
X126566842Y-141127932D01*
X126853740Y-141185000D01*
X127146260Y-141185000D01*
X127366408Y-141141210D01*
X127611202Y-141386004D01*
X127635000Y-141415002D01*
X127750725Y-141509975D01*
X127882754Y-141580547D01*
X128026015Y-141624004D01*
X128137668Y-141635001D01*
X128137677Y-141635001D01*
X128175000Y-141638677D01*
X128212323Y-141635001D01*
X151187677Y-141635001D01*
X151224999Y-141638677D01*
X151262321Y-141635001D01*
X151262332Y-141635001D01*
X151373985Y-141624004D01*
X151517246Y-141580547D01*
X151649275Y-141509975D01*
X151765000Y-141415002D01*
X151788803Y-141385998D01*
X152033592Y-141141209D01*
X152253740Y-141185000D01*
X152546260Y-141185000D01*
X152766408Y-141141210D01*
X153011202Y-141386004D01*
X153035000Y-141415002D01*
X153150725Y-141509975D01*
X153282754Y-141580547D01*
X153426015Y-141624004D01*
X153537668Y-141635001D01*
X153537677Y-141635001D01*
X153575000Y-141638677D01*
X153612323Y-141635001D01*
X176587677Y-141635001D01*
X176624999Y-141638677D01*
X176662321Y-141635001D01*
X176662332Y-141635001D01*
X176773985Y-141624004D01*
X176917246Y-141580547D01*
X177049275Y-141509975D01*
X177165000Y-141415002D01*
X177188803Y-141385998D01*
X177433592Y-141141209D01*
X177653740Y-141185000D01*
X177946260Y-141185000D01*
X178166408Y-141141210D01*
X178411202Y-141386004D01*
X178435000Y-141415002D01*
X178550725Y-141509975D01*
X178682754Y-141580547D01*
X178826015Y-141624004D01*
X178937668Y-141635001D01*
X178937677Y-141635001D01*
X178975000Y-141638677D01*
X179012323Y-141635001D01*
X201987677Y-141635001D01*
X202024999Y-141638677D01*
X202062321Y-141635001D01*
X202062332Y-141635001D01*
X202173985Y-141624004D01*
X202317246Y-141580547D01*
X202449275Y-141509975D01*
X202565000Y-141415002D01*
X202588803Y-141385998D01*
X202833592Y-141141209D01*
X203053740Y-141185000D01*
X203346260Y-141185000D01*
X203566408Y-141141210D01*
X203811202Y-141386004D01*
X203835000Y-141415002D01*
X203950725Y-141509975D01*
X204082754Y-141580547D01*
X204226015Y-141624004D01*
X204337668Y-141635001D01*
X204337677Y-141635001D01*
X204375000Y-141638677D01*
X204412323Y-141635001D01*
X227387677Y-141635001D01*
X227424999Y-141638677D01*
X227462321Y-141635001D01*
X227462332Y-141635001D01*
X227573985Y-141624004D01*
X227717246Y-141580547D01*
X227849275Y-141509975D01*
X227965000Y-141415002D01*
X227988803Y-141385998D01*
X228233592Y-141141209D01*
X228453740Y-141185000D01*
X228746260Y-141185000D01*
X228966408Y-141141210D01*
X229211202Y-141386004D01*
X229235000Y-141415002D01*
X229350725Y-141509975D01*
X229482754Y-141580547D01*
X229626015Y-141624004D01*
X229737668Y-141635001D01*
X229737677Y-141635001D01*
X229775000Y-141638677D01*
X229812323Y-141635001D01*
X252787677Y-141635001D01*
X252824999Y-141638677D01*
X252862321Y-141635001D01*
X252862332Y-141635001D01*
X252973985Y-141624004D01*
X253117246Y-141580547D01*
X253249275Y-141509975D01*
X253365000Y-141415002D01*
X253388803Y-141385998D01*
X253633592Y-141141209D01*
X253853740Y-141185000D01*
X254146260Y-141185000D01*
X254433158Y-141127932D01*
X254703411Y-141015990D01*
X254946632Y-140853475D01*
X255153475Y-140646632D01*
X255315990Y-140403411D01*
X255427932Y-140133158D01*
X255485000Y-139846260D01*
X255485000Y-139553740D01*
X255427932Y-139266842D01*
X255315990Y-138996589D01*
X255153475Y-138753368D01*
X254946632Y-138546525D01*
X254772240Y-138430000D01*
X254946632Y-138313475D01*
X255153475Y-138106632D01*
X255315990Y-137863411D01*
X255427932Y-137593158D01*
X255485000Y-137306260D01*
X255485000Y-137013740D01*
X255427932Y-136726842D01*
X255315990Y-136456589D01*
X255153475Y-136213368D01*
X254946632Y-136006525D01*
X254772240Y-135890000D01*
X254946632Y-135773475D01*
X255153475Y-135566632D01*
X255315990Y-135323411D01*
X255427932Y-135053158D01*
X255485000Y-134766260D01*
X255485000Y-134473740D01*
X255427932Y-134186842D01*
X255315990Y-133916589D01*
X255153475Y-133673368D01*
X254946632Y-133466525D01*
X254772240Y-133350000D01*
X254946632Y-133233475D01*
X255153475Y-133026632D01*
X255315990Y-132783411D01*
X255427932Y-132513158D01*
X255485000Y-132226260D01*
X255485000Y-131933740D01*
X255427932Y-131646842D01*
X255315990Y-131376589D01*
X255153475Y-131133368D01*
X254946632Y-130926525D01*
X254772240Y-130810000D01*
X254946632Y-130693475D01*
X255153475Y-130486632D01*
X255315990Y-130243411D01*
X255427932Y-129973158D01*
X255485000Y-129686260D01*
X255485000Y-129393740D01*
X255427932Y-129106842D01*
X255315990Y-128836589D01*
X255153475Y-128593368D01*
X254946632Y-128386525D01*
X254772240Y-128270000D01*
X254946632Y-128153475D01*
X255153475Y-127946632D01*
X255315990Y-127703411D01*
X255427932Y-127433158D01*
X255485000Y-127146260D01*
X255485000Y-126853740D01*
X255427932Y-126566842D01*
X255315990Y-126296589D01*
X255153475Y-126053368D01*
X254946632Y-125846525D01*
X254772240Y-125730000D01*
X254946632Y-125613475D01*
X255153475Y-125406632D01*
X255315990Y-125163411D01*
X255427932Y-124893158D01*
X255485000Y-124606260D01*
X255485000Y-124313740D01*
X255427932Y-124026842D01*
X255315990Y-123756589D01*
X255153475Y-123513368D01*
X254946632Y-123306525D01*
X254772240Y-123190000D01*
X254946632Y-123073475D01*
X255153475Y-122866632D01*
X255315990Y-122623411D01*
X255427932Y-122353158D01*
X255485000Y-122066260D01*
X255485000Y-121773740D01*
X255427932Y-121486842D01*
X255315990Y-121216589D01*
X255153475Y-120973368D01*
X254946632Y-120766525D01*
X254772240Y-120650000D01*
X254946632Y-120533475D01*
X255153475Y-120326632D01*
X255315990Y-120083411D01*
X255427932Y-119813158D01*
X255485000Y-119526260D01*
X255485000Y-119233740D01*
X255427932Y-118946842D01*
X255315990Y-118676589D01*
X255153475Y-118433368D01*
X254946632Y-118226525D01*
X254772240Y-118110000D01*
X254946632Y-117993475D01*
X255153475Y-117786632D01*
X255315990Y-117543411D01*
X255427932Y-117273158D01*
X255485000Y-116986260D01*
X255485000Y-116693740D01*
X255427932Y-116406842D01*
X255315990Y-116136589D01*
X255153475Y-115893368D01*
X254946632Y-115686525D01*
X254772240Y-115570000D01*
X254946632Y-115453475D01*
X255153475Y-115246632D01*
X255315990Y-115003411D01*
X255427932Y-114733158D01*
X255485000Y-114446260D01*
X255485000Y-114153740D01*
X255427932Y-113866842D01*
X255315990Y-113596589D01*
X255153475Y-113353368D01*
X254946632Y-113146525D01*
X254772240Y-113030000D01*
X254946632Y-112913475D01*
X255153475Y-112706632D01*
X255315990Y-112463411D01*
X255427932Y-112193158D01*
X255485000Y-111906260D01*
X255485000Y-111613740D01*
X255427932Y-111326842D01*
X255315990Y-111056589D01*
X255153475Y-110813368D01*
X254946632Y-110606525D01*
X254772240Y-110490000D01*
X254946632Y-110373475D01*
X255153475Y-110166632D01*
X255315990Y-109923411D01*
X255427932Y-109653158D01*
X255485000Y-109366260D01*
X255485000Y-109073740D01*
X255427932Y-108786842D01*
X255315990Y-108516589D01*
X255153475Y-108273368D01*
X254946632Y-108066525D01*
X254772240Y-107950000D01*
X254946632Y-107833475D01*
X255153475Y-107626632D01*
X255315990Y-107383411D01*
X255427932Y-107113158D01*
X255485000Y-106826260D01*
X255485000Y-106533740D01*
X255427932Y-106246842D01*
X255315990Y-105976589D01*
X255153475Y-105733368D01*
X254946632Y-105526525D01*
X254772240Y-105410000D01*
X254946632Y-105293475D01*
X255153475Y-105086632D01*
X255315990Y-104843411D01*
X255427932Y-104573158D01*
X255485000Y-104286260D01*
X255485000Y-103993740D01*
X255427932Y-103706842D01*
X255315990Y-103436589D01*
X255153475Y-103193368D01*
X254946632Y-102986525D01*
X254772240Y-102870000D01*
X254946632Y-102753475D01*
X255153475Y-102546632D01*
X255315990Y-102303411D01*
X255427932Y-102033158D01*
X255485000Y-101746260D01*
X255485000Y-101453740D01*
X255427932Y-101166842D01*
X255315990Y-100896589D01*
X255153475Y-100653368D01*
X254946632Y-100446525D01*
X254772240Y-100330000D01*
X254946632Y-100213475D01*
X255153475Y-100006632D01*
X255315990Y-99763411D01*
X255427932Y-99493158D01*
X255485000Y-99206260D01*
X255485000Y-98913740D01*
X255427932Y-98626842D01*
X255315990Y-98356589D01*
X255153475Y-98113368D01*
X254946632Y-97906525D01*
X254772240Y-97790000D01*
X254946632Y-97673475D01*
X255153475Y-97466632D01*
X255315990Y-97223411D01*
X255427932Y-96953158D01*
X255485000Y-96666260D01*
X255485000Y-96373740D01*
X255427932Y-96086842D01*
X255315990Y-95816589D01*
X255153475Y-95573368D01*
X254946632Y-95366525D01*
X254772240Y-95250000D01*
X254946632Y-95133475D01*
X255153475Y-94926632D01*
X255315990Y-94683411D01*
X255427932Y-94413158D01*
X255485000Y-94126260D01*
X255485000Y-93833740D01*
X255427932Y-93546842D01*
X255315990Y-93276589D01*
X255153475Y-93033368D01*
X254946632Y-92826525D01*
X254772240Y-92710000D01*
X254946632Y-92593475D01*
X255153475Y-92386632D01*
X255315990Y-92143411D01*
X255427932Y-91873158D01*
X255485000Y-91586260D01*
X255485000Y-91293740D01*
X255427932Y-91006842D01*
X255315990Y-90736589D01*
X255153475Y-90493368D01*
X254946632Y-90286525D01*
X254772240Y-90170000D01*
X254946632Y-90053475D01*
X255153475Y-89846632D01*
X255315990Y-89603411D01*
X255427932Y-89333158D01*
X255485000Y-89046260D01*
X255485000Y-88753740D01*
X255427932Y-88466842D01*
X255315990Y-88196589D01*
X255153475Y-87953368D01*
X254946632Y-87746525D01*
X254772240Y-87630000D01*
X254946632Y-87513475D01*
X255153475Y-87306632D01*
X255315990Y-87063411D01*
X255427932Y-86793158D01*
X255485000Y-86506260D01*
X255485000Y-86213740D01*
X255427932Y-85926842D01*
X255315990Y-85656589D01*
X255153475Y-85413368D01*
X254946632Y-85206525D01*
X254772240Y-85090000D01*
X254946632Y-84973475D01*
X255153475Y-84766632D01*
X255315990Y-84523411D01*
X255427932Y-84253158D01*
X255485000Y-83966260D01*
X255485000Y-83673740D01*
X255427932Y-83386842D01*
X255315990Y-83116589D01*
X255153475Y-82873368D01*
X254946632Y-82666525D01*
X254772240Y-82550000D01*
X254946632Y-82433475D01*
X255153475Y-82226632D01*
X255315990Y-81983411D01*
X255427932Y-81713158D01*
X255485000Y-81426260D01*
X255485000Y-81133740D01*
X255427932Y-80846842D01*
X255315990Y-80576589D01*
X255153475Y-80333368D01*
X254946632Y-80126525D01*
X254772240Y-80010000D01*
X254946632Y-79893475D01*
X255153475Y-79686632D01*
X255315990Y-79443411D01*
X255427932Y-79173158D01*
X255485000Y-78886260D01*
X255485000Y-78593740D01*
X255427932Y-78306842D01*
X255315990Y-78036589D01*
X255153475Y-77793368D01*
X254946632Y-77586525D01*
X254772240Y-77470000D01*
X254946632Y-77353475D01*
X255153475Y-77146632D01*
X255315990Y-76903411D01*
X255427932Y-76633158D01*
X255485000Y-76346260D01*
X255485000Y-76053740D01*
X255427932Y-75766842D01*
X255315990Y-75496589D01*
X255153475Y-75253368D01*
X254946632Y-75046525D01*
X254772240Y-74930000D01*
X254946632Y-74813475D01*
X255153475Y-74606632D01*
X255315990Y-74363411D01*
X255427932Y-74093158D01*
X255485000Y-73806260D01*
X255485000Y-73513740D01*
X255427932Y-73226842D01*
X255315990Y-72956589D01*
X255153475Y-72713368D01*
X254946632Y-72506525D01*
X254772240Y-72390000D01*
X254946632Y-72273475D01*
X255153475Y-72066632D01*
X255315990Y-71823411D01*
X255427932Y-71553158D01*
X255485000Y-71266260D01*
X255485000Y-70973740D01*
X255427932Y-70686842D01*
X255315990Y-70416589D01*
X255153475Y-70173368D01*
X254946632Y-69966525D01*
X254772240Y-69850000D01*
X254946632Y-69733475D01*
X255153475Y-69526632D01*
X255315990Y-69283411D01*
X255427932Y-69013158D01*
X255485000Y-68726260D01*
X255485000Y-68433740D01*
X255427932Y-68146842D01*
X255315990Y-67876589D01*
X255153475Y-67633368D01*
X254946632Y-67426525D01*
X254772240Y-67310000D01*
X254946632Y-67193475D01*
X255153475Y-66986632D01*
X255315990Y-66743411D01*
X255427932Y-66473158D01*
X255485000Y-66186260D01*
X255485000Y-65893740D01*
X255427932Y-65606842D01*
X255315990Y-65336589D01*
X255153475Y-65093368D01*
X254946632Y-64886525D01*
X254772240Y-64770000D01*
X254946632Y-64653475D01*
X255153475Y-64446632D01*
X255315990Y-64203411D01*
X255427932Y-63933158D01*
X255485000Y-63646260D01*
X255485000Y-63353740D01*
X255427932Y-63066842D01*
X255315990Y-62796589D01*
X255153475Y-62553368D01*
X254946632Y-62346525D01*
X254772240Y-62230000D01*
X254946632Y-62113475D01*
X255153475Y-61906632D01*
X255315990Y-61663411D01*
X255427932Y-61393158D01*
X255485000Y-61106260D01*
X255485000Y-60813740D01*
X255427932Y-60526842D01*
X255315990Y-60256589D01*
X255153475Y-60013368D01*
X254946632Y-59806525D01*
X254772240Y-59690000D01*
X254946632Y-59573475D01*
X255153475Y-59366632D01*
X255315990Y-59123411D01*
X255427932Y-58853158D01*
X255485000Y-58566260D01*
X255485000Y-58273740D01*
X255427932Y-57986842D01*
X255315990Y-57716589D01*
X255153475Y-57473368D01*
X254946632Y-57266525D01*
X254772240Y-57150000D01*
X254946632Y-57033475D01*
X255153475Y-56826632D01*
X255315990Y-56583411D01*
X255427932Y-56313158D01*
X255485000Y-56026260D01*
X255485000Y-55733740D01*
X255427932Y-55446842D01*
X255315990Y-55176589D01*
X255153475Y-54933368D01*
X254946632Y-54726525D01*
X254772240Y-54610000D01*
X254946632Y-54493475D01*
X255153475Y-54286632D01*
X255315990Y-54043411D01*
X255427932Y-53773158D01*
X255485000Y-53486260D01*
X255485000Y-53193740D01*
X255427932Y-52906842D01*
X255315990Y-52636589D01*
X255153475Y-52393368D01*
X255021620Y-52261513D01*
X255094180Y-52239502D01*
X255204494Y-52180537D01*
X255301185Y-52101185D01*
X255380537Y-52004494D01*
X255439502Y-51894180D01*
X255475812Y-51774482D01*
X255488072Y-51650000D01*
X255488072Y-49950000D01*
X255475812Y-49825518D01*
X255439502Y-49705820D01*
X255380537Y-49595506D01*
X255301185Y-49498815D01*
X255204494Y-49419463D01*
X255094180Y-49360498D01*
X254974482Y-49324188D01*
X254850000Y-49311928D01*
X253150000Y-49311928D01*
X253025518Y-49324188D01*
X252905820Y-49360498D01*
X252795506Y-49419463D01*
X252698815Y-49498815D01*
X252619463Y-49595506D01*
X252560498Y-49705820D01*
X252538487Y-49778380D01*
X252406632Y-49646525D01*
X252163411Y-49484010D01*
X251893158Y-49372068D01*
X251606260Y-49315000D01*
X251313740Y-49315000D01*
X251026842Y-49372068D01*
X250756589Y-49484010D01*
X250513368Y-49646525D01*
X250306525Y-49853368D01*
X250144010Y-50096589D01*
X250032068Y-50366842D01*
X249975000Y-50653740D01*
X249975000Y-50946260D01*
X250028456Y-51215001D01*
X230088072Y-51215001D01*
X230088072Y-49950000D01*
X230075812Y-49825518D01*
X230039502Y-49705820D01*
X229980537Y-49595506D01*
X229901185Y-49498815D01*
X229804494Y-49419463D01*
X229694180Y-49360498D01*
X229574482Y-49324188D01*
X229450000Y-49311928D01*
X227750000Y-49311928D01*
X227625518Y-49324188D01*
X227505820Y-49360498D01*
X227395506Y-49419463D01*
X227298815Y-49498815D01*
X227219463Y-49595506D01*
X227160498Y-49705820D01*
X227138487Y-49778380D01*
X227006632Y-49646525D01*
X226763411Y-49484010D01*
X226493158Y-49372068D01*
X226206260Y-49315000D01*
X225913740Y-49315000D01*
X225626842Y-49372068D01*
X225356589Y-49484010D01*
X225113368Y-49646525D01*
X224906525Y-49853368D01*
X224744010Y-50096589D01*
X224632068Y-50366842D01*
X224575000Y-50653740D01*
X224575000Y-50946260D01*
X224632068Y-51233158D01*
X224703247Y-51404999D01*
X204688072Y-51404999D01*
X204688072Y-49950000D01*
X204675812Y-49825518D01*
X204639502Y-49705820D01*
X204580537Y-49595506D01*
X204501185Y-49498815D01*
X204404494Y-49419463D01*
X204294180Y-49360498D01*
X204174482Y-49324188D01*
X204050000Y-49311928D01*
X202350000Y-49311928D01*
X202225518Y-49324188D01*
X202105820Y-49360498D01*
X201995506Y-49419463D01*
X201898815Y-49498815D01*
X201819463Y-49595506D01*
X201760498Y-49705820D01*
X201738487Y-49778380D01*
X201606632Y-49646525D01*
X201363411Y-49484010D01*
X201093158Y-49372068D01*
X200806260Y-49315000D01*
X200513740Y-49315000D01*
X200226842Y-49372068D01*
X199956589Y-49484010D01*
X199713368Y-49646525D01*
X199506525Y-49853368D01*
X199344010Y-50096589D01*
X199232068Y-50366842D01*
X199175000Y-50653740D01*
X199175000Y-50946260D01*
X199232068Y-51233158D01*
X199303247Y-51404999D01*
X179288072Y-51404999D01*
X179288072Y-49950000D01*
X179275812Y-49825518D01*
X179239502Y-49705820D01*
X179180537Y-49595506D01*
X179101185Y-49498815D01*
X179004494Y-49419463D01*
X178894180Y-49360498D01*
X178774482Y-49324188D01*
X178650000Y-49311928D01*
X176950000Y-49311928D01*
X176825518Y-49324188D01*
X176705820Y-49360498D01*
X176595506Y-49419463D01*
X176498815Y-49498815D01*
X176419463Y-49595506D01*
X176360498Y-49705820D01*
X176338487Y-49778380D01*
X176206632Y-49646525D01*
X175963411Y-49484010D01*
X175693158Y-49372068D01*
X175406260Y-49315000D01*
X175113740Y-49315000D01*
X174826842Y-49372068D01*
X174556589Y-49484010D01*
X174313368Y-49646525D01*
X174106525Y-49853368D01*
X173944010Y-50096589D01*
X173832068Y-50366842D01*
X173775000Y-50653740D01*
X173775000Y-50946260D01*
X173832068Y-51233158D01*
X173903247Y-51404999D01*
X153888072Y-51404999D01*
X153888072Y-49950000D01*
X153875812Y-49825518D01*
X153839502Y-49705820D01*
X153780537Y-49595506D01*
X153701185Y-49498815D01*
X153604494Y-49419463D01*
X153494180Y-49360498D01*
X153374482Y-49324188D01*
X153250000Y-49311928D01*
X151550000Y-49311928D01*
X151425518Y-49324188D01*
X151305820Y-49360498D01*
X151195506Y-49419463D01*
X151098815Y-49498815D01*
X151019463Y-49595506D01*
X150960498Y-49705820D01*
X150938487Y-49778380D01*
X150806632Y-49646525D01*
X150563411Y-49484010D01*
X150293158Y-49372068D01*
X150006260Y-49315000D01*
X149713740Y-49315000D01*
X149426842Y-49372068D01*
X149156589Y-49484010D01*
X148913368Y-49646525D01*
X148706525Y-49853368D01*
X148544010Y-50096589D01*
X148432068Y-50366842D01*
X148375000Y-50653740D01*
X148375000Y-50946260D01*
X148432068Y-51233158D01*
X148503247Y-51404999D01*
X128488072Y-51404999D01*
X128488072Y-49950000D01*
X128475812Y-49825518D01*
X128439502Y-49705820D01*
X128380537Y-49595506D01*
X128301185Y-49498815D01*
X128204494Y-49419463D01*
X128094180Y-49360498D01*
X127974482Y-49324188D01*
X127850000Y-49311928D01*
X126150000Y-49311928D01*
X126025518Y-49324188D01*
X125905820Y-49360498D01*
X125795506Y-49419463D01*
X125698815Y-49498815D01*
X125619463Y-49595506D01*
X125560498Y-49705820D01*
X125538487Y-49778380D01*
X125406632Y-49646525D01*
X125163411Y-49484010D01*
X124893158Y-49372068D01*
X124606260Y-49315000D01*
X124313740Y-49315000D01*
X124026842Y-49372068D01*
X123756589Y-49484010D01*
X123513368Y-49646525D01*
X123306525Y-49853368D01*
X123144010Y-50096589D01*
X123032068Y-50366842D01*
X122975000Y-50653740D01*
X120075000Y-50653740D01*
X120075000Y-43536890D01*
X123018524Y-43536890D01*
X123063175Y-43684099D01*
X123188359Y-43946920D01*
X123362412Y-44180269D01*
X123578645Y-44375178D01*
X123828748Y-44524157D01*
X124103109Y-44621481D01*
X124333000Y-44500814D01*
X124333000Y-43307000D01*
X123139845Y-43307000D01*
X123018524Y-43536890D01*
X120075000Y-43536890D01*
X120075000Y-41546374D01*
X120141309Y-41386290D01*
X120281000Y-40684016D01*
X120281000Y-39967984D01*
X120141309Y-39265710D01*
X120075000Y-39105626D01*
X120075000Y-37953740D01*
X122975000Y-37953740D01*
X122975000Y-38246260D01*
X123032068Y-38533158D01*
X123144010Y-38803411D01*
X123306525Y-39046632D01*
X123513368Y-39253475D01*
X123687760Y-39370000D01*
X123513368Y-39486525D01*
X123306525Y-39693368D01*
X123144010Y-39936589D01*
X123032068Y-40206842D01*
X122975000Y-40493740D01*
X122975000Y-40786260D01*
X123032068Y-41073158D01*
X123144010Y-41343411D01*
X123306525Y-41586632D01*
X123513368Y-41793475D01*
X123695534Y-41915195D01*
X123578645Y-41984822D01*
X123362412Y-42179731D01*
X123188359Y-42413080D01*
X123063175Y-42675901D01*
X123018524Y-42823110D01*
X123139845Y-43053000D01*
X124333000Y-43053000D01*
X124333000Y-43033000D01*
X124587000Y-43033000D01*
X124587000Y-43053000D01*
X124607000Y-43053000D01*
X124607000Y-43307000D01*
X124587000Y-43307000D01*
X124587000Y-44500814D01*
X124816891Y-44621481D01*
X125091252Y-44524157D01*
X125341355Y-44375178D01*
X125557588Y-44180269D01*
X125728900Y-43950594D01*
X125846525Y-44126632D01*
X126053368Y-44333475D01*
X126296589Y-44495990D01*
X126566842Y-44607932D01*
X126853740Y-44665000D01*
X127146260Y-44665000D01*
X127433158Y-44607932D01*
X127703411Y-44495990D01*
X127946632Y-44333475D01*
X128153475Y-44126632D01*
X128315990Y-43883411D01*
X128427932Y-43613158D01*
X128443102Y-43536890D01*
X148418524Y-43536890D01*
X148463175Y-43684099D01*
X148588359Y-43946920D01*
X148762412Y-44180269D01*
X148978645Y-44375178D01*
X149228748Y-44524157D01*
X149503109Y-44621481D01*
X149733000Y-44500814D01*
X149733000Y-43307000D01*
X148539845Y-43307000D01*
X148418524Y-43536890D01*
X128443102Y-43536890D01*
X128485000Y-43326260D01*
X128485000Y-43033740D01*
X128427932Y-42746842D01*
X128356753Y-42575001D01*
X148511235Y-42575001D01*
X148463175Y-42675901D01*
X148418524Y-42823110D01*
X148539845Y-43053000D01*
X149733000Y-43053000D01*
X149733000Y-43033000D01*
X149987000Y-43033000D01*
X149987000Y-43053000D01*
X150007000Y-43053000D01*
X150007000Y-43307000D01*
X149987000Y-43307000D01*
X149987000Y-44500814D01*
X150216891Y-44621481D01*
X150491252Y-44524157D01*
X150741355Y-44375178D01*
X150957588Y-44180269D01*
X151128900Y-43950594D01*
X151246525Y-44126632D01*
X151453368Y-44333475D01*
X151696589Y-44495990D01*
X151966842Y-44607932D01*
X152253740Y-44665000D01*
X152546260Y-44665000D01*
X152833158Y-44607932D01*
X153103411Y-44495990D01*
X153346632Y-44333475D01*
X153553475Y-44126632D01*
X153715990Y-43883411D01*
X153827932Y-43613158D01*
X153843102Y-43536890D01*
X173818524Y-43536890D01*
X173863175Y-43684099D01*
X173988359Y-43946920D01*
X174162412Y-44180269D01*
X174378645Y-44375178D01*
X174628748Y-44524157D01*
X174903109Y-44621481D01*
X175133000Y-44500814D01*
X175133000Y-43307000D01*
X173939845Y-43307000D01*
X173818524Y-43536890D01*
X153843102Y-43536890D01*
X153885000Y-43326260D01*
X153885000Y-43033740D01*
X153827932Y-42746842D01*
X153756753Y-42575001D01*
X173911235Y-42575001D01*
X173863175Y-42675901D01*
X173818524Y-42823110D01*
X173939845Y-43053000D01*
X175133000Y-43053000D01*
X175133000Y-43033000D01*
X175387000Y-43033000D01*
X175387000Y-43053000D01*
X175407000Y-43053000D01*
X175407000Y-43307000D01*
X175387000Y-43307000D01*
X175387000Y-44500814D01*
X175616891Y-44621481D01*
X175891252Y-44524157D01*
X176141355Y-44375178D01*
X176357588Y-44180269D01*
X176528900Y-43950594D01*
X176646525Y-44126632D01*
X176853368Y-44333475D01*
X177096589Y-44495990D01*
X177366842Y-44607932D01*
X177653740Y-44665000D01*
X177946260Y-44665000D01*
X178233158Y-44607932D01*
X178503411Y-44495990D01*
X178746632Y-44333475D01*
X178953475Y-44126632D01*
X179115990Y-43883411D01*
X179227932Y-43613158D01*
X179243102Y-43536890D01*
X199218524Y-43536890D01*
X199263175Y-43684099D01*
X199388359Y-43946920D01*
X199562412Y-44180269D01*
X199778645Y-44375178D01*
X200028748Y-44524157D01*
X200303109Y-44621481D01*
X200533000Y-44500814D01*
X200533000Y-43307000D01*
X199339845Y-43307000D01*
X199218524Y-43536890D01*
X179243102Y-43536890D01*
X179285000Y-43326260D01*
X179285000Y-43033740D01*
X179227932Y-42746842D01*
X179156753Y-42575001D01*
X199311235Y-42575001D01*
X199263175Y-42675901D01*
X199218524Y-42823110D01*
X199339845Y-43053000D01*
X200533000Y-43053000D01*
X200533000Y-43033000D01*
X200787000Y-43033000D01*
X200787000Y-43053000D01*
X200807000Y-43053000D01*
X200807000Y-43307000D01*
X200787000Y-43307000D01*
X200787000Y-44500814D01*
X201016891Y-44621481D01*
X201291252Y-44524157D01*
X201541355Y-44375178D01*
X201757588Y-44180269D01*
X201928900Y-43950594D01*
X202046525Y-44126632D01*
X202253368Y-44333475D01*
X202496589Y-44495990D01*
X202766842Y-44607932D01*
X203053740Y-44665000D01*
X203346260Y-44665000D01*
X203633158Y-44607932D01*
X203903411Y-44495990D01*
X204146632Y-44333475D01*
X204353475Y-44126632D01*
X204515990Y-43883411D01*
X204627932Y-43613158D01*
X204643102Y-43536890D01*
X224618524Y-43536890D01*
X224663175Y-43684099D01*
X224788359Y-43946920D01*
X224962412Y-44180269D01*
X225178645Y-44375178D01*
X225428748Y-44524157D01*
X225703109Y-44621481D01*
X225933000Y-44500814D01*
X225933000Y-43307000D01*
X224739845Y-43307000D01*
X224618524Y-43536890D01*
X204643102Y-43536890D01*
X204685000Y-43326260D01*
X204685000Y-43033740D01*
X204627932Y-42746842D01*
X204556753Y-42575001D01*
X224711235Y-42575001D01*
X224663175Y-42675901D01*
X224618524Y-42823110D01*
X224739845Y-43053000D01*
X225933000Y-43053000D01*
X225933000Y-43033000D01*
X226187000Y-43033000D01*
X226187000Y-43053000D01*
X226207000Y-43053000D01*
X226207000Y-43307000D01*
X226187000Y-43307000D01*
X226187000Y-44500814D01*
X226416891Y-44621481D01*
X226691252Y-44524157D01*
X226941355Y-44375178D01*
X227157588Y-44180269D01*
X227328900Y-43950594D01*
X227446525Y-44126632D01*
X227653368Y-44333475D01*
X227896589Y-44495990D01*
X228166842Y-44607932D01*
X228453740Y-44665000D01*
X228746260Y-44665000D01*
X229033158Y-44607932D01*
X229303411Y-44495990D01*
X229546632Y-44333475D01*
X229753475Y-44126632D01*
X229915990Y-43883411D01*
X230027932Y-43613158D01*
X230043102Y-43536890D01*
X250018524Y-43536890D01*
X250063175Y-43684099D01*
X250188359Y-43946920D01*
X250362412Y-44180269D01*
X250578645Y-44375178D01*
X250828748Y-44524157D01*
X251103109Y-44621481D01*
X251333000Y-44500814D01*
X251333000Y-43307000D01*
X250139845Y-43307000D01*
X250018524Y-43536890D01*
X230043102Y-43536890D01*
X230085000Y-43326260D01*
X230085000Y-43033740D01*
X230027932Y-42746842D01*
X229956753Y-42575001D01*
X250111235Y-42575001D01*
X250063175Y-42675901D01*
X250018524Y-42823110D01*
X250139845Y-43053000D01*
X251333000Y-43053000D01*
X251333000Y-43033000D01*
X251587000Y-43033000D01*
X251587000Y-43053000D01*
X251607000Y-43053000D01*
X251607000Y-43307000D01*
X251587000Y-43307000D01*
X251587000Y-44500814D01*
X251816891Y-44621481D01*
X252091252Y-44524157D01*
X252341355Y-44375178D01*
X252557588Y-44180269D01*
X252728900Y-43950594D01*
X252846525Y-44126632D01*
X253053368Y-44333475D01*
X253296589Y-44495990D01*
X253566842Y-44607932D01*
X253853740Y-44665000D01*
X254146260Y-44665000D01*
X254433158Y-44607932D01*
X254703411Y-44495990D01*
X254946632Y-44333475D01*
X255153475Y-44126632D01*
X255315990Y-43883411D01*
X255427932Y-43613158D01*
X255485000Y-43326260D01*
X255485000Y-43033740D01*
X255427932Y-42746842D01*
X255315990Y-42476589D01*
X255153475Y-42233368D01*
X254946632Y-42026525D01*
X254772240Y-41910000D01*
X254946632Y-41793475D01*
X255153475Y-41586632D01*
X255315990Y-41343411D01*
X255427932Y-41073158D01*
X255485000Y-40786260D01*
X255485000Y-40493740D01*
X255427932Y-40206842D01*
X255315990Y-39936589D01*
X255153475Y-39693368D01*
X255021620Y-39561513D01*
X255094180Y-39539502D01*
X255204494Y-39480537D01*
X255301185Y-39401185D01*
X255380537Y-39304494D01*
X255439502Y-39194180D01*
X255475812Y-39074482D01*
X255488072Y-38950000D01*
X255488072Y-37250000D01*
X255475812Y-37125518D01*
X255439502Y-37005820D01*
X255380537Y-36895506D01*
X255301185Y-36798815D01*
X255204494Y-36719463D01*
X255094180Y-36660498D01*
X254974482Y-36624188D01*
X254850000Y-36611928D01*
X253150000Y-36611928D01*
X253025518Y-36624188D01*
X252905820Y-36660498D01*
X252795506Y-36719463D01*
X252698815Y-36798815D01*
X252619463Y-36895506D01*
X252560498Y-37005820D01*
X252538487Y-37078380D01*
X252406632Y-36946525D01*
X252163411Y-36784010D01*
X251893158Y-36672068D01*
X251606260Y-36615000D01*
X251313740Y-36615000D01*
X251026842Y-36672068D01*
X250756589Y-36784010D01*
X250513368Y-36946525D01*
X250306525Y-37153368D01*
X250144010Y-37396589D01*
X250032068Y-37666842D01*
X249975000Y-37953740D01*
X249975000Y-38246260D01*
X250028456Y-38515001D01*
X230088072Y-38515001D01*
X230088072Y-37250000D01*
X230075812Y-37125518D01*
X230039502Y-37005820D01*
X229980537Y-36895506D01*
X229901185Y-36798815D01*
X229804494Y-36719463D01*
X229694180Y-36660498D01*
X229574482Y-36624188D01*
X229450000Y-36611928D01*
X227750000Y-36611928D01*
X227625518Y-36624188D01*
X227505820Y-36660498D01*
X227395506Y-36719463D01*
X227298815Y-36798815D01*
X227219463Y-36895506D01*
X227160498Y-37005820D01*
X227138487Y-37078380D01*
X227006632Y-36946525D01*
X226763411Y-36784010D01*
X226493158Y-36672068D01*
X226206260Y-36615000D01*
X225913740Y-36615000D01*
X225626842Y-36672068D01*
X225356589Y-36784010D01*
X225113368Y-36946525D01*
X224906525Y-37153368D01*
X224744010Y-37396589D01*
X224632068Y-37666842D01*
X224575000Y-37953740D01*
X224575000Y-38246260D01*
X224628456Y-38515001D01*
X204688072Y-38515001D01*
X204688072Y-37250000D01*
X204675812Y-37125518D01*
X204639502Y-37005820D01*
X204580537Y-36895506D01*
X204501185Y-36798815D01*
X204404494Y-36719463D01*
X204294180Y-36660498D01*
X204174482Y-36624188D01*
X204050000Y-36611928D01*
X202350000Y-36611928D01*
X202225518Y-36624188D01*
X202105820Y-36660498D01*
X201995506Y-36719463D01*
X201898815Y-36798815D01*
X201819463Y-36895506D01*
X201760498Y-37005820D01*
X201738487Y-37078380D01*
X201606632Y-36946525D01*
X201363411Y-36784010D01*
X201093158Y-36672068D01*
X200806260Y-36615000D01*
X200513740Y-36615000D01*
X200226842Y-36672068D01*
X199956589Y-36784010D01*
X199713368Y-36946525D01*
X199506525Y-37153368D01*
X199344010Y-37396589D01*
X199232068Y-37666842D01*
X199175000Y-37953740D01*
X199175000Y-38246260D01*
X199232068Y-38533158D01*
X199303247Y-38704999D01*
X179288072Y-38704999D01*
X179288072Y-37250000D01*
X179275812Y-37125518D01*
X179239502Y-37005820D01*
X179180537Y-36895506D01*
X179101185Y-36798815D01*
X179004494Y-36719463D01*
X178894180Y-36660498D01*
X178774482Y-36624188D01*
X178650000Y-36611928D01*
X176950000Y-36611928D01*
X176825518Y-36624188D01*
X176705820Y-36660498D01*
X176595506Y-36719463D01*
X176498815Y-36798815D01*
X176419463Y-36895506D01*
X176360498Y-37005820D01*
X176338487Y-37078380D01*
X176206632Y-36946525D01*
X175963411Y-36784010D01*
X175693158Y-36672068D01*
X175406260Y-36615000D01*
X175113740Y-36615000D01*
X174826842Y-36672068D01*
X174556589Y-36784010D01*
X174313368Y-36946525D01*
X174106525Y-37153368D01*
X173944010Y-37396589D01*
X173832068Y-37666842D01*
X173775000Y-37953740D01*
X173775000Y-38246260D01*
X173832068Y-38533158D01*
X173903247Y-38704999D01*
X153888072Y-38704999D01*
X153888072Y-37250000D01*
X153875812Y-37125518D01*
X153839502Y-37005820D01*
X153780537Y-36895506D01*
X153701185Y-36798815D01*
X153604494Y-36719463D01*
X153494180Y-36660498D01*
X153374482Y-36624188D01*
X153250000Y-36611928D01*
X151550000Y-36611928D01*
X151425518Y-36624188D01*
X151305820Y-36660498D01*
X151195506Y-36719463D01*
X151098815Y-36798815D01*
X151019463Y-36895506D01*
X150960498Y-37005820D01*
X150938487Y-37078380D01*
X150806632Y-36946525D01*
X150563411Y-36784010D01*
X150293158Y-36672068D01*
X150006260Y-36615000D01*
X149713740Y-36615000D01*
X149426842Y-36672068D01*
X149156589Y-36784010D01*
X148913368Y-36946525D01*
X148706525Y-37153368D01*
X148544010Y-37396589D01*
X148432068Y-37666842D01*
X148375000Y-37953740D01*
X148375000Y-38246260D01*
X148432068Y-38533158D01*
X148503247Y-38704999D01*
X128488072Y-38704999D01*
X128488072Y-37250000D01*
X128475812Y-37125518D01*
X128439502Y-37005820D01*
X128380537Y-36895506D01*
X128301185Y-36798815D01*
X128204494Y-36719463D01*
X128094180Y-36660498D01*
X127974482Y-36624188D01*
X127850000Y-36611928D01*
X126150000Y-36611928D01*
X126025518Y-36624188D01*
X125905820Y-36660498D01*
X125795506Y-36719463D01*
X125698815Y-36798815D01*
X125619463Y-36895506D01*
X125560498Y-37005820D01*
X125538487Y-37078380D01*
X125406632Y-36946525D01*
X125163411Y-36784010D01*
X124893158Y-36672068D01*
X124606260Y-36615000D01*
X124313740Y-36615000D01*
X124026842Y-36672068D01*
X123756589Y-36784010D01*
X123513368Y-36946525D01*
X123306525Y-37153368D01*
X123144010Y-37396589D01*
X123032068Y-37666842D01*
X122975000Y-37953740D01*
X120075000Y-37953740D01*
X120075000Y-35874000D01*
X258124000Y-35874000D01*
X258124000Y-38281759D01*
G37*
G04 #@! TD.AperFunction*
G04 #@! TD*
M02*
