G04 #@! TF.GenerationSoftware,KiCad,Pcbnew,(5.1.8)-1*
G04 #@! TF.CreationDate,2021-01-08T15:15:04-05:00*
G04 #@! TF.ProjectId,backplane,6261636b-706c-4616-9e65-2e6b69636164,rev?*
G04 #@! TF.SameCoordinates,Original*
G04 #@! TF.FileFunction,Soldermask,Top*
G04 #@! TF.FilePolarity,Negative*
%FSLAX46Y46*%
G04 Gerber Fmt 4.6, Leading zero omitted, Abs format (unit mm)*
G04 Created by KiCad (PCBNEW (5.1.8)-1) date 2021-01-08 15:15:04*
%MOMM*%
%LPD*%
G01*
G04 APERTURE LIST*
%ADD10C,6.000000*%
%ADD11C,3.400000*%
%ADD12C,2.100000*%
%ADD13O,1.700000X1.700000*%
%ADD14R,1.700000X1.700000*%
G04 APERTURE END LIST*
D10*
G04 #@! TO.C,H4*
X117415000Y-138109000D03*
D11*
X117415000Y-138109000D03*
G04 #@! TD*
D12*
G04 #@! TO.C,H5*
X189925000Y-87570000D03*
G04 #@! TD*
D10*
G04 #@! TO.C,H3*
X261045000Y-40453000D03*
D11*
X261045000Y-40453000D03*
G04 #@! TD*
D10*
G04 #@! TO.C,H2*
X116646000Y-40326000D03*
D11*
X116646000Y-40326000D03*
G04 #@! TD*
D10*
G04 #@! TO.C,H1*
X261045000Y-137227000D03*
D11*
X261045000Y-137227000D03*
G04 #@! TD*
D13*
G04 #@! TO.C,J10*
X226060000Y-139700000D03*
X228600000Y-139700000D03*
X226060000Y-137160000D03*
X228600000Y-137160000D03*
X226060000Y-134620000D03*
X228600000Y-134620000D03*
X226060000Y-132080000D03*
X228600000Y-132080000D03*
X226060000Y-129540000D03*
X228600000Y-129540000D03*
X226060000Y-127000000D03*
X228600000Y-127000000D03*
X226060000Y-124460000D03*
X228600000Y-124460000D03*
X226060000Y-121920000D03*
X228600000Y-121920000D03*
X226060000Y-119380000D03*
X228600000Y-119380000D03*
X226060000Y-116840000D03*
X228600000Y-116840000D03*
X226060000Y-114300000D03*
X228600000Y-114300000D03*
X226060000Y-111760000D03*
X228600000Y-111760000D03*
X226060000Y-109220000D03*
X228600000Y-109220000D03*
X226060000Y-106680000D03*
X228600000Y-106680000D03*
X226060000Y-104140000D03*
X228600000Y-104140000D03*
X226060000Y-101600000D03*
X228600000Y-101600000D03*
X226060000Y-99060000D03*
X228600000Y-99060000D03*
X226060000Y-96520000D03*
X228600000Y-96520000D03*
X226060000Y-93980000D03*
X228600000Y-93980000D03*
X226060000Y-91440000D03*
X228600000Y-91440000D03*
X226060000Y-88900000D03*
X228600000Y-88900000D03*
X226060000Y-86360000D03*
X228600000Y-86360000D03*
X226060000Y-83820000D03*
X228600000Y-83820000D03*
X226060000Y-81280000D03*
X228600000Y-81280000D03*
X226060000Y-78740000D03*
X228600000Y-78740000D03*
X226060000Y-76200000D03*
X228600000Y-76200000D03*
X226060000Y-73660000D03*
X228600000Y-73660000D03*
X226060000Y-71120000D03*
X228600000Y-71120000D03*
X226060000Y-68580000D03*
X228600000Y-68580000D03*
X226060000Y-66040000D03*
X228600000Y-66040000D03*
X226060000Y-63500000D03*
X228600000Y-63500000D03*
X226060000Y-60960000D03*
X228600000Y-60960000D03*
X226060000Y-58420000D03*
X228600000Y-58420000D03*
X226060000Y-55880000D03*
X228600000Y-55880000D03*
X226060000Y-53340000D03*
X228600000Y-53340000D03*
X226060000Y-50800000D03*
D14*
X228600000Y-50800000D03*
G04 #@! TD*
D13*
G04 #@! TO.C,J8*
X200660000Y-139700000D03*
X203200000Y-139700000D03*
X200660000Y-137160000D03*
X203200000Y-137160000D03*
X200660000Y-134620000D03*
X203200000Y-134620000D03*
X200660000Y-132080000D03*
X203200000Y-132080000D03*
X200660000Y-129540000D03*
X203200000Y-129540000D03*
X200660000Y-127000000D03*
X203200000Y-127000000D03*
X200660000Y-124460000D03*
X203200000Y-124460000D03*
X200660000Y-121920000D03*
X203200000Y-121920000D03*
X200660000Y-119380000D03*
X203200000Y-119380000D03*
X200660000Y-116840000D03*
X203200000Y-116840000D03*
X200660000Y-114300000D03*
X203200000Y-114300000D03*
X200660000Y-111760000D03*
X203200000Y-111760000D03*
X200660000Y-109220000D03*
X203200000Y-109220000D03*
X200660000Y-106680000D03*
X203200000Y-106680000D03*
X200660000Y-104140000D03*
X203200000Y-104140000D03*
X200660000Y-101600000D03*
X203200000Y-101600000D03*
X200660000Y-99060000D03*
X203200000Y-99060000D03*
X200660000Y-96520000D03*
X203200000Y-96520000D03*
X200660000Y-93980000D03*
X203200000Y-93980000D03*
X200660000Y-91440000D03*
X203200000Y-91440000D03*
X200660000Y-88900000D03*
X203200000Y-88900000D03*
X200660000Y-86360000D03*
X203200000Y-86360000D03*
X200660000Y-83820000D03*
X203200000Y-83820000D03*
X200660000Y-81280000D03*
X203200000Y-81280000D03*
X200660000Y-78740000D03*
X203200000Y-78740000D03*
X200660000Y-76200000D03*
X203200000Y-76200000D03*
X200660000Y-73660000D03*
X203200000Y-73660000D03*
X200660000Y-71120000D03*
X203200000Y-71120000D03*
X200660000Y-68580000D03*
X203200000Y-68580000D03*
X200660000Y-66040000D03*
X203200000Y-66040000D03*
X200660000Y-63500000D03*
X203200000Y-63500000D03*
X200660000Y-60960000D03*
X203200000Y-60960000D03*
X200660000Y-58420000D03*
X203200000Y-58420000D03*
X200660000Y-55880000D03*
X203200000Y-55880000D03*
X200660000Y-53340000D03*
X203200000Y-53340000D03*
X200660000Y-50800000D03*
D14*
X203200000Y-50800000D03*
G04 #@! TD*
D13*
G04 #@! TO.C,J6*
X175260000Y-139700000D03*
X177800000Y-139700000D03*
X175260000Y-137160000D03*
X177800000Y-137160000D03*
X175260000Y-134620000D03*
X177800000Y-134620000D03*
X175260000Y-132080000D03*
X177800000Y-132080000D03*
X175260000Y-129540000D03*
X177800000Y-129540000D03*
X175260000Y-127000000D03*
X177800000Y-127000000D03*
X175260000Y-124460000D03*
X177800000Y-124460000D03*
X175260000Y-121920000D03*
X177800000Y-121920000D03*
X175260000Y-119380000D03*
X177800000Y-119380000D03*
X175260000Y-116840000D03*
X177800000Y-116840000D03*
X175260000Y-114300000D03*
X177800000Y-114300000D03*
X175260000Y-111760000D03*
X177800000Y-111760000D03*
X175260000Y-109220000D03*
X177800000Y-109220000D03*
X175260000Y-106680000D03*
X177800000Y-106680000D03*
X175260000Y-104140000D03*
X177800000Y-104140000D03*
X175260000Y-101600000D03*
X177800000Y-101600000D03*
X175260000Y-99060000D03*
X177800000Y-99060000D03*
X175260000Y-96520000D03*
X177800000Y-96520000D03*
X175260000Y-93980000D03*
X177800000Y-93980000D03*
X175260000Y-91440000D03*
X177800000Y-91440000D03*
X175260000Y-88900000D03*
X177800000Y-88900000D03*
X175260000Y-86360000D03*
X177800000Y-86360000D03*
X175260000Y-83820000D03*
X177800000Y-83820000D03*
X175260000Y-81280000D03*
X177800000Y-81280000D03*
X175260000Y-78740000D03*
X177800000Y-78740000D03*
X175260000Y-76200000D03*
X177800000Y-76200000D03*
X175260000Y-73660000D03*
X177800000Y-73660000D03*
X175260000Y-71120000D03*
X177800000Y-71120000D03*
X175260000Y-68580000D03*
X177800000Y-68580000D03*
X175260000Y-66040000D03*
X177800000Y-66040000D03*
X175260000Y-63500000D03*
X177800000Y-63500000D03*
X175260000Y-60960000D03*
X177800000Y-60960000D03*
X175260000Y-58420000D03*
X177800000Y-58420000D03*
X175260000Y-55880000D03*
X177800000Y-55880000D03*
X175260000Y-53340000D03*
X177800000Y-53340000D03*
X175260000Y-50800000D03*
D14*
X177800000Y-50800000D03*
G04 #@! TD*
D13*
G04 #@! TO.C,J4*
X149860000Y-139700000D03*
X152400000Y-139700000D03*
X149860000Y-137160000D03*
X152400000Y-137160000D03*
X149860000Y-134620000D03*
X152400000Y-134620000D03*
X149860000Y-132080000D03*
X152400000Y-132080000D03*
X149860000Y-129540000D03*
X152400000Y-129540000D03*
X149860000Y-127000000D03*
X152400000Y-127000000D03*
X149860000Y-124460000D03*
X152400000Y-124460000D03*
X149860000Y-121920000D03*
X152400000Y-121920000D03*
X149860000Y-119380000D03*
X152400000Y-119380000D03*
X149860000Y-116840000D03*
X152400000Y-116840000D03*
X149860000Y-114300000D03*
X152400000Y-114300000D03*
X149860000Y-111760000D03*
X152400000Y-111760000D03*
X149860000Y-109220000D03*
X152400000Y-109220000D03*
X149860000Y-106680000D03*
X152400000Y-106680000D03*
X149860000Y-104140000D03*
X152400000Y-104140000D03*
X149860000Y-101600000D03*
X152400000Y-101600000D03*
X149860000Y-99060000D03*
X152400000Y-99060000D03*
X149860000Y-96520000D03*
X152400000Y-96520000D03*
X149860000Y-93980000D03*
X152400000Y-93980000D03*
X149860000Y-91440000D03*
X152400000Y-91440000D03*
X149860000Y-88900000D03*
X152400000Y-88900000D03*
X149860000Y-86360000D03*
X152400000Y-86360000D03*
X149860000Y-83820000D03*
X152400000Y-83820000D03*
X149860000Y-81280000D03*
X152400000Y-81280000D03*
X149860000Y-78740000D03*
X152400000Y-78740000D03*
X149860000Y-76200000D03*
X152400000Y-76200000D03*
X149860000Y-73660000D03*
X152400000Y-73660000D03*
X149860000Y-71120000D03*
X152400000Y-71120000D03*
X149860000Y-68580000D03*
X152400000Y-68580000D03*
X149860000Y-66040000D03*
X152400000Y-66040000D03*
X149860000Y-63500000D03*
X152400000Y-63500000D03*
X149860000Y-60960000D03*
X152400000Y-60960000D03*
X149860000Y-58420000D03*
X152400000Y-58420000D03*
X149860000Y-55880000D03*
X152400000Y-55880000D03*
X149860000Y-53340000D03*
X152400000Y-53340000D03*
X149860000Y-50800000D03*
D14*
X152400000Y-50800000D03*
G04 #@! TD*
D13*
G04 #@! TO.C,J2*
X124460000Y-139700000D03*
X127000000Y-139700000D03*
X124460000Y-137160000D03*
X127000000Y-137160000D03*
X124460000Y-134620000D03*
X127000000Y-134620000D03*
X124460000Y-132080000D03*
X127000000Y-132080000D03*
X124460000Y-129540000D03*
X127000000Y-129540000D03*
X124460000Y-127000000D03*
X127000000Y-127000000D03*
X124460000Y-124460000D03*
X127000000Y-124460000D03*
X124460000Y-121920000D03*
X127000000Y-121920000D03*
X124460000Y-119380000D03*
X127000000Y-119380000D03*
X124460000Y-116840000D03*
X127000000Y-116840000D03*
X124460000Y-114300000D03*
X127000000Y-114300000D03*
X124460000Y-111760000D03*
X127000000Y-111760000D03*
X124460000Y-109220000D03*
X127000000Y-109220000D03*
X124460000Y-106680000D03*
X127000000Y-106680000D03*
X124460000Y-104140000D03*
X127000000Y-104140000D03*
X124460000Y-101600000D03*
X127000000Y-101600000D03*
X124460000Y-99060000D03*
X127000000Y-99060000D03*
X124460000Y-96520000D03*
X127000000Y-96520000D03*
X124460000Y-93980000D03*
X127000000Y-93980000D03*
X124460000Y-91440000D03*
X127000000Y-91440000D03*
X124460000Y-88900000D03*
X127000000Y-88900000D03*
X124460000Y-86360000D03*
X127000000Y-86360000D03*
X124460000Y-83820000D03*
X127000000Y-83820000D03*
X124460000Y-81280000D03*
X127000000Y-81280000D03*
X124460000Y-78740000D03*
X127000000Y-78740000D03*
X124460000Y-76200000D03*
X127000000Y-76200000D03*
X124460000Y-73660000D03*
X127000000Y-73660000D03*
X124460000Y-71120000D03*
X127000000Y-71120000D03*
X124460000Y-68580000D03*
X127000000Y-68580000D03*
X124460000Y-66040000D03*
X127000000Y-66040000D03*
X124460000Y-63500000D03*
X127000000Y-63500000D03*
X124460000Y-60960000D03*
X127000000Y-60960000D03*
X124460000Y-58420000D03*
X127000000Y-58420000D03*
X124460000Y-55880000D03*
X127000000Y-55880000D03*
X124460000Y-53340000D03*
X127000000Y-53340000D03*
X124460000Y-50800000D03*
D14*
X127000000Y-50800000D03*
G04 #@! TD*
D13*
G04 #@! TO.C,J11*
X226060000Y-43180000D03*
X228600000Y-43180000D03*
X226060000Y-40640000D03*
X228600000Y-40640000D03*
X226060000Y-38100000D03*
D14*
X228600000Y-38100000D03*
G04 #@! TD*
D13*
G04 #@! TO.C,J9*
X124460000Y-43180000D03*
X127000000Y-43180000D03*
X124460000Y-40640000D03*
X127000000Y-40640000D03*
X124460000Y-38100000D03*
D14*
X127000000Y-38100000D03*
G04 #@! TD*
D13*
G04 #@! TO.C,J7*
X251460000Y-43180000D03*
X254000000Y-43180000D03*
X251460000Y-40640000D03*
X254000000Y-40640000D03*
X251460000Y-38100000D03*
D14*
X254000000Y-38100000D03*
G04 #@! TD*
D13*
G04 #@! TO.C,J5*
X200660000Y-43180000D03*
X203200000Y-43180000D03*
X200660000Y-40640000D03*
X203200000Y-40640000D03*
X200660000Y-38100000D03*
D14*
X203200000Y-38100000D03*
G04 #@! TD*
D13*
G04 #@! TO.C,J3*
X149860000Y-43180000D03*
X152400000Y-43180000D03*
X149860000Y-40640000D03*
X152400000Y-40640000D03*
X149860000Y-38100000D03*
D14*
X152400000Y-38100000D03*
G04 #@! TD*
D13*
G04 #@! TO.C,J1*
X175260000Y-43180000D03*
X177800000Y-43180000D03*
X175260000Y-40640000D03*
X177800000Y-40640000D03*
X175260000Y-38100000D03*
D14*
X177800000Y-38100000D03*
G04 #@! TD*
D13*
G04 #@! TO.C,J12*
X251460000Y-139700000D03*
X254000000Y-139700000D03*
X251460000Y-137160000D03*
X254000000Y-137160000D03*
X251460000Y-134620000D03*
X254000000Y-134620000D03*
X251460000Y-132080000D03*
X254000000Y-132080000D03*
X251460000Y-129540000D03*
X254000000Y-129540000D03*
X251460000Y-127000000D03*
X254000000Y-127000000D03*
X251460000Y-124460000D03*
X254000000Y-124460000D03*
X251460000Y-121920000D03*
X254000000Y-121920000D03*
X251460000Y-119380000D03*
X254000000Y-119380000D03*
X251460000Y-116840000D03*
X254000000Y-116840000D03*
X251460000Y-114300000D03*
X254000000Y-114300000D03*
X251460000Y-111760000D03*
X254000000Y-111760000D03*
X251460000Y-109220000D03*
X254000000Y-109220000D03*
X251460000Y-106680000D03*
X254000000Y-106680000D03*
X251460000Y-104140000D03*
X254000000Y-104140000D03*
X251460000Y-101600000D03*
X254000000Y-101600000D03*
X251460000Y-99060000D03*
X254000000Y-99060000D03*
X251460000Y-96520000D03*
X254000000Y-96520000D03*
X251460000Y-93980000D03*
X254000000Y-93980000D03*
X251460000Y-91440000D03*
X254000000Y-91440000D03*
X251460000Y-88900000D03*
X254000000Y-88900000D03*
X251460000Y-86360000D03*
X254000000Y-86360000D03*
X251460000Y-83820000D03*
X254000000Y-83820000D03*
X251460000Y-81280000D03*
X254000000Y-81280000D03*
X251460000Y-78740000D03*
X254000000Y-78740000D03*
X251460000Y-76200000D03*
X254000000Y-76200000D03*
X251460000Y-73660000D03*
X254000000Y-73660000D03*
X251460000Y-71120000D03*
X254000000Y-71120000D03*
X251460000Y-68580000D03*
X254000000Y-68580000D03*
X251460000Y-66040000D03*
X254000000Y-66040000D03*
X251460000Y-63500000D03*
X254000000Y-63500000D03*
X251460000Y-60960000D03*
X254000000Y-60960000D03*
X251460000Y-58420000D03*
X254000000Y-58420000D03*
X251460000Y-55880000D03*
X254000000Y-55880000D03*
X251460000Y-53340000D03*
X254000000Y-53340000D03*
X251460000Y-50800000D03*
D14*
X254000000Y-50800000D03*
G04 #@! TD*
M02*
