%TF.GenerationSoftware,KiCad,Pcbnew,(5.1.8)-1*%
%TF.CreationDate,2021-01-08T14:24:18-05:00*%
%TF.ProjectId,z80logic,7a38306c-6f67-4696-932e-6b696361645f,1*%
%TF.SameCoordinates,Original*%
%TF.FileFunction,Legend,Top*%
%TF.FilePolarity,Positive*%
%FSLAX46Y46*%
G04 Gerber Fmt 4.6, Leading zero omitted, Abs format (unit mm)*
G04 Created by KiCad (PCBNEW (5.1.8)-1) date 2021-01-08 14:24:18*
%MOMM*%
%LPD*%
G01*
G04 APERTURE LIST*
%ADD10C,0.101600*%
%ADD11C,0.120000*%
%ADD12C,0.150000*%
%ADD13C,0.508000*%
G04 APERTURE END LIST*
D10*
X231085571Y-68099214D02*
X231085571Y-67337214D01*
X231267000Y-67337214D01*
X231375857Y-67373500D01*
X231448428Y-67446071D01*
X231484714Y-67518642D01*
X231521000Y-67663785D01*
X231521000Y-67772642D01*
X231484714Y-67917785D01*
X231448428Y-67990357D01*
X231375857Y-68062928D01*
X231267000Y-68099214D01*
X231085571Y-68099214D01*
X232210428Y-67337214D02*
X231847571Y-67337214D01*
X231811285Y-67700071D01*
X231847571Y-67663785D01*
X231920142Y-67627500D01*
X232101571Y-67627500D01*
X232174142Y-67663785D01*
X232210428Y-67700071D01*
X232246714Y-67772642D01*
X232246714Y-67954071D01*
X232210428Y-68026642D01*
X232174142Y-68062928D01*
X232101571Y-68099214D01*
X231920142Y-68099214D01*
X231847571Y-68062928D01*
X231811285Y-68026642D01*
D11*
X151511000Y-54292500D02*
X151511000Y-23685500D01*
X170878500Y-54292500D02*
X151511000Y-54292500D01*
X170878500Y-53086000D02*
X170878500Y-54292500D01*
X174307500Y-53086000D02*
X170878500Y-53086000D01*
X174307500Y-23685500D02*
X174307500Y-53086000D01*
X151638000Y-23685500D02*
X174307500Y-23685500D01*
X175450500Y-48831500D02*
X175450500Y-23431500D01*
X208343500Y-48831500D02*
X175450500Y-48831500D01*
X208343500Y-23368000D02*
X208343500Y-48831500D01*
X175387000Y-23368000D02*
X208343500Y-23368000D01*
X173101000Y-53721000D02*
X173418500Y-53721000D01*
X173101000Y-79121000D02*
X173101000Y-53721000D01*
X208026000Y-79121000D02*
X173101000Y-79121000D01*
X208026000Y-53721000D02*
X208026000Y-79121000D01*
X173164500Y-53721000D02*
X208026000Y-53721000D01*
X127254000Y-55054500D02*
X127254000Y-88328500D01*
X160401000Y-55054500D02*
X127254000Y-55054500D01*
X160401000Y-88328500D02*
X160401000Y-55054500D01*
X127381000Y-88328500D02*
X160401000Y-88328500D01*
X127190500Y-54737000D02*
X127190500Y-24130000D01*
X150495000Y-54737000D02*
X127190500Y-54737000D01*
X150495000Y-24130000D02*
X150495000Y-54737000D01*
X127063500Y-24130000D02*
X150495000Y-24130000D01*
D10*
X219474142Y-128360714D02*
X219982142Y-128360714D01*
X219655571Y-129122714D01*
X220671571Y-129122714D02*
X220236142Y-129122714D01*
X220453857Y-129122714D02*
X220453857Y-128360714D01*
X220381285Y-128469571D01*
X220308714Y-128542142D01*
X220236142Y-128578428D01*
X219746285Y-125820714D02*
X219601142Y-125820714D01*
X219528571Y-125857000D01*
X219492285Y-125893285D01*
X219419714Y-126002142D01*
X219383428Y-126147285D01*
X219383428Y-126437571D01*
X219419714Y-126510142D01*
X219456000Y-126546428D01*
X219528571Y-126582714D01*
X219673714Y-126582714D01*
X219746285Y-126546428D01*
X219782571Y-126510142D01*
X219818857Y-126437571D01*
X219818857Y-126256142D01*
X219782571Y-126183571D01*
X219746285Y-126147285D01*
X219673714Y-126111000D01*
X219528571Y-126111000D01*
X219456000Y-126147285D01*
X219419714Y-126183571D01*
X219383428Y-126256142D01*
X220181714Y-126582714D02*
X220326857Y-126582714D01*
X220399428Y-126546428D01*
X220435714Y-126510142D01*
X220508285Y-126401285D01*
X220544571Y-126256142D01*
X220544571Y-125965857D01*
X220508285Y-125893285D01*
X220472000Y-125857000D01*
X220399428Y-125820714D01*
X220254285Y-125820714D01*
X220181714Y-125857000D01*
X220145428Y-125893285D01*
X220109142Y-125965857D01*
X220109142Y-126147285D01*
X220145428Y-126219857D01*
X220181714Y-126256142D01*
X220254285Y-126292428D01*
X220399428Y-126292428D01*
X220472000Y-126256142D01*
X220508285Y-126219857D01*
X220544571Y-126147285D01*
X219746285Y-123407714D02*
X219601142Y-123407714D01*
X219528571Y-123444000D01*
X219492285Y-123480285D01*
X219419714Y-123589142D01*
X219383428Y-123734285D01*
X219383428Y-124024571D01*
X219419714Y-124097142D01*
X219456000Y-124133428D01*
X219528571Y-124169714D01*
X219673714Y-124169714D01*
X219746285Y-124133428D01*
X219782571Y-124097142D01*
X219818857Y-124024571D01*
X219818857Y-123843142D01*
X219782571Y-123770571D01*
X219746285Y-123734285D01*
X219673714Y-123698000D01*
X219528571Y-123698000D01*
X219456000Y-123734285D01*
X219419714Y-123770571D01*
X219383428Y-123843142D01*
X220072857Y-123407714D02*
X220580857Y-123407714D01*
X220254285Y-124169714D01*
X219746285Y-120740714D02*
X219601142Y-120740714D01*
X219528571Y-120777000D01*
X219492285Y-120813285D01*
X219419714Y-120922142D01*
X219383428Y-121067285D01*
X219383428Y-121357571D01*
X219419714Y-121430142D01*
X219456000Y-121466428D01*
X219528571Y-121502714D01*
X219673714Y-121502714D01*
X219746285Y-121466428D01*
X219782571Y-121430142D01*
X219818857Y-121357571D01*
X219818857Y-121176142D01*
X219782571Y-121103571D01*
X219746285Y-121067285D01*
X219673714Y-121031000D01*
X219528571Y-121031000D01*
X219456000Y-121067285D01*
X219419714Y-121103571D01*
X219383428Y-121176142D01*
X220508285Y-120740714D02*
X220145428Y-120740714D01*
X220109142Y-121103571D01*
X220145428Y-121067285D01*
X220218000Y-121031000D01*
X220399428Y-121031000D01*
X220472000Y-121067285D01*
X220508285Y-121103571D01*
X220544571Y-121176142D01*
X220544571Y-121357571D01*
X220508285Y-121430142D01*
X220472000Y-121466428D01*
X220399428Y-121502714D01*
X220218000Y-121502714D01*
X220145428Y-121466428D01*
X220109142Y-121430142D01*
X219746285Y-118073714D02*
X219601142Y-118073714D01*
X219528571Y-118110000D01*
X219492285Y-118146285D01*
X219419714Y-118255142D01*
X219383428Y-118400285D01*
X219383428Y-118690571D01*
X219419714Y-118763142D01*
X219456000Y-118799428D01*
X219528571Y-118835714D01*
X219673714Y-118835714D01*
X219746285Y-118799428D01*
X219782571Y-118763142D01*
X219818857Y-118690571D01*
X219818857Y-118509142D01*
X219782571Y-118436571D01*
X219746285Y-118400285D01*
X219673714Y-118364000D01*
X219528571Y-118364000D01*
X219456000Y-118400285D01*
X219419714Y-118436571D01*
X219383428Y-118509142D01*
X220072857Y-118073714D02*
X220544571Y-118073714D01*
X220290571Y-118364000D01*
X220399428Y-118364000D01*
X220472000Y-118400285D01*
X220508285Y-118436571D01*
X220544571Y-118509142D01*
X220544571Y-118690571D01*
X220508285Y-118763142D01*
X220472000Y-118799428D01*
X220399428Y-118835714D01*
X220181714Y-118835714D01*
X220109142Y-118799428D01*
X220072857Y-118763142D01*
X219873285Y-115660714D02*
X219728142Y-115660714D01*
X219655571Y-115697000D01*
X219619285Y-115733285D01*
X219546714Y-115842142D01*
X219510428Y-115987285D01*
X219510428Y-116277571D01*
X219546714Y-116350142D01*
X219583000Y-116386428D01*
X219655571Y-116422714D01*
X219800714Y-116422714D01*
X219873285Y-116386428D01*
X219909571Y-116350142D01*
X219945857Y-116277571D01*
X219945857Y-116096142D01*
X219909571Y-116023571D01*
X219873285Y-115987285D01*
X219800714Y-115951000D01*
X219655571Y-115951000D01*
X219583000Y-115987285D01*
X219546714Y-116023571D01*
X219510428Y-116096142D01*
X220671571Y-116422714D02*
X220236142Y-116422714D01*
X220453857Y-116422714D02*
X220453857Y-115660714D01*
X220381285Y-115769571D01*
X220308714Y-115842142D01*
X220236142Y-115878428D01*
X219419714Y-113169700D02*
X219782571Y-113169700D01*
X219347142Y-113387414D02*
X219601142Y-112625414D01*
X219855142Y-113387414D01*
X220072857Y-112697985D02*
X220109142Y-112661700D01*
X220181714Y-112625414D01*
X220363142Y-112625414D01*
X220435714Y-112661700D01*
X220472000Y-112697985D01*
X220508285Y-112770557D01*
X220508285Y-112843128D01*
X220472000Y-112951985D01*
X220036571Y-113387414D01*
X220508285Y-113387414D01*
X219837000Y-114559442D02*
X219800714Y-114595728D01*
X219691857Y-114632014D01*
X219619285Y-114632014D01*
X219510428Y-114595728D01*
X219437857Y-114523157D01*
X219401571Y-114450585D01*
X219365285Y-114305442D01*
X219365285Y-114196585D01*
X219401571Y-114051442D01*
X219437857Y-113978871D01*
X219510428Y-113906300D01*
X219619285Y-113870014D01*
X219691857Y-113870014D01*
X219800714Y-113906300D01*
X219837000Y-113942585D01*
X220127285Y-114595728D02*
X220236142Y-114632014D01*
X220417571Y-114632014D01*
X220490142Y-114595728D01*
X220526428Y-114559442D01*
X220562714Y-114486871D01*
X220562714Y-114414300D01*
X220526428Y-114341728D01*
X220490142Y-114305442D01*
X220417571Y-114269157D01*
X220272428Y-114232871D01*
X220199857Y-114196585D01*
X220163571Y-114160300D01*
X220127285Y-114087728D01*
X220127285Y-114015157D01*
X220163571Y-113942585D01*
X220199857Y-113906300D01*
X220272428Y-113870014D01*
X220453857Y-113870014D01*
X220562714Y-113906300D01*
X219546714Y-110502700D02*
X219909571Y-110502700D01*
X219474142Y-110720414D02*
X219728142Y-109958414D01*
X219982142Y-110720414D01*
X220199857Y-110030985D02*
X220236142Y-109994700D01*
X220308714Y-109958414D01*
X220490142Y-109958414D01*
X220562714Y-109994700D01*
X220599000Y-110030985D01*
X220635285Y-110103557D01*
X220635285Y-110176128D01*
X220599000Y-110284985D01*
X220163571Y-110720414D01*
X220635285Y-110720414D01*
X219419714Y-111203014D02*
X219601142Y-111965014D01*
X219746285Y-111420728D01*
X219891428Y-111965014D01*
X220072857Y-111203014D01*
X220363142Y-111565871D02*
X220617142Y-111565871D01*
X220726000Y-111965014D02*
X220363142Y-111965014D01*
X220363142Y-111203014D01*
X220726000Y-111203014D01*
X219782571Y-108040714D02*
X219419714Y-108040714D01*
X219383428Y-108403571D01*
X219419714Y-108367285D01*
X219492285Y-108331000D01*
X219673714Y-108331000D01*
X219746285Y-108367285D01*
X219782571Y-108403571D01*
X219818857Y-108476142D01*
X219818857Y-108657571D01*
X219782571Y-108730142D01*
X219746285Y-108766428D01*
X219673714Y-108802714D01*
X219492285Y-108802714D01*
X219419714Y-108766428D01*
X219383428Y-108730142D01*
X220508285Y-108040714D02*
X220145428Y-108040714D01*
X220109142Y-108403571D01*
X220145428Y-108367285D01*
X220218000Y-108331000D01*
X220399428Y-108331000D01*
X220472000Y-108367285D01*
X220508285Y-108403571D01*
X220544571Y-108476142D01*
X220544571Y-108657571D01*
X220508285Y-108730142D01*
X220472000Y-108766428D01*
X220399428Y-108802714D01*
X220218000Y-108802714D01*
X220145428Y-108766428D01*
X220109142Y-108730142D01*
X219546714Y-105549700D02*
X219909571Y-105549700D01*
X219474142Y-105767414D02*
X219728142Y-105005414D01*
X219982142Y-105767414D01*
X220635285Y-105767414D02*
X220199857Y-105767414D01*
X220417571Y-105767414D02*
X220417571Y-105005414D01*
X220345000Y-105114271D01*
X220272428Y-105186842D01*
X220199857Y-105223128D01*
X219964000Y-106939442D02*
X219927714Y-106975728D01*
X219818857Y-107012014D01*
X219746285Y-107012014D01*
X219637428Y-106975728D01*
X219564857Y-106903157D01*
X219528571Y-106830585D01*
X219492285Y-106685442D01*
X219492285Y-106576585D01*
X219528571Y-106431442D01*
X219564857Y-106358871D01*
X219637428Y-106286300D01*
X219746285Y-106250014D01*
X219818857Y-106250014D01*
X219927714Y-106286300D01*
X219964000Y-106322585D01*
X220254285Y-106975728D02*
X220363142Y-107012014D01*
X220544571Y-107012014D01*
X220617142Y-106975728D01*
X220653428Y-106939442D01*
X220689714Y-106866871D01*
X220689714Y-106794300D01*
X220653428Y-106721728D01*
X220617142Y-106685442D01*
X220544571Y-106649157D01*
X220399428Y-106612871D01*
X220326857Y-106576585D01*
X220290571Y-106540300D01*
X220254285Y-106467728D01*
X220254285Y-106395157D01*
X220290571Y-106322585D01*
X220326857Y-106286300D01*
X220399428Y-106250014D01*
X220580857Y-106250014D01*
X220689714Y-106286300D01*
X219546714Y-103009700D02*
X219909571Y-103009700D01*
X219474142Y-103227414D02*
X219728142Y-102465414D01*
X219982142Y-103227414D01*
X220635285Y-103227414D02*
X220199857Y-103227414D01*
X220417571Y-103227414D02*
X220417571Y-102465414D01*
X220345000Y-102574271D01*
X220272428Y-102646842D01*
X220199857Y-102683128D01*
X219419714Y-103710014D02*
X219601142Y-104472014D01*
X219746285Y-103927728D01*
X219891428Y-104472014D01*
X220072857Y-103710014D01*
X220363142Y-104072871D02*
X220617142Y-104072871D01*
X220726000Y-104472014D02*
X220363142Y-104472014D01*
X220363142Y-103710014D01*
X220726000Y-103710014D01*
X219746285Y-100801714D02*
X219746285Y-101309714D01*
X219564857Y-100511428D02*
X219383428Y-101055714D01*
X219855142Y-101055714D01*
X220181714Y-101309714D02*
X220326857Y-101309714D01*
X220399428Y-101273428D01*
X220435714Y-101237142D01*
X220508285Y-101128285D01*
X220544571Y-100983142D01*
X220544571Y-100692857D01*
X220508285Y-100620285D01*
X220472000Y-100584000D01*
X220399428Y-100547714D01*
X220254285Y-100547714D01*
X220181714Y-100584000D01*
X220145428Y-100620285D01*
X220109142Y-100692857D01*
X220109142Y-100874285D01*
X220145428Y-100946857D01*
X220181714Y-100983142D01*
X220254285Y-101019428D01*
X220399428Y-101019428D01*
X220472000Y-100983142D01*
X220508285Y-100946857D01*
X220544571Y-100874285D01*
X219147571Y-98007714D02*
X219292714Y-98007714D01*
X219365285Y-98044000D01*
X219437857Y-98116571D01*
X219474142Y-98261714D01*
X219474142Y-98515714D01*
X219437857Y-98660857D01*
X219365285Y-98733428D01*
X219292714Y-98769714D01*
X219147571Y-98769714D01*
X219075000Y-98733428D01*
X219002428Y-98660857D01*
X218966142Y-98515714D01*
X218966142Y-98261714D01*
X219002428Y-98116571D01*
X219075000Y-98044000D01*
X219147571Y-98007714D01*
X220236142Y-98697142D02*
X220199857Y-98733428D01*
X220091000Y-98769714D01*
X220018428Y-98769714D01*
X219909571Y-98733428D01*
X219837000Y-98660857D01*
X219800714Y-98588285D01*
X219764428Y-98443142D01*
X219764428Y-98334285D01*
X219800714Y-98189142D01*
X219837000Y-98116571D01*
X219909571Y-98044000D01*
X220018428Y-98007714D01*
X220091000Y-98007714D01*
X220199857Y-98044000D01*
X220236142Y-98080285D01*
X220526428Y-98733428D02*
X220635285Y-98769714D01*
X220816714Y-98769714D01*
X220889285Y-98733428D01*
X220925571Y-98697142D01*
X220961857Y-98624571D01*
X220961857Y-98552000D01*
X220925571Y-98479428D01*
X220889285Y-98443142D01*
X220816714Y-98406857D01*
X220671571Y-98370571D01*
X220599000Y-98334285D01*
X220562714Y-98298000D01*
X220526428Y-98225428D01*
X220526428Y-98152857D01*
X220562714Y-98080285D01*
X220599000Y-98044000D01*
X220671571Y-98007714D01*
X220853000Y-98007714D01*
X220961857Y-98044000D01*
X219111285Y-95467714D02*
X219256428Y-95467714D01*
X219329000Y-95504000D01*
X219401571Y-95576571D01*
X219437857Y-95721714D01*
X219437857Y-95975714D01*
X219401571Y-96120857D01*
X219329000Y-96193428D01*
X219256428Y-96229714D01*
X219111285Y-96229714D01*
X219038714Y-96193428D01*
X218966142Y-96120857D01*
X218929857Y-95975714D01*
X218929857Y-95721714D01*
X218966142Y-95576571D01*
X219038714Y-95504000D01*
X219111285Y-95467714D01*
X219691857Y-95467714D02*
X219873285Y-96229714D01*
X220018428Y-95685428D01*
X220163571Y-96229714D01*
X220345000Y-95467714D01*
X220635285Y-95830571D02*
X220889285Y-95830571D01*
X220998142Y-96229714D02*
X220635285Y-96229714D01*
X220635285Y-95467714D01*
X220998142Y-95467714D01*
X219619285Y-93181714D02*
X219619285Y-93689714D01*
X219437857Y-92891428D02*
X219256428Y-93435714D01*
X219728142Y-93435714D01*
X219945857Y-92927714D02*
X220417571Y-92927714D01*
X220163571Y-93218000D01*
X220272428Y-93218000D01*
X220345000Y-93254285D01*
X220381285Y-93290571D01*
X220417571Y-93363142D01*
X220417571Y-93544571D01*
X220381285Y-93617142D01*
X220345000Y-93653428D01*
X220272428Y-93689714D01*
X220054714Y-93689714D01*
X219982142Y-93653428D01*
X219945857Y-93617142D01*
X219510428Y-90950142D02*
X219474142Y-90986428D01*
X219365285Y-91022714D01*
X219292714Y-91022714D01*
X219183857Y-90986428D01*
X219111285Y-90913857D01*
X219075000Y-90841285D01*
X219038714Y-90696142D01*
X219038714Y-90587285D01*
X219075000Y-90442142D01*
X219111285Y-90369571D01*
X219183857Y-90297000D01*
X219292714Y-90260714D01*
X219365285Y-90260714D01*
X219474142Y-90297000D01*
X219510428Y-90333285D01*
X220199857Y-91022714D02*
X219837000Y-91022714D01*
X219837000Y-90260714D01*
X220453857Y-91022714D02*
X220453857Y-90260714D01*
X220889285Y-91022714D02*
X220562714Y-90587285D01*
X220889285Y-90260714D02*
X220453857Y-90696142D01*
X219274571Y-88482714D02*
X219274571Y-87720714D01*
X219637428Y-88482714D02*
X219637428Y-87720714D01*
X220072857Y-88482714D01*
X220072857Y-87720714D01*
X220326857Y-87720714D02*
X220762285Y-87720714D01*
X220544571Y-88482714D02*
X220544571Y-87720714D01*
X219873285Y-85447414D02*
X219619285Y-85084557D01*
X219437857Y-85447414D02*
X219437857Y-84685414D01*
X219728142Y-84685414D01*
X219800714Y-84721700D01*
X219837000Y-84757985D01*
X219873285Y-84830557D01*
X219873285Y-84939414D01*
X219837000Y-85011985D01*
X219800714Y-85048271D01*
X219728142Y-85084557D01*
X219437857Y-85084557D01*
X220453857Y-85048271D02*
X220199857Y-85048271D01*
X220199857Y-85447414D02*
X220199857Y-84685414D01*
X220562714Y-84685414D01*
X219347142Y-86655728D02*
X219456000Y-86692014D01*
X219637428Y-86692014D01*
X219710000Y-86655728D01*
X219746285Y-86619442D01*
X219782571Y-86546871D01*
X219782571Y-86474300D01*
X219746285Y-86401728D01*
X219710000Y-86365442D01*
X219637428Y-86329157D01*
X219492285Y-86292871D01*
X219419714Y-86256585D01*
X219383428Y-86220300D01*
X219347142Y-86147728D01*
X219347142Y-86075157D01*
X219383428Y-86002585D01*
X219419714Y-85966300D01*
X219492285Y-85930014D01*
X219673714Y-85930014D01*
X219782571Y-85966300D01*
X220109142Y-86692014D02*
X220109142Y-85930014D01*
X220109142Y-86292871D02*
X220544571Y-86292871D01*
X220544571Y-86692014D02*
X220544571Y-85930014D01*
X219419714Y-82780414D02*
X219419714Y-82018414D01*
X219419714Y-82381271D02*
X219855142Y-82381271D01*
X219855142Y-82780414D02*
X219855142Y-82018414D01*
X220181714Y-82562700D02*
X220544571Y-82562700D01*
X220109142Y-82780414D02*
X220363142Y-82018414D01*
X220617142Y-82780414D01*
X219909571Y-84025014D02*
X219546714Y-84025014D01*
X219546714Y-83263014D01*
X220054714Y-83263014D02*
X220490142Y-83263014D01*
X220272428Y-84025014D02*
X220272428Y-83263014D01*
X219256428Y-80227714D02*
X219437857Y-80989714D01*
X219583000Y-80445428D01*
X219728142Y-80989714D01*
X219909571Y-80227714D01*
X220635285Y-80989714D02*
X220381285Y-80626857D01*
X220199857Y-80989714D02*
X220199857Y-80227714D01*
X220490142Y-80227714D01*
X220562714Y-80264000D01*
X220599000Y-80300285D01*
X220635285Y-80372857D01*
X220635285Y-80481714D01*
X220599000Y-80554285D01*
X220562714Y-80590571D01*
X220490142Y-80626857D01*
X220199857Y-80626857D01*
X219564857Y-77827414D02*
X219564857Y-77065414D01*
X220072857Y-77065414D02*
X220218000Y-77065414D01*
X220290571Y-77101700D01*
X220363142Y-77174271D01*
X220399428Y-77319414D01*
X220399428Y-77573414D01*
X220363142Y-77718557D01*
X220290571Y-77791128D01*
X220218000Y-77827414D01*
X220072857Y-77827414D01*
X220000285Y-77791128D01*
X219927714Y-77718557D01*
X219891428Y-77573414D01*
X219891428Y-77319414D01*
X219927714Y-77174271D01*
X220000285Y-77101700D01*
X220072857Y-77065414D01*
X219800714Y-79072014D02*
X219546714Y-78709157D01*
X219365285Y-79072014D02*
X219365285Y-78310014D01*
X219655571Y-78310014D01*
X219728142Y-78346300D01*
X219764428Y-78382585D01*
X219800714Y-78455157D01*
X219800714Y-78564014D01*
X219764428Y-78636585D01*
X219728142Y-78672871D01*
X219655571Y-78709157D01*
X219365285Y-78709157D01*
X220635285Y-79144585D02*
X220562714Y-79108300D01*
X220490142Y-79035728D01*
X220381285Y-78926871D01*
X220308714Y-78890585D01*
X220236142Y-78890585D01*
X220272428Y-79072014D02*
X220199857Y-79035728D01*
X220127285Y-78963157D01*
X220091000Y-78818014D01*
X220091000Y-78564014D01*
X220127285Y-78418871D01*
X220199857Y-78346300D01*
X220272428Y-78310014D01*
X220417571Y-78310014D01*
X220490142Y-78346300D01*
X220562714Y-78418871D01*
X220599000Y-78564014D01*
X220599000Y-78818014D01*
X220562714Y-78963157D01*
X220490142Y-79035728D01*
X220417571Y-79072014D01*
X220272428Y-79072014D01*
X219256428Y-74888271D02*
X219365285Y-74924557D01*
X219401571Y-74960842D01*
X219437857Y-75033414D01*
X219437857Y-75142271D01*
X219401571Y-75214842D01*
X219365285Y-75251128D01*
X219292714Y-75287414D01*
X219002428Y-75287414D01*
X219002428Y-74525414D01*
X219256428Y-74525414D01*
X219329000Y-74561700D01*
X219365285Y-74597985D01*
X219401571Y-74670557D01*
X219401571Y-74743128D01*
X219365285Y-74815700D01*
X219329000Y-74851985D01*
X219256428Y-74888271D01*
X219002428Y-74888271D01*
X219764428Y-74525414D02*
X219764428Y-75142271D01*
X219800714Y-75214842D01*
X219837000Y-75251128D01*
X219909571Y-75287414D01*
X220054714Y-75287414D01*
X220127285Y-75251128D01*
X220163571Y-75214842D01*
X220199857Y-75142271D01*
X220199857Y-74525414D01*
X220526428Y-75251128D02*
X220635285Y-75287414D01*
X220816714Y-75287414D01*
X220889285Y-75251128D01*
X220925571Y-75214842D01*
X220961857Y-75142271D01*
X220961857Y-75069700D01*
X220925571Y-74997128D01*
X220889285Y-74960842D01*
X220816714Y-74924557D01*
X220671571Y-74888271D01*
X220599000Y-74851985D01*
X220562714Y-74815700D01*
X220526428Y-74743128D01*
X220526428Y-74670557D01*
X220562714Y-74597985D01*
X220599000Y-74561700D01*
X220671571Y-74525414D01*
X220853000Y-74525414D01*
X220961857Y-74561700D01*
X219020571Y-76314300D02*
X219383428Y-76314300D01*
X218948000Y-76532014D02*
X219202000Y-75770014D01*
X219456000Y-76532014D01*
X220145428Y-76459442D02*
X220109142Y-76495728D01*
X220000285Y-76532014D01*
X219927714Y-76532014D01*
X219818857Y-76495728D01*
X219746285Y-76423157D01*
X219710000Y-76350585D01*
X219673714Y-76205442D01*
X219673714Y-76096585D01*
X219710000Y-75951442D01*
X219746285Y-75878871D01*
X219818857Y-75806300D01*
X219927714Y-75770014D01*
X220000285Y-75770014D01*
X220109142Y-75806300D01*
X220145428Y-75842585D01*
X220472000Y-76532014D02*
X220472000Y-75770014D01*
X220907428Y-76532014D02*
X220580857Y-76096585D01*
X220907428Y-75770014D02*
X220472000Y-76205442D01*
X219510428Y-72553285D02*
X219546714Y-72517000D01*
X219619285Y-72480714D01*
X219800714Y-72480714D01*
X219873285Y-72517000D01*
X219909571Y-72553285D01*
X219945857Y-72625857D01*
X219945857Y-72698428D01*
X219909571Y-72807285D01*
X219474142Y-73242714D01*
X219945857Y-73242714D01*
X220199857Y-72480714D02*
X220707857Y-72480714D01*
X220381285Y-73242714D01*
X219401571Y-70829714D02*
X219401571Y-70067714D01*
X219583000Y-70067714D01*
X219691857Y-70104000D01*
X219764428Y-70176571D01*
X219800714Y-70249142D01*
X219837000Y-70394285D01*
X219837000Y-70503142D01*
X219800714Y-70648285D01*
X219764428Y-70720857D01*
X219691857Y-70793428D01*
X219583000Y-70829714D01*
X219401571Y-70829714D01*
X220490142Y-70067714D02*
X220345000Y-70067714D01*
X220272428Y-70104000D01*
X220236142Y-70140285D01*
X220163571Y-70249142D01*
X220127285Y-70394285D01*
X220127285Y-70684571D01*
X220163571Y-70757142D01*
X220199857Y-70793428D01*
X220272428Y-70829714D01*
X220417571Y-70829714D01*
X220490142Y-70793428D01*
X220526428Y-70757142D01*
X220562714Y-70684571D01*
X220562714Y-70503142D01*
X220526428Y-70430571D01*
X220490142Y-70394285D01*
X220417571Y-70358000D01*
X220272428Y-70358000D01*
X220199857Y-70394285D01*
X220163571Y-70430571D01*
X220127285Y-70503142D01*
X219401571Y-68162714D02*
X219401571Y-67400714D01*
X219583000Y-67400714D01*
X219691857Y-67437000D01*
X219764428Y-67509571D01*
X219800714Y-67582142D01*
X219837000Y-67727285D01*
X219837000Y-67836142D01*
X219800714Y-67981285D01*
X219764428Y-68053857D01*
X219691857Y-68126428D01*
X219583000Y-68162714D01*
X219401571Y-68162714D01*
X220490142Y-67654714D02*
X220490142Y-68162714D01*
X220308714Y-67364428D02*
X220127285Y-67908714D01*
X220599000Y-67908714D01*
X219401571Y-65749714D02*
X219401571Y-64987714D01*
X219583000Y-64987714D01*
X219691857Y-65024000D01*
X219764428Y-65096571D01*
X219800714Y-65169142D01*
X219837000Y-65314285D01*
X219837000Y-65423142D01*
X219800714Y-65568285D01*
X219764428Y-65640857D01*
X219691857Y-65713428D01*
X219583000Y-65749714D01*
X219401571Y-65749714D01*
X220127285Y-65060285D02*
X220163571Y-65024000D01*
X220236142Y-64987714D01*
X220417571Y-64987714D01*
X220490142Y-65024000D01*
X220526428Y-65060285D01*
X220562714Y-65132857D01*
X220562714Y-65205428D01*
X220526428Y-65314285D01*
X220091000Y-65749714D01*
X220562714Y-65749714D01*
X219401571Y-63082714D02*
X219401571Y-62320714D01*
X219583000Y-62320714D01*
X219691857Y-62357000D01*
X219764428Y-62429571D01*
X219800714Y-62502142D01*
X219837000Y-62647285D01*
X219837000Y-62756142D01*
X219800714Y-62901285D01*
X219764428Y-62973857D01*
X219691857Y-63046428D01*
X219583000Y-63082714D01*
X219401571Y-63082714D01*
X220308714Y-62320714D02*
X220381285Y-62320714D01*
X220453857Y-62357000D01*
X220490142Y-62393285D01*
X220526428Y-62465857D01*
X220562714Y-62611000D01*
X220562714Y-62792428D01*
X220526428Y-62937571D01*
X220490142Y-63010142D01*
X220453857Y-63046428D01*
X220381285Y-63082714D01*
X220308714Y-63082714D01*
X220236142Y-63046428D01*
X220199857Y-63010142D01*
X220163571Y-62937571D01*
X220127285Y-62792428D01*
X220127285Y-62611000D01*
X220163571Y-62465857D01*
X220199857Y-62393285D01*
X220236142Y-62357000D01*
X220308714Y-62320714D01*
X219818857Y-60542714D02*
X219383428Y-60542714D01*
X219601142Y-60542714D02*
X219601142Y-59780714D01*
X219528571Y-59889571D01*
X219456000Y-59962142D01*
X219383428Y-59998428D01*
X220072857Y-59780714D02*
X220580857Y-59780714D01*
X220254285Y-60542714D01*
X219183857Y-57785000D02*
X219546714Y-57785000D01*
X219111285Y-58002714D02*
X219365285Y-57240714D01*
X219619285Y-58002714D01*
X220272428Y-58002714D02*
X219837000Y-58002714D01*
X220054714Y-58002714D02*
X220054714Y-57240714D01*
X219982142Y-57349571D01*
X219909571Y-57422142D01*
X219837000Y-57458428D01*
X220925571Y-57494714D02*
X220925571Y-58002714D01*
X220744142Y-57204428D02*
X220562714Y-57748714D01*
X221034428Y-57748714D01*
X219056857Y-55245000D02*
X219419714Y-55245000D01*
X218984285Y-55462714D02*
X219238285Y-54700714D01*
X219492285Y-55462714D01*
X220145428Y-55462714D02*
X219710000Y-55462714D01*
X219927714Y-55462714D02*
X219927714Y-54700714D01*
X219855142Y-54809571D01*
X219782571Y-54882142D01*
X219710000Y-54918428D01*
X220435714Y-54773285D02*
X220472000Y-54737000D01*
X220544571Y-54700714D01*
X220726000Y-54700714D01*
X220798571Y-54737000D01*
X220834857Y-54773285D01*
X220871142Y-54845857D01*
X220871142Y-54918428D01*
X220834857Y-55027285D01*
X220399428Y-55462714D01*
X220871142Y-55462714D01*
X219183857Y-52832000D02*
X219546714Y-52832000D01*
X219111285Y-53049714D02*
X219365285Y-52287714D01*
X219619285Y-53049714D01*
X220272428Y-53049714D02*
X219837000Y-53049714D01*
X220054714Y-53049714D02*
X220054714Y-52287714D01*
X219982142Y-52396571D01*
X219909571Y-52469142D01*
X219837000Y-52505428D01*
X220744142Y-52287714D02*
X220816714Y-52287714D01*
X220889285Y-52324000D01*
X220925571Y-52360285D01*
X220961857Y-52432857D01*
X220998142Y-52578000D01*
X220998142Y-52759428D01*
X220961857Y-52904571D01*
X220925571Y-52977142D01*
X220889285Y-53013428D01*
X220816714Y-53049714D01*
X220744142Y-53049714D01*
X220671571Y-53013428D01*
X220635285Y-52977142D01*
X220599000Y-52904571D01*
X220562714Y-52759428D01*
X220562714Y-52578000D01*
X220599000Y-52432857D01*
X220635285Y-52360285D01*
X220671571Y-52324000D01*
X220744142Y-52287714D01*
X219419714Y-50165000D02*
X219782571Y-50165000D01*
X219347142Y-50382714D02*
X219601142Y-49620714D01*
X219855142Y-50382714D01*
X220218000Y-49947285D02*
X220145428Y-49911000D01*
X220109142Y-49874714D01*
X220072857Y-49802142D01*
X220072857Y-49765857D01*
X220109142Y-49693285D01*
X220145428Y-49657000D01*
X220218000Y-49620714D01*
X220363142Y-49620714D01*
X220435714Y-49657000D01*
X220472000Y-49693285D01*
X220508285Y-49765857D01*
X220508285Y-49802142D01*
X220472000Y-49874714D01*
X220435714Y-49911000D01*
X220363142Y-49947285D01*
X220218000Y-49947285D01*
X220145428Y-49983571D01*
X220109142Y-50019857D01*
X220072857Y-50092428D01*
X220072857Y-50237571D01*
X220109142Y-50310142D01*
X220145428Y-50346428D01*
X220218000Y-50382714D01*
X220363142Y-50382714D01*
X220435714Y-50346428D01*
X220472000Y-50310142D01*
X220508285Y-50237571D01*
X220508285Y-50092428D01*
X220472000Y-50019857D01*
X220435714Y-49983571D01*
X220363142Y-49947285D01*
X219419714Y-47625000D02*
X219782571Y-47625000D01*
X219347142Y-47842714D02*
X219601142Y-47080714D01*
X219855142Y-47842714D01*
X220435714Y-47080714D02*
X220290571Y-47080714D01*
X220218000Y-47117000D01*
X220181714Y-47153285D01*
X220109142Y-47262142D01*
X220072857Y-47407285D01*
X220072857Y-47697571D01*
X220109142Y-47770142D01*
X220145428Y-47806428D01*
X220218000Y-47842714D01*
X220363142Y-47842714D01*
X220435714Y-47806428D01*
X220472000Y-47770142D01*
X220508285Y-47697571D01*
X220508285Y-47516142D01*
X220472000Y-47443571D01*
X220435714Y-47407285D01*
X220363142Y-47371000D01*
X220218000Y-47371000D01*
X220145428Y-47407285D01*
X220109142Y-47443571D01*
X220072857Y-47516142D01*
X219419714Y-45085000D02*
X219782571Y-45085000D01*
X219347142Y-45302714D02*
X219601142Y-44540714D01*
X219855142Y-45302714D01*
X220435714Y-44794714D02*
X220435714Y-45302714D01*
X220254285Y-44504428D02*
X220072857Y-45048714D01*
X220544571Y-45048714D01*
X219419714Y-42545000D02*
X219782571Y-42545000D01*
X219347142Y-42762714D02*
X219601142Y-42000714D01*
X219855142Y-42762714D01*
X220072857Y-42073285D02*
X220109142Y-42037000D01*
X220181714Y-42000714D01*
X220363142Y-42000714D01*
X220435714Y-42037000D01*
X220472000Y-42073285D01*
X220508285Y-42145857D01*
X220508285Y-42218428D01*
X220472000Y-42327285D01*
X220036571Y-42762714D01*
X220508285Y-42762714D01*
X219419714Y-40005000D02*
X219782571Y-40005000D01*
X219347142Y-40222714D02*
X219601142Y-39460714D01*
X219855142Y-40222714D01*
X220254285Y-39460714D02*
X220326857Y-39460714D01*
X220399428Y-39497000D01*
X220435714Y-39533285D01*
X220472000Y-39605857D01*
X220508285Y-39751000D01*
X220508285Y-39932428D01*
X220472000Y-40077571D01*
X220435714Y-40150142D01*
X220399428Y-40186428D01*
X220326857Y-40222714D01*
X220254285Y-40222714D01*
X220181714Y-40186428D01*
X220145428Y-40150142D01*
X220109142Y-40077571D01*
X220072857Y-39932428D01*
X220072857Y-39751000D01*
X220109142Y-39605857D01*
X220145428Y-39533285D01*
X220181714Y-39497000D01*
X220254285Y-39460714D01*
X231285142Y-128233714D02*
X231793142Y-128233714D01*
X231466571Y-128995714D01*
X232047142Y-128306285D02*
X232083428Y-128270000D01*
X232156000Y-128233714D01*
X232337428Y-128233714D01*
X232410000Y-128270000D01*
X232446285Y-128306285D01*
X232482571Y-128378857D01*
X232482571Y-128451428D01*
X232446285Y-128560285D01*
X232010857Y-128995714D01*
X232482571Y-128995714D01*
X231158142Y-125820714D02*
X231666142Y-125820714D01*
X231339571Y-126582714D01*
X232101571Y-125820714D02*
X232174142Y-125820714D01*
X232246714Y-125857000D01*
X232283000Y-125893285D01*
X232319285Y-125965857D01*
X232355571Y-126111000D01*
X232355571Y-126292428D01*
X232319285Y-126437571D01*
X232283000Y-126510142D01*
X232246714Y-126546428D01*
X232174142Y-126582714D01*
X232101571Y-126582714D01*
X232029000Y-126546428D01*
X231992714Y-126510142D01*
X231956428Y-126437571D01*
X231920142Y-126292428D01*
X231920142Y-126111000D01*
X231956428Y-125965857D01*
X231992714Y-125893285D01*
X232029000Y-125857000D01*
X232101571Y-125820714D01*
X231557285Y-123280714D02*
X231412142Y-123280714D01*
X231339571Y-123317000D01*
X231303285Y-123353285D01*
X231230714Y-123462142D01*
X231194428Y-123607285D01*
X231194428Y-123897571D01*
X231230714Y-123970142D01*
X231267000Y-124006428D01*
X231339571Y-124042714D01*
X231484714Y-124042714D01*
X231557285Y-124006428D01*
X231593571Y-123970142D01*
X231629857Y-123897571D01*
X231629857Y-123716142D01*
X231593571Y-123643571D01*
X231557285Y-123607285D01*
X231484714Y-123571000D01*
X231339571Y-123571000D01*
X231267000Y-123607285D01*
X231230714Y-123643571D01*
X231194428Y-123716142D01*
X232065285Y-123607285D02*
X231992714Y-123571000D01*
X231956428Y-123534714D01*
X231920142Y-123462142D01*
X231920142Y-123425857D01*
X231956428Y-123353285D01*
X231992714Y-123317000D01*
X232065285Y-123280714D01*
X232210428Y-123280714D01*
X232283000Y-123317000D01*
X232319285Y-123353285D01*
X232355571Y-123425857D01*
X232355571Y-123462142D01*
X232319285Y-123534714D01*
X232283000Y-123571000D01*
X232210428Y-123607285D01*
X232065285Y-123607285D01*
X231992714Y-123643571D01*
X231956428Y-123679857D01*
X231920142Y-123752428D01*
X231920142Y-123897571D01*
X231956428Y-123970142D01*
X231992714Y-124006428D01*
X232065285Y-124042714D01*
X232210428Y-124042714D01*
X232283000Y-124006428D01*
X232319285Y-123970142D01*
X232355571Y-123897571D01*
X232355571Y-123752428D01*
X232319285Y-123679857D01*
X232283000Y-123643571D01*
X232210428Y-123607285D01*
X231557285Y-120740714D02*
X231412142Y-120740714D01*
X231339571Y-120777000D01*
X231303285Y-120813285D01*
X231230714Y-120922142D01*
X231194428Y-121067285D01*
X231194428Y-121357571D01*
X231230714Y-121430142D01*
X231267000Y-121466428D01*
X231339571Y-121502714D01*
X231484714Y-121502714D01*
X231557285Y-121466428D01*
X231593571Y-121430142D01*
X231629857Y-121357571D01*
X231629857Y-121176142D01*
X231593571Y-121103571D01*
X231557285Y-121067285D01*
X231484714Y-121031000D01*
X231339571Y-121031000D01*
X231267000Y-121067285D01*
X231230714Y-121103571D01*
X231194428Y-121176142D01*
X232283000Y-120740714D02*
X232137857Y-120740714D01*
X232065285Y-120777000D01*
X232029000Y-120813285D01*
X231956428Y-120922142D01*
X231920142Y-121067285D01*
X231920142Y-121357571D01*
X231956428Y-121430142D01*
X231992714Y-121466428D01*
X232065285Y-121502714D01*
X232210428Y-121502714D01*
X232283000Y-121466428D01*
X232319285Y-121430142D01*
X232355571Y-121357571D01*
X232355571Y-121176142D01*
X232319285Y-121103571D01*
X232283000Y-121067285D01*
X232210428Y-121031000D01*
X232065285Y-121031000D01*
X231992714Y-121067285D01*
X231956428Y-121103571D01*
X231920142Y-121176142D01*
X231684285Y-117946714D02*
X231539142Y-117946714D01*
X231466571Y-117983000D01*
X231430285Y-118019285D01*
X231357714Y-118128142D01*
X231321428Y-118273285D01*
X231321428Y-118563571D01*
X231357714Y-118636142D01*
X231394000Y-118672428D01*
X231466571Y-118708714D01*
X231611714Y-118708714D01*
X231684285Y-118672428D01*
X231720571Y-118636142D01*
X231756857Y-118563571D01*
X231756857Y-118382142D01*
X231720571Y-118309571D01*
X231684285Y-118273285D01*
X231611714Y-118237000D01*
X231466571Y-118237000D01*
X231394000Y-118273285D01*
X231357714Y-118309571D01*
X231321428Y-118382142D01*
X232410000Y-118200714D02*
X232410000Y-118708714D01*
X232228571Y-117910428D02*
X232047142Y-118454714D01*
X232518857Y-118454714D01*
X231557285Y-115660714D02*
X231412142Y-115660714D01*
X231339571Y-115697000D01*
X231303285Y-115733285D01*
X231230714Y-115842142D01*
X231194428Y-115987285D01*
X231194428Y-116277571D01*
X231230714Y-116350142D01*
X231267000Y-116386428D01*
X231339571Y-116422714D01*
X231484714Y-116422714D01*
X231557285Y-116386428D01*
X231593571Y-116350142D01*
X231629857Y-116277571D01*
X231629857Y-116096142D01*
X231593571Y-116023571D01*
X231557285Y-115987285D01*
X231484714Y-115951000D01*
X231339571Y-115951000D01*
X231267000Y-115987285D01*
X231230714Y-116023571D01*
X231194428Y-116096142D01*
X231920142Y-115733285D02*
X231956428Y-115697000D01*
X232029000Y-115660714D01*
X232210428Y-115660714D01*
X232283000Y-115697000D01*
X232319285Y-115733285D01*
X232355571Y-115805857D01*
X232355571Y-115878428D01*
X232319285Y-115987285D01*
X231883857Y-116422714D01*
X232355571Y-116422714D01*
X231587040Y-113120714D02*
X231441897Y-113120714D01*
X231369325Y-113157000D01*
X231333040Y-113193285D01*
X231260468Y-113302142D01*
X231224182Y-113447285D01*
X231224182Y-113737571D01*
X231260468Y-113810142D01*
X231296754Y-113846428D01*
X231369325Y-113882714D01*
X231514468Y-113882714D01*
X231587040Y-113846428D01*
X231623325Y-113810142D01*
X231659611Y-113737571D01*
X231659611Y-113556142D01*
X231623325Y-113483571D01*
X231587040Y-113447285D01*
X231514468Y-113411000D01*
X231369325Y-113411000D01*
X231296754Y-113447285D01*
X231260468Y-113483571D01*
X231224182Y-113556142D01*
X232131325Y-113120714D02*
X232203897Y-113120714D01*
X232276468Y-113157000D01*
X232312754Y-113193285D01*
X232349040Y-113265857D01*
X232385325Y-113411000D01*
X232385325Y-113592428D01*
X232349040Y-113737571D01*
X232312754Y-113810142D01*
X232276468Y-113846428D01*
X232203897Y-113882714D01*
X232131325Y-113882714D01*
X232058754Y-113846428D01*
X232022468Y-113810142D01*
X231986182Y-113737571D01*
X231949897Y-113592428D01*
X231949897Y-113411000D01*
X231986182Y-113265857D01*
X232022468Y-113193285D01*
X232058754Y-113157000D01*
X232131325Y-113120714D01*
X231224182Y-110629700D02*
X231587040Y-110629700D01*
X231151611Y-110847414D02*
X231405611Y-110085414D01*
X231659611Y-110847414D01*
X231877325Y-110157985D02*
X231913611Y-110121700D01*
X231986182Y-110085414D01*
X232167611Y-110085414D01*
X232240182Y-110121700D01*
X232276468Y-110157985D01*
X232312754Y-110230557D01*
X232312754Y-110303128D01*
X232276468Y-110411985D01*
X231841040Y-110847414D01*
X232312754Y-110847414D01*
X231405611Y-111330014D02*
X231478182Y-111330014D01*
X231550754Y-111366300D01*
X231587040Y-111402585D01*
X231623325Y-111475157D01*
X231659611Y-111620300D01*
X231659611Y-111801728D01*
X231623325Y-111946871D01*
X231587040Y-112019442D01*
X231550754Y-112055728D01*
X231478182Y-112092014D01*
X231405611Y-112092014D01*
X231333040Y-112055728D01*
X231296754Y-112019442D01*
X231260468Y-111946871D01*
X231224182Y-111801728D01*
X231224182Y-111620300D01*
X231260468Y-111475157D01*
X231296754Y-111402585D01*
X231333040Y-111366300D01*
X231405611Y-111330014D01*
X231986182Y-111692871D02*
X232240182Y-111692871D01*
X232349040Y-112092014D02*
X231986182Y-112092014D01*
X231986182Y-111330014D01*
X232349040Y-111330014D01*
X231593571Y-107913714D02*
X231230714Y-107913714D01*
X231194428Y-108276571D01*
X231230714Y-108240285D01*
X231303285Y-108204000D01*
X231484714Y-108204000D01*
X231557285Y-108240285D01*
X231593571Y-108276571D01*
X231629857Y-108349142D01*
X231629857Y-108530571D01*
X231593571Y-108603142D01*
X231557285Y-108639428D01*
X231484714Y-108675714D01*
X231303285Y-108675714D01*
X231230714Y-108639428D01*
X231194428Y-108603142D01*
X232283000Y-107913714D02*
X232137857Y-107913714D01*
X232065285Y-107950000D01*
X232029000Y-107986285D01*
X231956428Y-108095142D01*
X231920142Y-108240285D01*
X231920142Y-108530571D01*
X231956428Y-108603142D01*
X231992714Y-108639428D01*
X232065285Y-108675714D01*
X232210428Y-108675714D01*
X232283000Y-108639428D01*
X232319285Y-108603142D01*
X232355571Y-108530571D01*
X232355571Y-108349142D01*
X232319285Y-108276571D01*
X232283000Y-108240285D01*
X232210428Y-108204000D01*
X232065285Y-108204000D01*
X231992714Y-108240285D01*
X231956428Y-108276571D01*
X231920142Y-108349142D01*
X231750325Y-105500714D02*
X231387468Y-105500714D01*
X231351182Y-105863571D01*
X231387468Y-105827285D01*
X231460040Y-105791000D01*
X231641468Y-105791000D01*
X231714040Y-105827285D01*
X231750325Y-105863571D01*
X231786611Y-105936142D01*
X231786611Y-106117571D01*
X231750325Y-106190142D01*
X231714040Y-106226428D01*
X231641468Y-106262714D01*
X231460040Y-106262714D01*
X231387468Y-106226428D01*
X231351182Y-106190142D01*
X232439754Y-105754714D02*
X232439754Y-106262714D01*
X232258325Y-105464428D02*
X232076897Y-106008714D01*
X232548611Y-106008714D01*
X231351182Y-103136700D02*
X231714040Y-103136700D01*
X231278611Y-103354414D02*
X231532611Y-102592414D01*
X231786611Y-103354414D01*
X232439754Y-103354414D02*
X232004325Y-103354414D01*
X232222040Y-103354414D02*
X232222040Y-102592414D01*
X232149468Y-102701271D01*
X232076897Y-102773842D01*
X232004325Y-102810128D01*
X231532611Y-103837014D02*
X231605182Y-103837014D01*
X231677754Y-103873300D01*
X231714040Y-103909585D01*
X231750325Y-103982157D01*
X231786611Y-104127300D01*
X231786611Y-104308728D01*
X231750325Y-104453871D01*
X231714040Y-104526442D01*
X231677754Y-104562728D01*
X231605182Y-104599014D01*
X231532611Y-104599014D01*
X231460040Y-104562728D01*
X231423754Y-104526442D01*
X231387468Y-104453871D01*
X231351182Y-104308728D01*
X231351182Y-104127300D01*
X231387468Y-103982157D01*
X231423754Y-103909585D01*
X231460040Y-103873300D01*
X231532611Y-103837014D01*
X232113182Y-104199871D02*
X232367182Y-104199871D01*
X232476040Y-104599014D02*
X232113182Y-104599014D01*
X232113182Y-103837014D01*
X232476040Y-103837014D01*
X231593571Y-100420714D02*
X231230714Y-100420714D01*
X231194428Y-100783571D01*
X231230714Y-100747285D01*
X231303285Y-100711000D01*
X231484714Y-100711000D01*
X231557285Y-100747285D01*
X231593571Y-100783571D01*
X231629857Y-100856142D01*
X231629857Y-101037571D01*
X231593571Y-101110142D01*
X231557285Y-101146428D01*
X231484714Y-101182714D01*
X231303285Y-101182714D01*
X231230714Y-101146428D01*
X231194428Y-101110142D01*
X232101571Y-100420714D02*
X232174142Y-100420714D01*
X232246714Y-100457000D01*
X232283000Y-100493285D01*
X232319285Y-100565857D01*
X232355571Y-100711000D01*
X232355571Y-100892428D01*
X232319285Y-101037571D01*
X232283000Y-101110142D01*
X232246714Y-101146428D01*
X232174142Y-101182714D01*
X232101571Y-101182714D01*
X232029000Y-101146428D01*
X231992714Y-101110142D01*
X231956428Y-101037571D01*
X231920142Y-100892428D01*
X231920142Y-100711000D01*
X231956428Y-100565857D01*
X231992714Y-100493285D01*
X232029000Y-100457000D01*
X232101571Y-100420714D01*
X231587040Y-98134714D02*
X231587040Y-98642714D01*
X231405611Y-97844428D02*
X231224182Y-98388714D01*
X231695897Y-98388714D01*
X232095040Y-98207285D02*
X232022468Y-98171000D01*
X231986182Y-98134714D01*
X231949897Y-98062142D01*
X231949897Y-98025857D01*
X231986182Y-97953285D01*
X232022468Y-97917000D01*
X232095040Y-97880714D01*
X232240182Y-97880714D01*
X232312754Y-97917000D01*
X232349040Y-97953285D01*
X232385325Y-98025857D01*
X232385325Y-98062142D01*
X232349040Y-98134714D01*
X232312754Y-98171000D01*
X232240182Y-98207285D01*
X232095040Y-98207285D01*
X232022468Y-98243571D01*
X231986182Y-98279857D01*
X231949897Y-98352428D01*
X231949897Y-98497571D01*
X231986182Y-98570142D01*
X232022468Y-98606428D01*
X232095040Y-98642714D01*
X232240182Y-98642714D01*
X232312754Y-98606428D01*
X232349040Y-98570142D01*
X232385325Y-98497571D01*
X232385325Y-98352428D01*
X232349040Y-98279857D01*
X232312754Y-98243571D01*
X232240182Y-98207285D01*
X231532611Y-94718414D02*
X231677754Y-94718414D01*
X231750325Y-94754700D01*
X231822897Y-94827271D01*
X231859182Y-94972414D01*
X231859182Y-95226414D01*
X231822897Y-95371557D01*
X231750325Y-95444128D01*
X231677754Y-95480414D01*
X231532611Y-95480414D01*
X231460040Y-95444128D01*
X231387468Y-95371557D01*
X231351182Y-95226414D01*
X231351182Y-94972414D01*
X231387468Y-94827271D01*
X231460040Y-94754700D01*
X231532611Y-94718414D01*
X231532611Y-95963014D02*
X231677754Y-95963014D01*
X231750325Y-95999300D01*
X231822897Y-96071871D01*
X231859182Y-96217014D01*
X231859182Y-96471014D01*
X231822897Y-96616157D01*
X231750325Y-96688728D01*
X231677754Y-96725014D01*
X231532611Y-96725014D01*
X231460040Y-96688728D01*
X231387468Y-96616157D01*
X231351182Y-96471014D01*
X231351182Y-96217014D01*
X231387468Y-96071871D01*
X231460040Y-95999300D01*
X231532611Y-95963014D01*
X232185754Y-96325871D02*
X232439754Y-96325871D01*
X232548611Y-96725014D02*
X232185754Y-96725014D01*
X232185754Y-95963014D01*
X232548611Y-95963014D01*
X231557285Y-93054714D02*
X231557285Y-93562714D01*
X231375857Y-92764428D02*
X231194428Y-93308714D01*
X231666142Y-93308714D01*
X232283000Y-93054714D02*
X232283000Y-93562714D01*
X232101571Y-92764428D02*
X231920142Y-93308714D01*
X232391857Y-93308714D01*
X231587040Y-90641714D02*
X231587040Y-91149714D01*
X231405611Y-90351428D02*
X231224182Y-90895714D01*
X231695897Y-90895714D01*
X231949897Y-90460285D02*
X231986182Y-90424000D01*
X232058754Y-90387714D01*
X232240182Y-90387714D01*
X232312754Y-90424000D01*
X232349040Y-90460285D01*
X232385325Y-90532857D01*
X232385325Y-90605428D01*
X232349040Y-90714285D01*
X231913611Y-91149714D01*
X232385325Y-91149714D01*
X231006468Y-88482714D02*
X231006468Y-87720714D01*
X231441897Y-88482714D01*
X231441897Y-87720714D01*
X231804754Y-88482714D02*
X231804754Y-87720714D01*
X232058754Y-88265000D01*
X232312754Y-87720714D01*
X232312754Y-88482714D01*
X232675611Y-88482714D02*
X232675611Y-87720714D01*
X231387468Y-85942714D02*
X231387468Y-85180714D01*
X231641468Y-85725000D01*
X231895468Y-85180714D01*
X231895468Y-85942714D01*
X232657468Y-85942714D02*
X232222040Y-85942714D01*
X232439754Y-85942714D02*
X232439754Y-85180714D01*
X232367182Y-85289571D01*
X232294611Y-85362142D01*
X232222040Y-85398428D01*
X231314897Y-82145414D02*
X231496325Y-82907414D01*
X231641468Y-82363128D01*
X231786611Y-82907414D01*
X231968040Y-82145414D01*
X232222040Y-82689700D02*
X232584897Y-82689700D01*
X232149468Y-82907414D02*
X232403468Y-82145414D01*
X232657468Y-82907414D01*
X231387468Y-84152014D02*
X231387468Y-83390014D01*
X231641468Y-83390014D02*
X232076897Y-83390014D01*
X231859182Y-84152014D02*
X231859182Y-83390014D01*
X231822897Y-80862714D02*
X231568897Y-80499857D01*
X231387468Y-80862714D02*
X231387468Y-80100714D01*
X231677754Y-80100714D01*
X231750325Y-80137000D01*
X231786611Y-80173285D01*
X231822897Y-80245857D01*
X231822897Y-80354714D01*
X231786611Y-80427285D01*
X231750325Y-80463571D01*
X231677754Y-80499857D01*
X231387468Y-80499857D01*
X232149468Y-80862714D02*
X232149468Y-80100714D01*
X232330897Y-80100714D01*
X232439754Y-80137000D01*
X232512325Y-80209571D01*
X232548611Y-80282142D01*
X232584897Y-80427285D01*
X232584897Y-80536142D01*
X232548611Y-80681285D01*
X232512325Y-80753857D01*
X232439754Y-80826428D01*
X232330897Y-80862714D01*
X232149468Y-80862714D01*
X231260468Y-77827414D02*
X231260468Y-77065414D01*
X231514468Y-77609700D01*
X231768468Y-77065414D01*
X231768468Y-77827414D01*
X232566754Y-77827414D02*
X232312754Y-77464557D01*
X232131325Y-77827414D02*
X232131325Y-77065414D01*
X232421611Y-77065414D01*
X232494182Y-77101700D01*
X232530468Y-77137985D01*
X232566754Y-77210557D01*
X232566754Y-77319414D01*
X232530468Y-77391985D01*
X232494182Y-77428271D01*
X232421611Y-77464557D01*
X232131325Y-77464557D01*
X231260468Y-78672871D02*
X231514468Y-78672871D01*
X231623325Y-79072014D02*
X231260468Y-79072014D01*
X231260468Y-78310014D01*
X231623325Y-78310014D01*
X232457897Y-79144585D02*
X232385325Y-79108300D01*
X232312754Y-79035728D01*
X232203897Y-78926871D01*
X232131325Y-78890585D01*
X232058754Y-78890585D01*
X232095040Y-79072014D02*
X232022468Y-79035728D01*
X231949897Y-78963157D01*
X231913611Y-78818014D01*
X231913611Y-78564014D01*
X231949897Y-78418871D01*
X232022468Y-78346300D01*
X232095040Y-78310014D01*
X232240182Y-78310014D01*
X232312754Y-78346300D01*
X232385325Y-78418871D01*
X232421611Y-78564014D01*
X232421611Y-78818014D01*
X232385325Y-78963157D01*
X232312754Y-79035728D01*
X232240182Y-79072014D01*
X232095040Y-79072014D01*
X231133468Y-74888271D02*
X231242325Y-74924557D01*
X231278611Y-74960842D01*
X231314897Y-75033414D01*
X231314897Y-75142271D01*
X231278611Y-75214842D01*
X231242325Y-75251128D01*
X231169754Y-75287414D01*
X230879468Y-75287414D01*
X230879468Y-74525414D01*
X231133468Y-74525414D01*
X231206040Y-74561700D01*
X231242325Y-74597985D01*
X231278611Y-74670557D01*
X231278611Y-74743128D01*
X231242325Y-74815700D01*
X231206040Y-74851985D01*
X231133468Y-74888271D01*
X230879468Y-74888271D01*
X231641468Y-74525414D02*
X231641468Y-75142271D01*
X231677754Y-75214842D01*
X231714040Y-75251128D01*
X231786611Y-75287414D01*
X231931754Y-75287414D01*
X232004325Y-75251128D01*
X232040611Y-75214842D01*
X232076897Y-75142271D01*
X232076897Y-74525414D01*
X232403468Y-75251128D02*
X232512325Y-75287414D01*
X232693754Y-75287414D01*
X232766325Y-75251128D01*
X232802611Y-75214842D01*
X232838897Y-75142271D01*
X232838897Y-75069700D01*
X232802611Y-74997128D01*
X232766325Y-74960842D01*
X232693754Y-74924557D01*
X232548611Y-74888271D01*
X232476040Y-74851985D01*
X232439754Y-74815700D01*
X232403468Y-74743128D01*
X232403468Y-74670557D01*
X232439754Y-74597985D01*
X232476040Y-74561700D01*
X232548611Y-74525414D01*
X232730040Y-74525414D01*
X232838897Y-74561700D01*
X231314897Y-76532014D02*
X231060897Y-76169157D01*
X230879468Y-76532014D02*
X230879468Y-75770014D01*
X231169754Y-75770014D01*
X231242325Y-75806300D01*
X231278611Y-75842585D01*
X231314897Y-75915157D01*
X231314897Y-76024014D01*
X231278611Y-76096585D01*
X231242325Y-76132871D01*
X231169754Y-76169157D01*
X230879468Y-76169157D01*
X232149468Y-76604585D02*
X232076897Y-76568300D01*
X232004325Y-76495728D01*
X231895468Y-76386871D01*
X231822897Y-76350585D01*
X231750325Y-76350585D01*
X231786611Y-76532014D02*
X231714040Y-76495728D01*
X231641468Y-76423157D01*
X231605182Y-76278014D01*
X231605182Y-76024014D01*
X231641468Y-75878871D01*
X231714040Y-75806300D01*
X231786611Y-75770014D01*
X231931754Y-75770014D01*
X232004325Y-75806300D01*
X232076897Y-75878871D01*
X232113182Y-76024014D01*
X232113182Y-76278014D01*
X232076897Y-76423157D01*
X232004325Y-76495728D01*
X231931754Y-76532014D01*
X231786611Y-76532014D01*
X231067428Y-72553285D02*
X231103714Y-72517000D01*
X231176285Y-72480714D01*
X231357714Y-72480714D01*
X231430285Y-72517000D01*
X231466571Y-72553285D01*
X231502857Y-72625857D01*
X231502857Y-72698428D01*
X231466571Y-72807285D01*
X231031142Y-73242714D01*
X231502857Y-73242714D01*
X231938285Y-72807285D02*
X231865714Y-72771000D01*
X231829428Y-72734714D01*
X231793142Y-72662142D01*
X231793142Y-72625857D01*
X231829428Y-72553285D01*
X231865714Y-72517000D01*
X231938285Y-72480714D01*
X232083428Y-72480714D01*
X232156000Y-72517000D01*
X232192285Y-72553285D01*
X232228571Y-72625857D01*
X232228571Y-72662142D01*
X232192285Y-72734714D01*
X232156000Y-72771000D01*
X232083428Y-72807285D01*
X231938285Y-72807285D01*
X231865714Y-72843571D01*
X231829428Y-72879857D01*
X231793142Y-72952428D01*
X231793142Y-73097571D01*
X231829428Y-73170142D01*
X231865714Y-73206428D01*
X231938285Y-73242714D01*
X232083428Y-73242714D01*
X232156000Y-73206428D01*
X232192285Y-73170142D01*
X232228571Y-73097571D01*
X232228571Y-72952428D01*
X232192285Y-72879857D01*
X232156000Y-72843571D01*
X232083428Y-72807285D01*
X231133468Y-70702714D02*
X231133468Y-69940714D01*
X231314897Y-69940714D01*
X231423754Y-69977000D01*
X231496325Y-70049571D01*
X231532611Y-70122142D01*
X231568897Y-70267285D01*
X231568897Y-70376142D01*
X231532611Y-70521285D01*
X231496325Y-70593857D01*
X231423754Y-70666428D01*
X231314897Y-70702714D01*
X231133468Y-70702714D01*
X231822897Y-69940714D02*
X232330897Y-69940714D01*
X232004325Y-70702714D01*
X231133468Y-65622714D02*
X231133468Y-64860714D01*
X231314897Y-64860714D01*
X231423754Y-64897000D01*
X231496325Y-64969571D01*
X231532611Y-65042142D01*
X231568897Y-65187285D01*
X231568897Y-65296142D01*
X231532611Y-65441285D01*
X231496325Y-65513857D01*
X231423754Y-65586428D01*
X231314897Y-65622714D01*
X231133468Y-65622714D01*
X231822897Y-64860714D02*
X232294611Y-64860714D01*
X232040611Y-65151000D01*
X232149468Y-65151000D01*
X232222040Y-65187285D01*
X232258325Y-65223571D01*
X232294611Y-65296142D01*
X232294611Y-65477571D01*
X232258325Y-65550142D01*
X232222040Y-65586428D01*
X232149468Y-65622714D01*
X231931754Y-65622714D01*
X231859182Y-65586428D01*
X231822897Y-65550142D01*
X231260468Y-62955714D02*
X231260468Y-62193714D01*
X231441897Y-62193714D01*
X231550754Y-62230000D01*
X231623325Y-62302571D01*
X231659611Y-62375142D01*
X231695897Y-62520285D01*
X231695897Y-62629142D01*
X231659611Y-62774285D01*
X231623325Y-62846857D01*
X231550754Y-62919428D01*
X231441897Y-62955714D01*
X231260468Y-62955714D01*
X232421611Y-62955714D02*
X231986182Y-62955714D01*
X232203897Y-62955714D02*
X232203897Y-62193714D01*
X232131325Y-62302571D01*
X232058754Y-62375142D01*
X231986182Y-62411428D01*
X231629857Y-60415714D02*
X231194428Y-60415714D01*
X231412142Y-60415714D02*
X231412142Y-59653714D01*
X231339571Y-59762571D01*
X231267000Y-59835142D01*
X231194428Y-59871428D01*
X232065285Y-59980285D02*
X231992714Y-59944000D01*
X231956428Y-59907714D01*
X231920142Y-59835142D01*
X231920142Y-59798857D01*
X231956428Y-59726285D01*
X231992714Y-59690000D01*
X232065285Y-59653714D01*
X232210428Y-59653714D01*
X232283000Y-59690000D01*
X232319285Y-59726285D01*
X232355571Y-59798857D01*
X232355571Y-59835142D01*
X232319285Y-59907714D01*
X232283000Y-59944000D01*
X232210428Y-59980285D01*
X232065285Y-59980285D01*
X231992714Y-60016571D01*
X231956428Y-60052857D01*
X231920142Y-60125428D01*
X231920142Y-60270571D01*
X231956428Y-60343142D01*
X231992714Y-60379428D01*
X232065285Y-60415714D01*
X232210428Y-60415714D01*
X232283000Y-60379428D01*
X232319285Y-60343142D01*
X232355571Y-60270571D01*
X232355571Y-60125428D01*
X232319285Y-60052857D01*
X232283000Y-60016571D01*
X232210428Y-59980285D01*
X230843182Y-57785000D02*
X231206040Y-57785000D01*
X230770611Y-58002714D02*
X231024611Y-57240714D01*
X231278611Y-58002714D01*
X231931754Y-58002714D02*
X231496325Y-58002714D01*
X231714040Y-58002714D02*
X231714040Y-57240714D01*
X231641468Y-57349571D01*
X231568897Y-57422142D01*
X231496325Y-57458428D01*
X232621182Y-57240714D02*
X232258325Y-57240714D01*
X232222040Y-57603571D01*
X232258325Y-57567285D01*
X232330897Y-57531000D01*
X232512325Y-57531000D01*
X232584897Y-57567285D01*
X232621182Y-57603571D01*
X232657468Y-57676142D01*
X232657468Y-57857571D01*
X232621182Y-57930142D01*
X232584897Y-57966428D01*
X232512325Y-58002714D01*
X232330897Y-58002714D01*
X232258325Y-57966428D01*
X232222040Y-57930142D01*
X230843182Y-55118000D02*
X231206040Y-55118000D01*
X230770611Y-55335714D02*
X231024611Y-54573714D01*
X231278611Y-55335714D01*
X231931754Y-55335714D02*
X231496325Y-55335714D01*
X231714040Y-55335714D02*
X231714040Y-54573714D01*
X231641468Y-54682571D01*
X231568897Y-54755142D01*
X231496325Y-54791428D01*
X232185754Y-54573714D02*
X232657468Y-54573714D01*
X232403468Y-54864000D01*
X232512325Y-54864000D01*
X232584897Y-54900285D01*
X232621182Y-54936571D01*
X232657468Y-55009142D01*
X232657468Y-55190571D01*
X232621182Y-55263142D01*
X232584897Y-55299428D01*
X232512325Y-55335714D01*
X232294611Y-55335714D01*
X232222040Y-55299428D01*
X232185754Y-55263142D01*
X230970182Y-52705000D02*
X231333040Y-52705000D01*
X230897611Y-52922714D02*
X231151611Y-52160714D01*
X231405611Y-52922714D01*
X232058754Y-52922714D02*
X231623325Y-52922714D01*
X231841040Y-52922714D02*
X231841040Y-52160714D01*
X231768468Y-52269571D01*
X231695897Y-52342142D01*
X231623325Y-52378428D01*
X232784468Y-52922714D02*
X232349040Y-52922714D01*
X232566754Y-52922714D02*
X232566754Y-52160714D01*
X232494182Y-52269571D01*
X232421611Y-52342142D01*
X232349040Y-52378428D01*
X231097182Y-50292000D02*
X231460040Y-50292000D01*
X231024611Y-50509714D02*
X231278611Y-49747714D01*
X231532611Y-50509714D01*
X231822897Y-50509714D02*
X231968040Y-50509714D01*
X232040611Y-50473428D01*
X232076897Y-50437142D01*
X232149468Y-50328285D01*
X232185754Y-50183142D01*
X232185754Y-49892857D01*
X232149468Y-49820285D01*
X232113182Y-49784000D01*
X232040611Y-49747714D01*
X231895468Y-49747714D01*
X231822897Y-49784000D01*
X231786611Y-49820285D01*
X231750325Y-49892857D01*
X231750325Y-50074285D01*
X231786611Y-50146857D01*
X231822897Y-50183142D01*
X231895468Y-50219428D01*
X232040611Y-50219428D01*
X232113182Y-50183142D01*
X232149468Y-50146857D01*
X232185754Y-50074285D01*
X231224182Y-47498000D02*
X231587040Y-47498000D01*
X231151611Y-47715714D02*
X231405611Y-46953714D01*
X231659611Y-47715714D01*
X231841040Y-46953714D02*
X232349040Y-46953714D01*
X232022468Y-47715714D01*
X231097182Y-45085000D02*
X231460040Y-45085000D01*
X231024611Y-45302714D02*
X231278611Y-44540714D01*
X231532611Y-45302714D01*
X232149468Y-44540714D02*
X231786611Y-44540714D01*
X231750325Y-44903571D01*
X231786611Y-44867285D01*
X231859182Y-44831000D01*
X232040611Y-44831000D01*
X232113182Y-44867285D01*
X232149468Y-44903571D01*
X232185754Y-44976142D01*
X232185754Y-45157571D01*
X232149468Y-45230142D01*
X232113182Y-45266428D01*
X232040611Y-45302714D01*
X231859182Y-45302714D01*
X231786611Y-45266428D01*
X231750325Y-45230142D01*
X230970182Y-42545000D02*
X231333040Y-42545000D01*
X230897611Y-42762714D02*
X231151611Y-42000714D01*
X231405611Y-42762714D01*
X231587040Y-42000714D02*
X232058754Y-42000714D01*
X231804754Y-42291000D01*
X231913611Y-42291000D01*
X231986182Y-42327285D01*
X232022468Y-42363571D01*
X232058754Y-42436142D01*
X232058754Y-42617571D01*
X232022468Y-42690142D01*
X231986182Y-42726428D01*
X231913611Y-42762714D01*
X231695897Y-42762714D01*
X231623325Y-42726428D01*
X231587040Y-42690142D01*
X231097182Y-40005000D02*
X231460040Y-40005000D01*
X231024611Y-40222714D02*
X231278611Y-39460714D01*
X231532611Y-40222714D01*
X232185754Y-40222714D02*
X231750325Y-40222714D01*
X231968040Y-40222714D02*
X231968040Y-39460714D01*
X231895468Y-39569571D01*
X231822897Y-39642142D01*
X231750325Y-39678428D01*
D12*
X236640666Y-38433285D02*
X236640666Y-37957095D01*
X236926380Y-38528523D02*
X235926380Y-38195190D01*
X236926380Y-37861857D01*
X236926380Y-37004714D02*
X236926380Y-37576142D01*
X236926380Y-37290428D02*
X235926380Y-37290428D01*
X236069238Y-37385666D01*
X236164476Y-37480904D01*
X236212095Y-37576142D01*
X234100666Y-38560285D02*
X234100666Y-38084095D01*
X234386380Y-38655523D02*
X233386380Y-38322190D01*
X234386380Y-37988857D01*
X233386380Y-37465047D02*
X233386380Y-37369809D01*
X233434000Y-37274571D01*
X233481619Y-37226952D01*
X233576857Y-37179333D01*
X233767333Y-37131714D01*
X234005428Y-37131714D01*
X234195904Y-37179333D01*
X234291142Y-37226952D01*
X234338761Y-37274571D01*
X234386380Y-37369809D01*
X234386380Y-37465047D01*
X234338761Y-37560285D01*
X234291142Y-37607904D01*
X234195904Y-37655523D01*
X234005428Y-37703142D01*
X233767333Y-37703142D01*
X233576857Y-37655523D01*
X233481619Y-37607904D01*
X233434000Y-37560285D01*
X233386380Y-37465047D01*
D13*
X162717238Y-76091142D02*
X162717238Y-74736476D01*
X164749238Y-76091142D01*
X164749238Y-74736476D01*
X163588095Y-73672095D02*
X163491333Y-73865619D01*
X163394571Y-73962380D01*
X163201047Y-74059142D01*
X163104285Y-74059142D01*
X162910761Y-73962380D01*
X162814000Y-73865619D01*
X162717238Y-73672095D01*
X162717238Y-73285047D01*
X162814000Y-73091523D01*
X162910761Y-72994761D01*
X163104285Y-72898000D01*
X163201047Y-72898000D01*
X163394571Y-72994761D01*
X163491333Y-73091523D01*
X163588095Y-73285047D01*
X163588095Y-73672095D01*
X163684857Y-73865619D01*
X163781619Y-73962380D01*
X163975142Y-74059142D01*
X164362190Y-74059142D01*
X164555714Y-73962380D01*
X164652476Y-73865619D01*
X164749238Y-73672095D01*
X164749238Y-73285047D01*
X164652476Y-73091523D01*
X164555714Y-72994761D01*
X164362190Y-72898000D01*
X163975142Y-72898000D01*
X163781619Y-72994761D01*
X163684857Y-73091523D01*
X163588095Y-73285047D01*
X162717238Y-71640095D02*
X162717238Y-71446571D01*
X162814000Y-71253047D01*
X162910761Y-71156285D01*
X163104285Y-71059523D01*
X163491333Y-70962761D01*
X163975142Y-70962761D01*
X164362190Y-71059523D01*
X164555714Y-71156285D01*
X164652476Y-71253047D01*
X164749238Y-71446571D01*
X164749238Y-71640095D01*
X164652476Y-71833619D01*
X164555714Y-71930380D01*
X164362190Y-72027142D01*
X163975142Y-72123904D01*
X163491333Y-72123904D01*
X163104285Y-72027142D01*
X162910761Y-71930380D01*
X162814000Y-71833619D01*
X162717238Y-71640095D01*
X163394571Y-68834000D02*
X163394571Y-68059904D01*
X162717238Y-68543714D02*
X164458952Y-68543714D01*
X164652476Y-68446952D01*
X164749238Y-68253428D01*
X164749238Y-68059904D01*
X164652476Y-66608476D02*
X164749238Y-66802000D01*
X164749238Y-67189047D01*
X164652476Y-67382571D01*
X164458952Y-67479333D01*
X163684857Y-67479333D01*
X163491333Y-67382571D01*
X163394571Y-67189047D01*
X163394571Y-66802000D01*
X163491333Y-66608476D01*
X163684857Y-66511714D01*
X163878380Y-66511714D01*
X164071904Y-67479333D01*
X164652476Y-65737619D02*
X164749238Y-65544095D01*
X164749238Y-65157047D01*
X164652476Y-64963523D01*
X164458952Y-64866761D01*
X164362190Y-64866761D01*
X164168666Y-64963523D01*
X164071904Y-65157047D01*
X164071904Y-65447333D01*
X163975142Y-65640857D01*
X163781619Y-65737619D01*
X163684857Y-65737619D01*
X163491333Y-65640857D01*
X163394571Y-65447333D01*
X163394571Y-65157047D01*
X163491333Y-64963523D01*
X163394571Y-64286190D02*
X163394571Y-63512095D01*
X162717238Y-63995904D02*
X164458952Y-63995904D01*
X164652476Y-63899142D01*
X164749238Y-63705619D01*
X164749238Y-63512095D01*
X164749238Y-61286571D02*
X162717238Y-61286571D01*
X163491333Y-61286571D02*
X163394571Y-61093047D01*
X163394571Y-60706000D01*
X163491333Y-60512476D01*
X163588095Y-60415714D01*
X163781619Y-60318952D01*
X164362190Y-60318952D01*
X164555714Y-60415714D01*
X164652476Y-60512476D01*
X164749238Y-60706000D01*
X164749238Y-61093047D01*
X164652476Y-61286571D01*
X164749238Y-59157809D02*
X164652476Y-59351333D01*
X164555714Y-59448095D01*
X164362190Y-59544857D01*
X163781619Y-59544857D01*
X163588095Y-59448095D01*
X163491333Y-59351333D01*
X163394571Y-59157809D01*
X163394571Y-58867523D01*
X163491333Y-58674000D01*
X163588095Y-58577238D01*
X163781619Y-58480476D01*
X164362190Y-58480476D01*
X164555714Y-58577238D01*
X164652476Y-58674000D01*
X164749238Y-58867523D01*
X164749238Y-59157809D01*
X164749238Y-56738761D02*
X163684857Y-56738761D01*
X163491333Y-56835523D01*
X163394571Y-57029047D01*
X163394571Y-57416095D01*
X163491333Y-57609619D01*
X164652476Y-56738761D02*
X164749238Y-56932285D01*
X164749238Y-57416095D01*
X164652476Y-57609619D01*
X164458952Y-57706380D01*
X164265428Y-57706380D01*
X164071904Y-57609619D01*
X163975142Y-57416095D01*
X163975142Y-56932285D01*
X163878380Y-56738761D01*
X164749238Y-55771142D02*
X163394571Y-55771142D01*
X163781619Y-55771142D02*
X163588095Y-55674380D01*
X163491333Y-55577619D01*
X163394571Y-55384095D01*
X163394571Y-55190571D01*
X164749238Y-53642380D02*
X162717238Y-53642380D01*
X164652476Y-53642380D02*
X164749238Y-53835904D01*
X164749238Y-54222952D01*
X164652476Y-54416476D01*
X164555714Y-54513238D01*
X164362190Y-54610000D01*
X163781619Y-54610000D01*
X163588095Y-54513238D01*
X163491333Y-54416476D01*
X163394571Y-54222952D01*
X163394571Y-53835904D01*
X163491333Y-53642380D01*
X168305238Y-79864857D02*
X166273238Y-79864857D01*
X166273238Y-79090761D01*
X166370000Y-78897238D01*
X166466761Y-78800476D01*
X166660285Y-78703714D01*
X166950571Y-78703714D01*
X167144095Y-78800476D01*
X167240857Y-78897238D01*
X167337619Y-79090761D01*
X167337619Y-79864857D01*
X168208476Y-77058761D02*
X168305238Y-77252285D01*
X168305238Y-77639333D01*
X168208476Y-77832857D01*
X168014952Y-77929619D01*
X167240857Y-77929619D01*
X167047333Y-77832857D01*
X166950571Y-77639333D01*
X166950571Y-77252285D01*
X167047333Y-77058761D01*
X167240857Y-76962000D01*
X167434380Y-76962000D01*
X167627904Y-77929619D01*
X166950571Y-76381428D02*
X166950571Y-75607333D01*
X166273238Y-76091142D02*
X168014952Y-76091142D01*
X168208476Y-75994380D01*
X168305238Y-75800857D01*
X168305238Y-75607333D01*
X168208476Y-74155904D02*
X168305238Y-74349428D01*
X168305238Y-74736476D01*
X168208476Y-74930000D01*
X168014952Y-75026761D01*
X167240857Y-75026761D01*
X167047333Y-74930000D01*
X166950571Y-74736476D01*
X166950571Y-74349428D01*
X167047333Y-74155904D01*
X167240857Y-74059142D01*
X167434380Y-74059142D01*
X167627904Y-75026761D01*
X168305238Y-73188285D02*
X166950571Y-73188285D01*
X167337619Y-73188285D02*
X167144095Y-73091523D01*
X167047333Y-72994761D01*
X166950571Y-72801238D01*
X166950571Y-72607714D01*
X168305238Y-70382190D02*
X166273238Y-70382190D01*
X167240857Y-70382190D02*
X167240857Y-69221047D01*
X168305238Y-69221047D02*
X166273238Y-69221047D01*
X168305238Y-67382571D02*
X167240857Y-67382571D01*
X167047333Y-67479333D01*
X166950571Y-67672857D01*
X166950571Y-68059904D01*
X167047333Y-68253428D01*
X168208476Y-67382571D02*
X168305238Y-67576095D01*
X168305238Y-68059904D01*
X168208476Y-68253428D01*
X168014952Y-68350190D01*
X167821428Y-68350190D01*
X167627904Y-68253428D01*
X167531142Y-68059904D01*
X167531142Y-67576095D01*
X167434380Y-67382571D01*
X168305238Y-66124666D02*
X168208476Y-66318190D01*
X168014952Y-66414952D01*
X166273238Y-66414952D01*
X168305238Y-65060285D02*
X168208476Y-65253809D01*
X168014952Y-65350571D01*
X166273238Y-65350571D01*
X169079333Y-62157428D02*
X168982571Y-62254190D01*
X168692285Y-62447714D01*
X168498761Y-62544476D01*
X168208476Y-62641238D01*
X167724666Y-62738000D01*
X167337619Y-62738000D01*
X166853809Y-62641238D01*
X166563523Y-62544476D01*
X166370000Y-62447714D01*
X166079714Y-62254190D01*
X165982952Y-62157428D01*
X168111714Y-60222190D02*
X168208476Y-60318952D01*
X168305238Y-60609238D01*
X168305238Y-60802761D01*
X168208476Y-61093047D01*
X168014952Y-61286571D01*
X167821428Y-61383333D01*
X167434380Y-61480095D01*
X167144095Y-61480095D01*
X166757047Y-61383333D01*
X166563523Y-61286571D01*
X166370000Y-61093047D01*
X166273238Y-60802761D01*
X166273238Y-60609238D01*
X166370000Y-60318952D01*
X166466761Y-60222190D01*
X169079333Y-59544857D02*
X168982571Y-59448095D01*
X168692285Y-59254571D01*
X168498761Y-59157809D01*
X168208476Y-59061047D01*
X167724666Y-58964285D01*
X167337619Y-58964285D01*
X166853809Y-59061047D01*
X166563523Y-59157809D01*
X166370000Y-59254571D01*
X166079714Y-59448095D01*
X165982952Y-59544857D01*
X166466761Y-56545238D02*
X166370000Y-56448476D01*
X166273238Y-56254952D01*
X166273238Y-55771142D01*
X166370000Y-55577619D01*
X166466761Y-55480857D01*
X166660285Y-55384095D01*
X166853809Y-55384095D01*
X167144095Y-55480857D01*
X168305238Y-56642000D01*
X168305238Y-55384095D01*
X166273238Y-54126190D02*
X166273238Y-53932666D01*
X166370000Y-53739142D01*
X166466761Y-53642380D01*
X166660285Y-53545619D01*
X167047333Y-53448857D01*
X167531142Y-53448857D01*
X167918190Y-53545619D01*
X168111714Y-53642380D01*
X168208476Y-53739142D01*
X168305238Y-53932666D01*
X168305238Y-54126190D01*
X168208476Y-54319714D01*
X168111714Y-54416476D01*
X167918190Y-54513238D01*
X167531142Y-54610000D01*
X167047333Y-54610000D01*
X166660285Y-54513238D01*
X166466761Y-54416476D01*
X166370000Y-54319714D01*
X166273238Y-54126190D01*
X166466761Y-52674761D02*
X166370000Y-52578000D01*
X166273238Y-52384476D01*
X166273238Y-51900666D01*
X166370000Y-51707142D01*
X166466761Y-51610380D01*
X166660285Y-51513619D01*
X166853809Y-51513619D01*
X167144095Y-51610380D01*
X168305238Y-52771523D01*
X168305238Y-51513619D01*
X168305238Y-49578380D02*
X168305238Y-50739523D01*
X168305238Y-50158952D02*
X166273238Y-50158952D01*
X166563523Y-50352476D01*
X166757047Y-50545999D01*
X166853809Y-50739523D01*
X171861238Y-67527714D02*
X170893619Y-68205047D01*
X171861238Y-68688857D02*
X169829238Y-68688857D01*
X169829238Y-67914761D01*
X169926000Y-67721238D01*
X170022761Y-67624476D01*
X170216285Y-67527714D01*
X170506571Y-67527714D01*
X170700095Y-67624476D01*
X170796857Y-67721238D01*
X170893619Y-67914761D01*
X170893619Y-68688857D01*
X171764476Y-65882761D02*
X171861238Y-66076285D01*
X171861238Y-66463333D01*
X171764476Y-66656857D01*
X171570952Y-66753619D01*
X170796857Y-66753619D01*
X170603333Y-66656857D01*
X170506571Y-66463333D01*
X170506571Y-66076285D01*
X170603333Y-65882761D01*
X170796857Y-65786000D01*
X170990380Y-65786000D01*
X171183904Y-66753619D01*
X170506571Y-65108666D02*
X171861238Y-64624857D01*
X170506571Y-64141047D01*
X171861238Y-60754380D02*
X171861238Y-61915523D01*
X171861238Y-61334952D02*
X169829238Y-61334952D01*
X170119523Y-61528476D01*
X170313047Y-61722000D01*
X170409809Y-61915523D01*
D11*
%TO.C,J3*%
X222063000Y-25975000D02*
X224663000Y-25975000D01*
X222063000Y-25975000D02*
X222063000Y-33715000D01*
X222063000Y-33715000D02*
X227263000Y-33715000D01*
X227263000Y-28575000D02*
X227263000Y-33715000D01*
X224663000Y-28575000D02*
X227263000Y-28575000D01*
X224663000Y-25975000D02*
X224663000Y-28575000D01*
X227263000Y-25975000D02*
X227263000Y-27305000D01*
X225933000Y-25975000D02*
X227263000Y-25975000D01*
%TO.C,IOPORT1*%
X190440001Y-53762001D02*
X188790001Y-53762001D01*
X188790001Y-53762001D02*
X188790001Y-79282001D01*
X188790001Y-79282001D02*
X194090001Y-79282001D01*
X194090001Y-79282001D02*
X194090001Y-53762001D01*
X194090001Y-53762001D02*
X192440001Y-53762001D01*
X186300001Y-53702001D02*
X186300001Y-79342001D01*
X186300001Y-79342001D02*
X196580001Y-79342001D01*
X196580001Y-79342001D02*
X196580001Y-53702001D01*
X196580001Y-53702001D02*
X186300001Y-53702001D01*
X192440001Y-53762001D02*
G75*
G02*
X190440001Y-53762001I-1000000J0D01*
G01*
%TO.C,OR1*%
X149036001Y-24365001D02*
X138756001Y-24365001D01*
X149036001Y-42385001D02*
X149036001Y-24365001D01*
X138756001Y-42385001D02*
X149036001Y-42385001D01*
X138756001Y-24365001D02*
X138756001Y-42385001D01*
X146546001Y-24425001D02*
X144896001Y-24425001D01*
X146546001Y-42325001D02*
X146546001Y-24425001D01*
X141246001Y-42325001D02*
X146546001Y-42325001D01*
X141246001Y-24425001D02*
X141246001Y-42325001D01*
X142896001Y-24425001D02*
X141246001Y-24425001D01*
X144896001Y-24425001D02*
G75*
G02*
X142896001Y-24425001I-1000000J0D01*
G01*
%TO.C,ANDWAIT1*%
X167783000Y-23689000D02*
X166133000Y-23689000D01*
X166133000Y-23689000D02*
X166133000Y-41589000D01*
X166133000Y-41589000D02*
X171433000Y-41589000D01*
X171433000Y-41589000D02*
X171433000Y-23689000D01*
X171433000Y-23689000D02*
X169783000Y-23689000D01*
X163643000Y-23629000D02*
X163643000Y-41649000D01*
X163643000Y-41649000D02*
X173923000Y-41649000D01*
X173923000Y-41649000D02*
X173923000Y-23629000D01*
X173923000Y-23629000D02*
X163643000Y-23629000D01*
X169783000Y-23689000D02*
G75*
G02*
X167783000Y-23689000I-1000000J0D01*
G01*
%TO.C,R2*%
X151931500Y-96837500D02*
X151161500Y-96837500D01*
X143851500Y-96837500D02*
X144621500Y-96837500D01*
X151161500Y-95467500D02*
X144621500Y-95467500D01*
X151161500Y-98207500D02*
X151161500Y-95467500D01*
X144621500Y-98207500D02*
X151161500Y-98207500D01*
X144621500Y-95467500D02*
X144621500Y-98207500D01*
%TO.C,R1*%
X151995000Y-100203000D02*
X151225000Y-100203000D01*
X143915000Y-100203000D02*
X144685000Y-100203000D01*
X151225000Y-98833000D02*
X144685000Y-98833000D01*
X151225000Y-101573000D02*
X151225000Y-98833000D01*
X144685000Y-101573000D02*
X151225000Y-101573000D01*
X144685000Y-98833000D02*
X144685000Y-101573000D01*
%TO.C,SW1*%
X129305000Y-94313000D02*
X129305000Y-92813000D01*
X128055000Y-90313000D02*
X123555000Y-90313000D01*
X122305000Y-92813000D02*
X122305000Y-94313000D01*
X123555000Y-96813000D02*
X128055000Y-96813000D01*
%TO.C,C9*%
X146541000Y-93345000D02*
X146501000Y-93345000D01*
X141121000Y-93345000D02*
X141161000Y-93345000D01*
X146501000Y-91675000D02*
X141161000Y-91675000D01*
X146501000Y-95015000D02*
X146501000Y-91675000D01*
X141161000Y-95015000D02*
X146501000Y-95015000D01*
X141161000Y-91675000D02*
X141161000Y-95015000D01*
%TO.C,CLOCK1*%
X142891000Y-54931000D02*
X141241000Y-54931000D01*
X141241000Y-54931000D02*
X141241000Y-90611000D01*
X141241000Y-90611000D02*
X146541000Y-90611000D01*
X146541000Y-90611000D02*
X146541000Y-54931000D01*
X146541000Y-54931000D02*
X144891000Y-54931000D01*
X144891000Y-54931000D02*
G75*
G02*
X142891000Y-54931000I-1000000J0D01*
G01*
%TO.C,MEMCHIPSELECT1*%
X190643000Y-23308000D02*
X188993000Y-23308000D01*
X188993000Y-23308000D02*
X188993000Y-48828000D01*
X188993000Y-48828000D02*
X194293000Y-48828000D01*
X194293000Y-48828000D02*
X194293000Y-23308000D01*
X194293000Y-23308000D02*
X192643000Y-23308000D01*
X186503000Y-23248000D02*
X186503000Y-48888000D01*
X186503000Y-48888000D02*
X196783000Y-48888000D01*
X196783000Y-48888000D02*
X196783000Y-23248000D01*
X196783000Y-23248000D02*
X186503000Y-23248000D01*
X192643000Y-23308000D02*
G75*
G02*
X190643000Y-23308000I-1000000J0D01*
G01*
%TO.C,C1*%
X213424000Y-25381000D02*
X213424000Y-28721000D01*
X213424000Y-28721000D02*
X218764000Y-28721000D01*
X218764000Y-28721000D02*
X218764000Y-25381000D01*
X218764000Y-25381000D02*
X213424000Y-25381000D01*
X213384000Y-27051000D02*
X213424000Y-27051000D01*
X218804000Y-27051000D02*
X218764000Y-27051000D01*
%TO.C,C3*%
X228958000Y-31671000D02*
X231798000Y-31671000D01*
X231798000Y-31671000D02*
X231798000Y-27631000D01*
X231798000Y-27631000D02*
X228958000Y-27631000D01*
X228958000Y-27631000D02*
X228958000Y-31671000D01*
X230378000Y-32361000D02*
X230378000Y-31671000D01*
X230378000Y-26941000D02*
X230378000Y-27631000D01*
%TO.C,J2*%
X237914000Y-25721000D02*
X237914000Y-33461000D01*
X237914000Y-33461000D02*
X240574000Y-33461000D01*
X240574000Y-33461000D02*
X240574000Y-25721000D01*
X240574000Y-25721000D02*
X237914000Y-25721000D01*
X240574000Y-26671000D02*
X246574000Y-26671000D01*
X246574000Y-26671000D02*
X246574000Y-27431000D01*
X246574000Y-27431000D02*
X240574000Y-27431000D01*
X240574000Y-26731000D02*
X246574000Y-26731000D01*
X240574000Y-26851000D02*
X246574000Y-26851000D01*
X240574000Y-26971000D02*
X246574000Y-26971000D01*
X240574000Y-27091000D02*
X246574000Y-27091000D01*
X240574000Y-27211000D02*
X246574000Y-27211000D01*
X240574000Y-27331000D02*
X246574000Y-27331000D01*
X237516929Y-26671000D02*
X237914000Y-26671000D01*
X237516929Y-27431000D02*
X237914000Y-27431000D01*
X235044000Y-26671000D02*
X235431071Y-26671000D01*
X235044000Y-27431000D02*
X235431071Y-27431000D01*
X237914000Y-28321000D02*
X240574000Y-28321000D01*
X240574000Y-29211000D02*
X246574000Y-29211000D01*
X246574000Y-29211000D02*
X246574000Y-29971000D01*
X246574000Y-29971000D02*
X240574000Y-29971000D01*
X237516929Y-29211000D02*
X237914000Y-29211000D01*
X237516929Y-29971000D02*
X237914000Y-29971000D01*
X234976929Y-29211000D02*
X235431071Y-29211000D01*
X234976929Y-29971000D02*
X235431071Y-29971000D01*
X237914000Y-30861000D02*
X240574000Y-30861000D01*
X240574000Y-31751000D02*
X246574000Y-31751000D01*
X246574000Y-31751000D02*
X246574000Y-32511000D01*
X246574000Y-32511000D02*
X240574000Y-32511000D01*
X237516929Y-31751000D02*
X237914000Y-31751000D01*
X237516929Y-32511000D02*
X237914000Y-32511000D01*
X234976929Y-31751000D02*
X235431071Y-31751000D01*
X234976929Y-32511000D02*
X235431071Y-32511000D01*
X232664000Y-27051000D02*
X232664000Y-25781000D01*
X232664000Y-25781000D02*
X233934000Y-25781000D01*
%TO.C,J1*%
X237914000Y-38421000D02*
X237914000Y-129981000D01*
X237914000Y-129981000D02*
X240574000Y-129981000D01*
X240574000Y-129981000D02*
X240574000Y-38421000D01*
X240574000Y-38421000D02*
X237914000Y-38421000D01*
X240574000Y-39371000D02*
X246574000Y-39371000D01*
X246574000Y-39371000D02*
X246574000Y-40131000D01*
X246574000Y-40131000D02*
X240574000Y-40131000D01*
X240574000Y-39431000D02*
X246574000Y-39431000D01*
X240574000Y-39551000D02*
X246574000Y-39551000D01*
X240574000Y-39671000D02*
X246574000Y-39671000D01*
X240574000Y-39791000D02*
X246574000Y-39791000D01*
X240574000Y-39911000D02*
X246574000Y-39911000D01*
X240574000Y-40031000D02*
X246574000Y-40031000D01*
X237516929Y-39371000D02*
X237914000Y-39371000D01*
X237516929Y-40131000D02*
X237914000Y-40131000D01*
X235044000Y-39371000D02*
X235431071Y-39371000D01*
X235044000Y-40131000D02*
X235431071Y-40131000D01*
X237914000Y-41021000D02*
X240574000Y-41021000D01*
X240574000Y-41911000D02*
X246574000Y-41911000D01*
X246574000Y-41911000D02*
X246574000Y-42671000D01*
X246574000Y-42671000D02*
X240574000Y-42671000D01*
X237516929Y-41911000D02*
X237914000Y-41911000D01*
X237516929Y-42671000D02*
X237914000Y-42671000D01*
X234976929Y-41911000D02*
X235431071Y-41911000D01*
X234976929Y-42671000D02*
X235431071Y-42671000D01*
X237914000Y-43561000D02*
X240574000Y-43561000D01*
X240574000Y-44451000D02*
X246574000Y-44451000D01*
X246574000Y-44451000D02*
X246574000Y-45211000D01*
X246574000Y-45211000D02*
X240574000Y-45211000D01*
X237516929Y-44451000D02*
X237914000Y-44451000D01*
X237516929Y-45211000D02*
X237914000Y-45211000D01*
X234976929Y-44451000D02*
X235431071Y-44451000D01*
X234976929Y-45211000D02*
X235431071Y-45211000D01*
X237914000Y-46101000D02*
X240574000Y-46101000D01*
X240574000Y-46991000D02*
X246574000Y-46991000D01*
X246574000Y-46991000D02*
X246574000Y-47751000D01*
X246574000Y-47751000D02*
X240574000Y-47751000D01*
X237516929Y-46991000D02*
X237914000Y-46991000D01*
X237516929Y-47751000D02*
X237914000Y-47751000D01*
X234976929Y-46991000D02*
X235431071Y-46991000D01*
X234976929Y-47751000D02*
X235431071Y-47751000D01*
X237914000Y-48641000D02*
X240574000Y-48641000D01*
X240574000Y-49531000D02*
X246574000Y-49531000D01*
X246574000Y-49531000D02*
X246574000Y-50291000D01*
X246574000Y-50291000D02*
X240574000Y-50291000D01*
X237516929Y-49531000D02*
X237914000Y-49531000D01*
X237516929Y-50291000D02*
X237914000Y-50291000D01*
X234976929Y-49531000D02*
X235431071Y-49531000D01*
X234976929Y-50291000D02*
X235431071Y-50291000D01*
X237914000Y-51181000D02*
X240574000Y-51181000D01*
X240574000Y-52071000D02*
X246574000Y-52071000D01*
X246574000Y-52071000D02*
X246574000Y-52831000D01*
X246574000Y-52831000D02*
X240574000Y-52831000D01*
X237516929Y-52071000D02*
X237914000Y-52071000D01*
X237516929Y-52831000D02*
X237914000Y-52831000D01*
X234976929Y-52071000D02*
X235431071Y-52071000D01*
X234976929Y-52831000D02*
X235431071Y-52831000D01*
X237914000Y-53721000D02*
X240574000Y-53721000D01*
X240574000Y-54611000D02*
X246574000Y-54611000D01*
X246574000Y-54611000D02*
X246574000Y-55371000D01*
X246574000Y-55371000D02*
X240574000Y-55371000D01*
X237516929Y-54611000D02*
X237914000Y-54611000D01*
X237516929Y-55371000D02*
X237914000Y-55371000D01*
X234976929Y-54611000D02*
X235431071Y-54611000D01*
X234976929Y-55371000D02*
X235431071Y-55371000D01*
X237914000Y-56261000D02*
X240574000Y-56261000D01*
X240574000Y-57151000D02*
X246574000Y-57151000D01*
X246574000Y-57151000D02*
X246574000Y-57911000D01*
X246574000Y-57911000D02*
X240574000Y-57911000D01*
X237516929Y-57151000D02*
X237914000Y-57151000D01*
X237516929Y-57911000D02*
X237914000Y-57911000D01*
X234976929Y-57151000D02*
X235431071Y-57151000D01*
X234976929Y-57911000D02*
X235431071Y-57911000D01*
X237914000Y-58801000D02*
X240574000Y-58801000D01*
X240574000Y-59691000D02*
X246574000Y-59691000D01*
X246574000Y-59691000D02*
X246574000Y-60451000D01*
X246574000Y-60451000D02*
X240574000Y-60451000D01*
X237516929Y-59691000D02*
X237914000Y-59691000D01*
X237516929Y-60451000D02*
X237914000Y-60451000D01*
X234976929Y-59691000D02*
X235431071Y-59691000D01*
X234976929Y-60451000D02*
X235431071Y-60451000D01*
X237914000Y-61341000D02*
X240574000Y-61341000D01*
X240574000Y-62231000D02*
X246574000Y-62231000D01*
X246574000Y-62231000D02*
X246574000Y-62991000D01*
X246574000Y-62991000D02*
X240574000Y-62991000D01*
X237516929Y-62231000D02*
X237914000Y-62231000D01*
X237516929Y-62991000D02*
X237914000Y-62991000D01*
X234976929Y-62231000D02*
X235431071Y-62231000D01*
X234976929Y-62991000D02*
X235431071Y-62991000D01*
X237914000Y-63881000D02*
X240574000Y-63881000D01*
X240574000Y-64771000D02*
X246574000Y-64771000D01*
X246574000Y-64771000D02*
X246574000Y-65531000D01*
X246574000Y-65531000D02*
X240574000Y-65531000D01*
X237516929Y-64771000D02*
X237914000Y-64771000D01*
X237516929Y-65531000D02*
X237914000Y-65531000D01*
X234976929Y-64771000D02*
X235431071Y-64771000D01*
X234976929Y-65531000D02*
X235431071Y-65531000D01*
X237914000Y-66421000D02*
X240574000Y-66421000D01*
X240574000Y-67311000D02*
X246574000Y-67311000D01*
X246574000Y-67311000D02*
X246574000Y-68071000D01*
X246574000Y-68071000D02*
X240574000Y-68071000D01*
X237516929Y-67311000D02*
X237914000Y-67311000D01*
X237516929Y-68071000D02*
X237914000Y-68071000D01*
X234976929Y-67311000D02*
X235431071Y-67311000D01*
X234976929Y-68071000D02*
X235431071Y-68071000D01*
X237914000Y-68961000D02*
X240574000Y-68961000D01*
X240574000Y-69851000D02*
X246574000Y-69851000D01*
X246574000Y-69851000D02*
X246574000Y-70611000D01*
X246574000Y-70611000D02*
X240574000Y-70611000D01*
X237516929Y-69851000D02*
X237914000Y-69851000D01*
X237516929Y-70611000D02*
X237914000Y-70611000D01*
X234976929Y-69851000D02*
X235431071Y-69851000D01*
X234976929Y-70611000D02*
X235431071Y-70611000D01*
X237914000Y-71501000D02*
X240574000Y-71501000D01*
X240574000Y-72391000D02*
X246574000Y-72391000D01*
X246574000Y-72391000D02*
X246574000Y-73151000D01*
X246574000Y-73151000D02*
X240574000Y-73151000D01*
X237516929Y-72391000D02*
X237914000Y-72391000D01*
X237516929Y-73151000D02*
X237914000Y-73151000D01*
X234976929Y-72391000D02*
X235431071Y-72391000D01*
X234976929Y-73151000D02*
X235431071Y-73151000D01*
X237914000Y-74041000D02*
X240574000Y-74041000D01*
X240574000Y-74931000D02*
X246574000Y-74931000D01*
X246574000Y-74931000D02*
X246574000Y-75691000D01*
X246574000Y-75691000D02*
X240574000Y-75691000D01*
X237516929Y-74931000D02*
X237914000Y-74931000D01*
X237516929Y-75691000D02*
X237914000Y-75691000D01*
X234976929Y-74931000D02*
X235431071Y-74931000D01*
X234976929Y-75691000D02*
X235431071Y-75691000D01*
X237914000Y-76581000D02*
X240574000Y-76581000D01*
X240574000Y-77471000D02*
X246574000Y-77471000D01*
X246574000Y-77471000D02*
X246574000Y-78231000D01*
X246574000Y-78231000D02*
X240574000Y-78231000D01*
X237516929Y-77471000D02*
X237914000Y-77471000D01*
X237516929Y-78231000D02*
X237914000Y-78231000D01*
X234976929Y-77471000D02*
X235431071Y-77471000D01*
X234976929Y-78231000D02*
X235431071Y-78231000D01*
X237914000Y-79121000D02*
X240574000Y-79121000D01*
X240574000Y-80011000D02*
X246574000Y-80011000D01*
X246574000Y-80011000D02*
X246574000Y-80771000D01*
X246574000Y-80771000D02*
X240574000Y-80771000D01*
X237516929Y-80011000D02*
X237914000Y-80011000D01*
X237516929Y-80771000D02*
X237914000Y-80771000D01*
X234976929Y-80011000D02*
X235431071Y-80011000D01*
X234976929Y-80771000D02*
X235431071Y-80771000D01*
X237914000Y-81661000D02*
X240574000Y-81661000D01*
X240574000Y-82551000D02*
X246574000Y-82551000D01*
X246574000Y-82551000D02*
X246574000Y-83311000D01*
X246574000Y-83311000D02*
X240574000Y-83311000D01*
X237516929Y-82551000D02*
X237914000Y-82551000D01*
X237516929Y-83311000D02*
X237914000Y-83311000D01*
X234976929Y-82551000D02*
X235431071Y-82551000D01*
X234976929Y-83311000D02*
X235431071Y-83311000D01*
X237914000Y-84201000D02*
X240574000Y-84201000D01*
X240574000Y-85091000D02*
X246574000Y-85091000D01*
X246574000Y-85091000D02*
X246574000Y-85851000D01*
X246574000Y-85851000D02*
X240574000Y-85851000D01*
X237516929Y-85091000D02*
X237914000Y-85091000D01*
X237516929Y-85851000D02*
X237914000Y-85851000D01*
X234976929Y-85091000D02*
X235431071Y-85091000D01*
X234976929Y-85851000D02*
X235431071Y-85851000D01*
X237914000Y-86741000D02*
X240574000Y-86741000D01*
X240574000Y-87631000D02*
X246574000Y-87631000D01*
X246574000Y-87631000D02*
X246574000Y-88391000D01*
X246574000Y-88391000D02*
X240574000Y-88391000D01*
X237516929Y-87631000D02*
X237914000Y-87631000D01*
X237516929Y-88391000D02*
X237914000Y-88391000D01*
X234976929Y-87631000D02*
X235431071Y-87631000D01*
X234976929Y-88391000D02*
X235431071Y-88391000D01*
X237914000Y-89281000D02*
X240574000Y-89281000D01*
X240574000Y-90171000D02*
X246574000Y-90171000D01*
X246574000Y-90171000D02*
X246574000Y-90931000D01*
X246574000Y-90931000D02*
X240574000Y-90931000D01*
X237516929Y-90171000D02*
X237914000Y-90171000D01*
X237516929Y-90931000D02*
X237914000Y-90931000D01*
X234976929Y-90171000D02*
X235431071Y-90171000D01*
X234976929Y-90931000D02*
X235431071Y-90931000D01*
X237914000Y-91821000D02*
X240574000Y-91821000D01*
X240574000Y-92711000D02*
X246574000Y-92711000D01*
X246574000Y-92711000D02*
X246574000Y-93471000D01*
X246574000Y-93471000D02*
X240574000Y-93471000D01*
X237516929Y-92711000D02*
X237914000Y-92711000D01*
X237516929Y-93471000D02*
X237914000Y-93471000D01*
X234976929Y-92711000D02*
X235431071Y-92711000D01*
X234976929Y-93471000D02*
X235431071Y-93471000D01*
X237914000Y-94361000D02*
X240574000Y-94361000D01*
X240574000Y-95251000D02*
X246574000Y-95251000D01*
X246574000Y-95251000D02*
X246574000Y-96011000D01*
X246574000Y-96011000D02*
X240574000Y-96011000D01*
X237516929Y-95251000D02*
X237914000Y-95251000D01*
X237516929Y-96011000D02*
X237914000Y-96011000D01*
X234976929Y-95251000D02*
X235431071Y-95251000D01*
X234976929Y-96011000D02*
X235431071Y-96011000D01*
X237914000Y-96901000D02*
X240574000Y-96901000D01*
X240574000Y-97791000D02*
X246574000Y-97791000D01*
X246574000Y-97791000D02*
X246574000Y-98551000D01*
X246574000Y-98551000D02*
X240574000Y-98551000D01*
X237516929Y-97791000D02*
X237914000Y-97791000D01*
X237516929Y-98551000D02*
X237914000Y-98551000D01*
X234976929Y-97791000D02*
X235431071Y-97791000D01*
X234976929Y-98551000D02*
X235431071Y-98551000D01*
X237914000Y-99441000D02*
X240574000Y-99441000D01*
X240574000Y-100331000D02*
X246574000Y-100331000D01*
X246574000Y-100331000D02*
X246574000Y-101091000D01*
X246574000Y-101091000D02*
X240574000Y-101091000D01*
X237516929Y-100331000D02*
X237914000Y-100331000D01*
X237516929Y-101091000D02*
X237914000Y-101091000D01*
X234976929Y-100331000D02*
X235431071Y-100331000D01*
X234976929Y-101091000D02*
X235431071Y-101091000D01*
X237914000Y-101981000D02*
X240574000Y-101981000D01*
X240574000Y-102871000D02*
X246574000Y-102871000D01*
X246574000Y-102871000D02*
X246574000Y-103631000D01*
X246574000Y-103631000D02*
X240574000Y-103631000D01*
X237516929Y-102871000D02*
X237914000Y-102871000D01*
X237516929Y-103631000D02*
X237914000Y-103631000D01*
X234976929Y-102871000D02*
X235431071Y-102871000D01*
X234976929Y-103631000D02*
X235431071Y-103631000D01*
X237914000Y-104521000D02*
X240574000Y-104521000D01*
X240574000Y-105411000D02*
X246574000Y-105411000D01*
X246574000Y-105411000D02*
X246574000Y-106171000D01*
X246574000Y-106171000D02*
X240574000Y-106171000D01*
X237516929Y-105411000D02*
X237914000Y-105411000D01*
X237516929Y-106171000D02*
X237914000Y-106171000D01*
X234976929Y-105411000D02*
X235431071Y-105411000D01*
X234976929Y-106171000D02*
X235431071Y-106171000D01*
X237914000Y-107061000D02*
X240574000Y-107061000D01*
X240574000Y-107951000D02*
X246574000Y-107951000D01*
X246574000Y-107951000D02*
X246574000Y-108711000D01*
X246574000Y-108711000D02*
X240574000Y-108711000D01*
X237516929Y-107951000D02*
X237914000Y-107951000D01*
X237516929Y-108711000D02*
X237914000Y-108711000D01*
X234976929Y-107951000D02*
X235431071Y-107951000D01*
X234976929Y-108711000D02*
X235431071Y-108711000D01*
X237914000Y-109601000D02*
X240574000Y-109601000D01*
X240574000Y-110491000D02*
X246574000Y-110491000D01*
X246574000Y-110491000D02*
X246574000Y-111251000D01*
X246574000Y-111251000D02*
X240574000Y-111251000D01*
X237516929Y-110491000D02*
X237914000Y-110491000D01*
X237516929Y-111251000D02*
X237914000Y-111251000D01*
X234976929Y-110491000D02*
X235431071Y-110491000D01*
X234976929Y-111251000D02*
X235431071Y-111251000D01*
X237914000Y-112141000D02*
X240574000Y-112141000D01*
X240574000Y-113031000D02*
X246574000Y-113031000D01*
X246574000Y-113031000D02*
X246574000Y-113791000D01*
X246574000Y-113791000D02*
X240574000Y-113791000D01*
X237516929Y-113031000D02*
X237914000Y-113031000D01*
X237516929Y-113791000D02*
X237914000Y-113791000D01*
X234976929Y-113031000D02*
X235431071Y-113031000D01*
X234976929Y-113791000D02*
X235431071Y-113791000D01*
X237914000Y-114681000D02*
X240574000Y-114681000D01*
X240574000Y-115571000D02*
X246574000Y-115571000D01*
X246574000Y-115571000D02*
X246574000Y-116331000D01*
X246574000Y-116331000D02*
X240574000Y-116331000D01*
X237516929Y-115571000D02*
X237914000Y-115571000D01*
X237516929Y-116331000D02*
X237914000Y-116331000D01*
X234976929Y-115571000D02*
X235431071Y-115571000D01*
X234976929Y-116331000D02*
X235431071Y-116331000D01*
X237914000Y-117221000D02*
X240574000Y-117221000D01*
X240574000Y-118111000D02*
X246574000Y-118111000D01*
X246574000Y-118111000D02*
X246574000Y-118871000D01*
X246574000Y-118871000D02*
X240574000Y-118871000D01*
X237516929Y-118111000D02*
X237914000Y-118111000D01*
X237516929Y-118871000D02*
X237914000Y-118871000D01*
X234976929Y-118111000D02*
X235431071Y-118111000D01*
X234976929Y-118871000D02*
X235431071Y-118871000D01*
X237914000Y-119761000D02*
X240574000Y-119761000D01*
X240574000Y-120651000D02*
X246574000Y-120651000D01*
X246574000Y-120651000D02*
X246574000Y-121411000D01*
X246574000Y-121411000D02*
X240574000Y-121411000D01*
X237516929Y-120651000D02*
X237914000Y-120651000D01*
X237516929Y-121411000D02*
X237914000Y-121411000D01*
X234976929Y-120651000D02*
X235431071Y-120651000D01*
X234976929Y-121411000D02*
X235431071Y-121411000D01*
X237914000Y-122301000D02*
X240574000Y-122301000D01*
X240574000Y-123191000D02*
X246574000Y-123191000D01*
X246574000Y-123191000D02*
X246574000Y-123951000D01*
X246574000Y-123951000D02*
X240574000Y-123951000D01*
X237516929Y-123191000D02*
X237914000Y-123191000D01*
X237516929Y-123951000D02*
X237914000Y-123951000D01*
X234976929Y-123191000D02*
X235431071Y-123191000D01*
X234976929Y-123951000D02*
X235431071Y-123951000D01*
X237914000Y-124841000D02*
X240574000Y-124841000D01*
X240574000Y-125731000D02*
X246574000Y-125731000D01*
X246574000Y-125731000D02*
X246574000Y-126491000D01*
X246574000Y-126491000D02*
X240574000Y-126491000D01*
X237516929Y-125731000D02*
X237914000Y-125731000D01*
X237516929Y-126491000D02*
X237914000Y-126491000D01*
X234976929Y-125731000D02*
X235431071Y-125731000D01*
X234976929Y-126491000D02*
X235431071Y-126491000D01*
X237914000Y-127381000D02*
X240574000Y-127381000D01*
X240574000Y-128271000D02*
X246574000Y-128271000D01*
X246574000Y-128271000D02*
X246574000Y-129031000D01*
X246574000Y-129031000D02*
X240574000Y-129031000D01*
X237516929Y-128271000D02*
X237914000Y-128271000D01*
X237516929Y-129031000D02*
X237914000Y-129031000D01*
X234976929Y-128271000D02*
X235431071Y-128271000D01*
X234976929Y-129031000D02*
X235431071Y-129031000D01*
X232664000Y-39751000D02*
X232664000Y-38481000D01*
X232664000Y-38481000D02*
X233934000Y-38481000D01*
%TO.C,IOPORT1*%
D12*
X176800238Y-77795380D02*
X176800238Y-76795380D01*
X177466904Y-76795380D02*
X177657380Y-76795380D01*
X177752619Y-76843000D01*
X177847857Y-76938238D01*
X177895476Y-77128714D01*
X177895476Y-77462047D01*
X177847857Y-77652523D01*
X177752619Y-77747761D01*
X177657380Y-77795380D01*
X177466904Y-77795380D01*
X177371666Y-77747761D01*
X177276428Y-77652523D01*
X177228809Y-77462047D01*
X177228809Y-77128714D01*
X177276428Y-76938238D01*
X177371666Y-76843000D01*
X177466904Y-76795380D01*
X178324047Y-77795380D02*
X178324047Y-76795380D01*
X178705000Y-76795380D01*
X178800238Y-76843000D01*
X178847857Y-76890619D01*
X178895476Y-76985857D01*
X178895476Y-77128714D01*
X178847857Y-77223952D01*
X178800238Y-77271571D01*
X178705000Y-77319190D01*
X178324047Y-77319190D01*
X179514523Y-76795380D02*
X179705000Y-76795380D01*
X179800238Y-76843000D01*
X179895476Y-76938238D01*
X179943095Y-77128714D01*
X179943095Y-77462047D01*
X179895476Y-77652523D01*
X179800238Y-77747761D01*
X179705000Y-77795380D01*
X179514523Y-77795380D01*
X179419285Y-77747761D01*
X179324047Y-77652523D01*
X179276428Y-77462047D01*
X179276428Y-77128714D01*
X179324047Y-76938238D01*
X179419285Y-76843000D01*
X179514523Y-76795380D01*
X180943095Y-77795380D02*
X180609761Y-77319190D01*
X180371666Y-77795380D02*
X180371666Y-76795380D01*
X180752619Y-76795380D01*
X180847857Y-76843000D01*
X180895476Y-76890619D01*
X180943095Y-76985857D01*
X180943095Y-77128714D01*
X180895476Y-77223952D01*
X180847857Y-77271571D01*
X180752619Y-77319190D01*
X180371666Y-77319190D01*
X181228809Y-76795380D02*
X181800238Y-76795380D01*
X181514523Y-77795380D02*
X181514523Y-76795380D01*
X182657380Y-77795380D02*
X182085952Y-77795380D01*
X182371666Y-77795380D02*
X182371666Y-76795380D01*
X182276428Y-76938238D01*
X182181190Y-77033476D01*
X182085952Y-77081095D01*
%TO.C,OR1*%
X142502071Y-43965880D02*
X142692547Y-43965880D01*
X142787785Y-44013500D01*
X142883023Y-44108738D01*
X142930642Y-44299214D01*
X142930642Y-44632547D01*
X142883023Y-44823023D01*
X142787785Y-44918261D01*
X142692547Y-44965880D01*
X142502071Y-44965880D01*
X142406833Y-44918261D01*
X142311595Y-44823023D01*
X142263976Y-44632547D01*
X142263976Y-44299214D01*
X142311595Y-44108738D01*
X142406833Y-44013500D01*
X142502071Y-43965880D01*
X143930642Y-44965880D02*
X143597309Y-44489690D01*
X143359214Y-44965880D02*
X143359214Y-43965880D01*
X143740166Y-43965880D01*
X143835404Y-44013500D01*
X143883023Y-44061119D01*
X143930642Y-44156357D01*
X143930642Y-44299214D01*
X143883023Y-44394452D01*
X143835404Y-44442071D01*
X143740166Y-44489690D01*
X143359214Y-44489690D01*
X144883023Y-44965880D02*
X144311595Y-44965880D01*
X144597309Y-44965880D02*
X144597309Y-43965880D01*
X144502071Y-44108738D01*
X144406833Y-44203976D01*
X144311595Y-44251595D01*
%TO.C,ANDWAIT1*%
X164854357Y-43537166D02*
X165330547Y-43537166D01*
X164759119Y-43822880D02*
X165092452Y-42822880D01*
X165425785Y-43822880D01*
X165759119Y-43822880D02*
X165759119Y-42822880D01*
X166330547Y-43822880D01*
X166330547Y-42822880D01*
X166806738Y-43822880D02*
X166806738Y-42822880D01*
X167044833Y-42822880D01*
X167187690Y-42870500D01*
X167282928Y-42965738D01*
X167330547Y-43060976D01*
X167378166Y-43251452D01*
X167378166Y-43394309D01*
X167330547Y-43584785D01*
X167282928Y-43680023D01*
X167187690Y-43775261D01*
X167044833Y-43822880D01*
X166806738Y-43822880D01*
X167711500Y-42822880D02*
X167949595Y-43822880D01*
X168140071Y-43108595D01*
X168330547Y-43822880D01*
X168568642Y-42822880D01*
X168901976Y-43537166D02*
X169378166Y-43537166D01*
X168806738Y-43822880D02*
X169140071Y-42822880D01*
X169473404Y-43822880D01*
X169806738Y-43822880D02*
X169806738Y-42822880D01*
X170140071Y-42822880D02*
X170711500Y-42822880D01*
X170425785Y-43822880D02*
X170425785Y-42822880D01*
X171568642Y-43822880D02*
X170997214Y-43822880D01*
X171282928Y-43822880D02*
X171282928Y-42822880D01*
X171187690Y-42965738D01*
X171092452Y-43060976D01*
X170997214Y-43108595D01*
%TO.C,R2*%
X147661333Y-97226380D02*
X147328000Y-96750190D01*
X147089904Y-97226380D02*
X147089904Y-96226380D01*
X147470857Y-96226380D01*
X147566095Y-96274000D01*
X147613714Y-96321619D01*
X147661333Y-96416857D01*
X147661333Y-96559714D01*
X147613714Y-96654952D01*
X147566095Y-96702571D01*
X147470857Y-96750190D01*
X147089904Y-96750190D01*
X148042285Y-96321619D02*
X148089904Y-96274000D01*
X148185142Y-96226380D01*
X148423238Y-96226380D01*
X148518476Y-96274000D01*
X148566095Y-96321619D01*
X148613714Y-96416857D01*
X148613714Y-96512095D01*
X148566095Y-96654952D01*
X147994666Y-97226380D01*
X148613714Y-97226380D01*
%TO.C,R1*%
X147915333Y-100591880D02*
X147582000Y-100115690D01*
X147343904Y-100591880D02*
X147343904Y-99591880D01*
X147724857Y-99591880D01*
X147820095Y-99639500D01*
X147867714Y-99687119D01*
X147915333Y-99782357D01*
X147915333Y-99925214D01*
X147867714Y-100020452D01*
X147820095Y-100068071D01*
X147724857Y-100115690D01*
X147343904Y-100115690D01*
X148867714Y-100591880D02*
X148296285Y-100591880D01*
X148582000Y-100591880D02*
X148582000Y-99591880D01*
X148486761Y-99734738D01*
X148391523Y-99829976D01*
X148296285Y-99877595D01*
%TO.C,SW1*%
X124714166Y-93940261D02*
X124857023Y-93987880D01*
X125095119Y-93987880D01*
X125190357Y-93940261D01*
X125237976Y-93892642D01*
X125285595Y-93797404D01*
X125285595Y-93702166D01*
X125237976Y-93606928D01*
X125190357Y-93559309D01*
X125095119Y-93511690D01*
X124904642Y-93464071D01*
X124809404Y-93416452D01*
X124761785Y-93368833D01*
X124714166Y-93273595D01*
X124714166Y-93178357D01*
X124761785Y-93083119D01*
X124809404Y-93035500D01*
X124904642Y-92987880D01*
X125142738Y-92987880D01*
X125285595Y-93035500D01*
X125618928Y-92987880D02*
X125857023Y-93987880D01*
X126047500Y-93273595D01*
X126237976Y-93987880D01*
X126476071Y-92987880D01*
X127380833Y-93987880D02*
X126809404Y-93987880D01*
X127095119Y-93987880D02*
X127095119Y-92987880D01*
X126999880Y-93130738D01*
X126904642Y-93225976D01*
X126809404Y-93273595D01*
%TO.C,C9*%
X143406833Y-93511642D02*
X143359214Y-93559261D01*
X143216357Y-93606880D01*
X143121119Y-93606880D01*
X142978261Y-93559261D01*
X142883023Y-93464023D01*
X142835404Y-93368785D01*
X142787785Y-93178309D01*
X142787785Y-93035452D01*
X142835404Y-92844976D01*
X142883023Y-92749738D01*
X142978261Y-92654500D01*
X143121119Y-92606880D01*
X143216357Y-92606880D01*
X143359214Y-92654500D01*
X143406833Y-92702119D01*
X143883023Y-93606880D02*
X144073500Y-93606880D01*
X144168738Y-93559261D01*
X144216357Y-93511642D01*
X144311595Y-93368785D01*
X144359214Y-93178309D01*
X144359214Y-92797357D01*
X144311595Y-92702119D01*
X144263976Y-92654500D01*
X144168738Y-92606880D01*
X143978261Y-92606880D01*
X143883023Y-92654500D01*
X143835404Y-92702119D01*
X143787785Y-92797357D01*
X143787785Y-93035452D01*
X143835404Y-93130690D01*
X143883023Y-93178309D01*
X143978261Y-93225928D01*
X144168738Y-93225928D01*
X144263976Y-93178309D01*
X144311595Y-93130690D01*
X144359214Y-93035452D01*
%TO.C,CLOCK1*%
X152527261Y-86844142D02*
X152479642Y-86891761D01*
X152336785Y-86939380D01*
X152241547Y-86939380D01*
X152098690Y-86891761D01*
X152003452Y-86796523D01*
X151955833Y-86701285D01*
X151908214Y-86510809D01*
X151908214Y-86367952D01*
X151955833Y-86177476D01*
X152003452Y-86082238D01*
X152098690Y-85987000D01*
X152241547Y-85939380D01*
X152336785Y-85939380D01*
X152479642Y-85987000D01*
X152527261Y-86034619D01*
X153432023Y-86939380D02*
X152955833Y-86939380D01*
X152955833Y-85939380D01*
X153955833Y-85939380D02*
X154146309Y-85939380D01*
X154241547Y-85987000D01*
X154336785Y-86082238D01*
X154384404Y-86272714D01*
X154384404Y-86606047D01*
X154336785Y-86796523D01*
X154241547Y-86891761D01*
X154146309Y-86939380D01*
X153955833Y-86939380D01*
X153860595Y-86891761D01*
X153765357Y-86796523D01*
X153717738Y-86606047D01*
X153717738Y-86272714D01*
X153765357Y-86082238D01*
X153860595Y-85987000D01*
X153955833Y-85939380D01*
X155384404Y-86844142D02*
X155336785Y-86891761D01*
X155193928Y-86939380D01*
X155098690Y-86939380D01*
X154955833Y-86891761D01*
X154860595Y-86796523D01*
X154812976Y-86701285D01*
X154765357Y-86510809D01*
X154765357Y-86367952D01*
X154812976Y-86177476D01*
X154860595Y-86082238D01*
X154955833Y-85987000D01*
X155098690Y-85939380D01*
X155193928Y-85939380D01*
X155336785Y-85987000D01*
X155384404Y-86034619D01*
X155812976Y-86939380D02*
X155812976Y-85939380D01*
X156384404Y-86939380D02*
X155955833Y-86367952D01*
X156384404Y-85939380D02*
X155812976Y-86510809D01*
X157336785Y-86939380D02*
X156765357Y-86939380D01*
X157051071Y-86939380D02*
X157051071Y-85939380D01*
X156955833Y-86082238D01*
X156860595Y-86177476D01*
X156765357Y-86225095D01*
%TO.C,MEMCHIPSELECT1*%
X197319095Y-25153880D02*
X197319095Y-24153880D01*
X197652428Y-24868166D01*
X197985761Y-24153880D01*
X197985761Y-25153880D01*
X198461952Y-24630071D02*
X198795285Y-24630071D01*
X198938142Y-25153880D02*
X198461952Y-25153880D01*
X198461952Y-24153880D01*
X198938142Y-24153880D01*
X199366714Y-25153880D02*
X199366714Y-24153880D01*
X199700047Y-24868166D01*
X200033380Y-24153880D01*
X200033380Y-25153880D01*
X201081000Y-25058642D02*
X201033380Y-25106261D01*
X200890523Y-25153880D01*
X200795285Y-25153880D01*
X200652428Y-25106261D01*
X200557190Y-25011023D01*
X200509571Y-24915785D01*
X200461952Y-24725309D01*
X200461952Y-24582452D01*
X200509571Y-24391976D01*
X200557190Y-24296738D01*
X200652428Y-24201500D01*
X200795285Y-24153880D01*
X200890523Y-24153880D01*
X201033380Y-24201500D01*
X201081000Y-24249119D01*
X201509571Y-25153880D02*
X201509571Y-24153880D01*
X201509571Y-24630071D02*
X202081000Y-24630071D01*
X202081000Y-25153880D02*
X202081000Y-24153880D01*
X202557190Y-25153880D02*
X202557190Y-24153880D01*
X203033380Y-25153880D02*
X203033380Y-24153880D01*
X203414333Y-24153880D01*
X203509571Y-24201500D01*
X203557190Y-24249119D01*
X203604809Y-24344357D01*
X203604809Y-24487214D01*
X203557190Y-24582452D01*
X203509571Y-24630071D01*
X203414333Y-24677690D01*
X203033380Y-24677690D01*
X203985761Y-25106261D02*
X204128619Y-25153880D01*
X204366714Y-25153880D01*
X204461952Y-25106261D01*
X204509571Y-25058642D01*
X204557190Y-24963404D01*
X204557190Y-24868166D01*
X204509571Y-24772928D01*
X204461952Y-24725309D01*
X204366714Y-24677690D01*
X204176238Y-24630071D01*
X204081000Y-24582452D01*
X204033380Y-24534833D01*
X203985761Y-24439595D01*
X203985761Y-24344357D01*
X204033380Y-24249119D01*
X204081000Y-24201500D01*
X204176238Y-24153880D01*
X204414333Y-24153880D01*
X204557190Y-24201500D01*
X204985761Y-24630071D02*
X205319095Y-24630071D01*
X205461952Y-25153880D02*
X204985761Y-25153880D01*
X204985761Y-24153880D01*
X205461952Y-24153880D01*
X206366714Y-25153880D02*
X205890523Y-25153880D01*
X205890523Y-24153880D01*
X206700047Y-24630071D02*
X207033380Y-24630071D01*
X207176238Y-25153880D02*
X206700047Y-25153880D01*
X206700047Y-24153880D01*
X207176238Y-24153880D01*
X208176238Y-25058642D02*
X208128619Y-25106261D01*
X207985761Y-25153880D01*
X207890523Y-25153880D01*
X207747666Y-25106261D01*
X207652428Y-25011023D01*
X207604809Y-24915785D01*
X207557190Y-24725309D01*
X207557190Y-24582452D01*
X207604809Y-24391976D01*
X207652428Y-24296738D01*
X207747666Y-24201500D01*
X207890523Y-24153880D01*
X207985761Y-24153880D01*
X208128619Y-24201500D01*
X208176238Y-24249119D01*
X208461952Y-24153880D02*
X209033380Y-24153880D01*
X208747666Y-25153880D02*
X208747666Y-24153880D01*
X209890523Y-25153880D02*
X209319095Y-25153880D01*
X209604809Y-25153880D02*
X209604809Y-24153880D01*
X209509571Y-24296738D01*
X209414333Y-24391976D01*
X209319095Y-24439595D01*
%TO.C,C1*%
X215927333Y-27408142D02*
X215879714Y-27455761D01*
X215736857Y-27503380D01*
X215641619Y-27503380D01*
X215498761Y-27455761D01*
X215403523Y-27360523D01*
X215355904Y-27265285D01*
X215308285Y-27074809D01*
X215308285Y-26931952D01*
X215355904Y-26741476D01*
X215403523Y-26646238D01*
X215498761Y-26551000D01*
X215641619Y-26503380D01*
X215736857Y-26503380D01*
X215879714Y-26551000D01*
X215927333Y-26598619D01*
X216879714Y-27503380D02*
X216308285Y-27503380D01*
X216594000Y-27503380D02*
X216594000Y-26503380D01*
X216498761Y-26646238D01*
X216403523Y-26741476D01*
X216308285Y-26789095D01*
%TO.C,C3*%
X230735142Y-29694166D02*
X230782761Y-29741785D01*
X230830380Y-29884642D01*
X230830380Y-29979880D01*
X230782761Y-30122738D01*
X230687523Y-30217976D01*
X230592285Y-30265595D01*
X230401809Y-30313214D01*
X230258952Y-30313214D01*
X230068476Y-30265595D01*
X229973238Y-30217976D01*
X229878000Y-30122738D01*
X229830380Y-29979880D01*
X229830380Y-29884642D01*
X229878000Y-29741785D01*
X229925619Y-29694166D01*
X229830380Y-29360833D02*
X229830380Y-28741785D01*
X230211333Y-29075119D01*
X230211333Y-28932261D01*
X230258952Y-28837023D01*
X230306571Y-28789404D01*
X230401809Y-28741785D01*
X230639904Y-28741785D01*
X230735142Y-28789404D01*
X230782761Y-28837023D01*
X230830380Y-28932261D01*
X230830380Y-29217976D01*
X230782761Y-29313214D01*
X230735142Y-29360833D01*
%TD*%
M02*
