M48
; DRILL file {KiCad (5.1.8)-1} date 01/08/21 14:24:30
; FORMAT={-:-/ absolute / inch / decimal}
; #@! TF.CreationDate,2021-01-08T14:24:30-05:00
; #@! TF.GenerationSoftware,Kicad,Pcbnew,(5.1.8)-1
; #@! TF.FileFunction,Plated,1,2,PTH
FMAT,2
INCH
T1C0.0160
T2C0.0300
T3C0.0315
T4C0.0394
T5C0.0433
%
G90
G05
T1
X6.3625Y-3.065
X7.235Y-2.5625
X7.2725Y-2.6675
X7.525Y-1.855
X7.5275Y-1.6825
X7.5725Y-1.61
X7.5935Y-1.5685
X7.625Y-1.6625
X7.795Y-1.815
X7.8625Y-2.105
X8.015Y-2.1
X8.205Y-2.2675
X8.2125Y-3.405
X8.52Y-2.4159
X8.6575Y-2.4775
X8.68Y-1.78
X8.6925Y-2.1025
T2
X7.435Y-3.28
X7.435Y-3.38
X7.435Y-3.48
X7.435Y-3.58
X7.435Y-3.68
X7.435Y-3.78
X7.435Y-3.88
X7.435Y-3.98
X7.435Y-4.08
X7.435Y-4.18
X7.435Y-4.28
X7.435Y-4.38
X7.435Y-4.48
X7.535Y-3.28
X7.535Y-3.38
X7.535Y-3.48
X7.535Y-3.58
X7.535Y-3.68
X7.535Y-3.78
X7.535Y-3.88
X7.535Y-3.98
X7.535Y-4.08
X7.535Y-4.18
X7.535Y-4.28
X7.535Y-4.38
X7.535Y-4.48
X7.635Y-3.28
X7.635Y-3.38
X7.635Y-3.48
X7.635Y-3.58
X7.635Y-3.68
X7.635Y-3.78
X7.635Y-3.88
X7.635Y-3.98
X7.635Y-4.08
X7.635Y-4.18
X7.635Y-4.28
X7.635Y-4.38
X7.635Y-4.48
X7.735Y-3.28
X7.735Y-3.38
X7.735Y-3.48
X7.735Y-3.58
X7.735Y-3.68
X7.735Y-3.78
X7.735Y-3.88
X7.735Y-3.98
X7.735Y-4.08
X7.735Y-4.18
X7.735Y-4.28
X7.735Y-4.38
X7.735Y-4.48
X6.0181Y-0.9844
X6.0181Y-1.0844
X6.0181Y-1.1844
X6.0181Y-1.2844
X6.0181Y-1.3844
X6.0181Y-1.4844
X6.0181Y-1.5844
X6.0181Y-1.6844
X6.0181Y-1.7844
X6.0181Y-1.8844
X6.0181Y-1.9844
X6.0181Y-2.0844
X6.1181Y-0.9844
X6.1181Y-1.0844
X6.1181Y-1.1844
X6.1181Y-1.2844
X6.1181Y-1.3844
X6.1181Y-1.4844
X6.1181Y-1.5844
X6.1181Y-1.6844
X6.1181Y-1.7844
X6.1181Y-1.8844
X6.1181Y-1.9844
X6.1181Y-2.0844
X6.2181Y-0.9844
X6.2181Y-1.0844
X6.2181Y-1.1844
X6.2181Y-1.2844
X6.2181Y-1.3844
X6.2181Y-1.4844
X6.2181Y-1.5844
X6.2181Y-1.6844
X6.2181Y-1.7844
X6.2181Y-1.8844
X6.2181Y-1.9844
X6.2181Y-2.0844
X6.3181Y-0.9844
X6.3181Y-1.0844
X6.3181Y-1.1844
X6.3181Y-1.2844
X6.3181Y-1.3844
X6.3181Y-1.4844
X6.3181Y-1.5844
X6.3181Y-1.6844
X6.3181Y-1.7844
X6.3181Y-1.8844
X6.3181Y-1.9844
X6.3181Y-2.0844
X6.8631Y-2.1594
X6.8631Y-2.2594
X6.8631Y-2.3594
X6.8631Y-2.4594
X6.8631Y-2.5594
X6.8631Y-2.6594
X6.8631Y-2.7594
X6.8631Y-2.8594
X6.8631Y-2.9594
X6.9631Y-2.1594
X6.9631Y-2.2594
X6.9631Y-2.3594
X6.9631Y-2.4594
X6.9631Y-2.5594
X6.9631Y-2.6594
X6.9631Y-2.7594
X6.9631Y-2.8594
X6.9631Y-2.9594
X7.0631Y-2.1594
X7.0631Y-2.2594
X7.0631Y-2.3594
X7.0631Y-2.4594
X7.0631Y-2.5594
X7.0631Y-2.6594
X7.0631Y-2.7594
X7.0631Y-2.8594
X7.0631Y-2.9594
X7.1631Y-2.1594
X7.1631Y-2.2594
X7.1631Y-2.3594
X7.1631Y-2.4594
X7.1631Y-2.5594
X7.1631Y-2.6594
X7.1631Y-2.7594
X7.1631Y-2.8594
X7.1631Y-2.9594
X7.8331Y-3.2794
X7.8331Y-3.3794
X7.8331Y-3.4794
X7.8331Y-3.5794
X7.8331Y-3.6794
X7.8331Y-3.7794
X7.8331Y-3.8794
X7.8331Y-3.9794
X7.8331Y-4.0794
X7.8331Y-4.1794
X7.8331Y-4.2794
X7.8331Y-4.3794
X7.8331Y-4.4794
X7.9331Y-3.2794
X7.9331Y-3.3794
X7.9331Y-3.4794
X7.9331Y-3.5794
X7.9331Y-3.6794
X7.9331Y-3.7794
X7.9331Y-3.8794
X7.9331Y-3.9794
X7.9331Y-4.0794
X7.9331Y-4.1794
X7.9331Y-4.2794
X7.9331Y-4.3794
X7.9331Y-4.4794
X8.0331Y-3.2794
X8.0331Y-3.3794
X8.0331Y-3.4794
X8.0331Y-3.5794
X8.0331Y-3.6794
X8.0331Y-3.7794
X8.0331Y-3.8794
X8.0331Y-3.9794
X8.0331Y-4.0794
X8.0331Y-4.1794
X8.0331Y-4.2794
X8.0331Y-4.3794
X8.0331Y-4.4794
X8.1331Y-3.2794
X8.1331Y-3.3794
X8.1331Y-3.4794
X8.1331Y-3.5794
X8.1331Y-3.6794
X8.1331Y-3.7794
X8.1331Y-3.8794
X8.1331Y-3.9794
X8.1331Y-4.0794
X8.1331Y-4.1794
X8.1331Y-4.2794
X8.1331Y-4.3794
X8.1331Y-4.4794
X5.0581Y-2.2144
X5.0581Y-2.3144
X5.0581Y-2.4144
X5.0581Y-2.5144
X5.0581Y-2.6144
X5.0581Y-2.7144
X5.0581Y-2.8144
X5.0581Y-2.9144
X5.0581Y-3.0144
X5.0581Y-3.1144
X5.0581Y-3.2144
X5.0581Y-3.3144
X5.0581Y-3.4144
X5.1581Y-2.2144
X5.1581Y-2.3144
X5.1581Y-2.4144
X5.1581Y-2.5144
X5.1581Y-2.6144
X5.1581Y-2.7144
X5.1581Y-2.8144
X5.1581Y-2.9144
X5.1581Y-3.0144
X5.1581Y-3.1144
X5.1581Y-3.2144
X5.1581Y-3.3144
X5.1581Y-3.4144
X5.2581Y-2.2144
X5.2581Y-2.3144
X5.2581Y-2.4144
X5.2581Y-2.5144
X5.2581Y-2.6144
X5.2581Y-2.7144
X5.2581Y-2.8144
X5.2581Y-2.9144
X5.2581Y-3.0144
X5.2581Y-3.1144
X5.2581Y-3.2144
X5.2581Y-3.3144
X5.2581Y-3.4144
X5.3581Y-2.2144
X5.3581Y-2.3144
X5.3581Y-2.4144
X5.3581Y-2.5144
X5.3581Y-2.6144
X5.3581Y-2.7144
X5.3581Y-2.8144
X5.3581Y-2.9144
X5.3581Y-3.0144
X5.3581Y-3.1144
X5.3581Y-3.2144
X5.3581Y-3.3144
X5.3581Y-3.4144
X7.8431Y-2.2644
X7.8431Y-2.3644
X7.8431Y-2.4644
X7.8431Y-2.5644
X7.8431Y-2.6644
X7.8431Y-2.7644
X7.8431Y-2.8644
X7.8431Y-2.9644
X7.8431Y-3.0644
X7.9431Y-2.2644
X7.9431Y-2.3644
X7.9431Y-2.4644
X7.9431Y-2.5644
X7.9431Y-2.6644
X7.9431Y-2.7644
X7.9431Y-2.8644
X7.9431Y-2.9644
X7.9431Y-3.0644
X8.0431Y-2.2644
X8.0431Y-2.3644
X8.0431Y-2.4644
X8.0431Y-2.5644
X8.0431Y-2.6644
X8.0431Y-2.7644
X8.0431Y-2.8644
X8.0431Y-2.9644
X8.0431Y-3.0644
X8.1431Y-2.2644
X8.1431Y-2.3644
X8.1431Y-2.4644
X8.1431Y-2.5644
X8.1431Y-2.6644
X8.1431Y-2.7644
X8.1431Y-2.8644
X8.1431Y-2.9644
X8.1431Y-3.0644
X7.0381Y-3.2794
X7.0381Y-3.3794
X7.0381Y-3.4794
X7.0381Y-3.5794
X7.0381Y-3.6794
X7.0381Y-3.7794
X7.0381Y-3.8794
X7.0381Y-3.9794
X7.0381Y-4.0794
X7.0381Y-4.1794
X7.0381Y-4.2794
X7.0381Y-4.3794
X7.0381Y-4.4794
X7.1381Y-3.2794
X7.1381Y-3.3794
X7.1381Y-3.4794
X7.1381Y-3.5794
X7.1381Y-3.6794
X7.1381Y-3.7794
X7.1381Y-3.8794
X7.1381Y-3.9794
X7.1381Y-4.0794
X7.1381Y-4.1794
X7.1381Y-4.2794
X7.1381Y-4.3794
X7.1381Y-4.4794
X7.2381Y-3.2794
X7.2381Y-3.3794
X7.2381Y-3.4794
X7.2381Y-3.5794
X7.2381Y-3.6794
X7.2381Y-3.7794
X7.2381Y-3.8794
X7.2381Y-3.9794
X7.2381Y-4.0794
X7.2381Y-4.1794
X7.2381Y-4.2794
X7.2381Y-4.3794
X7.2381Y-4.4794
X7.3381Y-3.2794
X7.3381Y-3.3794
X7.3381Y-3.4794
X7.3381Y-3.5794
X7.3381Y-3.6794
X7.3381Y-3.7794
X7.3381Y-3.8794
X7.3381Y-3.9794
X7.3381Y-4.0794
X7.3381Y-4.1794
X7.3381Y-4.2794
X7.3381Y-4.3794
X7.3381Y-4.4794
X5.0635Y-0.9987
X5.0635Y-1.0987
X5.0635Y-1.1987
X5.0635Y-1.2987
X5.0635Y-1.3987
X5.0635Y-1.4987
X5.0635Y-1.5987
X5.0635Y-1.6987
X5.0635Y-1.7987
X5.0635Y-1.8987
X5.0635Y-1.9987
X5.0635Y-2.0987
X5.1635Y-0.9987
X5.1635Y-1.0987
X5.1635Y-1.1987
X5.1635Y-1.2987
X5.1635Y-1.3987
X5.1635Y-1.4987
X5.1635Y-1.5987
X5.1635Y-1.6987
X5.1635Y-1.7987
X5.1635Y-1.8987
X5.1635Y-1.9987
X5.1635Y-2.0987
X5.2635Y-0.9987
X5.2635Y-1.0987
X5.2635Y-1.1987
X5.2635Y-1.2987
X5.2635Y-1.3987
X5.2635Y-1.4987
X5.2635Y-1.5987
X5.2635Y-1.6987
X5.2635Y-1.7987
X5.2635Y-1.8987
X5.2635Y-1.9987
X5.2635Y-2.0987
X5.3635Y-0.9987
X5.3635Y-1.0987
X5.3635Y-1.1987
X5.3635Y-1.2987
X5.3635Y-1.3987
X5.3635Y-1.4987
X5.3635Y-1.5987
X5.3635Y-1.6987
X5.3635Y-1.7987
X5.3635Y-1.8987
X5.3635Y-1.9987
X5.3635Y-2.0987
X5.9631Y-2.2144
X5.9631Y-2.3144
X5.9631Y-2.4144
X5.9631Y-2.5144
X5.9631Y-2.6144
X5.9631Y-2.7144
X5.9631Y-2.8144
X5.9631Y-2.9144
X5.9631Y-3.0144
X5.9631Y-3.1144
X5.9631Y-3.2144
X5.9631Y-3.3144
X6.0631Y-2.2144
X6.0631Y-2.3144
X6.0631Y-2.4144
X6.0631Y-2.5144
X6.0631Y-2.6144
X6.0631Y-2.7144
X6.0631Y-2.8144
X6.0631Y-2.9144
X6.0631Y-3.0144
X6.0631Y-3.1144
X6.0631Y-3.2144
X6.0631Y-3.3144
X6.1631Y-2.2144
X6.1631Y-2.3144
X6.1631Y-2.4144
X6.1631Y-2.5144
X6.1631Y-2.6144
X6.1631Y-2.7144
X6.1631Y-2.8144
X6.1631Y-2.9144
X6.1631Y-3.0144
X6.1631Y-3.1144
X6.1631Y-3.2144
X6.1631Y-3.3144
X6.2631Y-2.2144
X6.2631Y-2.3144
X6.2631Y-2.4144
X6.2631Y-2.5144
X6.2631Y-2.6144
X6.2631Y-2.7144
X6.2631Y-2.8144
X6.2631Y-2.9144
X6.2631Y-3.0144
X6.2631Y-3.1144
X6.2631Y-3.2144
X6.2631Y-3.3144
X6.935Y-4.575
X6.935Y-4.675
X6.935Y-4.775
X6.935Y-4.875
X7.035Y-4.575
X7.035Y-4.675
X7.035Y-4.775
X7.035Y-4.875
X7.135Y-4.575
X7.135Y-4.675
X7.135Y-4.775
X7.135Y-4.875
X7.235Y-4.575
X7.235Y-4.675
X7.235Y-4.775
X7.235Y-4.875
X7.335Y-4.575
X7.335Y-4.675
X7.335Y-4.775
X7.335Y-4.875
X7.435Y-4.575
X7.435Y-4.675
X7.435Y-4.775
X7.435Y-4.875
X7.535Y-4.575
X7.535Y-4.675
X7.535Y-4.775
X7.535Y-4.875
X7.635Y-4.575
X7.635Y-4.675
X7.635Y-4.775
X7.635Y-4.875
X7.735Y-4.575
X7.735Y-4.675
X7.735Y-4.775
X7.735Y-4.875
X7.835Y-4.575
X7.835Y-4.675
X7.835Y-4.775
X7.835Y-4.875
X7.935Y-4.575
X7.935Y-4.675
X7.935Y-4.775
X7.935Y-4.875
X8.035Y-4.575
X8.035Y-4.675
X8.035Y-4.775
X8.035Y-4.875
X8.135Y-4.575
X8.135Y-4.675
X8.135Y-4.775
X8.135Y-4.875
X7.855Y-1.07
X7.855Y-1.17
X7.855Y-1.27
X7.855Y-1.37
X7.855Y-1.47
X7.855Y-1.57
X7.855Y-1.67
X7.855Y-1.77
X7.855Y-1.87
X7.955Y-1.07
X7.955Y-1.17
X7.955Y-1.27
X7.955Y-1.37
X7.955Y-1.47
X7.955Y-1.57
X7.955Y-1.67
X7.955Y-1.77
X7.955Y-1.87
X8.055Y-1.07
X8.055Y-1.17
X8.055Y-1.27
X8.055Y-1.37
X8.055Y-1.47
X8.055Y-1.57
X8.055Y-1.67
X8.055Y-1.77
X8.055Y-1.87
X8.155Y-1.07
X8.155Y-1.17
X8.155Y-1.27
X8.155Y-1.37
X8.155Y-1.47
X8.155Y-1.57
X8.155Y-1.67
X8.155Y-1.77
X8.155Y-1.87
X8.7431Y-1.5694
X8.7431Y-1.6694
X8.7431Y-1.7694
X8.7431Y-1.8694
X8.7431Y-1.9694
X8.7431Y-2.0694
X8.7431Y-2.1694
X8.7431Y-2.2694
X8.7431Y-2.3694
X8.7431Y-2.4694
X8.7431Y-2.5694
X8.7431Y-2.6694
X8.7431Y-2.7694
X8.7431Y-2.8694
X8.7431Y-2.9694
X8.7431Y-3.0694
X8.7431Y-3.1694
X8.7431Y-3.2694
X8.7431Y-3.3694
X8.7431Y-3.4694
X8.7431Y-3.5694
X8.7431Y-3.6694
X8.7431Y-3.7694
X8.7431Y-3.8694
X8.7431Y-3.9694
X8.7431Y-4.0694
X8.7431Y-4.1694
X8.7431Y-4.2694
X8.7431Y-4.3694
X8.7431Y-4.4694
X8.7431Y-4.5694
X8.7431Y-4.6694
X8.7431Y-4.7694
X8.7431Y-4.8694
X8.7431Y-4.9694
X8.7431Y-5.0694
X8.8431Y-1.5694
X8.8431Y-1.6694
X8.8431Y-1.7694
X8.8431Y-1.8694
X8.8431Y-1.9694
X8.8431Y-2.0694
X8.8431Y-2.1694
X8.8431Y-2.2694
X8.8431Y-2.3694
X8.8431Y-2.4694
X8.8431Y-2.5694
X8.8431Y-2.6694
X8.8431Y-2.7694
X8.8431Y-2.8694
X8.8431Y-2.9694
X8.8431Y-3.0694
X8.8431Y-3.1694
X8.8431Y-3.2694
X8.8431Y-3.3694
X8.8431Y-3.4694
X8.8431Y-3.5694
X8.8431Y-3.6694
X8.8431Y-3.7694
X8.8431Y-3.8694
X8.8431Y-3.9694
X8.8431Y-4.0694
X8.8431Y-4.1694
X8.8431Y-4.2694
X8.8431Y-4.3694
X8.8431Y-4.4694
X8.8431Y-4.5694
X8.8431Y-4.6694
X8.8431Y-4.7694
X8.8431Y-4.8694
X8.8431Y-4.9694
X8.8431Y-5.0694
X8.9431Y-1.5694
X8.9431Y-1.6694
X8.9431Y-1.7694
X8.9431Y-1.8694
X8.9431Y-1.9694
X8.9431Y-2.0694
X8.9431Y-2.1694
X8.9431Y-2.2694
X8.9431Y-2.3694
X8.9431Y-2.4694
X8.9431Y-2.5694
X8.9431Y-2.6694
X8.9431Y-2.7694
X8.9431Y-2.8694
X8.9431Y-2.9694
X8.9431Y-3.0694
X8.9431Y-3.1694
X8.9431Y-3.2694
X8.9431Y-3.3694
X8.9431Y-3.4694
X8.9431Y-3.5694
X8.9431Y-3.6694
X8.9431Y-3.7694
X8.9431Y-3.8694
X8.9431Y-3.9694
X8.9431Y-4.0694
X8.9431Y-4.1694
X8.9431Y-4.2694
X8.9431Y-4.3694
X8.9431Y-4.4694
X8.9431Y-4.5694
X8.9431Y-4.6694
X8.9431Y-4.7694
X8.9431Y-4.8694
X8.9431Y-4.9694
X8.9431Y-5.0694
X9.0431Y-1.5694
X9.0431Y-1.6694
X9.0431Y-1.7694
X9.0431Y-1.8694
X9.0431Y-1.9694
X9.0431Y-2.0694
X9.0431Y-2.1694
X9.0431Y-2.2694
X9.0431Y-2.3694
X9.0431Y-2.4694
X9.0431Y-2.5694
X9.0431Y-2.6694
X9.0431Y-2.7694
X9.0431Y-2.8694
X9.0431Y-2.9694
X9.0431Y-3.0694
X9.0431Y-3.1694
X9.0431Y-3.2694
X9.0431Y-3.3694
X9.0431Y-3.4694
X9.0431Y-3.5694
X9.0431Y-3.6694
X9.0431Y-3.7694
X9.0431Y-3.8694
X9.0431Y-3.9694
X9.0431Y-4.0694
X9.0431Y-4.1694
X9.0431Y-4.2694
X9.0431Y-4.3694
X9.0431Y-4.4694
X9.0431Y-4.5694
X9.0431Y-4.6694
X9.0431Y-4.7694
X9.0431Y-4.8694
X9.0431Y-4.9694
X9.0431Y-5.0694
X5.6375Y-4.575
X5.6375Y-4.675
X5.6375Y-4.775
X5.6375Y-4.875
X5.7375Y-4.575
X5.7375Y-4.675
X5.7375Y-4.775
X5.7375Y-4.875
X5.8375Y-4.575
X5.8375Y-4.675
X5.8375Y-4.775
X5.8375Y-4.875
X5.9375Y-4.575
X5.9375Y-4.675
X5.9375Y-4.775
X5.9375Y-4.875
X6.0375Y-4.575
X6.0375Y-4.675
X6.0375Y-4.775
X6.0375Y-4.875
X6.1375Y-4.575
X6.1375Y-4.675
X6.1375Y-4.775
X6.1375Y-4.875
X6.2375Y-4.575
X6.2375Y-4.675
X6.2375Y-4.775
X6.2375Y-4.875
X6.3375Y-4.575
X6.3375Y-4.675
X6.3375Y-4.775
X6.3375Y-4.875
X6.4375Y-4.575
X6.4375Y-4.675
X6.4375Y-4.775
X6.4375Y-4.875
X6.5375Y-4.575
X6.5375Y-4.675
X6.5375Y-4.775
X6.5375Y-4.875
X6.6375Y-4.575
X6.6375Y-4.675
X6.6375Y-4.775
X6.6375Y-4.875
X6.7375Y-4.575
X6.7375Y-4.675
X6.7375Y-4.775
X6.7375Y-4.875
X6.8375Y-4.575
X6.8375Y-4.675
X6.8375Y-4.775
X6.8375Y-4.875
X6.635Y-3.28
X6.635Y-3.38
X6.635Y-3.48
X6.635Y-3.58
X6.635Y-3.68
X6.635Y-3.78
X6.635Y-3.88
X6.635Y-3.98
X6.635Y-4.08
X6.635Y-4.18
X6.635Y-4.28
X6.635Y-4.38
X6.635Y-4.48
X6.735Y-3.28
X6.735Y-3.38
X6.735Y-3.48
X6.735Y-3.58
X6.735Y-3.68
X6.735Y-3.78
X6.735Y-3.88
X6.735Y-3.98
X6.735Y-4.08
X6.735Y-4.18
X6.735Y-4.28
X6.735Y-4.38
X6.735Y-4.48
X6.835Y-3.28
X6.835Y-3.38
X6.835Y-3.48
X6.835Y-3.58
X6.835Y-3.68
X6.835Y-3.78
X6.835Y-3.88
X6.835Y-3.98
X6.835Y-4.08
X6.835Y-4.18
X6.835Y-4.28
X6.835Y-4.38
X6.835Y-4.48
X6.935Y-3.28
X6.935Y-3.38
X6.935Y-3.48
X6.935Y-3.58
X6.935Y-3.68
X6.935Y-3.78
X6.935Y-3.88
X6.935Y-3.98
X6.935Y-4.08
X6.935Y-4.18
X6.935Y-4.28
X6.935Y-4.38
X6.935Y-4.48
X6.955Y-0.97
X6.955Y-1.07
X6.955Y-1.17
X6.955Y-1.27
X6.955Y-1.37
X6.955Y-1.47
X6.955Y-1.57
X6.955Y-1.67
X6.955Y-1.77
X7.055Y-0.97
X7.055Y-1.07
X7.055Y-1.17
X7.055Y-1.27
X7.055Y-1.37
X7.055Y-1.47
X7.055Y-1.57
X7.055Y-1.67
X7.055Y-1.77
X7.155Y-0.97
X7.155Y-1.07
X7.155Y-1.17
X7.155Y-1.27
X7.155Y-1.37
X7.155Y-1.47
X7.155Y-1.57
X7.155Y-1.67
X7.155Y-1.77
X7.255Y-0.97
X7.255Y-1.07
X7.255Y-1.17
X7.255Y-1.27
X7.255Y-1.37
X7.255Y-1.47
X7.255Y-1.57
X7.255Y-1.67
X7.255Y-1.77
X8.2781Y-1.5694
X8.2781Y-1.6694
X8.2781Y-1.7694
X8.2781Y-1.8694
X8.2781Y-1.9694
X8.2781Y-2.0694
X8.2781Y-2.1694
X8.2781Y-2.2694
X8.2781Y-2.3694
X8.2781Y-2.4694
X8.2781Y-2.5694
X8.2781Y-2.6694
X8.2781Y-2.7694
X8.2781Y-2.8694
X8.2781Y-2.9694
X8.2781Y-3.0694
X8.2781Y-3.1694
X8.2781Y-3.2694
X8.2781Y-3.3694
X8.2781Y-3.4694
X8.2781Y-3.5694
X8.2781Y-3.6694
X8.2781Y-3.7694
X8.2781Y-3.8694
X8.2781Y-3.9694
X8.2781Y-4.0694
X8.2781Y-4.1694
X8.2781Y-4.2694
X8.2781Y-4.3694
X8.2781Y-4.4694
X8.2781Y-4.5694
X8.2781Y-4.6694
X8.2781Y-4.7694
X8.2781Y-4.8694
X8.2781Y-4.9694
X8.2781Y-5.0694
X8.3781Y-1.5694
X8.3781Y-1.6694
X8.3781Y-1.7694
X8.3781Y-1.8694
X8.3781Y-1.9694
X8.3781Y-2.0694
X8.3781Y-2.1694
X8.3781Y-2.2694
X8.3781Y-2.3694
X8.3781Y-2.4694
X8.3781Y-2.5694
X8.3781Y-2.6694
X8.3781Y-2.7694
X8.3781Y-2.8694
X8.3781Y-2.9694
X8.3781Y-3.0694
X8.3781Y-3.1694
X8.3781Y-3.2694
X8.3781Y-3.3694
X8.3781Y-3.4694
X8.3781Y-3.5694
X8.3781Y-3.6694
X8.3781Y-3.7694
X8.3781Y-3.8694
X8.3781Y-3.9694
X8.3781Y-4.0694
X8.3781Y-4.1694
X8.3781Y-4.2694
X8.3781Y-4.3694
X8.3781Y-4.4694
X8.3781Y-4.5694
X8.3781Y-4.6694
X8.3781Y-4.7694
X8.3781Y-4.8694
X8.3781Y-4.9694
X8.3781Y-5.0694
X8.4781Y-1.5694
X8.4781Y-1.6694
X8.4781Y-1.7694
X8.4781Y-1.8694
X8.4781Y-1.9694
X8.4781Y-2.0694
X8.4781Y-2.1694
X8.4781Y-2.2694
X8.4781Y-2.3694
X8.4781Y-2.4694
X8.4781Y-2.5694
X8.4781Y-2.6694
X8.4781Y-2.7694
X8.4781Y-2.8694
X8.4781Y-2.9694
X8.4781Y-3.0694
X8.4781Y-3.1694
X8.4781Y-3.2694
X8.4781Y-3.3694
X8.4781Y-3.4694
X8.4781Y-3.5694
X8.4781Y-3.6694
X8.4781Y-3.7694
X8.4781Y-3.8694
X8.4781Y-3.9694
X8.4781Y-4.0694
X8.4781Y-4.1694
X8.4781Y-4.2694
X8.4781Y-4.3694
X8.4781Y-4.4694
X8.4781Y-4.5694
X8.4781Y-4.6694
X8.4781Y-4.7694
X8.4781Y-4.8694
X8.4781Y-4.9694
X8.4781Y-5.0694
X8.5781Y-1.5694
X8.5781Y-1.6694
X8.5781Y-1.7694
X8.5781Y-1.8694
X8.5781Y-1.9694
X8.5781Y-2.0694
X8.5781Y-2.1694
X8.5781Y-2.2694
X8.5781Y-2.3694
X8.5781Y-2.4694
X8.5781Y-2.5694
X8.5781Y-2.6694
X8.5781Y-2.7694
X8.5781Y-2.8694
X8.5781Y-2.9694
X8.5781Y-3.0694
X8.5781Y-3.1694
X8.5781Y-3.2694
X8.5781Y-3.3694
X8.5781Y-3.4694
X8.5781Y-3.5694
X8.5781Y-3.6694
X8.5781Y-3.7694
X8.5781Y-3.8694
X8.5781Y-3.9694
X8.5781Y-4.0694
X8.5781Y-4.1694
X8.5781Y-4.2694
X8.5781Y-4.3694
X8.5781Y-4.4694
X8.5781Y-4.5694
X8.5781Y-4.6694
X8.5781Y-4.7694
X8.5781Y-4.8694
X8.5781Y-4.9694
X8.5781Y-5.0694
X5.335Y-4.08
X5.335Y-4.18
X5.335Y-4.28
X5.335Y-4.38
X5.435Y-4.08
X5.435Y-4.18
X5.435Y-4.28
X5.435Y-4.38
X5.535Y-4.08
X5.535Y-4.18
X5.535Y-4.28
X5.535Y-4.38
X5.635Y-4.08
X5.635Y-4.18
X5.635Y-4.28
X5.635Y-4.38
X5.735Y-4.08
X5.735Y-4.18
X5.735Y-4.28
X5.735Y-4.38
X5.835Y-4.08
X5.835Y-4.18
X5.835Y-4.28
X5.835Y-4.38
X5.935Y-4.08
X5.935Y-4.18
X5.935Y-4.28
X5.935Y-4.38
X6.035Y-4.08
X6.035Y-4.18
X6.035Y-4.28
X6.035Y-4.38
X6.135Y-4.08
X6.135Y-4.18
X6.135Y-4.28
X6.135Y-4.38
X6.235Y-4.08
X6.235Y-4.18
X6.235Y-4.28
X6.235Y-4.38
X6.335Y-4.08
X6.335Y-4.18
X6.335Y-4.28
X6.335Y-4.38
X6.435Y-4.08
X6.435Y-4.18
X6.435Y-4.28
X6.435Y-4.38
X6.535Y-4.08
X6.535Y-4.18
X6.535Y-4.28
X6.535Y-4.38
T3
X5.625Y-3.945
X6.025Y-3.945
X9.07Y-1.0197
X9.07Y-1.315
X7.395Y-0.97
X7.395Y-1.07
X7.395Y-1.17
X7.395Y-1.27
X7.395Y-1.37
X7.395Y-1.47
X7.395Y-1.57
X7.395Y-1.67
X7.395Y-1.77
X7.395Y-1.87
X7.695Y-0.97
X7.695Y-1.07
X7.695Y-1.17
X7.695Y-1.27
X7.695Y-1.37
X7.695Y-1.47
X7.695Y-1.57
X7.695Y-1.67
X7.695Y-1.77
X7.695Y-1.87
X6.495Y-0.985
X6.495Y-1.085
X6.495Y-1.185
X6.495Y-1.285
X6.495Y-1.385
X6.495Y-1.485
X6.495Y-1.585
X6.795Y-0.985
X6.795Y-1.085
X6.795Y-1.185
X6.795Y-1.285
X6.795Y-1.385
X6.795Y-1.485
X6.795Y-1.585
X8.36Y-1.065
X8.6553Y-1.065
X5.515Y-3.675
X5.8103Y-3.675
X5.515Y-2.215
X5.515Y-2.315
X5.515Y-2.415
X5.515Y-2.515
X5.515Y-2.615
X5.515Y-2.715
X5.515Y-2.815
X5.515Y-2.915
X5.515Y-3.015
X5.515Y-3.115
X5.515Y-3.215
X5.515Y-3.315
X5.515Y-3.415
X5.515Y-3.515
X5.815Y-2.215
X5.815Y-2.315
X5.815Y-2.415
X5.815Y-2.515
X5.815Y-2.615
X5.815Y-2.715
X5.815Y-2.815
X5.815Y-2.915
X5.815Y-3.015
X5.815Y-3.115
X5.815Y-3.215
X5.815Y-3.315
X5.815Y-3.415
X5.815Y-3.515
X5.6225Y-3.8125
X6.0225Y-3.8125
X7.387Y-2.169
X7.387Y-2.269
X7.387Y-2.369
X7.387Y-2.469
X7.387Y-2.569
X7.387Y-2.669
X7.387Y-2.769
X7.387Y-2.869
X7.387Y-2.969
X7.387Y-3.069
X7.687Y-2.169
X7.687Y-2.269
X7.687Y-2.369
X7.687Y-2.469
X7.687Y-2.569
X7.687Y-2.669
X7.687Y-2.769
X7.687Y-2.869
X7.687Y-2.969
X7.687Y-3.069
X5.5152Y-1.014
X5.5152Y-1.114
X5.5152Y-1.214
X5.5152Y-1.314
X5.5152Y-1.414
X5.5152Y-1.514
X5.5152Y-1.614
X5.8152Y-1.014
X5.8152Y-1.114
X5.8152Y-1.214
X5.8152Y-1.314
X5.8152Y-1.414
X5.8152Y-1.514
X5.8152Y-1.614
T4
X9.21Y-1.565
X9.21Y-1.665
X9.21Y-1.765
X9.21Y-1.865
X9.21Y-1.965
X9.21Y-2.065
X9.21Y-2.165
X9.21Y-2.265
X9.21Y-2.365
X9.21Y-2.465
X9.21Y-2.565
X9.21Y-2.665
X9.21Y-2.765
X9.21Y-2.865
X9.21Y-2.965
X9.21Y-3.065
X9.21Y-3.165
X9.21Y-3.265
X9.21Y-3.365
X9.21Y-3.465
X9.21Y-3.565
X9.21Y-3.665
X9.21Y-3.765
X9.21Y-3.865
X9.21Y-3.965
X9.21Y-4.065
X9.21Y-4.165
X9.21Y-4.265
X9.21Y-4.365
X9.21Y-4.465
X9.21Y-4.565
X9.21Y-4.665
X9.21Y-4.765
X9.21Y-4.865
X9.21Y-4.965
X9.21Y-5.065
X9.31Y-1.565
X9.31Y-1.665
X9.31Y-1.765
X9.31Y-1.865
X9.31Y-1.965
X9.31Y-2.065
X9.31Y-2.165
X9.31Y-2.265
X9.31Y-2.365
X9.31Y-2.465
X9.31Y-2.565
X9.31Y-2.665
X9.31Y-2.765
X9.31Y-2.865
X9.31Y-2.965
X9.31Y-3.065
X9.31Y-3.165
X9.31Y-3.265
X9.31Y-3.365
X9.31Y-3.465
X9.31Y-3.565
X9.31Y-3.665
X9.31Y-3.765
X9.31Y-3.865
X9.31Y-3.965
X9.31Y-4.065
X9.31Y-4.165
X9.31Y-4.265
X9.31Y-4.365
X9.31Y-4.465
X9.31Y-4.565
X9.31Y-4.665
X9.31Y-4.765
X9.31Y-4.865
X9.31Y-4.965
X9.31Y-5.065
X8.795Y-1.075
X8.795Y-1.175
X8.795Y-1.275
X8.895Y-1.075
X8.895Y-1.175
X8.895Y-1.275
X9.21Y-1.065
X9.21Y-1.165
X9.21Y-1.265
X9.31Y-1.065
X9.31Y-1.165
X9.31Y-1.265
T5
X4.825Y-3.595
X4.825Y-3.7722
X5.0809Y-3.595
X5.0809Y-3.7722
T0
M30
