G04 #@! TF.GenerationSoftware,KiCad,Pcbnew,(5.1.8)-1*
G04 #@! TF.CreationDate,2021-01-08T15:23:10-05:00*
G04 #@! TF.ProjectId,z80computer,7a383063-6f6d-4707-9574-65722e6b6963,rev?*
G04 #@! TF.SameCoordinates,Original*
G04 #@! TF.FileFunction,Soldermask,Top*
G04 #@! TF.FilePolarity,Negative*
%FSLAX46Y46*%
G04 Gerber Fmt 4.6, Leading zero omitted, Abs format (unit mm)*
G04 Created by KiCad (PCBNEW (5.1.8)-1) date 2021-01-08 15:23:10*
%MOMM*%
%LPD*%
G01*
G04 APERTURE LIST*
%ADD10O,1.600000X1.600000*%
%ADD11C,1.600000*%
%ADD12O,1.700000X1.700000*%
%ADD13R,1.700000X1.700000*%
%ADD14O,1.600000X2.400000*%
%ADD15R,1.600000X2.400000*%
G04 APERTURE END LIST*
D10*
G04 #@! TO.C,C5*
X179451000Y-30600000D03*
D11*
X179451000Y-38100000D03*
G04 #@! TD*
D10*
G04 #@! TO.C,C4*
X220091000Y-89796000D03*
D11*
X220091000Y-82296000D03*
G04 #@! TD*
D10*
G04 #@! TO.C,C3*
X227584000Y-24377000D03*
D11*
X227584000Y-31877000D03*
G04 #@! TD*
D10*
G04 #@! TO.C,C2*
X141344000Y-30480000D03*
D11*
X148844000Y-30480000D03*
G04 #@! TD*
D10*
G04 #@! TO.C,C1*
X177419000Y-87510000D03*
D11*
X177419000Y-80010000D03*
G04 #@! TD*
D12*
G04 #@! TO.C,J2*
X236474000Y-32131000D03*
X233934000Y-32131000D03*
X236474000Y-29591000D03*
X233934000Y-29591000D03*
X236474000Y-27051000D03*
D13*
X233934000Y-27051000D03*
G04 #@! TD*
D12*
G04 #@! TO.C,J1*
X236474000Y-128651000D03*
X233934000Y-128651000D03*
X236474000Y-126111000D03*
X233934000Y-126111000D03*
X236474000Y-123571000D03*
X233934000Y-123571000D03*
X236474000Y-121031000D03*
X233934000Y-121031000D03*
X236474000Y-118491000D03*
X233934000Y-118491000D03*
X236474000Y-115951000D03*
X233934000Y-115951000D03*
X236474000Y-113411000D03*
X233934000Y-113411000D03*
X236474000Y-110871000D03*
X233934000Y-110871000D03*
X236474000Y-108331000D03*
X233934000Y-108331000D03*
X236474000Y-105791000D03*
X233934000Y-105791000D03*
X236474000Y-103251000D03*
X233934000Y-103251000D03*
X236474000Y-100711000D03*
X233934000Y-100711000D03*
X236474000Y-98171000D03*
X233934000Y-98171000D03*
X236474000Y-95631000D03*
X233934000Y-95631000D03*
X236474000Y-93091000D03*
X233934000Y-93091000D03*
X236474000Y-90551000D03*
X233934000Y-90551000D03*
X236474000Y-88011000D03*
X233934000Y-88011000D03*
X236474000Y-85471000D03*
X233934000Y-85471000D03*
X236474000Y-82931000D03*
X233934000Y-82931000D03*
X236474000Y-80391000D03*
X233934000Y-80391000D03*
X236474000Y-77851000D03*
X233934000Y-77851000D03*
X236474000Y-75311000D03*
X233934000Y-75311000D03*
X236474000Y-72771000D03*
X233934000Y-72771000D03*
X236474000Y-70231000D03*
X233934000Y-70231000D03*
X236474000Y-67691000D03*
X233934000Y-67691000D03*
X236474000Y-65151000D03*
X233934000Y-65151000D03*
X236474000Y-62611000D03*
X233934000Y-62611000D03*
X236474000Y-60071000D03*
X233934000Y-60071000D03*
X236474000Y-57531000D03*
X233934000Y-57531000D03*
X236474000Y-54991000D03*
X233934000Y-54991000D03*
X236474000Y-52451000D03*
X233934000Y-52451000D03*
X236474000Y-49911000D03*
X233934000Y-49911000D03*
X236474000Y-47371000D03*
X233934000Y-47371000D03*
X236474000Y-44831000D03*
X233934000Y-44831000D03*
X236474000Y-42291000D03*
X233934000Y-42291000D03*
X236474000Y-39751000D03*
D13*
X233934000Y-39751000D03*
G04 #@! TD*
D14*
G04 #@! TO.C,RAM2*
X216662000Y-82169000D03*
X183642000Y-66929000D03*
X214122000Y-82169000D03*
X186182000Y-66929000D03*
X211582000Y-82169000D03*
X188722000Y-66929000D03*
X209042000Y-82169000D03*
X191262000Y-66929000D03*
X206502000Y-82169000D03*
X193802000Y-66929000D03*
X203962000Y-82169000D03*
X196342000Y-66929000D03*
X201422000Y-82169000D03*
X198882000Y-66929000D03*
X198882000Y-82169000D03*
X201422000Y-66929000D03*
X196342000Y-82169000D03*
X203962000Y-66929000D03*
X193802000Y-82169000D03*
X206502000Y-66929000D03*
X191262000Y-82169000D03*
X209042000Y-66929000D03*
X188722000Y-82169000D03*
X211582000Y-66929000D03*
X186182000Y-82169000D03*
X214122000Y-66929000D03*
X183642000Y-82169000D03*
D15*
X216662000Y-66929000D03*
G04 #@! TD*
D14*
G04 #@! TO.C,U4*
X174244000Y-54991000D03*
X125984000Y-39751000D03*
X171704000Y-54991000D03*
X128524000Y-39751000D03*
X169164000Y-54991000D03*
X131064000Y-39751000D03*
X166624000Y-54991000D03*
X133604000Y-39751000D03*
X164084000Y-54991000D03*
X136144000Y-39751000D03*
X161544000Y-54991000D03*
X138684000Y-39751000D03*
X159004000Y-54991000D03*
X141224000Y-39751000D03*
X156464000Y-54991000D03*
X143764000Y-39751000D03*
X153924000Y-54991000D03*
X146304000Y-39751000D03*
X151384000Y-54991000D03*
X148844000Y-39751000D03*
X148844000Y-54991000D03*
X151384000Y-39751000D03*
X146304000Y-54991000D03*
X153924000Y-39751000D03*
X143764000Y-54991000D03*
X156464000Y-39751000D03*
X141224000Y-54991000D03*
X159004000Y-39751000D03*
X138684000Y-54991000D03*
X161544000Y-39751000D03*
X136144000Y-54991000D03*
X164084000Y-39751000D03*
X133604000Y-54991000D03*
X166624000Y-39751000D03*
X131064000Y-54991000D03*
X169164000Y-39751000D03*
X128524000Y-54991000D03*
X171704000Y-39751000D03*
X125984000Y-54991000D03*
D15*
X174244000Y-39751000D03*
G04 #@! TD*
D14*
G04 #@! TO.C,ROM1*
X184404000Y-39751000D03*
X217424000Y-54991000D03*
X186944000Y-39751000D03*
X214884000Y-54991000D03*
X189484000Y-39751000D03*
X212344000Y-54991000D03*
X192024000Y-39751000D03*
X209804000Y-54991000D03*
X194564000Y-39751000D03*
X207264000Y-54991000D03*
X197104000Y-39751000D03*
X204724000Y-54991000D03*
X199644000Y-39751000D03*
X202184000Y-54991000D03*
X202184000Y-39751000D03*
X199644000Y-54991000D03*
X204724000Y-39751000D03*
X197104000Y-54991000D03*
X207264000Y-39751000D03*
X194564000Y-54991000D03*
X209804000Y-39751000D03*
X192024000Y-54991000D03*
X212344000Y-39751000D03*
X189484000Y-54991000D03*
X214884000Y-39751000D03*
X186944000Y-54991000D03*
X217424000Y-39751000D03*
D15*
X184404000Y-54991000D03*
G04 #@! TD*
D14*
G04 #@! TO.C,RAM1*
X171704000Y-82169000D03*
X138684000Y-66929000D03*
X169164000Y-82169000D03*
X141224000Y-66929000D03*
X166624000Y-82169000D03*
X143764000Y-66929000D03*
X164084000Y-82169000D03*
X146304000Y-66929000D03*
X161544000Y-82169000D03*
X148844000Y-66929000D03*
X159004000Y-82169000D03*
X151384000Y-66929000D03*
X156464000Y-82169000D03*
X153924000Y-66929000D03*
X153924000Y-82169000D03*
X156464000Y-66929000D03*
X151384000Y-82169000D03*
X159004000Y-66929000D03*
X148844000Y-82169000D03*
X161544000Y-66929000D03*
X146304000Y-82169000D03*
X164084000Y-66929000D03*
X143764000Y-82169000D03*
X166624000Y-66929000D03*
X141224000Y-82169000D03*
X169164000Y-66929000D03*
X138684000Y-82169000D03*
D15*
X171704000Y-66929000D03*
G04 #@! TD*
M02*
