%TF.GenerationSoftware,KiCad,Pcbnew,(5.1.8)-1*%
%TF.CreationDate,2021-01-01T16:56:54-05:00*%
%TF.ProjectId,z80computer,7a383063-6f6d-4707-9574-65722e6b6963,rev?*%
%TF.SameCoordinates,Original*%
%TF.FileFunction,Legend,Top*%
%TF.FilePolarity,Positive*%
%FSLAX46Y46*%
G04 Gerber Fmt 4.6, Leading zero omitted, Abs format (unit mm)*
G04 Created by KiCad (PCBNEW (5.1.8)-1) date 2021-01-01 16:56:54*
%MOMM*%
%LPD*%
G01*
G04 APERTURE LIST*
%ADD10C,0.150000*%
%ADD11C,0.508000*%
%ADD12C,0.120000*%
G04 APERTURE END LIST*
D10*
X236640666Y-38433285D02*
X236640666Y-37957095D01*
X236926380Y-38528523D02*
X235926380Y-38195190D01*
X236926380Y-37861857D01*
X236926380Y-37004714D02*
X236926380Y-37576142D01*
X236926380Y-37290428D02*
X235926380Y-37290428D01*
X236069238Y-37385666D01*
X236164476Y-37480904D01*
X236212095Y-37576142D01*
X234100666Y-38560285D02*
X234100666Y-38084095D01*
X234386380Y-38655523D02*
X233386380Y-38322190D01*
X234386380Y-37988857D01*
X233386380Y-37465047D02*
X233386380Y-37369809D01*
X233434000Y-37274571D01*
X233481619Y-37226952D01*
X233576857Y-37179333D01*
X233767333Y-37131714D01*
X234005428Y-37131714D01*
X234195904Y-37179333D01*
X234291142Y-37226952D01*
X234338761Y-37274571D01*
X234386380Y-37369809D01*
X234386380Y-37465047D01*
X234338761Y-37560285D01*
X234291142Y-37607904D01*
X234195904Y-37655523D01*
X234005428Y-37703142D01*
X233767333Y-37703142D01*
X233576857Y-37655523D01*
X233481619Y-37607904D01*
X233434000Y-37560285D01*
X233386380Y-37465047D01*
X236101000Y-35559904D02*
X236053380Y-35655142D01*
X236053380Y-35798000D01*
X236101000Y-35940857D01*
X236196238Y-36036095D01*
X236291476Y-36083714D01*
X236481952Y-36131333D01*
X236624809Y-36131333D01*
X236815285Y-36083714D01*
X236910523Y-36036095D01*
X237005761Y-35940857D01*
X237053380Y-35798000D01*
X237053380Y-35702761D01*
X237005761Y-35559904D01*
X236958142Y-35512285D01*
X236624809Y-35512285D01*
X236624809Y-35702761D01*
X237053380Y-35083714D02*
X236053380Y-35083714D01*
X237053380Y-34512285D01*
X236053380Y-34512285D01*
X237053380Y-34036095D02*
X236053380Y-34036095D01*
X236053380Y-33798000D01*
X236101000Y-33655142D01*
X236196238Y-33559904D01*
X236291476Y-33512285D01*
X236481952Y-33464666D01*
X236624809Y-33464666D01*
X236815285Y-33512285D01*
X236910523Y-33559904D01*
X237005761Y-33655142D01*
X237053380Y-33798000D01*
X237053380Y-34036095D01*
X233513380Y-36131333D02*
X234513380Y-35798000D01*
X233513380Y-35464666D01*
X234418142Y-34559904D02*
X234465761Y-34607523D01*
X234513380Y-34750380D01*
X234513380Y-34845619D01*
X234465761Y-34988476D01*
X234370523Y-35083714D01*
X234275285Y-35131333D01*
X234084809Y-35178952D01*
X233941952Y-35178952D01*
X233751476Y-35131333D01*
X233656238Y-35083714D01*
X233561000Y-34988476D01*
X233513380Y-34845619D01*
X233513380Y-34750380D01*
X233561000Y-34607523D01*
X233608619Y-34559904D01*
X234418142Y-33559904D02*
X234465761Y-33607523D01*
X234513380Y-33750380D01*
X234513380Y-33845619D01*
X234465761Y-33988476D01*
X234370523Y-34083714D01*
X234275285Y-34131333D01*
X234084809Y-34178952D01*
X233941952Y-34178952D01*
X233751476Y-34131333D01*
X233656238Y-34083714D01*
X233561000Y-33988476D01*
X233513380Y-33845619D01*
X233513380Y-33750380D01*
X233561000Y-33607523D01*
X233608619Y-33559904D01*
X234386380Y-24693380D02*
X233910190Y-25026714D01*
X234386380Y-25264809D02*
X233386380Y-25264809D01*
X233386380Y-24883857D01*
X233434000Y-24788619D01*
X233481619Y-24741000D01*
X233576857Y-24693380D01*
X233719714Y-24693380D01*
X233814952Y-24741000D01*
X233862571Y-24788619D01*
X233910190Y-24883857D01*
X233910190Y-25264809D01*
X233862571Y-24264809D02*
X233862571Y-23931476D01*
X234386380Y-23788619D02*
X234386380Y-24264809D01*
X233386380Y-24264809D01*
X233386380Y-23788619D01*
X234338761Y-23407666D02*
X234386380Y-23264809D01*
X234386380Y-23026714D01*
X234338761Y-22931476D01*
X234291142Y-22883857D01*
X234195904Y-22836238D01*
X234100666Y-22836238D01*
X234005428Y-22883857D01*
X233957809Y-22931476D01*
X233910190Y-23026714D01*
X233862571Y-23217190D01*
X233814952Y-23312428D01*
X233767333Y-23360047D01*
X233672095Y-23407666D01*
X233576857Y-23407666D01*
X233481619Y-23360047D01*
X233434000Y-23312428D01*
X233386380Y-23217190D01*
X233386380Y-22979095D01*
X233434000Y-22836238D01*
X233862571Y-22407666D02*
X233862571Y-22074333D01*
X234386380Y-21931476D02*
X234386380Y-22407666D01*
X233386380Y-22407666D01*
X233386380Y-21931476D01*
X233386380Y-21645761D02*
X233386380Y-21074333D01*
X234386380Y-21360047D02*
X233386380Y-21360047D01*
X174569380Y-68230571D02*
X173569380Y-68230571D01*
X173569380Y-67849619D01*
X173617000Y-67754380D01*
X173664619Y-67706761D01*
X173759857Y-67659142D01*
X173902714Y-67659142D01*
X173997952Y-67706761D01*
X174045571Y-67754380D01*
X174093190Y-67849619D01*
X174093190Y-68230571D01*
X174569380Y-67230571D02*
X173902714Y-67230571D01*
X173569380Y-67230571D02*
X173617000Y-67278190D01*
X173664619Y-67230571D01*
X173617000Y-67182952D01*
X173569380Y-67230571D01*
X173664619Y-67230571D01*
X173902714Y-66754380D02*
X174569380Y-66754380D01*
X173997952Y-66754380D02*
X173950333Y-66706761D01*
X173902714Y-66611523D01*
X173902714Y-66468666D01*
X173950333Y-66373428D01*
X174045571Y-66325809D01*
X174569380Y-66325809D01*
X174569380Y-65325809D02*
X174569380Y-65897238D01*
X174569380Y-65611523D02*
X173569380Y-65611523D01*
X173712238Y-65706761D01*
X173807476Y-65802000D01*
X173855095Y-65897238D01*
X219908380Y-68230571D02*
X218908380Y-68230571D01*
X218908380Y-67849619D01*
X218956000Y-67754380D01*
X219003619Y-67706761D01*
X219098857Y-67659142D01*
X219241714Y-67659142D01*
X219336952Y-67706761D01*
X219384571Y-67754380D01*
X219432190Y-67849619D01*
X219432190Y-68230571D01*
X219908380Y-67230571D02*
X219241714Y-67230571D01*
X218908380Y-67230571D02*
X218956000Y-67278190D01*
X219003619Y-67230571D01*
X218956000Y-67182952D01*
X218908380Y-67230571D01*
X219003619Y-67230571D01*
X219241714Y-66754380D02*
X219908380Y-66754380D01*
X219336952Y-66754380D02*
X219289333Y-66706761D01*
X219241714Y-66611523D01*
X219241714Y-66468666D01*
X219289333Y-66373428D01*
X219384571Y-66325809D01*
X219908380Y-66325809D01*
X219908380Y-65325809D02*
X219908380Y-65897238D01*
X219908380Y-65611523D02*
X218908380Y-65611523D01*
X219051238Y-65706761D01*
X219146476Y-65802000D01*
X219194095Y-65897238D01*
X182697380Y-56419571D02*
X181697380Y-56419571D01*
X181697380Y-56038619D01*
X181745000Y-55943380D01*
X181792619Y-55895761D01*
X181887857Y-55848142D01*
X182030714Y-55848142D01*
X182125952Y-55895761D01*
X182173571Y-55943380D01*
X182221190Y-56038619D01*
X182221190Y-56419571D01*
X182697380Y-55419571D02*
X182030714Y-55419571D01*
X181697380Y-55419571D02*
X181745000Y-55467190D01*
X181792619Y-55419571D01*
X181745000Y-55371952D01*
X181697380Y-55419571D01*
X181792619Y-55419571D01*
X182030714Y-54943380D02*
X182697380Y-54943380D01*
X182125952Y-54943380D02*
X182078333Y-54895761D01*
X182030714Y-54800523D01*
X182030714Y-54657666D01*
X182078333Y-54562428D01*
X182173571Y-54514809D01*
X182697380Y-54514809D01*
X182697380Y-53514809D02*
X182697380Y-54086238D01*
X182697380Y-53800523D02*
X181697380Y-53800523D01*
X181840238Y-53895761D01*
X181935476Y-53991000D01*
X181983095Y-54086238D01*
X177998380Y-40798571D02*
X176998380Y-40798571D01*
X176998380Y-40417619D01*
X177046000Y-40322380D01*
X177093619Y-40274761D01*
X177188857Y-40227142D01*
X177331714Y-40227142D01*
X177426952Y-40274761D01*
X177474571Y-40322380D01*
X177522190Y-40417619D01*
X177522190Y-40798571D01*
X177998380Y-39798571D02*
X177331714Y-39798571D01*
X176998380Y-39798571D02*
X177046000Y-39846190D01*
X177093619Y-39798571D01*
X177046000Y-39750952D01*
X176998380Y-39798571D01*
X177093619Y-39798571D01*
X177331714Y-39322380D02*
X177998380Y-39322380D01*
X177426952Y-39322380D02*
X177379333Y-39274761D01*
X177331714Y-39179523D01*
X177331714Y-39036666D01*
X177379333Y-38941428D01*
X177474571Y-38893809D01*
X177998380Y-38893809D01*
X177998380Y-37893809D02*
X177998380Y-38465238D01*
X177998380Y-38179523D02*
X176998380Y-38179523D01*
X177141238Y-38274761D01*
X177236476Y-38370000D01*
X177284095Y-38465238D01*
D11*
X170542857Y-112298238D02*
X171897523Y-112298238D01*
X170542857Y-114330238D01*
X171897523Y-114330238D01*
X172961904Y-113169095D02*
X172768380Y-113072333D01*
X172671619Y-112975571D01*
X172574857Y-112782047D01*
X172574857Y-112685285D01*
X172671619Y-112491761D01*
X172768380Y-112395000D01*
X172961904Y-112298238D01*
X173348952Y-112298238D01*
X173542476Y-112395000D01*
X173639238Y-112491761D01*
X173736000Y-112685285D01*
X173736000Y-112782047D01*
X173639238Y-112975571D01*
X173542476Y-113072333D01*
X173348952Y-113169095D01*
X172961904Y-113169095D01*
X172768380Y-113265857D01*
X172671619Y-113362619D01*
X172574857Y-113556142D01*
X172574857Y-113943190D01*
X172671619Y-114136714D01*
X172768380Y-114233476D01*
X172961904Y-114330238D01*
X173348952Y-114330238D01*
X173542476Y-114233476D01*
X173639238Y-114136714D01*
X173736000Y-113943190D01*
X173736000Y-113556142D01*
X173639238Y-113362619D01*
X173542476Y-113265857D01*
X173348952Y-113169095D01*
X174993904Y-112298238D02*
X175187428Y-112298238D01*
X175380952Y-112395000D01*
X175477714Y-112491761D01*
X175574476Y-112685285D01*
X175671238Y-113072333D01*
X175671238Y-113556142D01*
X175574476Y-113943190D01*
X175477714Y-114136714D01*
X175380952Y-114233476D01*
X175187428Y-114330238D01*
X174993904Y-114330238D01*
X174800380Y-114233476D01*
X174703619Y-114136714D01*
X174606857Y-113943190D01*
X174510095Y-113556142D01*
X174510095Y-113072333D01*
X174606857Y-112685285D01*
X174703619Y-112491761D01*
X174800380Y-112395000D01*
X174993904Y-112298238D01*
X178090285Y-112975571D02*
X178090285Y-115007571D01*
X178090285Y-113072333D02*
X178283809Y-112975571D01*
X178670857Y-112975571D01*
X178864380Y-113072333D01*
X178961142Y-113169095D01*
X179057904Y-113362619D01*
X179057904Y-113943190D01*
X178961142Y-114136714D01*
X178864380Y-114233476D01*
X178670857Y-114330238D01*
X178283809Y-114330238D01*
X178090285Y-114233476D01*
X180799619Y-114330238D02*
X180799619Y-113265857D01*
X180702857Y-113072333D01*
X180509333Y-112975571D01*
X180122285Y-112975571D01*
X179928761Y-113072333D01*
X180799619Y-114233476D02*
X180606095Y-114330238D01*
X180122285Y-114330238D01*
X179928761Y-114233476D01*
X179832000Y-114039952D01*
X179832000Y-113846428D01*
X179928761Y-113652904D01*
X180122285Y-113556142D01*
X180606095Y-113556142D01*
X180799619Y-113459380D01*
X181767238Y-114330238D02*
X181767238Y-112975571D01*
X181767238Y-113362619D02*
X181864000Y-113169095D01*
X181960761Y-113072333D01*
X182154285Y-112975571D01*
X182347809Y-112975571D01*
X182734857Y-112975571D02*
X183508952Y-112975571D01*
X183025142Y-112298238D02*
X183025142Y-114039952D01*
X183121904Y-114233476D01*
X183315428Y-114330238D01*
X183508952Y-114330238D01*
X184089523Y-114233476D02*
X184283047Y-114330238D01*
X184670095Y-114330238D01*
X184863619Y-114233476D01*
X184960380Y-114039952D01*
X184960380Y-113943190D01*
X184863619Y-113749666D01*
X184670095Y-113652904D01*
X184379809Y-113652904D01*
X184186285Y-113556142D01*
X184089523Y-113362619D01*
X184089523Y-113265857D01*
X184186285Y-113072333D01*
X184379809Y-112975571D01*
X184670095Y-112975571D01*
X184863619Y-113072333D01*
X162705142Y-117886238D02*
X162705142Y-115854238D01*
X163479238Y-115854238D01*
X163672761Y-115951000D01*
X163769523Y-116047761D01*
X163866285Y-116241285D01*
X163866285Y-116531571D01*
X163769523Y-116725095D01*
X163672761Y-116821857D01*
X163479238Y-116918619D01*
X162705142Y-116918619D01*
X165511238Y-117789476D02*
X165317714Y-117886238D01*
X164930666Y-117886238D01*
X164737142Y-117789476D01*
X164640380Y-117595952D01*
X164640380Y-116821857D01*
X164737142Y-116628333D01*
X164930666Y-116531571D01*
X165317714Y-116531571D01*
X165511238Y-116628333D01*
X165608000Y-116821857D01*
X165608000Y-117015380D01*
X164640380Y-117208904D01*
X166188571Y-116531571D02*
X166962666Y-116531571D01*
X166478857Y-115854238D02*
X166478857Y-117595952D01*
X166575619Y-117789476D01*
X166769142Y-117886238D01*
X166962666Y-117886238D01*
X168414095Y-117789476D02*
X168220571Y-117886238D01*
X167833523Y-117886238D01*
X167640000Y-117789476D01*
X167543238Y-117595952D01*
X167543238Y-116821857D01*
X167640000Y-116628333D01*
X167833523Y-116531571D01*
X168220571Y-116531571D01*
X168414095Y-116628333D01*
X168510857Y-116821857D01*
X168510857Y-117015380D01*
X167543238Y-117208904D01*
X169381714Y-117886238D02*
X169381714Y-116531571D01*
X169381714Y-116918619D02*
X169478476Y-116725095D01*
X169575238Y-116628333D01*
X169768761Y-116531571D01*
X169962285Y-116531571D01*
X172187809Y-117886238D02*
X172187809Y-115854238D01*
X172187809Y-116821857D02*
X173348952Y-116821857D01*
X173348952Y-117886238D02*
X173348952Y-115854238D01*
X175187428Y-117886238D02*
X175187428Y-116821857D01*
X175090666Y-116628333D01*
X174897142Y-116531571D01*
X174510095Y-116531571D01*
X174316571Y-116628333D01*
X175187428Y-117789476D02*
X174993904Y-117886238D01*
X174510095Y-117886238D01*
X174316571Y-117789476D01*
X174219809Y-117595952D01*
X174219809Y-117402428D01*
X174316571Y-117208904D01*
X174510095Y-117112142D01*
X174993904Y-117112142D01*
X175187428Y-117015380D01*
X176445333Y-117886238D02*
X176251809Y-117789476D01*
X176155047Y-117595952D01*
X176155047Y-115854238D01*
X177509714Y-117886238D02*
X177316190Y-117789476D01*
X177219428Y-117595952D01*
X177219428Y-115854238D01*
X180412571Y-118660333D02*
X180315809Y-118563571D01*
X180122285Y-118273285D01*
X180025523Y-118079761D01*
X179928761Y-117789476D01*
X179832000Y-117305666D01*
X179832000Y-116918619D01*
X179928761Y-116434809D01*
X180025523Y-116144523D01*
X180122285Y-115951000D01*
X180315809Y-115660714D01*
X180412571Y-115563952D01*
X182347809Y-117692714D02*
X182251047Y-117789476D01*
X181960761Y-117886238D01*
X181767238Y-117886238D01*
X181476952Y-117789476D01*
X181283428Y-117595952D01*
X181186666Y-117402428D01*
X181089904Y-117015380D01*
X181089904Y-116725095D01*
X181186666Y-116338047D01*
X181283428Y-116144523D01*
X181476952Y-115951000D01*
X181767238Y-115854238D01*
X181960761Y-115854238D01*
X182251047Y-115951000D01*
X182347809Y-116047761D01*
X183025142Y-118660333D02*
X183121904Y-118563571D01*
X183315428Y-118273285D01*
X183412190Y-118079761D01*
X183508952Y-117789476D01*
X183605714Y-117305666D01*
X183605714Y-116918619D01*
X183508952Y-116434809D01*
X183412190Y-116144523D01*
X183315428Y-115951000D01*
X183121904Y-115660714D01*
X183025142Y-115563952D01*
X186024761Y-116047761D02*
X186121523Y-115951000D01*
X186315047Y-115854238D01*
X186798857Y-115854238D01*
X186992380Y-115951000D01*
X187089142Y-116047761D01*
X187185904Y-116241285D01*
X187185904Y-116434809D01*
X187089142Y-116725095D01*
X185928000Y-117886238D01*
X187185904Y-117886238D01*
X188443809Y-115854238D02*
X188637333Y-115854238D01*
X188830857Y-115951000D01*
X188927619Y-116047761D01*
X189024380Y-116241285D01*
X189121142Y-116628333D01*
X189121142Y-117112142D01*
X189024380Y-117499190D01*
X188927619Y-117692714D01*
X188830857Y-117789476D01*
X188637333Y-117886238D01*
X188443809Y-117886238D01*
X188250285Y-117789476D01*
X188153523Y-117692714D01*
X188056761Y-117499190D01*
X187960000Y-117112142D01*
X187960000Y-116628333D01*
X188056761Y-116241285D01*
X188153523Y-116047761D01*
X188250285Y-115951000D01*
X188443809Y-115854238D01*
X189895238Y-116047761D02*
X189992000Y-115951000D01*
X190185523Y-115854238D01*
X190669333Y-115854238D01*
X190862857Y-115951000D01*
X190959619Y-116047761D01*
X191056380Y-116241285D01*
X191056380Y-116434809D01*
X190959619Y-116725095D01*
X189798476Y-117886238D01*
X191056380Y-117886238D01*
X192991619Y-117886238D02*
X191830476Y-117886238D01*
X192411047Y-117886238D02*
X192411047Y-115854238D01*
X192217523Y-116144523D01*
X192024000Y-116338047D01*
X191830476Y-116434809D01*
D12*
%TO.C,C5*%
X179451000Y-31640000D02*
X179451000Y-31680000D01*
X179451000Y-37060000D02*
X179451000Y-37020000D01*
X177781000Y-31680000D02*
X177781000Y-37020000D01*
X181121000Y-31680000D02*
X177781000Y-31680000D01*
X181121000Y-37020000D02*
X181121000Y-31680000D01*
X177781000Y-37020000D02*
X181121000Y-37020000D01*
%TO.C,C4*%
X220091000Y-88756000D02*
X220091000Y-88716000D01*
X220091000Y-83336000D02*
X220091000Y-83376000D01*
X221761000Y-88716000D02*
X221761000Y-83376000D01*
X218421000Y-88716000D02*
X221761000Y-88716000D01*
X218421000Y-83376000D02*
X218421000Y-88716000D01*
X221761000Y-83376000D02*
X218421000Y-83376000D01*
%TO.C,C3*%
X227584000Y-25417000D02*
X227584000Y-26107000D01*
X227584000Y-30837000D02*
X227584000Y-30147000D01*
X226164000Y-26107000D02*
X226164000Y-30147000D01*
X229004000Y-26107000D02*
X226164000Y-26107000D01*
X229004000Y-30147000D02*
X229004000Y-26107000D01*
X226164000Y-30147000D02*
X229004000Y-30147000D01*
%TO.C,C2*%
X142384000Y-30480000D02*
X142424000Y-30480000D01*
X147804000Y-30480000D02*
X147764000Y-30480000D01*
X142424000Y-32150000D02*
X147764000Y-32150000D01*
X142424000Y-28810000D02*
X142424000Y-32150000D01*
X147764000Y-28810000D02*
X142424000Y-28810000D01*
X147764000Y-32150000D02*
X147764000Y-28810000D01*
%TO.C,C1*%
X177419000Y-86470000D02*
X177419000Y-86430000D01*
X177419000Y-81050000D02*
X177419000Y-81090000D01*
X179089000Y-86430000D02*
X179089000Y-81090000D01*
X175749000Y-86430000D02*
X179089000Y-86430000D01*
X175749000Y-81090000D02*
X175749000Y-86430000D01*
X179089000Y-81090000D02*
X175749000Y-81090000D01*
%TO.C,J2*%
X232664000Y-25781000D02*
X233934000Y-25781000D01*
X232664000Y-27051000D02*
X232664000Y-25781000D01*
X234976929Y-32511000D02*
X235431071Y-32511000D01*
X234976929Y-31751000D02*
X235431071Y-31751000D01*
X237516929Y-32511000D02*
X237914000Y-32511000D01*
X237516929Y-31751000D02*
X237914000Y-31751000D01*
X246574000Y-32511000D02*
X240574000Y-32511000D01*
X246574000Y-31751000D02*
X246574000Y-32511000D01*
X240574000Y-31751000D02*
X246574000Y-31751000D01*
X237914000Y-30861000D02*
X240574000Y-30861000D01*
X234976929Y-29971000D02*
X235431071Y-29971000D01*
X234976929Y-29211000D02*
X235431071Y-29211000D01*
X237516929Y-29971000D02*
X237914000Y-29971000D01*
X237516929Y-29211000D02*
X237914000Y-29211000D01*
X246574000Y-29971000D02*
X240574000Y-29971000D01*
X246574000Y-29211000D02*
X246574000Y-29971000D01*
X240574000Y-29211000D02*
X246574000Y-29211000D01*
X237914000Y-28321000D02*
X240574000Y-28321000D01*
X235044000Y-27431000D02*
X235431071Y-27431000D01*
X235044000Y-26671000D02*
X235431071Y-26671000D01*
X237516929Y-27431000D02*
X237914000Y-27431000D01*
X237516929Y-26671000D02*
X237914000Y-26671000D01*
X240574000Y-27331000D02*
X246574000Y-27331000D01*
X240574000Y-27211000D02*
X246574000Y-27211000D01*
X240574000Y-27091000D02*
X246574000Y-27091000D01*
X240574000Y-26971000D02*
X246574000Y-26971000D01*
X240574000Y-26851000D02*
X246574000Y-26851000D01*
X240574000Y-26731000D02*
X246574000Y-26731000D01*
X246574000Y-27431000D02*
X240574000Y-27431000D01*
X246574000Y-26671000D02*
X246574000Y-27431000D01*
X240574000Y-26671000D02*
X246574000Y-26671000D01*
X240574000Y-25721000D02*
X237914000Y-25721000D01*
X240574000Y-33461000D02*
X240574000Y-25721000D01*
X237914000Y-33461000D02*
X240574000Y-33461000D01*
X237914000Y-25721000D02*
X237914000Y-33461000D01*
%TO.C,J1*%
X232664000Y-38481000D02*
X233934000Y-38481000D01*
X232664000Y-39751000D02*
X232664000Y-38481000D01*
X234976929Y-129031000D02*
X235431071Y-129031000D01*
X234976929Y-128271000D02*
X235431071Y-128271000D01*
X237516929Y-129031000D02*
X237914000Y-129031000D01*
X237516929Y-128271000D02*
X237914000Y-128271000D01*
X246574000Y-129031000D02*
X240574000Y-129031000D01*
X246574000Y-128271000D02*
X246574000Y-129031000D01*
X240574000Y-128271000D02*
X246574000Y-128271000D01*
X237914000Y-127381000D02*
X240574000Y-127381000D01*
X234976929Y-126491000D02*
X235431071Y-126491000D01*
X234976929Y-125731000D02*
X235431071Y-125731000D01*
X237516929Y-126491000D02*
X237914000Y-126491000D01*
X237516929Y-125731000D02*
X237914000Y-125731000D01*
X246574000Y-126491000D02*
X240574000Y-126491000D01*
X246574000Y-125731000D02*
X246574000Y-126491000D01*
X240574000Y-125731000D02*
X246574000Y-125731000D01*
X237914000Y-124841000D02*
X240574000Y-124841000D01*
X234976929Y-123951000D02*
X235431071Y-123951000D01*
X234976929Y-123191000D02*
X235431071Y-123191000D01*
X237516929Y-123951000D02*
X237914000Y-123951000D01*
X237516929Y-123191000D02*
X237914000Y-123191000D01*
X246574000Y-123951000D02*
X240574000Y-123951000D01*
X246574000Y-123191000D02*
X246574000Y-123951000D01*
X240574000Y-123191000D02*
X246574000Y-123191000D01*
X237914000Y-122301000D02*
X240574000Y-122301000D01*
X234976929Y-121411000D02*
X235431071Y-121411000D01*
X234976929Y-120651000D02*
X235431071Y-120651000D01*
X237516929Y-121411000D02*
X237914000Y-121411000D01*
X237516929Y-120651000D02*
X237914000Y-120651000D01*
X246574000Y-121411000D02*
X240574000Y-121411000D01*
X246574000Y-120651000D02*
X246574000Y-121411000D01*
X240574000Y-120651000D02*
X246574000Y-120651000D01*
X237914000Y-119761000D02*
X240574000Y-119761000D01*
X234976929Y-118871000D02*
X235431071Y-118871000D01*
X234976929Y-118111000D02*
X235431071Y-118111000D01*
X237516929Y-118871000D02*
X237914000Y-118871000D01*
X237516929Y-118111000D02*
X237914000Y-118111000D01*
X246574000Y-118871000D02*
X240574000Y-118871000D01*
X246574000Y-118111000D02*
X246574000Y-118871000D01*
X240574000Y-118111000D02*
X246574000Y-118111000D01*
X237914000Y-117221000D02*
X240574000Y-117221000D01*
X234976929Y-116331000D02*
X235431071Y-116331000D01*
X234976929Y-115571000D02*
X235431071Y-115571000D01*
X237516929Y-116331000D02*
X237914000Y-116331000D01*
X237516929Y-115571000D02*
X237914000Y-115571000D01*
X246574000Y-116331000D02*
X240574000Y-116331000D01*
X246574000Y-115571000D02*
X246574000Y-116331000D01*
X240574000Y-115571000D02*
X246574000Y-115571000D01*
X237914000Y-114681000D02*
X240574000Y-114681000D01*
X234976929Y-113791000D02*
X235431071Y-113791000D01*
X234976929Y-113031000D02*
X235431071Y-113031000D01*
X237516929Y-113791000D02*
X237914000Y-113791000D01*
X237516929Y-113031000D02*
X237914000Y-113031000D01*
X246574000Y-113791000D02*
X240574000Y-113791000D01*
X246574000Y-113031000D02*
X246574000Y-113791000D01*
X240574000Y-113031000D02*
X246574000Y-113031000D01*
X237914000Y-112141000D02*
X240574000Y-112141000D01*
X234976929Y-111251000D02*
X235431071Y-111251000D01*
X234976929Y-110491000D02*
X235431071Y-110491000D01*
X237516929Y-111251000D02*
X237914000Y-111251000D01*
X237516929Y-110491000D02*
X237914000Y-110491000D01*
X246574000Y-111251000D02*
X240574000Y-111251000D01*
X246574000Y-110491000D02*
X246574000Y-111251000D01*
X240574000Y-110491000D02*
X246574000Y-110491000D01*
X237914000Y-109601000D02*
X240574000Y-109601000D01*
X234976929Y-108711000D02*
X235431071Y-108711000D01*
X234976929Y-107951000D02*
X235431071Y-107951000D01*
X237516929Y-108711000D02*
X237914000Y-108711000D01*
X237516929Y-107951000D02*
X237914000Y-107951000D01*
X246574000Y-108711000D02*
X240574000Y-108711000D01*
X246574000Y-107951000D02*
X246574000Y-108711000D01*
X240574000Y-107951000D02*
X246574000Y-107951000D01*
X237914000Y-107061000D02*
X240574000Y-107061000D01*
X234976929Y-106171000D02*
X235431071Y-106171000D01*
X234976929Y-105411000D02*
X235431071Y-105411000D01*
X237516929Y-106171000D02*
X237914000Y-106171000D01*
X237516929Y-105411000D02*
X237914000Y-105411000D01*
X246574000Y-106171000D02*
X240574000Y-106171000D01*
X246574000Y-105411000D02*
X246574000Y-106171000D01*
X240574000Y-105411000D02*
X246574000Y-105411000D01*
X237914000Y-104521000D02*
X240574000Y-104521000D01*
X234976929Y-103631000D02*
X235431071Y-103631000D01*
X234976929Y-102871000D02*
X235431071Y-102871000D01*
X237516929Y-103631000D02*
X237914000Y-103631000D01*
X237516929Y-102871000D02*
X237914000Y-102871000D01*
X246574000Y-103631000D02*
X240574000Y-103631000D01*
X246574000Y-102871000D02*
X246574000Y-103631000D01*
X240574000Y-102871000D02*
X246574000Y-102871000D01*
X237914000Y-101981000D02*
X240574000Y-101981000D01*
X234976929Y-101091000D02*
X235431071Y-101091000D01*
X234976929Y-100331000D02*
X235431071Y-100331000D01*
X237516929Y-101091000D02*
X237914000Y-101091000D01*
X237516929Y-100331000D02*
X237914000Y-100331000D01*
X246574000Y-101091000D02*
X240574000Y-101091000D01*
X246574000Y-100331000D02*
X246574000Y-101091000D01*
X240574000Y-100331000D02*
X246574000Y-100331000D01*
X237914000Y-99441000D02*
X240574000Y-99441000D01*
X234976929Y-98551000D02*
X235431071Y-98551000D01*
X234976929Y-97791000D02*
X235431071Y-97791000D01*
X237516929Y-98551000D02*
X237914000Y-98551000D01*
X237516929Y-97791000D02*
X237914000Y-97791000D01*
X246574000Y-98551000D02*
X240574000Y-98551000D01*
X246574000Y-97791000D02*
X246574000Y-98551000D01*
X240574000Y-97791000D02*
X246574000Y-97791000D01*
X237914000Y-96901000D02*
X240574000Y-96901000D01*
X234976929Y-96011000D02*
X235431071Y-96011000D01*
X234976929Y-95251000D02*
X235431071Y-95251000D01*
X237516929Y-96011000D02*
X237914000Y-96011000D01*
X237516929Y-95251000D02*
X237914000Y-95251000D01*
X246574000Y-96011000D02*
X240574000Y-96011000D01*
X246574000Y-95251000D02*
X246574000Y-96011000D01*
X240574000Y-95251000D02*
X246574000Y-95251000D01*
X237914000Y-94361000D02*
X240574000Y-94361000D01*
X234976929Y-93471000D02*
X235431071Y-93471000D01*
X234976929Y-92711000D02*
X235431071Y-92711000D01*
X237516929Y-93471000D02*
X237914000Y-93471000D01*
X237516929Y-92711000D02*
X237914000Y-92711000D01*
X246574000Y-93471000D02*
X240574000Y-93471000D01*
X246574000Y-92711000D02*
X246574000Y-93471000D01*
X240574000Y-92711000D02*
X246574000Y-92711000D01*
X237914000Y-91821000D02*
X240574000Y-91821000D01*
X234976929Y-90931000D02*
X235431071Y-90931000D01*
X234976929Y-90171000D02*
X235431071Y-90171000D01*
X237516929Y-90931000D02*
X237914000Y-90931000D01*
X237516929Y-90171000D02*
X237914000Y-90171000D01*
X246574000Y-90931000D02*
X240574000Y-90931000D01*
X246574000Y-90171000D02*
X246574000Y-90931000D01*
X240574000Y-90171000D02*
X246574000Y-90171000D01*
X237914000Y-89281000D02*
X240574000Y-89281000D01*
X234976929Y-88391000D02*
X235431071Y-88391000D01*
X234976929Y-87631000D02*
X235431071Y-87631000D01*
X237516929Y-88391000D02*
X237914000Y-88391000D01*
X237516929Y-87631000D02*
X237914000Y-87631000D01*
X246574000Y-88391000D02*
X240574000Y-88391000D01*
X246574000Y-87631000D02*
X246574000Y-88391000D01*
X240574000Y-87631000D02*
X246574000Y-87631000D01*
X237914000Y-86741000D02*
X240574000Y-86741000D01*
X234976929Y-85851000D02*
X235431071Y-85851000D01*
X234976929Y-85091000D02*
X235431071Y-85091000D01*
X237516929Y-85851000D02*
X237914000Y-85851000D01*
X237516929Y-85091000D02*
X237914000Y-85091000D01*
X246574000Y-85851000D02*
X240574000Y-85851000D01*
X246574000Y-85091000D02*
X246574000Y-85851000D01*
X240574000Y-85091000D02*
X246574000Y-85091000D01*
X237914000Y-84201000D02*
X240574000Y-84201000D01*
X234976929Y-83311000D02*
X235431071Y-83311000D01*
X234976929Y-82551000D02*
X235431071Y-82551000D01*
X237516929Y-83311000D02*
X237914000Y-83311000D01*
X237516929Y-82551000D02*
X237914000Y-82551000D01*
X246574000Y-83311000D02*
X240574000Y-83311000D01*
X246574000Y-82551000D02*
X246574000Y-83311000D01*
X240574000Y-82551000D02*
X246574000Y-82551000D01*
X237914000Y-81661000D02*
X240574000Y-81661000D01*
X234976929Y-80771000D02*
X235431071Y-80771000D01*
X234976929Y-80011000D02*
X235431071Y-80011000D01*
X237516929Y-80771000D02*
X237914000Y-80771000D01*
X237516929Y-80011000D02*
X237914000Y-80011000D01*
X246574000Y-80771000D02*
X240574000Y-80771000D01*
X246574000Y-80011000D02*
X246574000Y-80771000D01*
X240574000Y-80011000D02*
X246574000Y-80011000D01*
X237914000Y-79121000D02*
X240574000Y-79121000D01*
X234976929Y-78231000D02*
X235431071Y-78231000D01*
X234976929Y-77471000D02*
X235431071Y-77471000D01*
X237516929Y-78231000D02*
X237914000Y-78231000D01*
X237516929Y-77471000D02*
X237914000Y-77471000D01*
X246574000Y-78231000D02*
X240574000Y-78231000D01*
X246574000Y-77471000D02*
X246574000Y-78231000D01*
X240574000Y-77471000D02*
X246574000Y-77471000D01*
X237914000Y-76581000D02*
X240574000Y-76581000D01*
X234976929Y-75691000D02*
X235431071Y-75691000D01*
X234976929Y-74931000D02*
X235431071Y-74931000D01*
X237516929Y-75691000D02*
X237914000Y-75691000D01*
X237516929Y-74931000D02*
X237914000Y-74931000D01*
X246574000Y-75691000D02*
X240574000Y-75691000D01*
X246574000Y-74931000D02*
X246574000Y-75691000D01*
X240574000Y-74931000D02*
X246574000Y-74931000D01*
X237914000Y-74041000D02*
X240574000Y-74041000D01*
X234976929Y-73151000D02*
X235431071Y-73151000D01*
X234976929Y-72391000D02*
X235431071Y-72391000D01*
X237516929Y-73151000D02*
X237914000Y-73151000D01*
X237516929Y-72391000D02*
X237914000Y-72391000D01*
X246574000Y-73151000D02*
X240574000Y-73151000D01*
X246574000Y-72391000D02*
X246574000Y-73151000D01*
X240574000Y-72391000D02*
X246574000Y-72391000D01*
X237914000Y-71501000D02*
X240574000Y-71501000D01*
X234976929Y-70611000D02*
X235431071Y-70611000D01*
X234976929Y-69851000D02*
X235431071Y-69851000D01*
X237516929Y-70611000D02*
X237914000Y-70611000D01*
X237516929Y-69851000D02*
X237914000Y-69851000D01*
X246574000Y-70611000D02*
X240574000Y-70611000D01*
X246574000Y-69851000D02*
X246574000Y-70611000D01*
X240574000Y-69851000D02*
X246574000Y-69851000D01*
X237914000Y-68961000D02*
X240574000Y-68961000D01*
X234976929Y-68071000D02*
X235431071Y-68071000D01*
X234976929Y-67311000D02*
X235431071Y-67311000D01*
X237516929Y-68071000D02*
X237914000Y-68071000D01*
X237516929Y-67311000D02*
X237914000Y-67311000D01*
X246574000Y-68071000D02*
X240574000Y-68071000D01*
X246574000Y-67311000D02*
X246574000Y-68071000D01*
X240574000Y-67311000D02*
X246574000Y-67311000D01*
X237914000Y-66421000D02*
X240574000Y-66421000D01*
X234976929Y-65531000D02*
X235431071Y-65531000D01*
X234976929Y-64771000D02*
X235431071Y-64771000D01*
X237516929Y-65531000D02*
X237914000Y-65531000D01*
X237516929Y-64771000D02*
X237914000Y-64771000D01*
X246574000Y-65531000D02*
X240574000Y-65531000D01*
X246574000Y-64771000D02*
X246574000Y-65531000D01*
X240574000Y-64771000D02*
X246574000Y-64771000D01*
X237914000Y-63881000D02*
X240574000Y-63881000D01*
X234976929Y-62991000D02*
X235431071Y-62991000D01*
X234976929Y-62231000D02*
X235431071Y-62231000D01*
X237516929Y-62991000D02*
X237914000Y-62991000D01*
X237516929Y-62231000D02*
X237914000Y-62231000D01*
X246574000Y-62991000D02*
X240574000Y-62991000D01*
X246574000Y-62231000D02*
X246574000Y-62991000D01*
X240574000Y-62231000D02*
X246574000Y-62231000D01*
X237914000Y-61341000D02*
X240574000Y-61341000D01*
X234976929Y-60451000D02*
X235431071Y-60451000D01*
X234976929Y-59691000D02*
X235431071Y-59691000D01*
X237516929Y-60451000D02*
X237914000Y-60451000D01*
X237516929Y-59691000D02*
X237914000Y-59691000D01*
X246574000Y-60451000D02*
X240574000Y-60451000D01*
X246574000Y-59691000D02*
X246574000Y-60451000D01*
X240574000Y-59691000D02*
X246574000Y-59691000D01*
X237914000Y-58801000D02*
X240574000Y-58801000D01*
X234976929Y-57911000D02*
X235431071Y-57911000D01*
X234976929Y-57151000D02*
X235431071Y-57151000D01*
X237516929Y-57911000D02*
X237914000Y-57911000D01*
X237516929Y-57151000D02*
X237914000Y-57151000D01*
X246574000Y-57911000D02*
X240574000Y-57911000D01*
X246574000Y-57151000D02*
X246574000Y-57911000D01*
X240574000Y-57151000D02*
X246574000Y-57151000D01*
X237914000Y-56261000D02*
X240574000Y-56261000D01*
X234976929Y-55371000D02*
X235431071Y-55371000D01*
X234976929Y-54611000D02*
X235431071Y-54611000D01*
X237516929Y-55371000D02*
X237914000Y-55371000D01*
X237516929Y-54611000D02*
X237914000Y-54611000D01*
X246574000Y-55371000D02*
X240574000Y-55371000D01*
X246574000Y-54611000D02*
X246574000Y-55371000D01*
X240574000Y-54611000D02*
X246574000Y-54611000D01*
X237914000Y-53721000D02*
X240574000Y-53721000D01*
X234976929Y-52831000D02*
X235431071Y-52831000D01*
X234976929Y-52071000D02*
X235431071Y-52071000D01*
X237516929Y-52831000D02*
X237914000Y-52831000D01*
X237516929Y-52071000D02*
X237914000Y-52071000D01*
X246574000Y-52831000D02*
X240574000Y-52831000D01*
X246574000Y-52071000D02*
X246574000Y-52831000D01*
X240574000Y-52071000D02*
X246574000Y-52071000D01*
X237914000Y-51181000D02*
X240574000Y-51181000D01*
X234976929Y-50291000D02*
X235431071Y-50291000D01*
X234976929Y-49531000D02*
X235431071Y-49531000D01*
X237516929Y-50291000D02*
X237914000Y-50291000D01*
X237516929Y-49531000D02*
X237914000Y-49531000D01*
X246574000Y-50291000D02*
X240574000Y-50291000D01*
X246574000Y-49531000D02*
X246574000Y-50291000D01*
X240574000Y-49531000D02*
X246574000Y-49531000D01*
X237914000Y-48641000D02*
X240574000Y-48641000D01*
X234976929Y-47751000D02*
X235431071Y-47751000D01*
X234976929Y-46991000D02*
X235431071Y-46991000D01*
X237516929Y-47751000D02*
X237914000Y-47751000D01*
X237516929Y-46991000D02*
X237914000Y-46991000D01*
X246574000Y-47751000D02*
X240574000Y-47751000D01*
X246574000Y-46991000D02*
X246574000Y-47751000D01*
X240574000Y-46991000D02*
X246574000Y-46991000D01*
X237914000Y-46101000D02*
X240574000Y-46101000D01*
X234976929Y-45211000D02*
X235431071Y-45211000D01*
X234976929Y-44451000D02*
X235431071Y-44451000D01*
X237516929Y-45211000D02*
X237914000Y-45211000D01*
X237516929Y-44451000D02*
X237914000Y-44451000D01*
X246574000Y-45211000D02*
X240574000Y-45211000D01*
X246574000Y-44451000D02*
X246574000Y-45211000D01*
X240574000Y-44451000D02*
X246574000Y-44451000D01*
X237914000Y-43561000D02*
X240574000Y-43561000D01*
X234976929Y-42671000D02*
X235431071Y-42671000D01*
X234976929Y-41911000D02*
X235431071Y-41911000D01*
X237516929Y-42671000D02*
X237914000Y-42671000D01*
X237516929Y-41911000D02*
X237914000Y-41911000D01*
X246574000Y-42671000D02*
X240574000Y-42671000D01*
X246574000Y-41911000D02*
X246574000Y-42671000D01*
X240574000Y-41911000D02*
X246574000Y-41911000D01*
X237914000Y-41021000D02*
X240574000Y-41021000D01*
X235044000Y-40131000D02*
X235431071Y-40131000D01*
X235044000Y-39371000D02*
X235431071Y-39371000D01*
X237516929Y-40131000D02*
X237914000Y-40131000D01*
X237516929Y-39371000D02*
X237914000Y-39371000D01*
X240574000Y-40031000D02*
X246574000Y-40031000D01*
X240574000Y-39911000D02*
X246574000Y-39911000D01*
X240574000Y-39791000D02*
X246574000Y-39791000D01*
X240574000Y-39671000D02*
X246574000Y-39671000D01*
X240574000Y-39551000D02*
X246574000Y-39551000D01*
X240574000Y-39431000D02*
X246574000Y-39431000D01*
X246574000Y-40131000D02*
X240574000Y-40131000D01*
X246574000Y-39371000D02*
X246574000Y-40131000D01*
X240574000Y-39371000D02*
X246574000Y-39371000D01*
X240574000Y-38421000D02*
X237914000Y-38421000D01*
X240574000Y-129981000D02*
X240574000Y-38421000D01*
X237914000Y-129981000D02*
X240574000Y-129981000D01*
X237914000Y-38421000D02*
X237914000Y-129981000D01*
%TO.C,RAM2*%
X218052000Y-83609000D02*
X218052000Y-65489000D01*
X182252000Y-83609000D02*
X218052000Y-83609000D01*
X182252000Y-65489000D02*
X182252000Y-83609000D01*
X218052000Y-65489000D02*
X182252000Y-65489000D01*
X217992000Y-80609000D02*
X217992000Y-75549000D01*
X182312000Y-80609000D02*
X217992000Y-80609000D01*
X182312000Y-68489000D02*
X182312000Y-80609000D01*
X217992000Y-68489000D02*
X182312000Y-68489000D01*
X217992000Y-73549000D02*
X217992000Y-68489000D01*
X217992000Y-75549000D02*
G75*
G02*
X217992000Y-73549000I0J1000000D01*
G01*
%TO.C,U4*%
X175634000Y-56431000D02*
X175634000Y-38311000D01*
X124594000Y-56431000D02*
X175634000Y-56431000D01*
X124594000Y-38311000D02*
X124594000Y-56431000D01*
X175634000Y-38311000D02*
X124594000Y-38311000D01*
X175574000Y-53431000D02*
X175574000Y-48371000D01*
X124654000Y-53431000D02*
X175574000Y-53431000D01*
X124654000Y-41311000D02*
X124654000Y-53431000D01*
X175574000Y-41311000D02*
X124654000Y-41311000D01*
X175574000Y-46371000D02*
X175574000Y-41311000D01*
X175574000Y-48371000D02*
G75*
G02*
X175574000Y-46371000I0J1000000D01*
G01*
%TO.C,ROM1*%
X183014000Y-38311000D02*
X183014000Y-56431000D01*
X218814000Y-38311000D02*
X183014000Y-38311000D01*
X218814000Y-56431000D02*
X218814000Y-38311000D01*
X183014000Y-56431000D02*
X218814000Y-56431000D01*
X183074000Y-41311000D02*
X183074000Y-46371000D01*
X218754000Y-41311000D02*
X183074000Y-41311000D01*
X218754000Y-53431000D02*
X218754000Y-41311000D01*
X183074000Y-53431000D02*
X218754000Y-53431000D01*
X183074000Y-48371000D02*
X183074000Y-53431000D01*
X183074000Y-46371000D02*
G75*
G02*
X183074000Y-48371000I0J-1000000D01*
G01*
%TO.C,RAM1*%
X173094000Y-83609000D02*
X173094000Y-65489000D01*
X137294000Y-83609000D02*
X173094000Y-83609000D01*
X137294000Y-65489000D02*
X137294000Y-83609000D01*
X173094000Y-65489000D02*
X137294000Y-65489000D01*
X173034000Y-80609000D02*
X173034000Y-75549000D01*
X137354000Y-80609000D02*
X173034000Y-80609000D01*
X137354000Y-68489000D02*
X137354000Y-80609000D01*
X173034000Y-68489000D02*
X137354000Y-68489000D01*
X173034000Y-73549000D02*
X173034000Y-68489000D01*
X173034000Y-75549000D02*
G75*
G02*
X173034000Y-73549000I0J1000000D01*
G01*
%TO.C,C5*%
D10*
X177138142Y-34516666D02*
X177185761Y-34564285D01*
X177233380Y-34707142D01*
X177233380Y-34802380D01*
X177185761Y-34945238D01*
X177090523Y-35040476D01*
X176995285Y-35088095D01*
X176804809Y-35135714D01*
X176661952Y-35135714D01*
X176471476Y-35088095D01*
X176376238Y-35040476D01*
X176281000Y-34945238D01*
X176233380Y-34802380D01*
X176233380Y-34707142D01*
X176281000Y-34564285D01*
X176328619Y-34516666D01*
X176233380Y-33611904D02*
X176233380Y-34088095D01*
X176709571Y-34135714D01*
X176661952Y-34088095D01*
X176614333Y-33992857D01*
X176614333Y-33754761D01*
X176661952Y-33659523D01*
X176709571Y-33611904D01*
X176804809Y-33564285D01*
X177042904Y-33564285D01*
X177138142Y-33611904D01*
X177185761Y-33659523D01*
X177233380Y-33754761D01*
X177233380Y-33992857D01*
X177185761Y-34088095D01*
X177138142Y-34135714D01*
%TO.C,C4*%
X223118142Y-86212666D02*
X223165761Y-86260285D01*
X223213380Y-86403142D01*
X223213380Y-86498380D01*
X223165761Y-86641238D01*
X223070523Y-86736476D01*
X222975285Y-86784095D01*
X222784809Y-86831714D01*
X222641952Y-86831714D01*
X222451476Y-86784095D01*
X222356238Y-86736476D01*
X222261000Y-86641238D01*
X222213380Y-86498380D01*
X222213380Y-86403142D01*
X222261000Y-86260285D01*
X222308619Y-86212666D01*
X222546714Y-85355523D02*
X223213380Y-85355523D01*
X222165761Y-85593619D02*
X222880047Y-85831714D01*
X222880047Y-85212666D01*
%TO.C,C3*%
X225521142Y-28293666D02*
X225568761Y-28341285D01*
X225616380Y-28484142D01*
X225616380Y-28579380D01*
X225568761Y-28722238D01*
X225473523Y-28817476D01*
X225378285Y-28865095D01*
X225187809Y-28912714D01*
X225044952Y-28912714D01*
X224854476Y-28865095D01*
X224759238Y-28817476D01*
X224664000Y-28722238D01*
X224616380Y-28579380D01*
X224616380Y-28484142D01*
X224664000Y-28341285D01*
X224711619Y-28293666D01*
X224616380Y-27960333D02*
X224616380Y-27341285D01*
X224997333Y-27674619D01*
X224997333Y-27531761D01*
X225044952Y-27436523D01*
X225092571Y-27388904D01*
X225187809Y-27341285D01*
X225425904Y-27341285D01*
X225521142Y-27388904D01*
X225568761Y-27436523D01*
X225616380Y-27531761D01*
X225616380Y-27817476D01*
X225568761Y-27912714D01*
X225521142Y-27960333D01*
%TO.C,C2*%
X144927333Y-33507142D02*
X144879714Y-33554761D01*
X144736857Y-33602380D01*
X144641619Y-33602380D01*
X144498761Y-33554761D01*
X144403523Y-33459523D01*
X144355904Y-33364285D01*
X144308285Y-33173809D01*
X144308285Y-33030952D01*
X144355904Y-32840476D01*
X144403523Y-32745238D01*
X144498761Y-32650000D01*
X144641619Y-32602380D01*
X144736857Y-32602380D01*
X144879714Y-32650000D01*
X144927333Y-32697619D01*
X145308285Y-32697619D02*
X145355904Y-32650000D01*
X145451142Y-32602380D01*
X145689238Y-32602380D01*
X145784476Y-32650000D01*
X145832095Y-32697619D01*
X145879714Y-32792857D01*
X145879714Y-32888095D01*
X145832095Y-33030952D01*
X145260666Y-33602380D01*
X145879714Y-33602380D01*
%TO.C,C1*%
X180446142Y-83926666D02*
X180493761Y-83974285D01*
X180541380Y-84117142D01*
X180541380Y-84212380D01*
X180493761Y-84355238D01*
X180398523Y-84450476D01*
X180303285Y-84498095D01*
X180112809Y-84545714D01*
X179969952Y-84545714D01*
X179779476Y-84498095D01*
X179684238Y-84450476D01*
X179589000Y-84355238D01*
X179541380Y-84212380D01*
X179541380Y-84117142D01*
X179589000Y-83974285D01*
X179636619Y-83926666D01*
X180541380Y-82974285D02*
X180541380Y-83545714D01*
X180541380Y-83260000D02*
X179541380Y-83260000D01*
X179684238Y-83355238D01*
X179779476Y-83450476D01*
X179827095Y-83545714D01*
%TO.C,J2*%
X239255666Y-24233380D02*
X239255666Y-24947666D01*
X239208047Y-25090523D01*
X239112809Y-25185761D01*
X238969952Y-25233380D01*
X238874714Y-25233380D01*
X239684238Y-24328619D02*
X239731857Y-24281000D01*
X239827095Y-24233380D01*
X240065190Y-24233380D01*
X240160428Y-24281000D01*
X240208047Y-24328619D01*
X240255666Y-24423857D01*
X240255666Y-24519095D01*
X240208047Y-24661952D01*
X239636619Y-25233380D01*
X240255666Y-25233380D01*
%TO.C,J1*%
X239255666Y-36933380D02*
X239255666Y-37647666D01*
X239208047Y-37790523D01*
X239112809Y-37885761D01*
X238969952Y-37933380D01*
X238874714Y-37933380D01*
X240255666Y-37933380D02*
X239684238Y-37933380D01*
X239969952Y-37933380D02*
X239969952Y-36933380D01*
X239874714Y-37076238D01*
X239779476Y-37171476D01*
X239684238Y-37219095D01*
%TO.C,RAM2*%
X221559380Y-75969666D02*
X221083190Y-76303000D01*
X221559380Y-76541095D02*
X220559380Y-76541095D01*
X220559380Y-76160142D01*
X220607000Y-76064904D01*
X220654619Y-76017285D01*
X220749857Y-75969666D01*
X220892714Y-75969666D01*
X220987952Y-76017285D01*
X221035571Y-76064904D01*
X221083190Y-76160142D01*
X221083190Y-76541095D01*
X221273666Y-75588714D02*
X221273666Y-75112523D01*
X221559380Y-75683952D02*
X220559380Y-75350619D01*
X221559380Y-75017285D01*
X221559380Y-74683952D02*
X220559380Y-74683952D01*
X221273666Y-74350619D01*
X220559380Y-74017285D01*
X221559380Y-74017285D01*
X220654619Y-73588714D02*
X220607000Y-73541095D01*
X220559380Y-73445857D01*
X220559380Y-73207761D01*
X220607000Y-73112523D01*
X220654619Y-73064904D01*
X220749857Y-73017285D01*
X220845095Y-73017285D01*
X220987952Y-73064904D01*
X221559380Y-73636333D01*
X221559380Y-73017285D01*
%TO.C,U4*%
X177506380Y-55117904D02*
X178315904Y-55117904D01*
X178411142Y-55070285D01*
X178458761Y-55022666D01*
X178506380Y-54927428D01*
X178506380Y-54736952D01*
X178458761Y-54641714D01*
X178411142Y-54594095D01*
X178315904Y-54546476D01*
X177506380Y-54546476D01*
X177839714Y-53641714D02*
X178506380Y-53641714D01*
X177458761Y-53879809D02*
X178173047Y-54117904D01*
X178173047Y-53498857D01*
%TO.C,ROM1*%
X221813380Y-48632904D02*
X221337190Y-48966238D01*
X221813380Y-49204333D02*
X220813380Y-49204333D01*
X220813380Y-48823380D01*
X220861000Y-48728142D01*
X220908619Y-48680523D01*
X221003857Y-48632904D01*
X221146714Y-48632904D01*
X221241952Y-48680523D01*
X221289571Y-48728142D01*
X221337190Y-48823380D01*
X221337190Y-49204333D01*
X220813380Y-48013857D02*
X220813380Y-47823380D01*
X220861000Y-47728142D01*
X220956238Y-47632904D01*
X221146714Y-47585285D01*
X221480047Y-47585285D01*
X221670523Y-47632904D01*
X221765761Y-47728142D01*
X221813380Y-47823380D01*
X221813380Y-48013857D01*
X221765761Y-48109095D01*
X221670523Y-48204333D01*
X221480047Y-48251952D01*
X221146714Y-48251952D01*
X220956238Y-48204333D01*
X220861000Y-48109095D01*
X220813380Y-48013857D01*
X221813380Y-47156714D02*
X220813380Y-47156714D01*
X221527666Y-46823380D01*
X220813380Y-46490047D01*
X221813380Y-46490047D01*
X221813380Y-45490047D02*
X221813380Y-46061476D01*
X221813380Y-45775761D02*
X220813380Y-45775761D01*
X220956238Y-45871000D01*
X221051476Y-45966238D01*
X221099095Y-46061476D01*
%TO.C,RAM1*%
X174486380Y-75715666D02*
X174010190Y-76049000D01*
X174486380Y-76287095D02*
X173486380Y-76287095D01*
X173486380Y-75906142D01*
X173534000Y-75810904D01*
X173581619Y-75763285D01*
X173676857Y-75715666D01*
X173819714Y-75715666D01*
X173914952Y-75763285D01*
X173962571Y-75810904D01*
X174010190Y-75906142D01*
X174010190Y-76287095D01*
X174200666Y-75334714D02*
X174200666Y-74858523D01*
X174486380Y-75429952D02*
X173486380Y-75096619D01*
X174486380Y-74763285D01*
X174486380Y-74429952D02*
X173486380Y-74429952D01*
X174200666Y-74096619D01*
X173486380Y-73763285D01*
X174486380Y-73763285D01*
X174486380Y-72763285D02*
X174486380Y-73334714D01*
X174486380Y-73049000D02*
X173486380Y-73049000D01*
X173629238Y-73144238D01*
X173724476Y-73239476D01*
X173772095Y-73334714D01*
%TD*%
M02*
