M48
; DRILL file {KiCad (5.1.8)-1} date 01/08/21 15:23:05
; FORMAT={-:-/ absolute / inch / decimal}
; #@! TF.CreationDate,2021-01-08T15:23:05-05:00
; #@! TF.GenerationSoftware,Kicad,Pcbnew,(5.1.8)-1
; #@! TF.FileFunction,Plated,1,2,PTH
FMAT,2
INCH
T1C0.0160
T2C0.0315
T3C0.0394
%
G90
G05
T1
X4.8125Y-1.2075
X4.8125Y-1.2725
X4.815Y-1.345
X4.815Y-1.405
X4.875Y-1.28
X4.89Y-1.32
X4.89Y-1.32
X5.06Y-3.52
X5.385Y-3.685
X5.43Y-3.32
X5.435Y-3.355
X5.53Y-1.1
X5.535Y-3.065
X5.559Y-3.395
X5.57Y-3.545
X5.57Y-3.595
X5.58Y-3.48
X5.585Y-3.735
X5.59Y-3.685
X5.645Y-3.03
X5.68Y-3.87
X5.73Y-3.9
X5.7425Y-3.0025
X5.785Y-3.99
X5.85Y-3.93
X5.87Y-2.965
X5.9Y-3.065
X5.905Y-3.005
X5.93Y-3.03
X5.94Y-2.97
X5.955Y-1.455
X5.965Y-4.02
X6.16Y-3.425
X6.2Y-3.81
X6.225Y-1.65
X6.25Y-3.835
X6.295Y-3.105
X6.3Y-1.65
X6.505Y-2.715
X6.61Y-2.27
X6.61Y-2.41
X6.635Y-1.405
X6.66Y-3.425
X6.66Y-3.565
X6.715Y-1.455
X6.8225Y-2.5025
X6.86Y-1.375
X6.875Y-2.45
X6.9725Y-1.8875
X6.9725Y-1.9675
X6.9725Y-2.1275
X6.9725Y-2.2675
X6.9725Y-2.4125
X6.9725Y-2.7225
X7.045Y-1.925
X7.065Y-1.72
X7.08Y-3.11
X7.12Y-2.09
X7.1225Y-1.9625
X7.24Y-2.505
X7.26Y-1.42
X7.285Y-2.795
X7.29Y-2.835
X7.305Y-2.88
X7.32Y-1.31
X7.3225Y-1.3775
X7.3225Y-1.8875
X7.3225Y-1.9475
X7.3225Y-2.0375
X7.335Y-2.435
X7.38Y-2.06
X7.4Y-2.88
X7.405Y-2.435
X7.405Y-2.525
X7.41Y-1.89
X7.41Y-1.965
X7.41Y-1.965
X7.41Y-1.965
X7.41Y-1.965
X7.44Y-2.405
X7.445Y-2.06
X7.46Y-2.305
X7.46Y-2.795
X7.475Y-1.95
X7.475Y-2.025
X7.475Y-2.025
X7.475Y-2.025
X7.475Y-2.525
X7.48Y-2.84
X7.4925Y-1.8825
X7.5Y-2.75
X7.51Y-2.33
X7.5175Y-2.0525
X7.555Y-2.82
X7.56Y-4.065
X7.5875Y-2.525
X7.655Y-2.955
X7.655Y-3.765
X7.67Y-3.805
X7.7Y-3.835
X7.73Y-2.275
X7.73Y-2.335
X7.73Y-3.35
X7.73Y-3.57
X7.7425Y-1.8875
X7.7425Y-1.9525
X7.77Y-3.15
X7.81Y-2.06
X7.83Y-3.35
X7.83Y-3.54
X7.855Y-1.295
X7.855Y-1.38
X7.865Y-2.505
X7.87Y-1.92
X7.87Y-3.765
X7.88Y-4.025
X7.88Y-4.025
X7.89Y-2.06
X7.93Y-3.345
X7.93Y-3.535
X7.975Y-2.955
X7.975Y-2.955
X7.99Y-2.285
X8.0Y-3.065
X8.025Y-3.51
X8.03Y-2.245
X8.03Y-3.345
X8.05Y-2.305
X8.055Y-2.955
X8.0575Y-1.2925
X8.0575Y-1.3725
X8.095Y-1.46
X8.105Y-1.315
X8.105Y-1.37
X8.115Y-1.91
X8.115Y-2.41
X8.1175Y-2.2775
X8.14Y-2.475
X8.155Y-1.34
X8.18Y-2.435
X8.185Y-1.995
X8.2025Y-3.0275
X8.21Y-1.65
X8.225Y-2.385
X8.2475Y-1.6925
X8.255Y-2.36
X8.2775Y-1.7275
X8.295Y-1.775
X8.305Y-1.935
X8.315Y-1.8
X8.315Y-2.09
X8.33Y-3.105
X8.34Y-2.36
X8.3475Y-1.9325
X8.36Y-1.995
X8.3625Y-3.0275
X8.365Y-1.895
X8.365Y-3.065
X8.395Y-2.385
X8.41Y-2.41
X8.41Y-2.41
X8.4175Y-1.8775
X8.42Y-2.005
X8.43Y-3.525
X8.465Y-2.475
X8.47Y-3.655
X8.47Y-3.835
X8.4725Y-1.7775
X8.475Y-3.685
X8.48Y-3.805
X8.495Y-3.735
X8.5225Y-1.7275
X8.565Y-1.65
X8.5725Y-1.6925
X8.5725Y-1.6925
X8.625Y-2.315
X8.625Y-2.45
X8.625Y-2.85
X8.655Y-4.19
X8.67Y-2.31
X8.67Y-2.445
X8.67Y-2.86
X8.675Y-1.845
X8.695Y-2.33
X8.6975Y-2.4525
X8.6975Y-2.8575
X8.7175Y-1.6875
X8.7175Y-1.7475
X8.7175Y-1.9375
X8.7185Y-2.4315
X8.7185Y-2.4965
X8.72Y-4.225
X8.74Y-2.325
X8.74Y-2.45
X8.74Y-2.855
X8.745Y-4.255
X8.7675Y-2.3225
X8.7675Y-2.4425
X8.7675Y-2.8325
X8.77Y-4.29
X8.7925Y-3.0775
X8.7975Y-2.0825
X8.805Y-1.62
X8.805Y-1.745
X8.815Y-3.025
X8.825Y-2.985
X8.83Y-2.945
X8.835Y-2.9
X8.8425Y-3.0675
X8.855Y-1.565
X8.855Y-1.755
X8.875Y-3.055
X8.875Y-3.055
X8.8825Y-2.2225
X8.905Y-3.065
X8.935Y-2.225
X8.94Y-3.06
X8.9575Y-2.2025
X8.9775Y-1.9075
X9.015Y-2.26
X9.0225Y-2.3675
X9.045Y-2.165
X9.045Y-2.55
X9.0575Y-2.3725
X9.075Y-2.52
X9.08Y-2.58
X9.0875Y-2.0175
X9.115Y-2.165
X9.1175Y-1.8375
X9.1225Y-2.5675
X9.125Y-1.79
X9.13Y-2.265
X9.15Y-1.865
T2
X8.665Y-3.24
X8.665Y-3.5353
X4.96Y-1.565
X4.96Y-2.165
X5.06Y-1.565
X5.06Y-2.165
X5.16Y-1.565
X5.16Y-2.165
X5.26Y-1.565
X5.26Y-2.165
X5.36Y-1.565
X5.36Y-2.165
X5.46Y-1.565
X5.46Y-2.165
X5.56Y-1.565
X5.56Y-2.165
X5.66Y-1.565
X5.66Y-2.165
X5.76Y-1.565
X5.76Y-2.165
X5.86Y-1.565
X5.86Y-2.165
X5.96Y-1.565
X5.96Y-2.165
X6.06Y-1.565
X6.06Y-2.165
X6.16Y-1.565
X6.16Y-2.165
X6.26Y-1.565
X6.26Y-2.165
X6.36Y-1.565
X6.36Y-2.165
X6.46Y-1.565
X6.46Y-2.165
X6.56Y-1.565
X6.56Y-2.165
X6.66Y-1.565
X6.66Y-2.165
X6.76Y-1.565
X6.76Y-2.165
X6.86Y-1.565
X6.86Y-2.165
X7.23Y-2.635
X7.23Y-3.235
X7.33Y-2.635
X7.33Y-3.235
X7.43Y-2.635
X7.43Y-3.235
X7.53Y-2.635
X7.53Y-3.235
X7.63Y-2.635
X7.63Y-3.235
X7.73Y-2.635
X7.73Y-3.235
X7.83Y-2.635
X7.83Y-3.235
X7.93Y-2.635
X7.93Y-3.235
X8.03Y-2.635
X8.03Y-3.235
X8.13Y-2.635
X8.13Y-3.235
X8.23Y-2.635
X8.23Y-3.235
X8.33Y-2.635
X8.33Y-3.235
X8.43Y-2.635
X8.43Y-3.235
X8.53Y-2.635
X8.53Y-3.235
X7.065Y-1.2047
X7.065Y-1.5
X5.46Y-2.635
X5.46Y-3.235
X5.56Y-2.635
X5.56Y-3.235
X5.66Y-2.635
X5.66Y-3.235
X5.76Y-2.635
X5.76Y-3.235
X5.86Y-2.635
X5.86Y-3.235
X5.96Y-2.635
X5.96Y-3.235
X6.06Y-2.635
X6.06Y-3.235
X6.16Y-2.635
X6.16Y-3.235
X6.26Y-2.635
X6.26Y-3.235
X6.36Y-2.635
X6.36Y-3.235
X6.46Y-2.635
X6.46Y-3.235
X6.56Y-2.635
X6.56Y-3.235
X6.66Y-2.635
X6.66Y-3.235
X6.76Y-2.635
X6.76Y-3.235
X6.985Y-3.15
X6.985Y-3.4453
X5.5647Y-1.2
X5.86Y-1.2
X7.26Y-1.565
X7.26Y-2.165
X7.36Y-1.565
X7.36Y-2.165
X7.46Y-1.565
X7.46Y-2.165
X7.56Y-1.565
X7.56Y-2.165
X7.66Y-1.565
X7.66Y-2.165
X7.76Y-1.565
X7.76Y-2.165
X7.86Y-1.565
X7.86Y-2.165
X7.96Y-1.565
X7.96Y-2.165
X8.06Y-1.565
X8.06Y-2.165
X8.16Y-1.565
X8.16Y-2.165
X8.26Y-1.565
X8.26Y-2.165
X8.36Y-1.565
X8.36Y-2.165
X8.46Y-1.565
X8.46Y-2.165
X8.56Y-1.565
X8.56Y-2.165
X8.96Y-0.9597
X8.96Y-1.255
T3
X9.21Y-1.565
X9.21Y-1.665
X9.21Y-1.765
X9.21Y-1.865
X9.21Y-1.965
X9.21Y-2.065
X9.21Y-2.165
X9.21Y-2.265
X9.21Y-2.365
X9.21Y-2.465
X9.21Y-2.565
X9.21Y-2.665
X9.21Y-2.765
X9.21Y-2.865
X9.21Y-2.965
X9.21Y-3.065
X9.21Y-3.165
X9.21Y-3.265
X9.21Y-3.365
X9.21Y-3.465
X9.21Y-3.565
X9.21Y-3.665
X9.21Y-3.765
X9.21Y-3.865
X9.21Y-3.965
X9.21Y-4.065
X9.21Y-4.165
X9.21Y-4.265
X9.21Y-4.365
X9.21Y-4.465
X9.21Y-4.565
X9.21Y-4.665
X9.21Y-4.765
X9.21Y-4.865
X9.21Y-4.965
X9.21Y-5.065
X9.31Y-1.565
X9.31Y-1.665
X9.31Y-1.765
X9.31Y-1.865
X9.31Y-1.965
X9.31Y-2.065
X9.31Y-2.165
X9.31Y-2.265
X9.31Y-2.365
X9.31Y-2.465
X9.31Y-2.565
X9.31Y-2.665
X9.31Y-2.765
X9.31Y-2.865
X9.31Y-2.965
X9.31Y-3.065
X9.31Y-3.165
X9.31Y-3.265
X9.31Y-3.365
X9.31Y-3.465
X9.31Y-3.565
X9.31Y-3.665
X9.31Y-3.765
X9.31Y-3.865
X9.31Y-3.965
X9.31Y-4.065
X9.31Y-4.165
X9.31Y-4.265
X9.31Y-4.365
X9.31Y-4.465
X9.31Y-4.565
X9.31Y-4.665
X9.31Y-4.765
X9.31Y-4.865
X9.31Y-4.965
X9.31Y-5.065
X9.21Y-1.065
X9.21Y-1.165
X9.21Y-1.265
X9.31Y-1.065
X9.31Y-1.165
X9.31Y-1.265
T0
M30
